<svg width="315" height="294" fill="none" xmlns="http://www.w3.org/2000/svg"><g clip-path="url(#clip0_697_1867)" fill-rule="evenodd" clip-rule="evenodd" fill="#0E473B"><path d="M15.058 108.883v184.496H0V117.956l10.039-6.049 5.019-3.024zm299.147 61.499v24.196l-106.408-61.499v-24.196l106.408 61.499zM58.224 188.529v23.188L15.06 187.52v-24.196l43.165 25.205zm43.166 78.638v24.196l-86.331-49.401v-25.204l86.331 50.409zm-49.189 26.212H15.059v-21.172L52.2 293.379zm49.189-135.096v24.197l-33.127-19.156-10.039-5.041-43.165-25.204v-24.196l5.019 3.024 48.185 28.229 33.127 18.147z"/><path d="M314.205 61.499v24.196l-18.069-10.082-35.135-20.163-53.204-31.254-85.327 49.4V293.38H104.4l-3.011-2.017V61.499l5.019-3.025 48.185-27.22 48.185-28.23L207.797 0l5.019 3.025 48.185 28.229 53.204 30.245zm-18.069 177.439l-42.161-25.205v-24.196l60.231 35.286v24.197l-18.07-10.082zm18.069 40.326v14.115h-18.069l-88.339-51.417v-24.196l106.408 61.498zm-69.266 14.115h-37.142v-21.172l37.142 21.172z"/><path d="M264.012 86.703V110.9l-56.215-32.261V54.44l56.215 32.262z"/></g><defs><clipPath id="clip0_697_1867"><path fill="#fff" d="M0 0h314.205v293.38H0z"/></clipPath></defs></svg>