<svg width="212" height="42" fill="none" xmlns="http://www.w3.org/2000/svg"><path d="M58.112 18.137c.514.02 1.173.041 1.976.062.803.02 1.606.03 2.409.03 1.008 0 1.966-.01 2.871-.03.906-.02 1.544-.031 1.915-.031 2.759 0 4.807.566 6.145 1.698 1.359 1.133 2.038 2.594 2.038 4.385 0 .741-.134 1.524-.401 2.347-.268.803-.731 1.554-1.39 2.254-.659.68-1.564 1.235-2.717 1.668-1.132.432-2.584.648-4.354.648h-3.088v-.617h2.779c1.297 0 2.285-.278 2.964-.834.7-.556 1.163-1.287 1.39-2.192.247-.906.37-1.884.37-2.934 0-1.956-.319-3.418-.957-4.385-.638-.968-1.74-1.451-3.304-1.451-.844 0-1.4.175-1.667.524-.247.35-.371 1.06-.371 2.131v15.193c0 .782.082 1.37.247 1.76.165.392.484.649.957.772.474.124 1.153.196 2.038.217V40a34.973 34.973 0 00-2.316-.062c-.947-.02-1.925-.03-2.933-.03-.865 0-1.699.01-2.502.03a30.5 30.5 0 00-2.1.062v-.618c.68-.04 1.184-.123 1.514-.247.35-.123.576-.37.68-.74.123-.371.184-.927.184-1.668V21.41c0-.762-.061-1.317-.185-1.667-.103-.37-.33-.618-.68-.741-.329-.144-.833-.227-1.512-.247v-.618zm18.192 0c.515.02 1.174.041 1.977.062.802.02 1.605.03 2.408.03 1.009 0 1.966-.01 2.872-.03.906-.02 1.544-.031 1.915-.031 1.853 0 3.376.226 4.57.68 1.215.431 2.12 1.05 2.717 1.852.597.803.896 1.75.896 2.841 0 .68-.134 1.38-.402 2.1-.267.7-.73 1.348-1.39 1.945-.658.597-1.564 1.091-2.717 1.483-1.132.37-2.583.555-4.354.555h-2.964v-.617h2.656c1.296 0 2.285-.227 2.964-.68.7-.473 1.163-1.09 1.39-1.852.247-.783.37-1.647.37-2.594 0-1.627-.319-2.883-.957-3.768-.638-.905-1.74-1.358-3.304-1.358-.844 0-1.4.175-1.668.524-.247.35-.37 1.06-.37 2.131v15.317c0 .74.061 1.297.185 1.667.124.37.35.618.68.741.35.124.854.206 1.512.247V40a25.667 25.667 0 00-1.976-.062 101.99 101.99 0 00-5.033 0c-.803 0-1.462.02-1.977.062v-.618c.68-.04 1.184-.123 1.513-.247.35-.123.577-.37.68-.74.123-.371.185-.927.185-1.668V21.41c0-.762-.062-1.317-.185-1.667-.103-.37-.33-.618-.68-.741-.329-.144-.833-.227-1.513-.247v-.618zm5.528 10.962c.967.041 1.77.093 2.409.155.658.04 1.214.082 1.667.123a16.7 16.7 0 011.266.155c1.709.164 2.965.566 3.767 1.204.824.618 1.37 1.565 1.637 2.841l.71 3.18c.186.845.381 1.452.587 1.823.227.35.546.514.957.494.289 0 .536-.072.742-.217.205-.164.411-.38.617-.648l.432.37c-.514.639-1.06 1.112-1.636 1.421-.577.288-1.307.432-2.193.432-.988 0-1.822-.226-2.501-.679-.68-.474-1.143-1.359-1.39-2.656l-.586-3.088a16.664 16.664 0 00-.587-2.285c-.206-.659-.494-1.173-.865-1.544-.37-.37-.916-.556-1.636-.556h-3.335l-.062-.525zm25.314-11.394c2.1 0 3.942.442 5.528 1.328 1.585.885 2.81 2.161 3.674 3.829.885 1.647 1.328 3.654 1.328 6.021 0 2.306-.453 4.323-1.359 6.053-.885 1.729-2.13 3.077-3.736 4.045-1.585.968-3.407 1.451-5.466 1.451-2.1 0-3.942-.442-5.527-1.328-1.586-.885-2.82-2.161-3.706-3.829-.865-1.667-1.297-3.674-1.297-6.021 0-2.306.453-4.323 1.359-6.053.906-1.729 2.151-3.077 3.736-4.045 1.585-.968 3.407-1.451 5.466-1.451zm-.124.556c-1.214 0-2.274.463-3.18 1.39-.885.925-1.575 2.202-2.069 3.828-.494 1.627-.741 3.51-.741 5.651 0 2.182.278 4.087.834 5.713.555 1.606 1.307 2.851 2.254 3.736.947.865 1.986 1.297 3.119 1.297 1.214 0 2.264-.463 3.149-1.39.906-.925 1.606-2.202 2.1-3.828.494-1.647.741-3.53.741-5.651 0-2.203-.278-4.107-.833-5.713-.556-1.606-1.308-2.841-2.255-3.706-.926-.885-1.966-1.328-3.119-1.328zm12.031-.124c.514.02 1.173.041 1.976.062.803.02 1.606.03 2.409.03 1.008 0 1.966-.01 2.871-.03.906-.02 1.544-.031 1.915-.031 2.759 0 4.807.566 6.145 1.698 1.359 1.133 2.038 2.594 2.038 4.385 0 .741-.134 1.524-.401 2.347-.268.803-.731 1.554-1.39 2.254-.659.68-1.564 1.235-2.717 1.668-1.133.432-2.584.648-4.354.648h-3.088v-.617h2.779c1.297 0 2.285-.278 2.964-.834.7-.556 1.163-1.287 1.39-2.192.247-.906.37-1.884.37-2.934 0-1.956-.319-3.418-.957-4.385-.638-.968-1.739-1.451-3.304-1.451-.844 0-1.4.175-1.667.524-.248.35-.371 1.06-.371 2.131v15.193c0 .782.082 1.37.247 1.76.165.392.484.649.957.772.474.124 1.153.196 2.038.217V40a34.973 34.973 0 00-2.316-.062c-.947-.02-1.924-.03-2.933-.03-.865 0-1.699.01-2.502.03-.802 0-1.502.02-2.099.062v-.618c.679-.04 1.183-.123 1.513-.247.35-.123.576-.37.679-.74.124-.371.185-.927.185-1.668V21.41c0-.762-.061-1.317-.185-1.667-.103-.37-.329-.618-.679-.741-.33-.144-.834-.227-1.513-.247v-.618zm34.343 0a52.731 52.731 0 00-.186 2.47c-.02.783-.031 1.38-.031 1.791 0 .392.011.772.031 1.143.021.35.041.648.062.895h-.71c-.165-1.42-.433-2.532-.803-3.335-.371-.823-.875-1.4-1.513-1.729-.618-.35-1.431-.525-2.44-.525h-1.698c-.618 0-1.091.052-1.421.155a1.02 1.02 0 00-.679.648c-.103.33-.154.834-.154 1.513v15.81c0 .66.051 1.164.154 1.514.124.33.35.545.679.648.33.103.803.155 1.421.155h1.76c1.05 0 1.925-.196 2.625-.587.72-.391 1.297-1.03 1.729-1.915.432-.905.752-2.14.957-3.705h.711a26.521 26.521 0 00-.093 2.47c0 .433.01 1.06.031 1.884.041.823.103 1.678.185 2.563a91.44 91.44 0 00-3.551-.062c-1.318-.02-2.491-.03-3.52-.03h-1.884c-.762 0-1.596.01-2.501.03-.886 0-1.791.01-2.718.031-.906 0-1.77.01-2.594.031v-.618c.68-.04 1.184-.123 1.513-.247.35-.123.577-.37.68-.74.123-.371.185-.927.185-1.668V21.41c0-.762-.062-1.317-.185-1.667-.103-.37-.33-.618-.68-.741-.329-.144-.833-.227-1.513-.247v-.618l2.594.062c.927 0 1.832.01 2.718.03h7.596c1.215-.02 2.296-.05 3.243-.092zm-4.972 10.56v.618h-5.497v-.618h5.497zm.895-4.075c-.082 1.173-.123 2.069-.123 2.686.02.618.031 1.184.031 1.699 0 .514.01 1.08.031 1.698.02.618.072 1.513.154 2.687h-.71a9.952 9.952 0 00-.494-1.977c-.206-.638-.546-1.142-1.019-1.513-.453-.39-1.112-.587-1.977-.587v-.617c.639 0 1.153-.134 1.544-.401.412-.268.741-.608.989-1.02a5.67 5.67 0 00.555-1.327 9.41 9.41 0 00.309-1.328h.71zm15.409-6.485v.618c-.699.02-1.235.103-1.605.247-.35.123-.587.37-.711.74-.123.35-.185.906-.185 1.668v15.564c0 .659.052 1.163.155 1.513.123.33.339.545.648.648.309.103.752.155 1.328.155h1.76c.803 0 1.503-.144 2.1-.433a4.521 4.521 0 001.606-1.266c.453-.556.823-1.235 1.111-2.038.289-.823.494-1.75.618-2.779h.71c-.062.68-.092 1.565-.092 2.656 0 .453.01 1.101.03 1.945.042.844.103 1.72.186 2.625a91.44 91.44 0 00-3.551-.062c-1.318-.02-2.491-.03-3.521-.03h-1.883c-.762 0-1.596.01-2.502.03-.885 0-1.791.01-2.717.031-.906 0-1.771.01-2.594.031v-.618c.679-.04 1.184-.123 1.513-.247.35-.123.576-.37.679-.74.124-.371.186-.927.186-1.668V21.41c0-.762-.062-1.317-.186-1.667-.103-.37-.329-.618-.679-.741-.329-.144-.834-.227-1.513-.247v-.618c.515.02 1.173.041 1.976.062a101.549 101.549 0 005.095 0c.824-.02 1.503-.042 2.038-.062zm17.681 0v.618c-.7.02-1.236.103-1.606.247-.35.123-.587.37-.71.74-.124.35-.186.906-.186 1.668v15.564c0 .659.052 1.163.155 1.513.123.33.339.545.648.648.309.103.752.155 1.328.155h1.76c.803 0 1.503-.144 2.1-.433a4.521 4.521 0 001.606-1.266c.453-.556.823-1.235 1.111-2.038.289-.823.494-1.75.618-2.779h.71c-.062.68-.092 1.565-.092 2.656 0 .453.01 1.101.03 1.945.042.844.103 1.72.186 2.625a91.44 91.44 0 00-3.551-.062c-1.318-.02-2.491-.03-3.521-.03h-1.883c-.762 0-1.596.01-2.502.03-.885 0-1.791.01-2.717.031-.906 0-1.771.01-2.594.031v-.618c.679-.04 1.184-.123 1.513-.247.35-.123.576-.37.679-.74.124-.371.186-.927.186-1.668V21.41c0-.762-.062-1.317-.186-1.667-.103-.37-.329-.618-.679-.741-.329-.144-.834-.227-1.513-.247v-.618c.515.02 1.173.041 1.976.062a101.549 101.549 0 005.095 0c.824-.02 1.503-.042 2.039-.062zm18.359-.093l7.504 19.362c.309.741.638 1.256.988 1.544.37.268.71.412 1.019.432V40a25.927 25.927 0 00-1.946-.062 97.05 97.05 0 00-4.817 0c-.782 0-1.42.02-1.914.062v-.618c1.05-.04 1.719-.216 2.007-.525.288-.329.226-1.019-.185-2.069l-5.435-14.667.556-.68-4.941 12.815c-.391 1.03-.628 1.874-.711 2.532-.082.66-.03 1.174.155 1.545.185.37.494.638.926.802.433.145.968.227 1.606.247V40a30.702 30.702 0 00-1.915-.062c-.617-.02-1.235-.03-1.852-.03-.453 0-.886.01-1.297.03-.391 0-.741.02-1.05.062v-.618c.453-.102.895-.37 1.328-.802.453-.433.885-1.184 1.297-2.255l7.071-18.28c.247.02.515.03.803.03.288 0 .556-.01.803-.03zm2.686 13.063v.617h-9.202l.309-.617h8.893z" fill="#fff"/><g clip-path="url(#clip0_607_13877)" fill-rule="evenodd" clip-rule="evenodd" fill="#C3F831"><path d="M2.684 15.555V41.91H.534V16.85l1.433-.864.717-.432zM45.42 24.34v3.457L30.219 19.01v-3.456l15.2 8.785zM8.85 26.933v3.312L2.684 26.79v-3.457l6.166 3.6zm6.167 11.233v3.457L2.684 34.566v-3.601l12.333 7.201zM7.99 41.911H2.684v-3.024L7.99 41.91z"/><path d="M15.017 22.612v3.457l-4.733-2.737-1.434-.72-6.166-3.6v-3.457l.717.432 6.883 4.033 4.733 2.592zM45.42 8.786v3.456l-2.581-1.44-5.02-2.88-7.6-4.465-12.19 7.057V41.91h-2.581l-.43-.288V8.786l.717-.433 6.883-3.888L29.502.432 30.219 0l.717.432 6.883 4.033 7.6 4.32zm-2.582 25.347l-6.023-3.6v-3.457l8.604 5.041v3.457l-2.581-1.44zm2.582 5.762v2.016h-2.581l-12.62-7.345v-3.457l15.2 8.786zm-9.895 2.016h-5.306v-3.024l5.306 3.024z"/><path d="M38.25 12.386v3.457l-8.031-4.609V7.777l8.03 4.61z"/></g><defs><clipPath id="clip0_607_13877"><path fill="#fff" transform="translate(.533)" d="M0 0h44.886v41.911H0z"/></clipPath></defs></svg>