<svg width="199" height="43" viewBox="0 0 199 43" fill="none" xmlns="http://www.w3.org/2000/svg">
<path d="M57.4188 18.928C57.8855 18.9466 58.5108 18.9653 59.2948 18.984C60.0975 19.0026 60.8908 19.012 61.6748 19.012C62.5708 19.012 63.4388 19.0026 64.2788 18.984C65.1188 18.9653 65.7161 18.956 66.0708 18.956C68.6655 18.956 70.6068 19.4693 71.8948 20.496C73.1828 21.5226 73.8268 22.848 73.8268 24.472C73.8268 25.144 73.6961 25.8533 73.4348 26.6C73.1735 27.328 72.7255 28.0093 72.0908 28.644C71.4748 29.26 70.6255 29.764 69.5428 30.156C68.4601 30.548 67.0975 30.744 65.4548 30.744H62.5988V30.184H65.1748C66.2761 30.184 67.1068 29.932 67.6668 29.428C68.2455 28.924 68.6375 28.2613 68.8428 27.44C69.0668 26.6186 69.1788 25.732 69.1788 24.78C69.1788 23.0066 68.9175 21.6813 68.3948 20.804C67.8721 19.9266 66.9761 19.488 65.7068 19.488C64.9788 19.488 64.5028 19.6466 64.2788 19.964C64.0735 20.2813 63.9708 20.9253 63.9708 21.896V35.616C63.9708 36.344 64.0455 36.8853 64.1948 37.24C64.3441 37.5946 64.6335 37.828 65.0628 37.94C65.4921 38.052 66.1268 38.1173 66.9668 38.136V38.752C66.3881 38.7333 65.6415 38.7146 64.7268 38.696C63.8121 38.6773 62.8508 38.668 61.8428 38.668C61.0401 38.668 60.2561 38.6773 59.4908 38.696C58.7255 38.7146 58.0348 38.7333 57.4188 38.752V38.192C58.0161 38.1546 58.4641 38.08 58.7628 37.968C59.0615 37.856 59.2575 37.632 59.3508 37.296C59.4628 36.96 59.5188 36.456 59.5188 35.784V21.896C59.5188 21.2053 59.4628 20.7013 59.3508 20.384C59.2575 20.048 59.0521 19.824 58.7348 19.712C58.4361 19.5813 57.9975 19.5066 57.4188 19.488V18.928ZM74.3796 18.928C74.8462 18.9466 75.4716 18.9653 76.2556 18.984C77.0582 19.0026 77.8516 19.012 78.6356 19.012C79.5316 19.012 80.3996 19.0026 81.2396 18.984C82.0796 18.9653 82.6769 18.956 83.0316 18.956C84.7676 18.956 86.2049 19.152 87.3436 19.544C88.5009 19.9173 89.3596 20.468 89.9196 21.196C90.4982 21.924 90.7876 22.8013 90.7876 23.828C90.7876 24.4626 90.6569 25.1066 90.3956 25.76C90.1342 26.3946 89.6862 26.992 89.0516 27.552C88.4356 28.0933 87.5862 28.532 86.5036 28.868C85.4209 29.1853 84.0582 29.344 82.4156 29.344H79.7276V28.784H82.1356C83.2369 28.784 84.0676 28.5786 84.6276 28.168C85.2062 27.7386 85.5982 27.1786 85.8036 26.488C86.0276 25.7786 86.1396 24.9946 86.1396 24.136C86.1396 22.6613 85.8782 21.5226 85.3556 20.72C84.8329 19.8986 83.9369 19.488 82.6676 19.488C81.9396 19.488 81.4636 19.6466 81.2396 19.964C81.0342 20.2813 80.9316 20.9253 80.9316 21.896V35.784C80.9316 36.456 80.9782 36.96 81.0716 37.296C81.1836 37.632 81.3889 37.856 81.6876 37.968C81.9862 38.08 82.4342 38.1546 83.0316 38.192V38.752C82.5276 38.7146 81.8929 38.696 81.1276 38.696C80.3622 38.6773 79.5876 38.668 78.8036 38.668C77.9076 38.668 77.0582 38.6773 76.2556 38.696C75.4716 38.696 74.8462 38.7146 74.3796 38.752V38.192C74.9769 38.1546 75.4249 38.08 75.7236 37.968C76.0222 37.856 76.2182 37.632 76.3116 37.296C76.4236 36.96 76.4796 36.456 76.4796 35.784V21.896C76.4796 21.2053 76.4236 20.7013 76.3116 20.384C76.2182 20.048 76.0129 19.824 75.6956 19.712C75.3969 19.5813 74.9582 19.5066 74.3796 19.488V18.928ZM79.6716 28.868C80.4742 28.8866 81.1649 28.924 81.7436 28.98C82.3409 29.036 82.8636 29.092 83.3116 29.148C83.7596 29.1853 84.1609 29.2133 84.5156 29.232C86.2142 29.3813 87.4649 29.7453 88.2676 30.324C89.0889 30.9026 89.6209 31.7706 89.8636 32.928L90.5076 35.812C90.6756 36.5586 90.8529 37.0813 91.0396 37.38C91.2262 37.6786 91.4969 37.828 91.8516 37.828C92.0942 37.8093 92.2902 37.7533 92.4396 37.66C92.6076 37.548 92.7849 37.3893 92.9716 37.184L93.3636 37.52C92.8596 38.0986 92.3182 38.5093 91.7396 38.752C91.1609 39.0133 90.4609 39.144 89.6396 39.144C88.6316 39.144 87.8009 38.9293 87.1476 38.5C86.4942 38.0706 86.0649 37.2773 85.8596 36.12L85.3556 33.32C85.2249 32.536 85.0662 31.8546 84.8796 31.276C84.6929 30.6786 84.4316 30.212 84.0956 29.876C83.7782 29.5213 83.3302 29.344 82.7516 29.344H79.7276L79.6716 28.868ZM103.09 18.536C105.069 18.536 106.796 18.9373 108.27 19.74C109.764 20.5426 110.921 21.7 111.742 23.212C112.564 24.7053 112.974 26.5253 112.974 28.672C112.974 30.7626 112.554 32.592 111.714 34.16C110.874 35.728 109.698 36.9506 108.186 37.828C106.693 38.7053 104.985 39.144 103.062 39.144C101.084 39.144 99.3476 38.7426 97.8543 37.94C96.3796 37.1373 95.2316 35.98 94.4103 34.468C93.589 32.956 93.1783 31.136 93.1783 29.008C93.1783 26.9173 93.5983 25.088 94.4383 23.52C95.297 21.952 96.4636 20.7293 97.9383 19.852C99.4316 18.9746 101.149 18.536 103.09 18.536ZM102.978 19.04C101.933 19.04 101.018 19.46 100.234 20.3C99.469 21.14 98.8716 22.2973 98.4423 23.772C98.0316 25.2466 97.8263 26.9546 97.8263 28.896C97.8263 30.8746 98.0596 32.6013 98.5263 34.076C99.0116 35.532 99.6556 36.6613 100.458 37.464C101.28 38.248 102.185 38.64 103.174 38.64C104.22 38.64 105.125 38.22 105.89 37.38C106.674 36.54 107.272 35.3826 107.682 33.908C108.112 32.4146 108.326 30.7066 108.326 28.784C108.326 26.7866 108.084 25.06 107.598 23.604C107.132 22.148 106.488 21.028 105.666 20.244C104.864 19.4413 103.968 19.04 102.978 19.04ZM114.071 18.928C114.537 18.9466 115.163 18.9653 115.947 18.984C116.749 19.0026 117.543 19.012 118.327 19.012C119.223 19.012 120.091 19.0026 120.931 18.984C121.771 18.9653 122.368 18.956 122.723 18.956C125.317 18.956 127.259 19.4693 128.547 20.496C129.835 21.5226 130.479 22.848 130.479 24.472C130.479 25.144 130.348 25.8533 130.087 26.6C129.825 27.328 129.377 28.0093 128.743 28.644C128.127 29.26 127.277 29.764 126.195 30.156C125.112 30.548 123.749 30.744 122.107 30.744H119.251V30.184H121.827C122.928 30.184 123.759 29.932 124.319 29.428C124.897 28.924 125.289 28.2613 125.495 27.44C125.719 26.6186 125.831 25.732 125.831 24.78C125.831 23.0066 125.569 21.6813 125.047 20.804C124.524 19.9266 123.628 19.488 122.359 19.488C121.631 19.488 121.155 19.6466 120.931 19.964C120.725 20.2813 120.623 20.9253 120.623 21.896V35.616C120.623 36.344 120.697 36.8853 120.847 37.24C120.996 37.5946 121.285 37.828 121.715 37.94C122.144 38.052 122.779 38.1173 123.619 38.136V38.752C123.04 38.7333 122.293 38.7146 121.379 38.696C120.464 38.6773 119.503 38.668 118.495 38.668C117.692 38.668 116.908 38.6773 116.143 38.696C115.377 38.7146 114.687 38.7333 114.071 38.752V38.192C114.668 38.1546 115.116 38.08 115.415 37.968C115.713 37.856 115.909 37.632 116.003 37.296C116.115 36.96 116.171 36.456 116.171 35.784V21.896C116.171 21.2053 116.115 20.7013 116.003 20.384C115.909 20.048 115.704 19.824 115.387 19.712C115.088 19.5813 114.649 19.5066 114.071 19.488V18.928ZM146.011 18.928C145.937 19.7493 145.881 20.5426 145.843 21.308C145.825 22.0733 145.815 22.6613 145.815 23.072C145.815 23.4453 145.825 23.8 145.843 24.136C145.862 24.472 145.881 24.752 145.899 24.976H145.255C145.069 23.6133 144.779 22.54 144.387 21.756C143.995 20.9533 143.482 20.3933 142.847 20.076C142.231 19.74 141.503 19.572 140.663 19.572H139.515C138.974 19.572 138.563 19.6186 138.283 19.712C138.003 19.8053 137.817 19.992 137.723 20.272C137.63 20.552 137.583 20.9813 137.583 21.56V36.12C137.583 36.6986 137.63 37.128 137.723 37.408C137.817 37.688 138.003 37.8746 138.283 37.968C138.563 38.0613 138.974 38.108 139.515 38.108H140.887C141.727 38.108 142.465 37.9306 143.099 37.576C143.753 37.2026 144.303 36.5773 144.751 35.7C145.218 34.8226 145.573 33.6373 145.815 32.144H146.459C146.403 32.7413 146.375 33.5253 146.375 34.496C146.375 34.9253 146.385 35.532 146.403 36.316C146.422 37.1 146.478 37.912 146.571 38.752C145.619 38.7146 144.546 38.696 143.351 38.696C142.157 38.6773 141.093 38.668 140.159 38.668C139.693 38.668 139.095 38.668 138.367 38.668C137.639 38.668 136.855 38.6773 136.015 38.696C135.175 38.696 134.326 38.7053 133.467 38.724C132.609 38.724 131.797 38.7333 131.031 38.752V38.192C131.629 38.1546 132.077 38.08 132.375 37.968C132.674 37.856 132.87 37.632 132.963 37.296C133.075 36.96 133.131 36.456 133.131 35.784V21.896C133.131 21.2053 133.075 20.7013 132.963 20.384C132.87 20.048 132.665 19.824 132.347 19.712C132.049 19.5813 131.61 19.5066 131.031 19.488V18.928C131.797 18.9466 132.609 18.9653 133.467 18.984C134.326 18.984 135.175 18.9933 136.015 19.012C136.855 19.012 137.639 19.012 138.367 19.012C139.095 19.012 139.693 19.012 140.159 19.012C141.018 19.012 141.989 19.012 143.071 19.012C144.173 18.9933 145.153 18.9653 146.011 18.928ZM141.643 28.504C141.643 28.504 141.643 28.5973 141.643 28.784C141.643 28.9706 141.643 29.064 141.643 29.064H136.743C136.743 29.064 136.743 28.9706 136.743 28.784C136.743 28.5973 136.743 28.504 136.743 28.504H141.643ZM142.455 24.808C142.381 25.872 142.343 26.684 142.343 27.244C142.362 27.804 142.371 28.3173 142.371 28.784C142.371 29.2506 142.381 29.764 142.399 30.324C142.418 30.884 142.465 31.696 142.539 32.76H141.895C141.802 32.1066 141.625 31.5 141.363 30.94C141.121 30.38 140.766 29.932 140.299 29.596C139.833 29.2413 139.226 29.064 138.479 29.064V28.504C139.039 28.504 139.515 28.392 139.907 28.168C140.299 27.9253 140.617 27.6173 140.859 27.244C141.121 26.852 141.326 26.4413 141.475 26.012C141.625 25.5826 141.737 25.1813 141.811 24.808H142.455ZM156.758 18.928V19.488C156.123 19.5066 155.638 19.5813 155.302 19.712C154.984 19.824 154.77 20.048 154.658 20.384C154.546 20.7013 154.49 21.2053 154.49 21.896V36.12C154.49 36.6986 154.527 37.128 154.602 37.408C154.695 37.688 154.863 37.8746 155.106 37.968C155.367 38.0613 155.75 38.108 156.254 38.108H157.626C158.26 38.108 158.858 37.9586 159.418 37.66C159.978 37.3613 160.482 36.9413 160.93 36.4C161.378 35.84 161.751 35.1773 162.05 34.412C162.348 33.6466 162.572 32.7973 162.722 31.864H163.366C163.31 32.4986 163.282 33.32 163.282 34.328C163.282 34.7573 163.291 35.3826 163.31 36.204C163.328 37.0253 163.384 37.8746 163.478 38.752C162.526 38.7146 161.452 38.696 160.258 38.696C159.063 38.6773 157.999 38.668 157.066 38.668C156.599 38.668 156.002 38.668 155.274 38.668C154.546 38.668 153.762 38.6773 152.922 38.696C152.082 38.696 151.232 38.7053 150.374 38.724C149.515 38.724 148.703 38.7333 147.938 38.752V38.192C148.535 38.1546 148.983 38.08 149.282 37.968C149.58 37.856 149.776 37.632 149.87 37.296C149.982 36.96 150.038 36.456 150.038 35.784V21.896C150.038 21.2053 149.982 20.7013 149.87 20.384C149.776 20.048 149.571 19.824 149.254 19.712C148.955 19.5813 148.516 19.5066 147.938 19.488V18.928C148.404 18.9466 149.03 18.9653 149.814 18.984C150.616 19.0026 151.466 19.012 152.362 19.012C153.183 19.012 153.986 19.0026 154.77 18.984C155.572 18.9653 156.235 18.9466 156.758 18.928ZM173.035 18.928V19.488C172.4 19.5066 171.915 19.5813 171.579 19.712C171.261 19.824 171.047 20.048 170.935 20.384C170.823 20.7013 170.767 21.2053 170.767 21.896V36.12C170.767 36.6986 170.804 37.128 170.879 37.408C170.972 37.688 171.14 37.8746 171.383 37.968C171.644 38.0613 172.027 38.108 172.531 38.108H173.903C174.537 38.108 175.135 37.9586 175.695 37.66C176.255 37.3613 176.759 36.9413 177.207 36.4C177.655 35.84 178.028 35.1773 178.327 34.412C178.625 33.6466 178.849 32.7973 178.999 31.864H179.643C179.587 32.4986 179.559 33.32 179.559 34.328C179.559 34.7573 179.568 35.3826 179.587 36.204C179.605 37.0253 179.661 37.8746 179.755 38.752C178.803 38.7146 177.729 38.696 176.535 38.696C175.34 38.6773 174.276 38.668 173.343 38.668C172.876 38.668 172.279 38.668 171.551 38.668C170.823 38.668 170.039 38.6773 169.199 38.696C168.359 38.696 167.509 38.7053 166.651 38.724C165.792 38.724 164.98 38.7333 164.215 38.752V38.192C164.812 38.1546 165.26 38.08 165.559 37.968C165.857 37.856 166.053 37.632 166.147 37.296C166.259 36.96 166.315 36.456 166.315 35.784V21.896C166.315 21.2053 166.259 20.7013 166.147 20.384C166.053 20.048 165.848 19.824 165.531 19.712C165.232 19.5813 164.793 19.5066 164.215 19.488V18.928C164.681 18.9466 165.307 18.9653 166.091 18.984C166.893 19.0026 167.743 19.012 168.639 19.012C169.46 19.012 170.263 19.0026 171.047 18.984C171.849 18.9653 172.512 18.9466 173.035 18.928ZM189.844 18.872L196.648 36.4C196.909 37.072 197.199 37.5386 197.516 37.8C197.852 38.0426 198.151 38.1733 198.412 38.192V38.752C197.852 38.7146 197.189 38.696 196.424 38.696C195.677 38.6773 194.921 38.668 194.156 38.668C193.297 38.668 192.485 38.6773 191.72 38.696C190.955 38.696 190.348 38.7146 189.9 38.752V38.192C190.852 38.1546 191.449 37.996 191.692 37.716C191.953 37.4173 191.897 36.792 191.524 35.84L186.764 22.82L187.268 22.092L183.012 33.18C182.601 34.2066 182.349 35.0466 182.256 35.7C182.181 36.3533 182.228 36.8573 182.396 37.212C182.583 37.5666 182.872 37.8186 183.264 37.968C183.675 38.0986 184.16 38.1733 184.72 38.192V38.752C184.104 38.7146 183.516 38.696 182.956 38.696C182.396 38.6773 181.827 38.668 181.248 38.668C180.837 38.668 180.445 38.6773 180.072 38.696C179.717 38.696 179.4 38.7146 179.12 38.752V38.192C179.512 38.1173 179.913 37.8653 180.324 37.436C180.735 37.0066 181.136 36.2786 181.528 35.252L187.912 18.872C188.211 18.8906 188.528 18.9 188.864 18.9C189.219 18.9 189.545 18.8906 189.844 18.872ZM191.804 30.688V31.248H183.46L183.74 30.688H191.804Z" fill="#001703"/>
<g clip-path="url(#clip0_743_236)">
<path fill-rule="evenodd" clip-rule="evenodd" d="M2.15111 16.3066V42.6633H0V17.6029L1.43407 16.7387L2.15111 16.3066Z" fill="#0F4E41"/>
<path fill-rule="evenodd" clip-rule="evenodd" d="M8.3169 27.6846V30.9972L2.15039 27.5406V24.084L8.3169 27.6846Z" fill="#0F4E41"/>
<path fill-rule="evenodd" clip-rule="evenodd" d="M14.4834 38.9181V42.3747L2.15039 35.3174V31.7168L14.4834 38.9181Z" fill="#0F4E41"/>
<path fill-rule="evenodd" clip-rule="evenodd" d="M7.45645 42.6632H2.15039V39.6387L7.45645 42.6632Z" fill="#0F4E41"/>
<path fill-rule="evenodd" clip-rule="evenodd" d="M14.4834 23.3639V26.8205L9.75097 24.084L8.3169 23.3639L2.15039 19.7632V16.3066L2.86743 16.7387L9.75097 20.7714L14.4834 23.3639Z" fill="#0F4E41"/>
<path fill-rule="evenodd" clip-rule="evenodd" d="M44.8867 9.5375V12.9941L42.3054 11.5539L37.2861 8.67334L29.6855 4.20856L17.4959 11.2658V42.6633H14.9146L14.4844 42.3753V9.5375L15.2014 9.10542L22.085 5.21674L28.9685 1.18403L29.6855 0.751953L30.4026 1.18403L37.2861 5.21674L44.8867 9.5375Z" fill="#0F4E41"/>
<path fill-rule="evenodd" clip-rule="evenodd" d="M44.8867 25.0922V28.5488L29.6855 19.7632V16.3066L44.8867 25.0922Z" fill="#0F4E41"/>
<path fill-rule="evenodd" clip-rule="evenodd" d="M42.3043 34.8854L36.2812 31.2847V27.8281L44.8857 32.869V36.3256L42.3043 34.8854Z" fill="#0F4E41"/>
<path fill-rule="evenodd" clip-rule="evenodd" d="M44.8867 40.6469V42.6632H42.3054L29.6855 35.3179V31.8613L44.8867 40.6469Z" fill="#0F4E41"/>
<path fill-rule="evenodd" clip-rule="evenodd" d="M34.9916 42.6632H29.6855V39.6387L34.9916 42.6632Z" fill="#0F4E41"/>
<path fill-rule="evenodd" clip-rule="evenodd" d="M37.7163 13.1381V16.5947L29.6855 11.9859V8.5293L37.7163 13.1381Z" fill="#0F4E41"/>
</g>
<defs>
<clipPath id="clip0_743_236">
<rect width="44.8864" height="41.9114" fill="white" transform="translate(0 0.751953)"/>
</clipPath>
</defs>
</svg>
