<svg width="154" height="41" viewBox="0 0 154 41" fill="none" xmlns="http://www.w3.org/2000/svg">
<path d="M50.0371 15.457V32.0498H45.998V15.457H50.0371Z" fill="#0F4E41"/>
<path d="M52.582 15.457H57.617L61.8773 25.7183H62.0986L66.3589 15.457H71.3938V32.0498H67.4655V21.8431H67.2995L63.2605 31.9406H60.7154L56.6764 21.7885H56.5104V32.0498H52.582V15.457Z" fill="#0F4E41"/>
<path d="M73.9395 32.0498V15.457H80.8556C82.1281 15.457 83.1794 15.6754 84.12 16.1666C85.0606 16.6578 85.7245 17.3128 86.2225 18.1861C86.7204 19.0594 86.9417 20.0419 86.9417 21.1881C86.9417 22.3343 86.6651 23.3168 86.1671 24.1901C85.6692 25.0634 84.9499 25.7183 84.0093 26.155C83.0687 26.6462 81.9621 26.8645 80.6896 26.8645H76.4293V23.6988H79.9703C80.5789 23.6988 81.0769 23.5897 81.5195 23.3713C81.9621 23.153 82.2388 22.8801 82.4601 22.498C82.6814 22.116 82.7921 21.6793 82.7921 21.1881C82.7921 20.6968 82.6814 20.2056 82.4601 19.8781C82.2388 19.4961 81.9068 19.2231 81.5195 19.0048C81.0769 18.7865 80.5789 18.6773 79.9703 18.6773H77.9785V32.0498H73.9395Z" fill="#0F4E41"/>
<path d="M88.9883 32.0498V15.457H100.718V18.7319H93.0826V22.116H100.165V25.3908H93.0826V28.7749H100.718V32.0498H88.9883Z" fill="#0F4E41"/>
<path d="M103.264 32.0498V15.457H110.18C111.452 15.457 112.504 15.6754 113.444 16.112C114.385 16.5487 115.049 17.2036 115.547 18.0224C116.045 18.8411 116.266 19.8235 116.266 20.9698C116.266 22.116 115.989 23.0984 115.491 23.9171C114.993 24.7359 114.274 25.3363 113.334 25.7729C112.393 26.2096 111.286 26.3733 110.014 26.3733H105.643V23.2076H109.295C109.903 23.2076 110.401 23.153 110.844 22.9893C111.231 22.8255 111.563 22.6072 111.784 22.2797C112.006 21.9522 112.116 21.5156 112.116 21.0243C112.116 20.5331 112.006 20.0965 111.784 19.769C111.563 19.4415 111.231 19.1686 110.844 19.0048C110.401 18.8411 109.903 18.7319 109.295 18.7319H107.303V32.0498H103.264ZM112.725 24.463L116.93 32.0498H112.504L108.409 24.463H112.725Z" fill="#0F4E41"/>
<path d="M122.629 15.457V32.0498H118.59V15.457H122.629Z" fill="#0F4E41"/>
<path d="M128.769 32.0498H124.398L130.042 15.457H135.464L141.163 32.0498H136.792L132.864 19.6598H132.753L128.769 32.0498ZM128.216 25.5H137.345V28.5566H128.216V25.5Z" fill="#0F4E41"/>
<path d="M142.988 32.0498V15.457H147.027V28.7749H153.999V32.0498H142.988Z" fill="#0F4E41"/>
<path d="M5.07844 19.9824V41.0007H0V24.5316L5.07844 19.9824Z" fill="#D9D9D9"/>
<path d="M5.07812 19.9824V41.0007H10.0982V23.4951L5.07812 19.9824Z" fill="#0F4E41"/>
<path d="M15.0019 11.459V40.9997H8.28906V17.6781L15.0019 11.459Z" fill="#D9D9D9"/>
<path d="M15.002 11.459V40.9997H21.7732V16.1233L15.002 11.459Z" fill="#0F4E41"/>
<path d="M27.4929 0V41H18.3867V9.38624L27.4929 0Z" fill="#D9D9D9"/>
<path d="M27.4922 0V41H36.54V9.38624L27.4922 0Z" fill="#0F4E41"/>
</svg>
