<svg width="149" height="33" viewBox="0 0 149 33" fill="none" xmlns="http://www.w3.org/2000/svg">
<path d="M13.9203 18.2734H0V32.1937H13.9203V18.2734Z" fill="#0F4E41"/>
<path d="M6.87418 13.2991C10.5369 13.2991 13.5062 10.3299 13.5062 6.66715C13.5062 3.0044 10.5369 0.0351562 6.87418 0.0351562C3.21143 0.0351562 0.242188 3.0044 0.242188 6.66715C0.242188 10.3299 3.21143 13.2991 6.87418 13.2991Z" fill="#0F4E41"/>
<path d="M24.8346 0H19.9297V32.4691H24.8346V0Z" fill="#0F4E41"/>
<path d="M13.9203 18.2734L0 32.1937H13.9203V18.2734Z" fill="#0F4E41"/>
<path d="M35.8652 25.1139V7.34961H43.2796C44.5969 7.34961 45.726 7.53779 46.6292 7.91415C47.5325 8.29052 48.2099 8.81743 48.6616 9.49488C49.1132 10.1723 49.339 10.9627 49.339 11.866C49.339 12.5434 49.1885 13.1456 48.925 13.6725C48.6616 14.1994 48.2476 14.6511 47.7583 14.9898C47.269 15.3285 46.6669 15.592 46.027 15.7049V15.8554C46.7421 15.8931 47.4196 16.0812 48.0218 16.42C48.6239 16.7587 49.1132 17.248 49.4896 17.8878C49.8659 18.5276 50.0541 19.2427 50.0541 20.1083C50.0541 21.0492 49.8283 21.9149 49.339 22.6676C48.8498 23.4203 48.1347 24.0225 47.2314 24.4365C46.3281 24.8505 45.199 25.0763 43.8818 25.0763H35.8652V25.1139ZM40.1558 14.6511H42.5269C42.9785 14.6511 43.4301 14.5758 43.7689 14.4252C44.1452 14.2747 44.4087 14.0489 44.6345 13.7478C44.8227 13.4467 44.9356 13.108 44.9356 12.694C44.9356 12.0918 44.7098 11.6402 44.2958 11.3014C43.8818 10.9627 43.3172 10.7745 42.6021 10.7745H40.1558V14.6511ZM40.1558 21.6514H42.828C43.7689 21.6514 44.4463 21.4632 44.898 21.1245C45.3496 20.7858 45.5754 20.2965 45.5754 19.6567C45.5754 19.205 45.4625 18.791 45.2367 18.4523C45.0109 18.1136 44.7098 17.8501 44.3334 17.662C43.957 17.4738 43.4678 17.3985 42.9032 17.3985H40.1558V21.6514Z" fill="#0F4E41"/>
<path d="M54.9847 25.1145H50.3555L56.3396 7.3125H62.0604L68.0822 25.1145H63.4529L59.2753 11.7912H59.1247L54.9847 25.1145ZM54.3449 18.1141H64.0175V21.3885H54.3449V18.1141Z" fill="#0F4E41"/>
<path d="M69.0234 25.1139V7.34961H73.314V14.5005H80.3143V7.34961H84.6049V25.1516H80.3143V18.0007H73.314V25.1516H69.0234V25.1139Z" fill="#0F4E41"/>
<path d="M103.121 16.2316C103.121 18.1886 102.745 19.8446 101.992 21.1996C101.239 22.5545 100.223 23.6083 98.9434 24.2857C97.6637 25.0008 96.2335 25.3395 94.6152 25.3395C93.0345 25.3395 91.5666 25.0008 90.287 24.2857C89.0074 23.5706 87.9912 22.5545 87.2385 21.1619C86.4857 19.807 86.1094 18.151 86.1094 16.1939C86.1094 14.2368 86.4857 12.5808 87.2385 11.2259C87.9912 9.87102 89.0074 8.81721 90.287 8.13975C91.5666 7.42466 92.9968 7.08594 94.6152 7.08594C96.1959 7.08594 97.6637 7.42466 98.9434 8.13975C100.223 8.85484 101.239 9.87102 101.992 11.2259C102.745 12.6185 103.121 14.2745 103.121 16.2316ZM98.7175 16.2316C98.7175 15.0648 98.567 14.0863 98.2283 13.2959C97.8895 12.5056 97.4379 11.9034 96.8357 11.4894C96.2335 11.0754 95.4808 10.8872 94.6152 10.8872C93.7495 10.8872 93.0345 11.0754 92.4323 11.4894C91.8301 11.9034 91.3408 12.5056 91.0021 13.2959C90.6634 14.0863 90.5128 15.0648 90.5128 16.2316C90.5128 17.3983 90.6634 18.3768 91.0021 19.1672C91.3408 19.9576 91.7925 20.5597 92.4323 20.9737C93.0345 21.3877 93.7872 21.5759 94.6152 21.5759C95.4808 21.5759 96.1959 21.3877 96.8357 20.9737C97.4379 20.5597 97.9272 19.9576 98.2283 19.1672C98.567 18.3768 98.7175 17.3983 98.7175 16.2316Z" fill="#0F4E41"/>
<path d="M115.428 7.34961H119.719V18.8287C119.719 20.146 119.417 21.3127 118.778 22.2912C118.138 23.2698 117.272 24.0225 116.143 24.5494C115.014 25.0763 113.697 25.3398 112.191 25.3398C110.686 25.3398 109.369 25.0763 108.24 24.5494C107.11 24.0225 106.245 23.2698 105.605 22.2912C104.965 21.3127 104.664 20.146 104.664 18.8287V7.34961H108.955V18.4523C108.955 19.0545 109.105 19.6191 109.369 20.1083C109.632 20.5976 110.008 20.974 110.498 21.2374C110.987 21.5009 111.552 21.6514 112.191 21.6514C112.831 21.6514 113.396 21.5009 113.885 21.2374C114.374 20.974 114.751 20.5976 115.014 20.1083C115.278 19.6191 115.428 19.0921 115.428 18.4523V7.34961Z" fill="#0F4E41"/>
<path d="M131.048 12.6566C130.973 12.0168 130.747 11.5275 130.295 11.1512C129.844 10.8125 129.204 10.6243 128.338 10.6243C127.774 10.6243 127.322 10.6996 126.946 10.8501C126.569 11.0006 126.306 11.1888 126.118 11.4523C125.929 11.7157 125.854 11.9792 125.817 12.3179C125.817 12.5814 125.854 12.8072 125.967 13.033C126.08 13.2212 126.268 13.4094 126.494 13.5599C126.72 13.7105 126.983 13.861 127.322 13.9739C127.661 14.0868 127.999 14.1997 128.413 14.275L129.957 14.6137C130.822 14.8019 131.613 15.0654 132.29 15.3665C132.967 15.6675 133.532 16.0815 133.984 16.4955C134.435 16.9472 134.812 17.4365 135.037 18.001C135.263 18.5655 135.414 19.2054 135.414 19.9204C135.414 21.0495 135.113 21.9904 134.548 22.8184C133.984 23.6088 133.193 24.2486 132.139 24.6626C131.086 25.0766 129.806 25.3024 128.338 25.3024C126.833 25.3024 125.553 25.0766 124.462 24.625C123.37 24.1734 122.505 23.4959 121.865 22.5926C121.263 21.6894 120.924 20.5226 120.924 19.1301H125.026C125.064 19.6946 125.214 20.1839 125.478 20.5603C125.741 20.9366 126.118 21.2377 126.607 21.4259C127.096 21.6141 127.623 21.727 128.263 21.727C128.827 21.727 129.354 21.6517 129.731 21.5012C130.107 21.3506 130.446 21.1248 130.672 20.8614C130.897 20.5979 131.01 20.2592 131.01 19.9204C131.01 19.5817 130.897 19.2806 130.709 19.0548C130.521 18.829 130.182 18.6032 129.768 18.415C129.354 18.2268 128.827 18.0763 128.15 17.9257L126.306 17.4741C124.763 17.1354 123.558 16.5332 122.655 15.7428C121.752 14.9525 121.338 13.8986 121.338 12.5437C121.338 11.4523 121.639 10.4737 122.241 9.64573C122.843 8.81773 123.671 8.17792 124.725 7.72628C125.779 7.27465 126.983 7.04883 128.338 7.04883C129.731 7.04883 130.897 7.27465 131.914 7.76392C132.93 8.21555 133.72 8.89301 134.285 9.72101C134.849 10.549 135.15 11.5275 135.15 12.6566H131.048Z" fill="#0F4E41"/>
<path d="M136.58 25.1139V7.34961H149V10.8498H140.908V14.5005H148.398V18.0007H140.908V21.6514H149V25.1516H136.58V25.1139Z" fill="#0F4E41"/>
</svg>
