<svg width="155" height="32" viewBox="0 0 155 32" fill="none" xmlns="http://www.w3.org/2000/svg">
<path d="M31.2422 0.0234375L23.4316 5.68466L15.6211 0.0234375L0 11.396V31.9757H9.07031V28.1681H3.82969V13.2998L15.6211 4.73277L20.1562 8.03933L15.5707 11.3459V31.9256H21.7183H26.4551H31.2422V11.396L26.707 8.03933L31.2422 4.73277L43.0336 13.2998V28.118H37.3394V31.9256H46.8633V11.396L31.2422 0.0234375ZM27.4125 13.2998V28.118H26.5055H21.7687H19.4508V13.2998L23.4316 10.394L27.4125 13.2998Z" fill="#0F4E41"/>
<path d="M70.0808 9.61133V25.5041H66.786L60.4547 16.3302H60.3255V25.5041H56.4492V9.61133H59.7441L66.0107 18.7852H66.1399V9.61133H70.0808Z" fill="#0F4E41"/>
<path d="M72.4707 25.5041V9.61133H83.5827V12.7124H76.347V16.0072H83.0013V19.1082H76.347V22.4031H83.5827V25.5041H72.4707Z" fill="#0F4E41"/>
<path d="M94.6312 14.3924C94.5666 13.8109 94.3728 13.3587 93.9206 13.0357C93.5329 12.7127 92.9515 12.5835 92.1762 12.5835C91.6594 12.5835 91.2718 12.6481 90.9487 12.7773C90.6257 12.9065 90.3673 13.1003 90.1735 13.2941C89.9797 13.4879 89.9151 13.7463 89.9151 14.0694C89.9151 14.3278 89.9797 14.5216 90.0443 14.7154C90.1735 14.9092 90.3027 15.0384 90.4965 15.1676C90.6903 15.2969 90.9487 15.4261 91.2072 15.5553C91.4656 15.6845 91.8532 15.7491 92.1762 15.8137L93.5329 16.1367C94.3082 16.3305 95.0188 16.5243 95.6003 16.8474C96.1817 17.1058 96.6986 17.4934 97.1508 17.8811C97.5384 18.2687 97.8615 18.7209 98.0553 19.2378C98.2491 19.7546 98.3783 20.336 98.3783 20.9821C98.3783 22.0158 98.1199 22.8556 97.603 23.5663C97.0862 24.2769 96.3755 24.8584 95.4065 25.246C94.4374 25.6336 93.3391 25.8274 91.9824 25.8274C90.6257 25.8274 89.4628 25.6336 88.4938 25.246C87.5247 24.8584 86.7494 24.2123 86.168 23.4371C85.5865 22.5972 85.3281 21.5635 85.3281 20.336H89.0106C89.0106 20.8529 89.2044 21.3051 89.3982 21.6281C89.6567 21.9512 89.9797 22.2096 90.4319 22.4034C90.8841 22.5972 91.3364 22.6618 91.9178 22.6618C92.4347 22.6618 92.8869 22.5972 93.2745 22.468C93.6622 22.3388 93.9206 22.145 94.1144 21.8866C94.3082 21.6281 94.4374 21.3697 94.4374 21.0467C94.4374 20.7237 94.3082 20.4652 94.179 20.2714C94.0498 20.0776 93.7268 19.8838 93.3391 19.69C92.9515 19.5608 92.4993 19.367 91.9178 19.2378L90.2381 18.8501C88.8814 18.5271 87.7831 18.0103 87.0078 17.2996C86.2326 16.589 85.845 15.6199 85.845 14.457C85.845 13.4879 86.1034 12.5835 86.6202 11.8728C87.1371 11.1621 87.9123 10.5807 88.8168 10.1285C89.7859 9.74084 90.8195 9.48242 92.047 9.48242C93.2745 9.48242 94.3728 9.67624 95.2773 10.1285C96.1817 10.5161 96.8924 11.1621 97.4092 11.8728C97.9261 12.6481 98.1845 13.4879 98.1845 14.457H94.6312V14.3924Z" fill="#0F4E41"/>
<path d="M103.702 25.5041L99.0508 9.61133H103.315L105.705 20.0127H105.834L108.548 9.61133H112.036L114.75 20.0773H114.879L117.269 9.61133H121.533L116.946 25.5041H113.264L110.421 15.878H110.292L107.385 25.5041H103.702Z" fill="#0F4E41"/>
<path d="M127.027 9.61133V25.5041H123.15V9.61133H127.027Z" fill="#0F4E41"/>
<path d="M138.075 14.3924C138.01 13.8109 137.816 13.3587 137.364 13.0357C136.976 12.7127 136.395 12.5835 135.62 12.5835C135.103 12.5835 134.715 12.6481 134.392 12.7773C134.069 12.9065 133.811 13.1003 133.617 13.2941C133.423 13.4879 133.358 13.7463 133.358 14.0694C133.358 14.3278 133.423 14.5216 133.488 14.7154C133.617 14.9092 133.746 15.0384 133.94 15.1676C134.134 15.2969 134.392 15.4261 134.651 15.5553C134.909 15.6845 135.297 15.7491 135.62 15.8137L136.976 16.1367C137.752 16.3305 138.462 16.5243 139.044 16.8474C139.625 17.1058 140.142 17.4934 140.594 17.8811C140.982 18.2687 141.305 18.7209 141.499 19.2378C141.692 19.7546 141.822 20.336 141.822 20.9821C141.822 22.0158 141.563 22.8556 141.046 23.5663C140.53 24.2769 139.819 24.8584 138.85 25.246C137.881 25.6336 136.782 25.8274 135.426 25.8274C134.069 25.8274 132.906 25.6336 131.937 25.246C130.968 24.8584 130.193 24.2123 129.611 23.4371C129.03 22.5972 128.771 21.5635 128.771 20.336H132.454C132.454 20.8529 132.648 21.3051 132.842 21.6281C133.1 21.9512 133.423 22.2096 133.875 22.4034C134.327 22.5972 134.78 22.6618 135.361 22.6618C135.878 22.6618 136.33 22.5972 136.718 22.468C137.106 22.3388 137.364 22.145 137.558 21.8866C137.752 21.6281 137.881 21.3697 137.881 21.0467C137.881 20.7237 137.752 20.4652 137.622 20.2714C137.493 20.0776 137.17 19.8838 136.782 19.69C136.395 19.5608 135.943 19.367 135.361 19.2378L133.681 18.8501C132.325 18.5271 131.226 18.0103 130.451 17.2996C129.676 16.589 129.288 15.6199 129.288 14.457C129.288 13.4879 129.547 12.5835 130.064 11.8728C130.58 11.1621 131.356 10.5807 132.26 10.1285C133.229 9.74084 134.263 9.48242 135.49 9.48242C136.718 9.48242 137.816 9.67624 138.721 10.1285C139.625 10.5161 140.336 11.1621 140.853 11.8728C141.369 12.6481 141.628 13.4879 141.628 14.457H138.075V14.3924Z" fill="#0F4E41"/>
<path d="M143.889 25.5041V9.61133H155.001V12.7124H147.765V16.0072H154.419V19.1082H147.765V22.4031H155.001V25.5041H143.889Z" fill="#0F4E41"/>
</svg>
