<svg width="153" height="36" viewBox="0 0 153 36" fill="none" xmlns="http://www.w3.org/2000/svg">
<path d="M53.5508 26.7082V8.46484H66.3063V12.0245H57.9262V15.8067H65.5647V19.3664H57.9262V23.1485H66.2321V26.7082H53.5508Z" fill="#0F4E41"/>
<path d="M77.9487 13.9524C77.8746 13.285 77.6521 12.7659 77.133 12.3951C76.6139 12.0243 76.0206 11.876 75.1307 11.876C74.5374 11.876 74.0924 11.9501 73.7216 12.0984C73.3508 12.2468 73.0542 12.4692 72.8317 12.6917C72.6092 12.9142 72.5351 13.2108 72.5351 13.5816C72.5351 13.8783 72.6092 14.1008 72.6834 14.3232C72.8317 14.5457 72.98 14.694 73.2025 14.8424C73.425 14.9907 73.7216 15.139 74.0183 15.2873C74.3149 15.4356 74.7599 15.5098 75.1307 15.584L76.688 15.9548C77.5779 16.1772 78.3937 16.3997 79.0611 16.7705C79.7286 17.1413 80.3219 17.5121 80.841 17.9571C81.3601 18.402 81.6567 18.9212 81.9534 19.5144C82.25 20.1077 82.3242 20.7752 82.3242 21.5168C82.3242 22.7033 82.0275 23.6674 81.4343 24.4832C80.841 25.2989 80.0252 25.9664 78.9128 26.4113C77.8004 26.8563 76.5397 27.0788 74.9823 27.0788C73.425 27.0788 72.0901 26.8563 70.9777 26.4113C69.8653 25.9664 68.9754 25.2248 68.3079 24.3348C67.863 23.2966 67.5663 22.11 67.4922 20.6268H71.7193C71.7193 21.2201 71.9418 21.7392 72.1643 22.11C72.4609 22.4808 72.8317 22.7775 73.3508 23C73.8699 23.2224 74.3891 23.2966 75.0565 23.2966C75.6498 23.2966 76.1689 23.2224 76.6139 23.0741C77.0588 22.9258 77.3555 22.7033 77.5779 22.4067C77.8004 22.11 77.9487 21.8134 77.9487 21.4426C77.9487 21.0718 77.8004 20.7752 77.6521 20.5527C77.4296 20.3302 77.133 20.1077 76.688 19.8852C76.2431 19.7369 75.7239 19.5144 75.0565 19.3661L73.1283 18.9212C71.571 18.5504 70.3103 17.9571 69.4203 17.1413C68.5304 16.3256 68.0855 15.2132 68.0855 13.8783C68.0855 12.7659 68.3821 11.7276 68.9754 10.9119C69.5687 10.0961 70.4586 9.42869 71.4968 8.90957C72.6092 8.46461 73.7958 8.16797 75.2048 8.16797C76.6139 8.16797 77.8746 8.39045 78.9128 8.90957C79.9511 9.35453 80.7668 10.022 81.3601 10.9119C81.9534 11.8018 82.25 12.7659 82.25 13.8783H77.9487V13.9524Z" fill="#0F4E41"/>
<path d="M83.0664 12.0245V8.46484H98.4917V12.0245H92.9297V26.7082H88.5542V12.0245H83.0664Z" fill="#0F4E41"/>
<path d="M101.309 26.7082H96.5625L102.718 8.46484H108.576L114.732 26.7082H109.985L105.684 13.0628H105.536L101.309 26.7082ZM100.715 19.5147H110.653V22.8519H100.715V19.5147Z" fill="#0F4E41"/>
<path d="M112.879 12.0245V8.46484H128.304V12.0245H122.742V26.7082H118.367V12.0245H112.879Z" fill="#0F4E41"/>
<path d="M133.866 8.46484V26.7082H129.416V8.46484H133.866Z" fill="#0F4E41"/>
<path d="M139.576 26.7082H134.83L140.985 8.46484H146.844L152.999 26.7082H148.327L144.026 13.0628H143.878L139.576 26.7082ZM138.983 19.5147H148.92V22.8519H138.983V19.5147Z" fill="#0F4E41"/>
<path d="M4.00729 0L0 3.59977V8.0825L9.03338 0H4.00729Z" fill="#0F4E41"/>
<path d="M13.1765 0L0 11.7502V16.2329L18.2026 0H13.1765Z" fill="#0F4E41"/>
<path d="M34.0959 12.4297V4.21134H29.3415V8.21863L21.1911 0.951172L0 19.9009V29.206C18.2026 12.9051 9.30506 20.9197 20.1044 11.2071L40.2767 29.206V17.9312L34.0959 12.4297Z" fill="#0F4E41"/>
<path d="M27.4399 21.4629H22.0742V26.8286H27.4399V21.4629Z" fill="#0F4E41"/>
<path d="M18.4751 21.4629H13.1094V26.8286H18.4751V21.4629Z" fill="#0F4E41"/>
<path d="M27.4399 29.9531H22.0742V35.3188H27.4399V29.9531Z" fill="#0F4E41"/>
<path d="M18.4751 29.9531H13.1094V35.3188H18.4751V29.9531Z" fill="#0F4E41"/>
</svg>
