<svg width="156" height="33" viewBox="0 0 156 33" fill="none" xmlns="http://www.w3.org/2000/svg">
<path d="M59.0444 13.5488H63.6098V25.8521C63.6098 27.2449 63.3002 28.483 62.6038 29.5663C61.9074 30.6496 60.9789 31.4234 59.7408 32.0425C58.5027 32.6615 57.1099 32.8936 55.4849 32.8936C53.86 32.8936 52.4671 32.5841 51.2291 32.0425C49.991 31.5008 49.0625 30.6496 48.4434 29.5663C47.747 28.483 47.4375 27.2449 47.4375 25.8521V13.5488H52.0803V25.4652C52.0803 26.1616 52.235 26.7033 52.5445 27.2449C52.854 27.7866 53.2409 28.1735 53.7826 28.483C54.3242 28.7925 54.9433 28.9473 55.5623 28.9473C56.1813 28.9473 56.8778 28.7925 57.342 28.483C57.8837 28.1735 58.2706 27.7866 58.5801 27.2449C58.8896 26.7033 59.0444 26.1616 59.0444 25.4652V13.5488Z" fill="#0F4E41"/>
<path d="M66.0078 32.5861V13.5508H73.9005C75.2933 13.5508 76.5314 13.7829 77.6147 14.3246C78.6206 14.8662 79.4718 15.5626 80.0134 16.4912C80.5551 17.4197 80.8646 18.5804 80.8646 19.8959C80.8646 21.2113 80.5551 22.372 80.0134 23.2232C79.4718 24.0744 78.6206 24.8481 77.5373 25.3124C76.454 25.7767 75.2159 26.0088 73.7457 26.0088H68.7935V22.372H72.8946C73.591 22.372 74.21 22.2946 74.6743 22.0625C75.1386 21.9077 75.5255 21.5982 75.7576 21.2113C75.9897 20.8244 76.1445 20.3601 76.1445 19.7411C76.1445 19.1221 75.9897 18.6578 75.7576 18.2709C75.5255 17.884 75.1386 17.5745 74.6743 17.4197C74.21 17.1876 73.591 17.1102 72.8946 17.1102H70.6506V32.4313H66.0078V32.5861ZM76.7635 23.8422L81.4837 32.5861H76.454L71.8113 23.8422H76.7635Z" fill="#0F4E41"/>
<path d="M82.877 32.5841V13.5488H90.847C92.2398 13.5488 93.4779 13.781 94.4065 14.1679C95.335 14.5548 96.1088 15.1738 96.5731 15.8702C97.0373 16.5666 97.2695 17.4178 97.2695 18.4237C97.2695 19.1201 97.1147 19.8165 96.8052 20.3582C96.4957 20.8998 96.1088 21.3641 95.5671 21.751C95.0255 22.1379 94.4065 22.3701 93.71 22.5248V22.6796C94.4838 22.6796 95.1802 22.9117 95.8767 23.2986C96.5731 23.6855 97.0373 24.2272 97.4242 24.8462C97.8111 25.5426 98.0433 26.3164 98.0433 27.2449C98.0433 28.2509 97.8111 29.1794 97.2695 29.9532C96.7278 30.727 96.0314 31.4234 95.0255 31.8877C94.0196 32.352 92.8589 32.5841 91.466 32.5841H82.877ZM87.4423 21.3641H89.9958C90.4601 21.3641 90.9244 21.2867 91.3113 21.132C91.6982 20.9772 92.0077 20.7451 92.2398 20.4356C92.472 20.1261 92.5494 19.7392 92.5494 19.2749C92.5494 18.6559 92.3172 18.1142 91.8529 17.8047C91.3887 17.4178 90.7696 17.263 89.9958 17.263H87.3649V21.3641H87.4423ZM87.4423 28.8699H90.3054C91.3113 28.8699 92.0077 28.7151 92.5494 28.3283C93.0136 27.9414 93.2458 27.3997 93.2458 26.7807C93.2458 26.3164 93.1684 25.8521 92.9362 25.5426C92.7041 25.1557 92.3946 24.9236 91.9303 24.6914C91.5434 24.4593 91.0018 24.3819 90.3827 24.3819H87.4423V28.8699Z" fill="#0F4E41"/>
<path d="M103.847 32.5841H98.8945L105.317 13.5488H111.43L117.852 32.5841H112.9L108.412 18.3463H108.257L103.847 32.5841ZM103.228 25.0783H113.597V28.5604H103.228V25.0783Z" fill="#0F4E41"/>
<path d="M135.65 13.5508V32.5861H131.704L124.198 21.5982H124.043V32.5861H119.4V13.5508H123.347L130.853 24.5386H131.007V13.5508H135.65Z" fill="#0F4E41"/>
<path d="M156 23.0674C156 25.1566 155.613 26.9363 154.762 28.4066C153.988 29.8768 152.827 30.9601 151.512 31.7339C150.119 32.5077 148.571 32.8945 146.869 32.8945C145.167 32.8945 143.619 32.5077 142.226 31.7339C140.833 30.9601 139.75 29.8768 138.976 28.4066C138.203 26.9363 137.738 25.1566 137.738 23.0674C137.738 20.9782 138.125 19.1984 138.976 17.7282C139.75 16.258 140.833 15.1747 142.226 14.4009C143.619 13.6271 145.167 13.2402 146.869 13.2402C148.571 13.2402 150.119 13.6271 151.512 14.4009C152.905 15.1747 153.988 16.258 154.762 17.7282C155.613 19.1984 156 20.9782 156 23.0674ZM151.28 23.0674C151.28 21.8293 151.125 20.746 150.738 19.8948C150.351 19.0437 149.887 18.4246 149.268 17.9604C148.649 17.4961 147.798 17.264 146.869 17.264C145.94 17.264 145.167 17.4961 144.548 17.9604C143.929 18.4246 143.387 19.0437 143 19.8948C142.613 20.746 142.458 21.8293 142.458 23.0674C142.458 24.3055 142.613 25.3888 143 26.2399C143.387 27.0911 143.851 27.7101 144.548 28.1744C145.244 28.6387 146.018 28.8708 146.869 28.8708C147.798 28.8708 148.571 28.6387 149.268 28.1744C149.964 27.7101 150.428 27.0911 150.738 26.2399C151.125 25.3114 151.28 24.3055 151.28 23.0674Z" fill="#0F4E41"/>
<path d="M3.40749 32.8174V16.4904L7.58597 13.2405V32.8174H12.074V9.68106L15.8655 6.66328V32.8174H22.288V6.66328L25.5379 9.29417V32.8174H30.1033V12.8536L34.7461 16.4904V32.8174H37.4543V15.175L30.1033 9.37155L29.5617 8.90727L22.288 3.18121L21.2821 2.40742L19.0381 0.705078L16.8715 2.40742L15.8655 3.18121L8.5919 8.90727L7.58597 9.75844L0.699219 15.175V32.8174H3.40749Z" fill="#0F4E41"/>
</svg>
