<svg width="160" height="41" fill="none" xmlns="http://www.w3.org/2000/svg"><path d="M18.92 22.273H5v13.92h13.92v-13.92zM11.874 17.3a6.632 6.632 0 100-13.265 6.632 6.632 0 000 13.264zM29.835 4H24.93v32.47h4.905V4z" fill="#fff"/><path d="M18.92 22.273L5 36.193h13.92v-13.92zm21.945 6.841V11.35h7.415c1.317 0 2.446.188 3.35.564.902.377 1.58.903 2.032 1.58.451.678.677 1.469.677 2.372 0 .677-.15 1.28-.414 1.806a3.567 3.567 0 01-1.167 1.318 4.442 4.442 0 01-1.731.715v.15a4.53 4.53 0 011.995.565 3.924 3.924 0 011.468 1.468c.376.64.564 1.355.564 2.22 0 .941-.226 1.807-.715 2.56-.49.752-1.204 1.355-2.108 1.768-.903.415-2.032.64-3.35.64h-8.016v.038zm4.29-10.463h2.372c.451 0 .903-.075 1.242-.226.376-.15.64-.376.866-.677.188-.301.3-.64.3-1.054 0-.602-.225-1.054-.64-1.393-.413-.338-.978-.527-1.693-.527h-2.446v3.877zm0 7h2.673c.94 0 1.618-.188 2.07-.526.452-.34.677-.828.677-1.468 0-.452-.113-.866-.338-1.205a2.3 2.3 0 00-.904-.79c-.376-.188-.865-.264-1.43-.264h-2.747v4.253zm14.83 3.463h-4.63l5.985-17.802h5.72l6.022 17.803h-4.63L64.276 15.79h-.15l-4.14 13.323zm-.64-7h9.672v3.274h-9.672v-3.274zm14.678 7V11.35h4.291v7.15h7v-7.15h4.29v17.802h-4.29V22h-7v7.15h-4.29v-.037zm34.098-8.882c0 1.957-.376 3.613-1.129 4.968s-1.769 2.408-3.049 3.086c-1.279.715-2.709 1.053-4.328 1.053-1.58 0-3.048-.338-4.328-1.053-1.28-.715-2.296-1.732-3.049-3.124-.752-1.355-1.129-3.011-1.129-4.968 0-1.957.377-3.613 1.13-4.968.752-1.355 1.768-2.409 3.048-3.086 1.28-.715 2.71-1.054 4.328-1.054 1.581 0 3.049.339 4.328 1.054 1.28.715 2.296 1.731 3.049 3.086.753 1.393 1.129 3.048 1.129 5.006zm-4.403 0c0-1.167-.151-2.146-.49-2.936-.338-.79-.79-1.393-1.392-1.807-.602-.414-1.355-.602-2.22-.602-.867 0-1.582.188-2.184.602-.602.414-1.091 1.017-1.43 1.807-.339.79-.49 1.769-.49 2.936 0 1.166.151 2.145.49 2.935.339.79.79 1.393 1.43 1.807.602.414 1.355.602 2.183.602.866 0 1.581-.188 2.221-.602.602-.414 1.091-1.016 1.392-1.807.339-.79.49-1.769.49-2.935zm16.71-8.882h4.291v11.479c0 1.317-.302 2.484-.941 3.462-.64.979-1.506 1.732-2.635 2.258-1.129.527-2.446.79-3.952.79-1.505 0-2.822-.263-3.951-.79-1.13-.526-1.995-1.28-2.635-2.258-.64-.978-.941-2.145-.941-3.462v-11.48h4.291v11.103c0 .602.15 1.167.414 1.656.263.49.639.866 1.129 1.13a3.523 3.523 0 001.693.413c.64 0 1.205-.15 1.694-.414a2.72 2.72 0 001.129-1.129 3.37 3.37 0 00.414-1.656V11.35zm15.62 5.307c-.075-.64-.301-1.13-.753-1.506-.451-.338-1.091-.527-1.957-.527-.564 0-1.016.076-1.392.226-.377.15-.64.339-.828.602-.189.264-.264.527-.301.866 0 .263.037.49.15.715.113.188.301.376.527.527.226.15.489.301.828.414.339.113.677.226 1.091.301l1.544.339c.865.188 1.656.451 2.333.752a6.341 6.341 0 011.694 1.13c.451.451.828.94 1.053 1.505.226.564.377 1.204.377 1.92 0 1.128-.301 2.07-.866 2.897-.564.79-1.355 1.43-2.409 1.845-1.053.414-2.333.64-3.801.64-1.505 0-2.785-.226-3.876-.678-1.092-.452-1.957-1.13-2.597-2.032-.602-.904-.941-2.07-.941-3.463h4.102c.038.565.188 1.054.452 1.43.263.377.64.678 1.129.866a4.479 4.479 0 001.656.301c.564 0 1.091-.075 1.468-.226.376-.15.715-.376.941-.64a1.45 1.45 0 00.338-.94c0-.34-.113-.64-.301-.866-.188-.226-.527-.452-.941-.64-.414-.188-.941-.339-1.618-.49l-1.844-.45c-1.543-.34-2.748-.942-3.651-1.732-.903-.79-1.317-1.844-1.317-3.2 0-1.09.301-2.07.903-2.897.602-.828 1.43-1.468 2.484-1.92 1.054-.451 2.258-.677 3.613-.677 1.393 0 2.559.226 3.576.715a5.562 5.562 0 012.371 1.957c.564.828.865 1.806.865 2.936h-4.102zm5.532 12.457V11.35H154v3.5h-8.092v3.65h7.49V22h-7.49v3.651H154v3.5h-12.42v-.037z" fill="#fff"/></svg>