<svg width="160" height="41" fill="none" xmlns="http://www.w3.org/2000/svg"><path d="M61.044 17.549h4.566v12.303c0 1.393-.31 2.631-1.006 3.714-.697 1.084-1.625 1.857-2.863 2.476-1.238.62-2.631.852-4.256.852-1.625 0-3.018-.31-4.256-.852-1.238-.541-2.166-1.392-2.786-2.476-.696-1.083-1.005-2.321-1.005-3.714V17.55h4.642v11.916c0 .697.155 1.238.465 1.78a3.17 3.17 0 001.238 1.238c.541.31 1.16.464 1.78.464.618 0 1.315-.155 1.779-.464a3.17 3.17 0 001.238-1.238c.31-.542.464-1.083.464-1.78V17.55zm6.964 19.037V17.551H75.9c1.393 0 2.631.232 3.715.774 1.006.541 1.857 1.238 2.398 2.166.542.929.852 2.09.852 3.405s-.31 2.476-.852 3.327a5.537 5.537 0 01-2.476 2.09c-1.083.464-2.321.696-3.791.696h-4.953v-3.637h4.102c.696 0 1.315-.077 1.78-.31a2.001 2.001 0 001.083-.85c.232-.388.386-.852.386-1.47 0-.62-.154-1.084-.386-1.471a2.001 2.001 0 00-1.084-.851c-.464-.232-1.083-.31-1.78-.31h-2.243v15.321h-4.643v.155zm10.755-8.744l4.72 8.744h-5.029l-4.643-8.744h4.952zm6.114 8.742V17.55h7.97c1.393 0 2.63.232 3.56.619.928.387 1.702 1.006 2.166 1.702.464.697.697 1.548.697 2.554 0 .696-.155 1.393-.465 1.934a4.24 4.24 0 01-1.238 1.393c-.541.387-1.16.62-1.857.774v.155c.774 0 1.47.232 2.167.619.696.387 1.16.928 1.547 1.547.387.697.619 1.47.619 2.399 0 1.006-.232 1.934-.774 2.708-.541.774-1.238 1.47-2.244 1.935-1.005.464-2.166.696-3.559.696h-8.589zm4.565-11.22h2.554c.464 0 .928-.077 1.315-.232.387-.155.697-.387.929-.696.232-.31.31-.697.31-1.161 0-.62-.233-1.16-.697-1.47-.464-.387-1.083-.542-1.857-.542h-2.631v4.101h.077zm0 7.506h2.863c1.006 0 1.703-.155 2.244-.542.465-.387.697-.928.697-1.547 0-.465-.078-.929-.31-1.238-.232-.387-.541-.62-1.006-.852-.387-.232-.928-.31-1.547-.31h-2.94v4.489zm16.405 3.714h-4.952l6.422-19.035h6.113l6.422 19.035H114.9l-4.488-14.238h-.155l-4.41 14.238zm-.619-7.506h10.369v3.482h-10.369v-3.482zM137.65 17.55v19.036h-3.946l-7.506-10.988h-.155v10.988H121.4V17.551h3.947l7.506 10.988h.154V17.55h4.643zM158 27.067c0 2.09-.387 3.87-1.238 5.34-.774 1.47-1.935 2.553-3.25 3.327-1.393.774-2.941 1.16-4.643 1.16s-3.25-.386-4.643-1.16a7.932 7.932 0 01-3.25-3.327c-.773-1.47-1.238-3.25-1.238-5.34 0-2.089.387-3.869 1.238-5.339a7.932 7.932 0 013.25-3.327c1.393-.774 2.941-1.16 4.643-1.16s3.25.386 4.643 1.16a7.932 7.932 0 013.25 3.327c.851 1.47 1.238 3.25 1.238 5.34zm-4.72 0c0-1.238-.155-2.321-.542-3.172s-.851-1.47-1.47-1.935c-.619-.464-1.47-.696-2.399-.696s-1.702.232-2.321.696A4.907 4.907 0 00145 23.895c-.387.851-.542 1.934-.542 3.172 0 1.238.155 2.322.542 3.173s.851 1.47 1.548 1.934c.696.465 1.47.697 2.321.697.929 0 1.702-.232 2.399-.697.696-.464 1.16-1.083 1.47-1.934.387-.929.542-1.934.542-3.173zM5.407 36.817V20.49l4.179-3.25v19.577h4.488V13.681l3.792-3.018v26.154h6.422V10.663l3.25 2.631v23.523h4.565V16.854l4.643 3.636v16.327h2.708V19.175l-7.35-5.804-.542-.464-7.274-5.726-1.006-.774-2.244-1.702-2.166 1.702-1.006.774-7.274 5.726-1.006.851-6.887 5.417v17.642h2.708z" fill="#fff"/></svg>