<svg width="398" height="498" fill="none" xmlns="http://www.w3.org/2000/svg"><g opacity=".3"><mask id="mask0_578_7407" style="mask-type:alpha" maskUnits="userSpaceOnUse" x="0" y="0" width="398" height="498"><path transform="matrix(-1 0 0 1 398 0)" fill="#D9D9D9" d="M0 0h398v498H0z"/></mask><g mask="url(#mask0_578_7407)" stroke="#B5C8C4" stroke-miterlimit="10" stroke-linecap="round"><path opacity=".5" d="M240.896 203.412L661.598 88.535" stroke-width=".154"/><path d="M23 180.783l201.861-75.431m352.313 104.347L202.379 105.352M23 324.418l216.167 67.103m193.058 132.634L23 343.59m409.225 226.926L23 362.764m420.387-177.737L23 241.601m0 78.889l432.178 117.863M618.207-4.496L23 208.913m216.167 45.888L23 259.201m179.379-4.4l463.149 8.172M213.385 391.522l452.144-114.405" stroke-width=".258"/><path d="M23 175.912l201.861-75.432m352.313 104.191L202.379 100.48M23 319.547l216.167 66.946m193.058 132.634L23 338.719m409.225 226.924L23 357.891m420.387-177.737L23 236.571m0 79.046l432.178 117.862M618.207-9.525L23 204.04m216.167 45.89L23 254.173m179.379-4.243l463.149 8.014M213.385 386.493l452.144-114.405M23 184.556l201.861-75.275m352.313 104.191L202.379 109.281M23 328.189l216.167 67.103m193.058 132.634L23 347.361m409.225 227.083L23 366.535m420.387-177.736L23 245.373m0 78.889l432.178 117.862M618.207-.725L23 212.685m216.167 45.887L23 262.972m179.379-4.4l463.149 8.172m-452.143 128.55l452.144-114.405" opacity=".5" stroke-width=".154"/><path d="M30.074 178.583v187.794l5.974 2.986v-192.98l-5.974 2.2zm5.975-2.2l6.446 1.414v189.68l-6.446 1.886m191.484 18.542V112.422l13.363 3.771v268.255l-13.363 3.457zm0-275.483l-12.734 3.929v267.626l12.734 3.928V112.422zm62.414 94.29v186.694l9.59 2.515V205.455l-9.59 1.257zm9.59-1.257l9.905 1.414v185.594l-9.905 3.458m78.606-314.457v279.412l10.061 1.886V77.85l-10.061 3.614zm10.062-3.614l10.219 5.5v274.698l-10.219 4.714V77.85zm211.923 313.671L23 312.16" stroke-width=".258"/><path d="M406.442 425.622V220.385l-89.454 9.272v170.978l22.953-9.114V227.299m0 164.221l66.501 17.129" stroke-width=".515"/><path d="M369.812 243.643l-22.482 1.885v41.645h22.482v-43.53zm4.874 0v43.53h27.669V241.6l-27.669 2.043zm-27.356 48.873h22.482v40.23l-22.482-1.572v-38.658zm27.356 0v40.23l27.669 1.571v-41.173l-27.669-.628z" stroke-width=".515"/><path d="M30.074 174.025v172.708l380.298 167.836L590.38 369.677l-43.233-4.558-114.294 67.261V186.597l-183.31 24.516v171.136" stroke-width="1.03"/><path d="M215.271 108.965v146.306h12.263v132.635l22.01-5.658 67.444 18.387M89.658 345.16l-47.164 6.601v-92.562l46.378-1.414.786 87.375zm0 0l137.875 42.745M30.074 346.732v19.644l380.141 193.137v-44.945" stroke-width="1.03"/><path d="M155.373 482.51c0 4.243-9.118 7.7-20.28 7.7s-20.281-3.457-20.281-7.7 9.119-7.7 20.281-7.7c11.162-.158 20.28 3.457 20.28 7.7z" stroke-width=".515"/><path d="M410.215 559.514l243.994-229.438V119.338L590.38 5.404l-212.237 76.06v72.918l-162.872-45.416-185.197 69.617m348.069-24.202v39.444" stroke-width="1.03"/><path d="M250.959 143.852v42.744l114.294 22.316v-35.673l-114.294-29.387z" stroke-width=".515"/><path d="M365.251 173.24l-9.118 2.357.471 31.588m-.47-31.588L250.959 149.51m102.031 56.888V177.64l-102.031-25.144" stroke-width=".515"/><path d="M352.99 177.639h-2.515v28.287m-21.225-34.102v30.016m-3.615-30.957v30.015m-2.516-30.015v29.858m-33.172-38.188v31.587m-4.873-.943v-32.373m-2.83-.629v32.373" stroke-width=".515"/><path d="M215.272 255.271l-126.399 2.515" stroke-width="1.03"/><path d="M181.785 152.023v68.203m-50.779-50.13v56.888m-30.656-45.886v50.13m-40.877-35.359v41.959m0-41.959l6.131.786v39.13m.002-39.129l34.743-11.158m30.657-15.402l8.332 1.1v54.531m0-54.53l42.447-14.615m-39.931 68.988v-52.802l39.932-13.358m-17.294 5.658v57.517" stroke-width=".515"/><path d="M167.793 222.112v-58.145l2.358 1.1v56.731m-28.297-49.03l1.886.785v51.703m0-51.702l20.752-6.757m5.658-1.73l11.634-3.928M67.805 235.47v-37.559l32.543-9.743m-16.35 4.873v40.23" stroke-width=".515"/><path d="M86.2 233.114v-40.702l1.571.629V232.8m-19.966-34.888l1.415.629v36.773m0-36.773l14.779-4.4m3.773-1.101l12.577-3.614" stroke-width=".515"/><path d="M36.049 123.895v305.027M214.799 66.85v454.948m12.734-449.921v463.12M377.672 62.291v516.394M299.537 30.861V418.55M23 159.41L615.692-76" stroke-width=".154"/><path d="M101.449 266.744H214.8v71.975l-113.351-15.872v-56.103z" stroke-width=".515"/><path d="M108.681 266.744v55.003l-7.232 1.1m7.233-1.101L214.8 335.732m-102.661-68.988v52.802l102.66 11.944m-56.596-64.746v58.146m8.49.628v-58.774m-3.302 0v58.774" stroke-width=".515"/><path d="M112.139 319.546h2.515v-52.802" stroke-width=".515"/></g></g></svg>