<svg width="18" height="19" fill="none" xmlns="http://www.w3.org/2000/svg"><path d="M9.083 16.061c-1.5 0-2.94-.592-4-1.646a5.6 5.6 0 01-1.658-3.973A5.6 5.6 0 015.082 6.47a5.678 5.678 0 014.001-1.646c1.501 0 2.94.592 4.001 1.646a5.6 5.6 0 011.658 3.973 5.6 5.6 0 01-1.658 3.973 5.679 5.679 0 01-4 1.646zm0-12.843A7.3 7.3 0 003.94 5.334a7.199 7.199 0 00-2.13 5.108 7.2 7.2 0 002.13 5.109 7.301 7.301 0 005.144 2.116 7.3 7.3 0 005.144-2.116 7.199 7.199 0 002.131-5.109 7.199 7.199 0 00-2.13-5.108 7.3 7.3 0 00-5.145-2.116zm-3.33-.49L4.718 1.5 1 4.59l1.043 1.23 3.71-3.09zm11.414 1.87L13.448 1.5l-1.042 1.228 3.718 3.099 1.043-1.229z" fill="#E7EDEC"/><path d="M8.348 6.645H9.45v3.857l2.94 1.742-.552.904-3.49-2.094v-4.41z" fill="#E7EDEC"/></svg>