<svg width="258" height="241" fill="none" xmlns="http://www.w3.org/2000/svg"><g clip-path="url(#clip0_289_2287)" fill-rule="evenodd" clip-rule="evenodd" fill="#fff"><path d="M12.333 89.254V240.49H0V96.69l8.222-4.958 4.111-2.48zm245.016 50.412v19.835l-87.154-50.413V89.254l87.154 50.412zm-209.66 14.876v19.008l-35.355-19.835v-19.834l35.355 20.661zm35.354 64.463v19.834l-70.709-40.495v-20.66l70.71 41.321zm-40.288 21.487H12.334v-17.355l30.421 17.355zm40.288-110.743v19.834l-27.132-15.702-8.222-4.132-35.355-20.661V89.254l4.111 2.48 39.466 23.139 27.132 14.876z"/><path d="M257.35 50.412v19.835l-14.8-8.265-28.777-16.528-43.577-25.62-69.887 40.495v180.162h-14.8l-2.466-1.653V50.412l4.111-2.479 39.466-22.314 39.465-23.14L170.196 0l4.111 2.48 39.466 23.14 43.577 24.792zm-14.8 145.452l-34.532-20.661v-19.834l49.332 28.925v19.835l-14.8-8.265zm14.799 33.058v11.57h-14.8l-72.354-42.148V178.51l87.154 50.412zm-56.732 11.57h-30.422v-17.355l30.422 17.355z"/><path d="M216.239 71.073v19.834l-46.044-26.446V44.627l46.044 26.446z"/></g><defs><clipPath id="clip0_289_2287"><path fill="#fff" d="M0 0h257.349v240.491H0z"/></clipPath></defs></svg>