<svg width="20" height="21" fill="none" xmlns="http://www.w3.org/2000/svg"><path d="M15.434 19.37H4.532C2.044 19.37 0 17.376 0 14.874v-4.056h20v4.056c0 2.468-2.044 4.496-4.566 4.496zM.92 11.731v3.143c0 1.995 1.635 3.617 3.646 3.617h10.902a3.628 3.628 0 003.612-3.617v-3.143H.92z" fill="gray"/><path d="M5.452 18.93h.92v1.353h-.92V18.93zm8.178 0h.92v1.353h-.92V18.93zm-9.984-7.672h-.92V3.145c0-1.723 1.432-3.143 3.17-3.143 1.737 0 3.168 1.42 3.168 3.143v.44h-.886v-.44A2.274 2.274 0 005.895.881a2.274 2.274 0 00-2.283 2.264v8.113h.034z" fill="gray"/><path d="M11.823 7.203H5.45V6.29c0-1.724 1.431-3.144 3.169-3.144s3.169 1.42 3.169 3.144v.913h.034zm-5.452-.88h4.532A2.274 2.274 0 008.62 4.06a2.245 2.245 0 00-2.25 2.264z" fill="gray"/></svg>