<svg width="20" height="20" fill="none" xmlns="http://www.w3.org/2000/svg"><path d="M18.682 9.818V3.55A2.75 2.75 0 0015.925.785H4.01A2.75 2.75 0 001.253 3.55v6.36A4.29 4.29 0 00.06 12.89v4.763c0 .86.704 1.567 1.592 1.567.858 0 1.593-.706 1.593-1.598v-.491h13.57v.491c0 .86.704 1.598 1.592 1.598.858 0 1.593-.706 1.593-1.598v-4.731a4.486 4.486 0 00-1.317-3.073zM4.01 1.553h11.915a1.99 1.99 0 011.991 1.997v5.654a3.52 3.52 0 00-.766-.369v-1.29c0-1.137-.918-2.09-2.082-2.09h-3.37c-.704 0-1.317.338-1.684.86a2.044 2.044 0 00-1.685-.86h-3.37a2.088 2.088 0 00-2.082 2.09v1.29c-.307.123-.582.246-.827.43V3.55a1.945 1.945 0 011.96-1.997zm.337 7.036c-.245 0-.49.031-.705.062V7.545c0-.707.582-1.29 1.287-1.29h3.37c.704 0 1.286.583 1.286 1.29v1.044H4.347zm6.065-1.044c0-.707.582-1.29 1.286-1.29h3.37c.704 0 1.286.583 1.286 1.29V8.62c-.245-.03-.46-.061-.704-.061h-5.238V7.545zM4.347 9.357H15.68a3.528 3.528 0 013.523 3.534v1.167h-3.921a.406.406 0 00-.398.4c0 .215.184.4.398.4h3.89v1.535H.824v-1.536h10.568a.406.406 0 00.398-.4.407.407 0 00-.398-.399H.824v-1.167a3.528 3.528 0 013.523-3.534zm-1.9 8.265c0 .43-.367.8-.796.8a.812.812 0 01-.796-.8v-.491h1.593v.491zm15.929.83a.812.812 0 01-.797-.799v-.491h1.593v.491c0 .43-.337.799-.796.799z" fill="gray"/><path d="M13.351 14.826a.399.399 0 100-.797.399.399 0 000 .797z" fill="gray"/></svg>