<svg width="313" height="528" fill="none" xmlns="http://www.w3.org/2000/svg"><g opacity=".3" fill="#91AEA8"><path d="M30.34 384.945a7.178 7.178 0 00-7.172 7.173c0 .33 0 .66.082.99.083.412.165.824.248 1.154a7.408 7.408 0 004.7 4.699c.412.083.741.248 1.154.248.33 0 .66.082.989.082a7.178 7.178 0 007.173-7.173 7.178 7.178 0 00-7.173-7.173zm5.69 6.843h-4.205c0-.082 0-.247-.083-.329l3.38-2.474c.578.825.908 1.814.908 2.803zm-1.237-3.297l-3.38 2.473-.248-.247 1.237-3.958c.99.412 1.814.99 2.391 1.732zm-4.452-2.144c.494 0 .99.082 1.484.247l-1.32 3.958h-.329l-1.32-3.958c.495-.082.99-.247 1.485-.247zm.412 5.771c0 .165-.165.33-.412.33a.355.355 0 01-.33-.33c0-.165.165-.33.33-.33.247 0 .412.165.412.33zm-2.473-5.359l1.319 3.958c-.083.082-.165.082-.247.165l-3.38-2.474c.576-.659 1.4-1.237 2.308-1.649zm-2.721 2.226l3.38 2.474c-.082.082-.082.247-.082.329h-4.205c.082-.989.33-1.978.907-2.803zm3.298 3.463c.082.082.082.247.082.33l-3.38 2.473a6.614 6.614 0 01-.907-2.803h4.205zm-2.639 3.545l-.247-.247 3.38-2.474c.083.083.165.165.248.165l-1.32 3.958c-.659-.248-1.236-.66-1.73-1.072l-.33-.33zm4.123 1.814c-.495 0-.99-.082-1.484-.165l1.319-3.957h.33l1.319 3.957c-.495.165-.907.165-1.484.165zm2.061-.33l-1.237-3.957.248-.248 3.38 2.474c-.577.742-1.402 1.319-2.391 1.731zm2.72-2.226l-3.38-2.473c0-.083.083-.248.083-.33h4.205c0 .989-.33 1.979-.907 2.803zM33.97 205.373c1.483-1.566 2.39-3.71 2.39-5.936 0-1.072-.165-2.061-.577-2.968-.083-.247-.165-.412-.247-.66-.413-.824-.907-1.649-1.567-2.308l1.237-1.237c.082-.082.082-.165.082-.247 0-.083 0-.165-.082-.248-.083-.082-.33-.082-.413 0l-1.236 1.237a8.615 8.615 0 00-6.019-2.391c-2.308 0-4.37.907-5.936 2.391l-1.237-1.237c-.082-.082-.33-.082-.412 0-.082.083-.082.33 0 .413l1.237 1.236a8.767 8.767 0 00-2.391 6.019c0 2.309.907 4.37 2.39 5.936l-1.236 1.237c-.082.082-.082.33 0 .412.082.165.33.165.412 0l1.237-1.237c.66.66 1.484 1.155 2.308 1.567.248.082.413.165.66.247.907.33 1.896.495 2.968.495a8.765 8.765 0 006.019-2.391l1.236 1.237c.165.165.33.165.413 0 .082-.083.082-.165.082-.248 0-.082 0-.165-.082-.165l-1.237-1.154zm-6.432-14.098c2.144 0 4.123.824 5.524 2.226l-2.638 2.721c-.742-.66-1.732-1.072-2.886-1.072a4.225 4.225 0 00-2.803 1.072l-2.72-2.721c1.483-1.402 3.38-2.226 5.523-2.226zm3.133 9.399c-.165.33-.33.577-.494.824l-.165-.165-1.897-1.978 2.062-2.144c.494.577.824 1.319.824 2.144-.082.494-.165.907-.33 1.319zm-3.133 2.061c-.824 0-1.566-.33-2.143-.825l2.143-2.061 1.979 1.979.165.165c-.247.247-.577.412-.825.577-.412.082-.824.165-1.319.165zm-.412-3.298l-2.144 2.144c-.494-.577-.742-1.319-.742-2.144 0-.824.248-1.566.742-2.144l2.144 2.144zm-1.731-2.556c.577-.494 1.319-.824 2.143-.824.825 0 1.567.33 2.144.824l-2.144 2.061-2.143-2.061zm-6.019 2.556c0-2.144.907-4.122 2.226-5.524l2.72 2.721c-.659.824-1.071 1.731-1.071 2.886 0 1.071.412 2.061 1.072 2.885l-2.721 2.721c-1.402-1.649-2.226-3.545-2.226-5.689zm8.162 8.162a7.782 7.782 0 01-2.473-.412c-.248-.082-.412-.165-.66-.247a9.228 9.228 0 01-2.39-1.567l2.72-2.721a4.225 4.225 0 002.803 1.072c.33 0 .742 0 1.072-.165a4.678 4.678 0 001.814-.907l2.638 2.721c-1.401 1.402-3.38 2.226-5.524 2.226zm3.298-5.359c.412-.494.825-1.154.99-1.814.082-.329.164-.659.164-.989v-.082a4.229 4.229 0 00-1.071-2.804l2.72-2.72c.66.659 1.154 1.484 1.567 2.391.082.247.165.412.247.659.247.825.412 1.649.412 2.556 0 2.144-.824 4.122-2.226 5.524l-2.803-2.721z"/><path d="M46.088 199.191l-18.304-18.303c-.165-.082-.33-.082-.412 0L9.07 199.191c-.165.083-.165.33 0 .412l11.295 11.296.495.494 6.513 6.514c.083.082.33.082.412 0l15.336-15.253.494-.495 2.556-2.556c0-.082.083-.164.083-.247-.083 0-.083-.082-.165-.165zm-2.968 2.556l-.495.495-15.088 15.088-6.76-6.761-11.13-11.13 17.89-17.891 17.891 17.891-2.308 2.308z"/><path d="M44.605 199.193l-16.82-16.819c-.165-.165-.33-.165-.412 0l-16.819 16.819c-.082.082-.082.33 0 .412l10.553 10.636.495.494 5.771 5.772c.083.165.33.165.412 0l14.594-14.593.494-.495 1.814-1.814c.083-.082.165-.165.165-.247-.165 0-.165-.083-.247-.165zm-2.226 1.814l-.495.494-14.346 14.346-5.606-5.606-.495-.495-10.388-10.388 16.49-16.325 16.406 16.407-1.566 1.567zm143.62 312.884c-.33-.495-.742-.825-1.237-.907-.494-.165-1.071-.248-1.731-.248h-4.617v1.072h4.617c.989 0 1.649.165 2.061.495.33.33.495.907.495 1.649 0 .494-.082.989-.33 1.319-.247.33-.495.495-.907.577a5.76 5.76 0 01-1.319.165h-4.617v1.072h4.617c1.237 0 2.144-.248 2.638-.742.578-.495.825-1.319.825-2.391.082-.907-.165-1.567-.495-2.061zm-2.803-3.956v-2.061c0-1.978-.825-2.968-2.391-2.968-.495 0-.99.165-1.402.412a1.62 1.62 0 00-.742 1.072c-.082.413-.165.99-.165 1.567v2.968h7.915v-1.072h-3.215v.082zm-.99 0h-2.803v-2.061c0-.494 0-.824.082-1.071.083-.248.165-.413.413-.578a1.39 1.39 0 01.824-.247c.99 0 1.484.66 1.484 1.896v2.061zm9.318-235.552c.329-.577.906-1.071 1.731-1.484v-.742c-.577.248-1.072.495-1.402.907v-4.617h-.742v6.019h.413v-.083zm-2.721-6.018h-.824v.825h.824v-.825zm-3.875-.082c-1.319 0-1.979.99-1.979 3.051s.66 3.05 1.979 3.05 1.979-.989 1.979-3.05-.66-3.051-1.979-3.051zm.907 4.865c-.165.412-.495.577-.907.577-.825 0-1.237-.825-1.237-2.474 0-1.649.412-2.473 1.237-2.473.824 0 1.154.824 1.154 2.473.083.907-.082 1.567-.247 1.897zm-5.524-4.865c-1.319 0-1.979.99-1.979 3.051s.66 3.05 1.979 3.05 1.896-.989 1.896-3.05c.082-2.061-.577-3.051-1.896-3.051zm.907 4.865c-.165.412-.495.577-.825.577-.824 0-1.154-.825-1.154-2.474 0-1.649.412-2.473 1.154-2.473.825 0 1.154.824 1.154 2.473 0 .907-.164 1.567-.329 1.897zm-58.289 47.322c-.083-.248-.165-.413-.33-.578-.495-.494-1.319-.742-2.638-.742-2.061 0-3.051.66-3.051 1.897 0 1.236.825 1.814 2.556 1.896h.989c1.732-.082 2.556-.742 2.556-1.896 0-.165 0-.33-.082-.577zm-1.649 1.648c-.247.083-.66.083-1.072.083h-.247c-.907 0-1.484-.083-1.897-.247-.412-.248-.494-.495-.494-.907 0-.825.742-1.237 2.391-1.237 1.072 0 1.731.165 2.143.495.165.165.33.412.33.659v.083c0 .577-.412.907-1.154 1.071zm1.648-4.946h-.824v.824h.824v-.824zm-.659-4.452c-.577-.413-1.319-.577-2.473-.577-1.896 0-2.886.659-2.886 2.061 0 .577.165.989.577 1.319.413.33.825.495 1.484.495.495 0 .99-.165 1.402-.413.412-.329.577-.742.577-1.319 0-.659-.247-1.072-.742-1.401.825 0 1.402.164 1.731.412.413.247.578.577.578.989 0 .577-.33.907-.99.99l.083.742c.494-.083.824-.248 1.071-.495.248-.247.413-.66.413-1.154-.083-.742-.33-1.237-.825-1.649zm-1.979 1.401c0 .33-.164.66-.329.825-.248.247-.577.33-.99.33-.329 0-.742-.083-.989-.33-.247-.248-.412-.495-.412-.907 0-.33.082-.66.33-.825.247-.165.577-.329.989-.329.412 0 .742.082.989.329.248.248.412.578.412.907zm-1.649-2.719l.083-.742a1.4 1.4 0 01-.825-.247c-.247-.165-.33-.495-.33-.907 0-.33.083-.577.248-.742.164-.248.412-.33.742-.33.247 0 .494.082.824.33.33.247.742.659 1.319 1.319.825.989 1.567 1.484 2.226 1.484v-3.958h-.659v2.886c-.248-.165-.412-.33-.577-.495l-.495-.659c-.66-.825-1.237-1.319-1.567-1.484-.329-.165-.659-.248-.906-.248-.495 0-.907.165-1.237.495-.33.33-.495.825-.495 1.319-.082 1.237.495 1.896 1.649 1.979zm3.792-6.513c0 .66-.412.99-1.154 1.155l.082.742c.495-.083.907-.248 1.237-.578.248-.329.412-.824.412-1.319 0-.412-.082-.742-.247-1.072-.247-.329-.495-.577-.824-.742a2.295 2.295 0 00-1.072-.247c-.577 0-.99.165-1.402.495-.33.33-.577.824-.577 1.319 0 .412.165.742.412 1.154l-1.649-.33v-2.391h-.577v2.969l3.051.577.082-.66c-.412-.247-.577-.577-.577-1.072 0-.412.083-.659.33-.907.247-.247.577-.329.989-.329.412 0 .742.082.99.329.329.165.494.495.494.907zm-2.472 162.502c-2.061 0-3.051.659-3.051 1.978s.99 1.979 3.051 1.979 3.05-.66 3.05-1.979-.989-1.978-3.05-1.978zm0 3.133c-.907 0-1.484-.083-1.897-.33-.412-.165-.494-.495-.494-.907 0-.825.742-1.237 2.391-1.237s2.473.412 2.473 1.154c0 .907-.824 1.32-2.473 1.32zm2.967-5.112h-.824v.825h.824v-.825zm-.659-4.452c-.577-.412-1.319-.577-2.473-.577-1.896 0-2.886.659-2.886 2.061 0 .577.165.989.577 1.319.413.33.825.495 1.484.495.495 0 .99-.165 1.402-.495.412-.33.577-.742.577-1.319 0-.66-.247-1.072-.742-1.402.825 0 1.402.165 1.731.413.413.247.578.577.578.989 0 .495-.33.824-.99.989l.083.66c.494-.083.824-.247 1.071-.495.248-.33.413-.659.413-1.154a2.264 2.264 0 00-.825-1.484zm-1.979 1.402c0 .329-.164.659-.329.824-.248.165-.577.33-.99.33-.329 0-.742-.083-.989-.33s-.412-.495-.412-.824c0-.33.082-.66.33-.825.247-.165.577-.33.989-.33.412 0 .742.083.989.33.248.165.412.495.412.825zm1.32-4.121l-.495-.66c-.66-.824-1.237-1.319-1.567-1.484-.329-.165-.659-.247-.906-.247-.495 0-.907.165-1.237.495-.33.33-.495.824-.495 1.319 0 1.154.577 1.814 1.732 1.896l.082-.742c-.33 0-.577-.082-.824-.33-.248-.165-.33-.494-.33-.907 0-.329.082-.577.247-.742.165-.247.412-.329.742-.329.247 0 .495.082.825.329.329.165.742.66 1.319 1.32.824.989 1.566 1.566 2.226 1.566v-3.957h-.66v2.968a1.288 1.288 0 01-.659-.495zm-2.639-5.277c0 .412.164.742.412 1.154l-1.649-.329v-2.391h-.66v2.968l3.051.577.082-.66c-.412-.247-.577-.577-.577-1.071 0-.413.083-.66.33-.907.247-.248.577-.33.989-.33.412 0 .742.082.99.33.329.165.494.494.494.907 0 .659-.412.989-1.154 1.154l.082.742c.495-.083.907-.248 1.237-.577.248-.33.412-.825.412-1.319 0-.413-.082-.825-.247-1.072-.247-.33-.495-.495-.824-.742a2.283 2.283 0 00-1.072-.248c-.577 0-.99.165-1.402.495-.33.33-.494.742-.494 1.319zm.328 69.089c.248-.577.907-1.071 1.732-1.484v-.742c-.577.248-1.072.495-1.484.907v-4.617h-.742v6.019h.494v-.083zm-2.719-6.016h-.824v.825h.824v-.825zm-4.287 1.402v-1.402h-.742v1.402h-.824v.659h.824v3.875h.577l2.721-3.875v-.659h-2.556zm0 3.38v-2.638h1.896l-1.896 2.638zm-2.309-.495l-.742-.082c0 .33-.083.577-.247.824-.165.248-.495.33-.825.33a1.39 1.39 0 01-.824-.247c-.248-.165-.33-.412-.33-.742 0-.248.082-.495.247-.825.165-.329.66-.742 1.402-1.319.989-.824 1.484-1.566 1.484-2.226h-3.958v.742h2.968a3.553 3.553 0 01-.494.577l-.66.495c-.824.659-1.319 1.237-1.484 1.566-.165.33-.247.66-.247.99 0 .494.165.907.495 1.154.329.33.824.495 1.319.495 1.154 0 1.814-.577 1.896-1.732zm-8.327 1.649h2.968l.577-3.05-.659-.083c-.248.413-.577.577-1.072.577-.412 0-.66-.082-.907-.412-.247-.247-.33-.577-.33-.989 0-.412.083-.742.33-.99.247-.329.495-.412.907-.412.659 0 .989.412 1.154 1.154l.825-.082c-.083-.495-.248-.907-.66-1.237-.33-.329-.742-.412-1.319-.412-.412 0-.742.083-1.072.247-.33.165-.495.413-.659.742-.165.33-.248.66-.248 1.072 0 .577.165 1.072.495 1.402.33.33.824.577 1.319.577.412 0 .742-.165 1.154-.412l-.33 1.566h-2.39v.742h-.083zM17.395 115.756l.578-.577-.578-.577-.577.577.577.577zm-3.462-2.555l.99-.99-.495-.494-.99.989-.577-.577-.495.495.577.577-2.72 2.721.412.412 4.617-.825.495-.494-1.814-1.814zm-2.391 2.391l1.896-1.896 1.32 1.319-3.216.577zm32.815 34.462l.33.33c.66-.247 1.402-.165 2.309.165l.494-.495c-.577-.247-1.154-.412-1.648-.412l3.297-3.298-.494-.494-4.288 4.204zm1.978-6.515l-.577.66.577.577.577-.577-.577-.66zm101.08 111.221l.577-.577-.577-.578-.577.578.577.577zm-2.06-3.378c-.907-.907-2.144-.659-3.545.742-1.402 1.402-1.649 2.638-.742 3.545s2.061.66 3.462-.742c1.484-1.401 1.732-2.638.825-3.545zm-1.319 3.051c-.66.659-1.155.989-1.567 1.154-.412.165-.742 0-.989-.247-.577-.578-.247-1.402.907-2.556 1.154-1.155 1.979-1.402 2.556-.907.577.494.247 1.401-.907 2.556zm-64.722-80.14l.577-.577-.578-.577-.577.577.578.577zm131.338 317.504v15.747h-3.957a.355.355 0 00-.33.33c0 .165.165.33.33.33h3.545l-.247.247c-.083.083-.083.33 0 .413.165.082.33.082.412 0l.247-.248v5.029c0 .165.165.33.33.33s.33-.165.33-.33v-5.441h1.814c.165 0 .33-.165.33-.33a.355.355 0 00-.33-.33h-1.402l.248-.247c.082-.082.082-.165.082-.247 0-.083 0-.165-.082-.248-.083-.082-.33-.082-.413 0l-.247.248v-15.335a.355.355 0 00-.33-.33c-.165.082-.33.165-.33.412zm21.932 15.747h-3.545l.248-.247c.082-.082.082-.165.082-.247 0-.083 0-.165-.082-.248-.165-.165-.33-.165-.413 0l-.247.248v-15.335a.355.355 0 00-.33-.33c-.165 0-.247.165-.247.33v15.829h-1.814a.355.355 0 00-.33.33c0 .165.165.33.33.33h1.402l-.248.247c-.082.083-.082.33 0 .413.083.082.33.082.413 0l.247-.248v2.638c-.577.495-.825 1.32-.825 2.639 0 1.978.66 3.05 1.979 3.05s1.979-.989 1.979-3.05-.66-3.051-1.979-3.051c-.165 0-.33.083-.495.083v-2.721h4.04c.165 0 .33-.165.33-.33-.165-.165-.33-.33-.495-.33zm-3.545 3.875c.825 0 1.155.825 1.155 2.474 0 .907-.083 1.484-.33 1.896-.165.412-.495.577-.907.577-.825 0-1.154-.824-1.154-2.391 0-.494 0-.824.082-1.154v.907c0 .165.165.33.247.33.165 0 .33-.165.33-.33v-2.061c.247-.165.412-.248.577-.248zm-3.134-.495h-.825v.824h.825v-.824zm-5.113.412c-.412.329-.577.742-.577 1.401 0 .825.33 1.319 1.072 1.484-.577.248-.825.66-.825 1.237 0 .412.165.742.412 1.072.33.33.742.494 1.32.494.494 0 .906-.164 1.154-.412.33-.247.495-.659.577-1.154l-.742-.083c-.083.742-.495 1.072-1.072 1.072-.33 0-.495-.082-.742-.247-.165-.165-.247-.412-.247-.66 0-.247 0-.412.165-.577.165-.165.329-.247.412-.33.165-.082.412-.082.659-.082l.083-.66c-.247.083-.412.083-.495.083-.33 0-.659-.083-.824-.33-.165-.247-.33-.495-.33-.824 0-.33.082-.66.33-.907.247-.248.494-.33.824-.33.66 0 .99.412 1.154 1.154l.743-.082c-.083-.495-.248-.907-.578-1.237-.329-.33-.824-.495-1.319-.495-.33-.082-.742.083-1.154.413zm-3.298-.496c-1.319 0-1.978.989-1.978 3.05 0 1.979.659 3.051 1.978 3.051s1.979-.989 1.979-3.051c-.082-2.061-.742-3.05-1.979-3.05zm.825 4.864c-.165.412-.495.577-.907.577-.825 0-1.237-.824-1.237-2.391 0-1.649.412-2.473 1.154-2.473.825 0 1.155.824 1.155 2.473.165.825.082 1.484-.165 1.814zm27.208-46.663c-1.979 0-3.05.66-3.05 1.979s.989 1.978 3.05 1.978 3.051-.659 3.051-1.978-1.072-1.979-3.051-1.979zm0 3.133c-.907 0-1.484-.082-1.896-.33-.412-.165-.577-.494-.577-.907 0-.824.824-1.236 2.473-1.236s2.473.412 2.473 1.236c-.082.825-.824 1.237-2.473 1.237zm2.887-5.113h-.824v.824h.824v-.824zm-.661-4.451c-.495-.412-1.319-.577-2.473-.577-1.897 0-2.803.66-2.803 2.061 0 .578.164.99.577 1.32.329.329.824.494 1.401.494.495 0 .99-.165 1.402-.494.412-.33.577-.742.577-1.32 0-.659-.247-1.071-.742-1.484.824 0 1.402.165 1.731.413.33.247.577.577.577.989 0 .577-.329.907-.906.989l.082.66c.495-.083.825-.247 1.072-.495.247-.247.412-.659.412-1.154-.082-.495-.33-.989-.907-1.402zm-1.979 1.402c0 .412-.082.66-.329.907-.248.247-.495.33-.907.33-.412 0-.742-.083-.99-.33-.329-.247-.412-.495-.412-.907 0-.33.165-.577.412-.825.248-.247.578-.329.99-.329.412 0 .742.082.989.329.083.248.247.495.247.825zm2.145-4.533c0 .66-.33 1.072-1.154 1.154l.082.742c.495-.082.907-.247 1.155-.577.329-.329.494-.824.494-1.319 0-.412-.082-.742-.247-1.072a1.621 1.621 0 00-.742-.742 2.283 2.283 0 00-1.072-.247c-.577 0-.989.165-1.401.495-.33.329-.578.824-.578 1.319 0 .412.083.742.413 1.154l-1.567-.33v-2.391h-.659v2.968l3.05.578.083-.66c-.413-.247-.578-.577-.578-1.072 0-.412.083-.659.33-.907.248-.247.577-.33.99-.33.412 0 .742.083 1.071.33.165.165.33.495.33.907zm.494-157.641h-5.936v.495c.577.247 1.071.824 1.484 1.731h.659c-.247-.577-.494-1.072-.907-1.484h4.7v-.742zm.001-3.133h-.824v.825h.824v-.825zm-1.403-4.123v-.824h-.659v.824h-3.875v.577l3.875 2.721h.659v-2.556h1.402v-.742h-1.402zm-.659 2.639l-2.639-1.897h2.639v1.897zm-.825-8.08c-1.979 0-3.05.659-3.05 1.978s.989 1.979 3.05 1.979 3.051-.66 3.051-1.979-1.072-1.978-3.051-1.978zm0 3.133c-.907 0-1.484-.083-1.896-.33-.412-.248-.577-.495-.577-.907 0-.825.824-1.237 2.473-1.237s2.473.412 2.473 1.154c-.082.907-.824 1.32-2.473 1.32z"/><path d="M251.216 432.023v1.402l-.247-.248c-.083-.082-.33-.082-.413 0-.082.165-.082.33 0 .413l.248.247h-19.623c-.165 0-.329.165-.329.33s.082.33.329.33h20.035v48.313h-8.575c-.164 0-.247.165-.247.33s.083.33.247.33h8.575v4.7l-.247-.248c-.083-.082-.33-.082-.413 0-.082.165-.082.33 0 .412l.248.248h-19.623c-.165 0-.329.165-.329.33 0 .164.082.329.329.329h20.035v1.897c0 .165.165.329.247.329.165 0 .33-.164.33-.329v-1.402l.165.247c.165.165.33.165.495 0 0-.082.082-.082.082-.247 0-.082 0-.165-.082-.247l-.248-.248h5.03c.164 0 .329-.165.329-.329 0-.165-.082-.33-.329-.33h-5.442v-5.112h27.372c.165 0 .33-.082.33-.33a.355.355 0 00-.33-.33h-27.372v-47.901l.165.247c.165.083.33.083.495 0 0-.082.082-.165.082-.247 0-.083 0-.165-.082-.248l-.248-.247h5.03c.164 0 .329-.165.329-.33s-.082-.329-.329-.329h-5.442v-1.732a.355.355 0 00-.33-.33c-.165 0-.247.165-.247.33zm0-181.961v1.402l-.247-.248c-.083-.082-.33-.082-.413 0-.082.083-.082.33 0 .413l.248.247h-19.623c-.165 0-.329.165-.329.33s.082.33.329.33h20.035v28.691h-8.575c-.164 0-.247.165-.247.33s.083.33.247.33h8.575v50.705l-.247-.248c-.083-.082-.33-.082-.413 0-.082.083-.082.33 0 .412l.248.248h-19.623c-.165 0-.329.165-.329.33 0 .164.082.329.329.329h20.035v1.814c0 .165.165.33.247.33.165 0 .33-.165.33-.33v-1.401l.165.247c.165.082.33.082.495 0 0-.082.082-.165.082-.247 0-.083 0-.165-.082-.248l-.248-.247h5.03c.164 0 .329-.165.329-.33s-.082-.33-.329-.33h-5.442v-50.952h27.372c.165 0 .33-.165.33-.33 0-.164-.165-.329-.33-.329h-27.372v-28.28l.165.248c.165.082.33.082.495 0 0-.083.082-.165.082-.248 0-.082 0-.165-.082-.247l-.248-.247h5.03c.164 0 .329-.165.329-.33s-.082-.33-.329-.33h-5.442v-1.814a.355.355 0 00-.33-.33c-.165.083-.247.165-.247.33zm49.632 233.076c0 .165.165.33.247.33h10.883c.165 0 .247-.082.247-.33 0-.164-.165-.329-.247-.329h-10.883c-.165 0-.247.165-.247.329zm-123.751 0c0-.164-.083-.329-.33-.329h-7.256c-.164 0-.329.165-.329.329 0 .165.082.33.329.33h7.256c.247-.082.33-.165.33-.33zm109.075 0c0 .165.165.33.33.33h7.255c.165 0 .33-.082.33-.33 0-.164-.165-.329-.33-.329h-7.255c-.165 0-.33.165-.33.329zM3.215 7.504v7.337c0 .165.165.33.33.33s.33-.165.33-.33V7.504a.355.355 0 00-.33-.33c-.248.082-.33.165-.33.33zm0 14.673v36.524c0 .165.165.33.33.33s.33-.165.33-.33V22.177a.355.355 0 00-.33-.33c-.248 0-.33.165-.33.33zm0 43.863v7.338c0 .165.165.33.33.33s.33-.165.33-.33v-7.337a.355.355 0 00-.33-.33c-.248 0-.33.165-.33.33zm0 292.438v7.338c0 .165.165.33.33.33s.33-.165.33-.33v-7.338a.355.355 0 00-.33-.33c-.248 0-.33.165-.33.33zm0-58.455v7.338c0 .165.165.33.33.33s.33-.165.33-.33v-7.338a.355.355 0 00-.33-.33c-.248 0-.33.165-.33.33zm0-43.861v36.524c0 .165.165.33.33.33s.33-.165.33-.33V256.08a.355.355 0 00-.33-.33c-.248.082-.33.247-.33.412zm0 160.855v7.338c0 .165.165.33.33.33s.33-.165.33-.33v-7.338c0-.165-.165-.329-.33-.329-.248-.001-.33.082-.33.329zm0-102.4v36.524c0 .165.165.33.33.33s.33-.165.33-.33v-36.524a.355.355 0 00-.33-.33c-.248 0-.33.165-.33.33zm.248-117.322a.355.355 0 00-.33.33v36.524c0 .165.165.329.33.329.164 0 .33-.164.33-.329v-36.524a.355.355 0 00-.33-.33zm-.248 44.191v7.338c0 .165.165.33.33.33s.33-.165.33-.33v-7.338a.355.355 0 00-.33-.33c-.248 0-.33.165-.33.33zm.248-50.87c.164 0 .33-.165.33-.33v-7.255a.355.355 0 00-.33-.33.355.355 0 00-.33.33v7.338c.082.082.165.247.33.247zm.329 336.056v-36.524a.355.355 0 00-.33-.33.355.355 0 00-.33.33v36.524c0 .165.166.33.33.33.165 0 .33-.165.33-.33zm86.075-212.385a.355.355 0 00-.33.33v36.524c0 .165.083.33.33.33.165 0 .33-.165.33-.33v-36.524c-.083-.165-.165-.33-.33-.33zm-.33-306.783v7.337c0 .165.083.33.33.33.165 0 .33-.165.33-.33V7.504c0-.165-.083-.33-.33-.33-.247.082-.33.165-.33.33zm0 350.974v7.338c0 .165.083.33.33.33.165 0 .33-.165.33-.33v-7.338c0-.165-.083-.33-.33-.33s-.33.165-.33.33zM90.115 0v.247c0 .165-.083.33-.33.33a.355.355 0 01-.33-.33V0h.66zm-.578 417.017v7.338c0 .165.083.33.33.33.165 0 .33-.165.33-.33v-7.338c0-.165-.083-.329-.33-.329-.247-.001-.33.082-.33.329zm0-43.945v36.524c0 .165.083.33.33.33.165 0 .33-.165.33-.33v-36.524c0-.165-.083-.33-.33-.33-.247.083-.33.165-.33.33zm0-73.049v7.338c0 .165.083.33.33.33.165 0 .33-.165.33-.33v-7.338c0-.165-.083-.33-.33-.33s-.33.165-.33.33zm0 131.588v36.524c0 .165.083.33.33.33.165 0 .33-.165.33-.33v-36.524c0-.165-.083-.33-.33-.33s-.33.165-.33.33zm0-409.434v36.524c0 .165.083.33.33.33.165 0 .33-.165.33-.33V22.177c0-.165-.083-.33-.33-.33s-.33.165-.33.33zm0 43.863v7.338c0 .165.083.33.33.33.165 0 .33-.165.33-.33v-7.337c0-.165-.083-.33-.33-.33s-.33.165-.33.33zm0 14.592v36.525c0 .164.083.329.33.329.165 0 .33-.165.33-.329V80.632c0-.164-.083-.33-.33-.33s-.33.166-.33.33zm0 102.399v7.338c0 .165.083.33.33.33.165 0 .33-.165.33-.33v-7.338c0-.165-.083-.33-.33-.33s-.33.165-.33.33zM61.423 0v.247c0 .165-.165.33-.33.33a.355.355 0 01-.33-.33V0h.66zm0 248.824v-7.338a.355.355 0 00-.33-.33.355.355 0 00-.33.33v7.338c0 .165.166.33.33.33.165 0 .33-.165.33-.33zm18.551 157.969c-.083-.165-.33-.165-.413-.083l-1.649 1.155-.99.659-1.236.825c-.99-1.072-2.39-1.814-4.04-1.979l-10.306-.907v-33.391a.355.355 0 00-.33-.33.355.355 0 00-.33.33v33.391l-4.121-.33c-2.391-.165-4.617.907-5.854 2.968-1.65 2.639-2.639 5.524-3.133 8.41-.083.247-.083.577-.083.824a22.878 22.878 0 003.216 14.593c1.236 2.062 3.463 3.133 5.854 2.969l4.122-.33v32.649c0 .165.165.33.33.33s.33-.165.33-.33v-32.732l3.05-.247.825-.083 6.43-.577c1.567-.165 2.968-.824 4.04-1.978l1.237.824.99.66 1.648 1.154c.165.082.33.082.412-.083 2.969-4.287 4.37-9.234 4.37-14.18.083-4.947-1.401-9.894-4.37-14.181zm-19.21 28.114l-4.123.33c-2.144.165-4.205-.825-5.277-2.638a22.754 22.754 0 01-3.215-13.769c0-.247.082-.577.082-.824.413-2.969 1.484-5.937 3.133-8.657a5.659 5.659 0 015.277-2.639l4.122.33v.495l-4.204-.33c-1.897-.165-3.793.742-4.782 2.391-1.65 2.721-2.721 5.771-3.05 8.822 0 .33-.083.577-.083.824-.33 4.452.742 8.987 3.133 12.944.989 1.649 2.885 2.556 4.782 2.391l4.204-.329v.659zm0-3.298v2.144l-4.206.412c-1.73.165-3.297-.659-4.204-2.143-2.309-3.711-3.298-7.915-3.133-12.038 0-.247 0-.577.082-.907.248-3.133 1.32-6.266 3.05-9.069.908-1.484 2.474-2.226 4.206-2.143l4.204.329v1.402c0 .165.165.33.33.33s.33-.165.33-.33v-1.402l10.14.907c2.31.165 4.123 2.144 4.123 4.452v14.676c0 2.309-1.814 4.287-4.122 4.452l-7.915.66-.825.082-1.401.165v-2.061a.355.355 0 00-.33-.33c-.165 0-.247.083-.33.165v.247zm10.882 2.309l-6.925.577-.825.082-2.473.248v-.577l1.979-.165.824-.083 7.42-.659c2.639-.248 4.7-2.391 4.7-5.03v-14.675c0-2.638-2.061-4.865-4.7-5.112l-10.223-.907v-.577l10.306.907c2.885.247 5.112 2.638 5.112 5.606v14.676c0 3.051-2.227 5.441-5.195 5.689zm4.453-1.814c.824-1.072 1.319-2.391 1.319-3.793v-14.675c0-1.484-.495-2.721-1.32-3.793l.99-.659a21.172 21.172 0 010 23.58l-.99-.66zm1.483.989c2.474-3.71 3.71-7.915 3.71-12.119 0-4.205-1.236-8.41-3.71-12.12l.413-.33c5.029 7.585 5.029 17.232 0 24.899l-.413-.33zm2.062 1.402l-1.155-.742c2.556-3.875 3.875-8.327 3.875-12.779s-1.319-8.905-3.875-12.78l1.155-.742c5.524 8.245 5.524 18.798 0 27.043zm-18.88-119.878v36.524c0 .165.165.33.33.33.164 0 .33-.165.33-.33v-36.524a.355.355 0 00-.33-.33.355.355 0 00-.33.33z"/><path d="M60.764 417.017v7.338c0 .165.165.33.33.33.164 0 .33-.165.33-.33v-7.338c0-.165-.166-.329-.33-.329-.165-.001-.33.082-.33.329zm.659 109.655v-36.524a.355.355 0 00-.33-.33.355.355 0 00-.33.33v36.524c0 .165.166.33.33.33.165 0 .33-.165.33-.33zm-.659-168.194v7.338c0 .165.165.33.33.33.164 0 .33-.165.33-.33v-7.338a.355.355 0 00-.33-.33.355.355 0 00-.33.33zm0-292.438v7.338c0 .165.165.33.33.33.164 0 .33-.165.33-.33v-7.337a.355.355 0 00-.33-.33.355.355 0 00-.33.33zm0-43.863v36.524c0 .165.165.33.33.33.164 0 .33-.165.33-.33V22.177a.354.354 0 00-.33-.33.355.355 0 00-.33.33zm0 277.846v7.338c0 .165.165.33.33.33.164 0 .33-.165.33-.33v-7.338a.355.355 0 00-.33-.33.355.355 0 00-.33.33zm0-292.519v7.337c0 .165.165.33.33.33.164 0 .33-.165.33-.33V7.504a.355.355 0 00-.33-.33c-.165.082-.33.165-.33.33zm86.322 116.992v7.338c0 .164.165.329.33.329s.33-.165.33-.329v-7.338c0-.165-.083-.33-.33-.33a.355.355 0 00-.33.33zm0 14.674v36.524c0 .165.165.329.33.329s.33-.164.33-.329V139.17c0-.165-.083-.33-.33-.33a.355.355 0 00-.33.33zm0-58.538v36.525c0 .164.165.329.33.329s.33-.165.33-.329V80.632c0-.164-.083-.33-.33-.33a.355.355 0 00-.33.33zm0-14.592v7.338c0 .165.165.33.33.33s.33-.165.33-.33v-7.337c0-.165-.083-.33-.33-.33a.355.355 0 00-.33.33zm0-43.863v36.524c0 .165.165.33.33.33s.33-.165.33-.33V22.177c0-.165-.083-.33-.33-.33a.355.355 0 00-.33.33zm0-14.673v7.337c0 .165.165.33.33.33s.33-.165.33-.33V7.504c0-.165-.083-.33-.33-.33-.165.082-.33.165-.33.33zm2.474 505.151h-.825c-.165-.495-.495-.907-.989-.99v-21.601c0-.165-.083-.33-.33-.33a.355.355 0 00-.33.33v21.601a1.228 1.228 0 00-.989.99H90.115v-22.591c0-.165-.082-.33-.33-.33a.355.355 0 00-.33.33v22.591H66.124l.248-.248c.082-.082.082-.165.082-.247 0-.082 0-.165-.082-.165a.234.234 0 00-.413 0l-.247.247v-20.529c0-.165-.082-.33-.247-.33a.355.355 0 00-.33.33v20.942H63.32c-.165 0-.33.165-.33.329 0 .165.165.33.33.33h1.402l-.248.248c-.082.082-.082.329 0 .412.165.165.33.165.412 0l.248-.248v5.03c0 .165.165.329.33.329s.247-.164.247-.329v-5.442h23.91v13.357c0 .164.082.329.33.329.164 0 .33-.165.33-.329v-13.357h55.981c.082.495.494.907.989.99v12.284c0 .165.165.33.33.33s.33-.165.33-.33v-12.284a1.23 1.23 0 00.989-.99h.824c.165 0 .33-.165.33-.33 0-.164-.33-.329-.494-.329zm-2.474-.33v.412h-.33c.083-.247.165-.33.33-.412zm-.33.989h.413v.412c-.248-.082-.33-.247-.413-.412zm.99.412v-.412h.412c-.165.165-.247.33-.412.412zm0-1.071v-.413a1 1 0 01.412.413h-.412zM8.326 281.636c0 .165.165.33.33.33H45.18c.165 0 .33-.165.33-.33 0-.164-.165-.329-.33-.329H8.656c-.165 0-.33.165-.33.329zm43.862 0c0 .165.164.33.33.33h7.255c.164 0 .33-.165.33-.33 0-.164-.166-.329-.33-.329h-7.256c-.165 0-.33.165-.33.329zm233.984 0c0 .165.165.33.33.33h7.255c.165 0 .33-.165.33-.33 0-.164-.165-.329-.33-.329h-7.255c-.165 0-.33.165-.33.329zm14.676 0c0 .165.165.33.247.33h10.883c.165 0 .247-.165.247-.33 0-.164-.165-.329-.247-.329h-10.883c-.165 0-.247.165-.247.329zm-131.666 0c0 .165.082.33.329.33h7.256c.165 0 .33-.165.33-.33 0-.164-.083-.329-.33-.329h-7.256c-.164 0-.329.165-.329.329zm73.13-57.628c0 .164.083.329.248.329h36.606c.165 0 .33-.165.33-.329a.355.355 0 00-.33-.33H242.56c-.165.082-.248.247-.248.33zm43.86 0c0 .164.165.329.33.329h7.255c.165 0 .33-.165.33-.329a.355.355 0 00-.33-.33h-7.255c-.165.082-.33.247-.33.33zm-58.453 0c0 .164.165.329.33.329h7.337c.165 0 .33-.165.33-.329a.355.355 0 00-.33-.33h-7.337c-.165.082-.33.247-.33.33zm-167.531 0a.355.355 0 00-.33-.33h-7.255a.355.355 0 00-.33.33c0 .164.165.329.33.329h7.256c.164 0 .33-.082.33-.329zm240.66 0c0 .164.165.329.247.329h10.883c.165 0 .247-.165.247-.329 0-.165-.165-.33-.247-.33h-10.883c-.165.082-.247.247-.247.33zm-190.121-86.323c0 .165.164.33.329.33h7.338c.165 0 .33-.165.33-.33a.355.355 0 00-.33-.33h-7.338c-.247 0-.329.165-.329.33zm131.585 0c0 .165.083.33.248.33h36.606c.165 0 .33-.165.33-.33a.355.355 0 00-.33-.33H242.56c-.165 0-.248.165-.248.33zm-14.593 0c0 .165.165.33.33.33h7.337c.165 0 .33-.165.33-.33a.355.355 0 00-.33-.33h-7.337a.355.355 0 00-.33.33zm73.129 0c0 .165.165.33.247.33h10.883c.165 0 .247-.165.247-.33s-.165-.33-.247-.33h-10.883c-.165 0-.247.165-.247.33zm-14.676 0c0 .165.165.33.33.33h7.255c.165 0 .33-.165.33-.33a.355.355 0 00-.33-.33h-7.255a.355.355 0 00-.33.33zM1.32 187.65l1.648-1.649c0-.082.083-.164.083-.247 0-.082 0-.165-.083-.247L0 182.621v.907l2.309 2.309-1.155 1.154L0 185.837v.906l.907.907c.165.083.33.083.412 0zm.329-49.965c0-.165-.083-.33-.33-.33H0v.578h1.32c.246.082.329-.083.329-.248zM3.215 0v.247c0 .165.165.33.33.33s.33-.165.33-.33V0h-.66z"/><path d="M147.085 0v.247c0 .165.165.33.33.33s.33-.165.33-.33V0h-.66zm57.796 449.83v3.958l-2.639-1.319-.494.494 3.133 1.567v10.801l-7.668-3.875 1.402 1.401 6.266 3.133v3.133l.659.66v-20.612l-.659.659zm-7.668 11.708l-1.896-.989-.742-.413-.495.495 2.556 1.319 1.896.907-1.319-1.319zm-50.128-59.527v9.399l.577.577v-10.635l-.577.659zm-2.885 2.886v4.534l.659.66v-5.854l-.659.66zm91.104 77.912h-6.761v-200.84h6.761c.164 0 .329-.165.329-.33s-.165-.33-.329-.33h-6.761v-29.021a.355.355 0 00-.33-.33h-17.149l-5.854-5.771v-21.766h15.336c.164 0 .329-.165.329-.33s-.165-.33-.329-.33h-15.253v-85.745h15.335c.165 0 .33-.165.33-.33s-.165-.329-.33-.329h-15.335V0h-.66v137.357h-16.654V0h-.577v137.357h-3.298c-.165 0-.33.164-.33.329s.083.33.33.33h3.298v85.745h-3.298a.355.355 0 00-.33.33c0 .165.083.33.33.33h3.298v3.875l-16.654-16.655v-73.542h6.018c.165 0 .33-.165.33-.33s-.082-.33-.33-.33h-6.018V0h-.66v137.357h-.66a.354.354 0 00-.329.329c0 .165.082.33.329.33h.66v72.966l-16.654-16.655v-56.311h8.739c.165 0 .33-.165.33-.33s-.165-.329-.33-.329h-8.739V0h-.577v137.357h-27.208c-.165 0-.33.164-.33.329s.165.33.33.33h27.208v55.734l-5.195-5.111v-5.607c0-.165-.082-.33-.329-.33a.355.355 0 00-.33.33v4.947L97.04 138.016h6.513c.165 0 .33-.165.33-.33s-.165-.329-.33-.329h-7.172l-6.431-6.431v-6.431c0-.165-.083-.33-.33-.33a.355.355 0 00-.33.33v5.854l-27.867-28.115v-21.6a.355.355 0 00-.33-.33.355.355 0 00-.33.33v20.941l-27.62-27.62c-.082-.082-.33-.082-.412 0l-4.04 4.04-21.6 21.6-1.32-1.318-1.484-1.567-.494-.494V80.633a.355.355 0 00-.33-.33.355.355 0 00-.33.33v15.005L0 92.505v.907l3.215 3.216v6.925L0 106.686v.907l3.215-3.215v12.862c0 .164.165.329.33.329s.33-.165.33-.329v-13.439l3.298-3.298 1.319 1.319c.082.165.33.165.412 0 0-.082.083-.165.083-.247 0-.083 0-.165-.083-.248l-.99-.989h.33c.166 0 .33-.165.33-.33a.355.355 0 00-.33-.33h-.412l.413-.412.577-.577 2.556-2.556 1.154-1.154 1.731 1.731-5.441 12.944-.248.495-.906 2.144-.66-.577-.412.412.824.824-5.029 11.708L0 122.269v1.649l.495.494H0v.578h1.154l.825.824H0v.66h2.556l.577.577v.247H0v.66h3.215v.824H0v.577h3.215v.825H.66l-.66-.577v1.731l.33.33H0v.659h8.904v1.072l-.082.083.082.082v1.237l-.082.082.082.083v1.236l-.082.083.082.082v.99h-.247c-.165 0-.33.164-.33.329s.165.33.33.33h.247v1.072l-.082.082v3.875h-5.03v-3.957a.355.355 0 00-.33-.33.355.355 0 00-.329.33v3.957H0v.66h3.215v9.729a1.227 1.227 0 00-.989.989H0V155h2.144c.082.577.494.907.989 1.072v19.54c0 .165.165.33.33.33s.33-.165.33-.33v-19.54c.494-.165.906-.495.989-1.072h.824c.165 0 .33-.082.33-.247a.355.355 0 00-.33-.33h-.824a1.227 1.227 0 00-.99-.989v-9.729h5.442c.165 0 .33-.165.33-.33v-2.638l31.742 31.742 4.04 4.04 2.061 2.061 2.061 2.061 26.466 26.466 2.06 2.061 11.626 11.625v2.968h-3.216l-1.154-1.154a2.09 2.09 0 00-2.968 0l-1.154 1.154h-2.309l-16.572-16.654c-.164-.248-.494-.33-.742-.495v-8.987c0-.165-.165-.329-.33-.329-.164 0-.33.164-.33.329v8.905c-.576 0-1.153.164-1.648.577l-5.277 5.359-.494.494-10.8 10.801H8.655a.355.355 0 00-.329.33c0 .165.165.33.33.33h33.226l-12.037 12.037a2.09 2.09 0 000 2.968l30.835 30.835v22.426c0 .165.165.329.33.329s.33-.164.33-.329v-21.849l2.39 2.391.495.495 7.585 7.585h-4.7a.355.355 0 00-.329.33c0 .165.165.33.33.33h5.276l27.373 27.372a2.091 2.091 0 002.968 0l3.628-3.628 2.308 2.309a2.09 2.09 0 002.968 0l13.934-13.934v39.987l-.248-.247c-.165-.083-.329-.083-.412 0-.165.165-.165.329 0 .412l.247.247h-5.029a.355.355 0 00-.33.33c0 .165.165.33.33.33h5.442v1.814c0 .165.165.329.329.329.165 0 .33-.164.33-.329v-1.402l.248.247c.082.083.329.083.412 0 .082-.082.082-.165.082-.247 0-.082 0-.165-.082-.247l-.248-.248h12.038c.165 0 .33-.165.33-.329 0-.165-.083-.33-.33-.33h-12.532v-40.894l3.875-3.875.495-.495 5.359-5.359c.412-.412.659-.907.659-1.484 0-.165-.082-.329-.082-.494h4.946v200.84h-14.098a1.228 1.228 0 00-.989-.989v-51.2l.247.248c.082.165.33.165.412 0 .083-.083.083-.165.083-.248 0-.082 0-.164-.083-.247l-.247-.247h12.037c.165 0 .33-.165.33-.33s-.082-.33-.33-.33h-12.532v-1.814c0-.165-.165-.329-.33-.329a.354.354 0 00-.329.329v1.402l-.248-.247c-.165-.083-.329-.083-.412 0-.165.082-.165.329 0 .412l.247.247h-5.029c-.165 0-.33.083-.33.33 0 .165.165.33.33.33h5.442v51.612a1.228 1.228 0 00-.99.989H90.115v-7.338c0-.165-.083-.33-.33-.33a.355.355 0 00-.33.33v7.338H61.34v-7.338a.355.355 0 00-.33-.33.355.355 0 00-.33.33v7.338H3.793v-7.338a.355.355 0 00-.33-.33.355.355 0 00-.33.33v7.338H0v.659h16.16v2.309H0v.66h16.16v.824H0v.66h16.16v.824H0v.577h178.663c.164 1.814 1.731 3.298 3.545 3.298 1.896 0 3.38-1.484 3.545-3.298h42.543c.164 0 .329-.165.329-.33v-5.441h6.761c.165 0 .33-.083.33-.33-.083 0-.248-.165-.412-.165zM6.019 100.338h.33l-2.556 2.556v-5.69l1.484 1.485.989.99h-.247a.355.355 0 00-.33.329c0 .165.165.33.33.33zm-2.804 31.247H2.061l-.742-.824h1.896v.824zm0 23.91a.996.996 0 01-.412-.412h.412v.412zm0-.989h-.412a.998.998 0 01.412-.413v.413zm.578.989v-.412h.412c-.083.247-.248.412-.412.412zm.412-.989h-.412v-.33c.164 0 .33.165.412.33zm55.734 328.88h2.226v2.309h-2.226v-2.309zm-40.317 0h39.74v.825h-39.74v-.825zm0 1.484h39.74v.825h-39.74v-.825zm-.577 3.711h-2.308v-2.309h2.308v2.309zm0-2.886h-2.308v-2.309h2.308v2.309zm43.12 2.886H19.622v-2.309h42.543v2.309zm2.886 0h-2.226v-5.112h2.226v5.112zm5.77 0h-5.193v-5.112h5.194v5.112zm.66-.578v-.742l.743.742h-.743zm1.567 0l-1.649-1.566v-1.154l2.72 2.72h-1.071zm1.979 0l-3.628-3.627v-.412h.825l4.04 3.957h-1.237v.082zm2.143 0l-4.04-3.957h1.155l4.04 3.957H77.17zm1.98 0l-3.958-3.957h1.154l4.04 3.957h-1.237zm2.06 0l-3.957-3.957h1.072l3.957 3.957H81.21zm1.979 0l-3.957-3.957h1.154l3.957 3.957H83.19zm2.061 0l-3.957-3.957h1.154l3.957 3.957H85.25zm2.061 0l-4.04-4.039h1.155l3.957 3.957h-1.072v.082zm2.061 0l-4.04-3.957h1.155l4.04 3.957h-1.154zm1.98 0l-3.958-4.039h1.154l3.957 3.957h-1.154v.082zm2.06 0l-3.957-3.957h1.154l3.958 3.957h-1.155zm2.061 0l-3.957-3.957h1.154l3.958 3.957h-1.154zm1.98 0l-3.958-3.957h1.154l3.957 3.957h-1.154zm2.06 0l-3.957-3.957h1.154l3.958 3.957h-1.155zm2.062 0l-3.958-3.957h1.154l3.958 3.957h-1.154zm1.978 0l-3.957-3.957h1.154l3.958 3.957h-1.155zm2.062 0l-3.958-3.957h1.154l4.04 3.957h-1.236zm2.061 0l-4.04-3.957h1.154l3.957 3.957h-1.071zm1.978 0l-3.957-3.957h1.154l3.958 3.957h-1.155zm2.062 0l-4.04-3.957h1.154l4.04 3.957h-1.154zm2.061 0l-3.958-3.957h1.155l3.957 3.957h-1.154zm1.978 0l-3.957-3.957h1.154l3.958 3.957h-1.155zm10.554-5.606a.992.992 0 01.412.412h-.412v-.412zm-.66 0v.412h-.412a.986.986 0 01.412-.412zm-7.832 5.606l-3.958-3.957h1.154l4.04 3.957h-1.236zm2.061 0l-3.958-3.957h1.155l3.957 3.957h-1.154zm1.979 0l-3.958-4.039h1.154l3.958 3.957h-1.154v.082zm2.061 0l-3.958-3.957h1.155l4.039 3.957h-1.236zm2.061 0l-4.04-3.957h1.154l3.958 3.957h-1.072zm2.061 0l-3.957-3.957h.907c.164.247.412.33.659.412l.083.083v.824c0 .165.164.33.329.33s.33-.165.33-.33v-.165l2.886 2.886h-1.237v-.083zm1.979 0l-3.628-3.627c.247-.083.412-.248.577-.412h.165l4.04 3.957h-1.154v.082zm2.061 0l-4.04-3.957h1.154l3.958 3.957h-1.072zm2.061 0l-3.957-3.957h1.154l3.957 3.957h-1.154zm1.979 0l-3.958-3.957h1.155l4.04 3.957h-1.237zm2.061 0l-3.957-3.957h1.154l3.957 3.957h-1.154zm3.215 0h-1.154l-3.957-3.957h1.154l3.957 3.957zm0-.907l-3.132-3.132h1.154l1.896 1.978v1.154h.082zm0-2.061l-1.071-1.071h1.071v1.071zm81.376-232.5h5.111v5.112h-5.111v-5.112zm.659 73.295v-1.154l2.639 2.721h-1.155l-1.484-1.567zm.66 1.484h-.66v-.659l.66.659zm-.66-3.545v-1.154l3.958 3.957v.742h-.413l-3.545-3.545zm0-2.061v-1.154l3.958 4.04v1.154l-3.958-4.04zm0-1.979v-1.154l3.958 3.957v1.155l-3.958-3.958zm0-2.061v-1.154l3.958 3.957v1.154l-3.958-3.957zm0-2.061v-1.154l3.958 3.957v1.154l-3.958-3.957zm0-1.979v-1.154l3.958 3.957v1.155l-3.958-3.958zm0-2.061v-1.154l3.958 3.957v1.154l-3.958-3.957zm0-2.061v-1.154l3.958 3.957v1.154l-3.958-3.957zm0-1.979v-1.154l3.958 3.957v1.154l-3.958-3.957zm0-2.061v-1.154l3.958 3.957v1.154l-3.958-3.957zm0-2.061v-1.155l3.958 3.958v1.154l-3.958-3.957zm0-1.979v-1.154l3.958 3.957v1.154l-3.958-3.957zm0-2.061v-1.154l3.958 3.957v1.154l-3.958-3.957zm0-2.061v-1.155l3.958 3.958v1.154l-3.958-3.957zm0-1.979v-1.154l3.958 3.957v1.154l-3.958-3.957zm0-2.061v-1.155l3.958 3.958v1.154l-3.958-3.957zm0-2.061v-1.155l3.958 3.958v1.154l-3.958-3.957zm0-1.979v-1.154l3.958 3.957v1.154l-3.958-3.957zm0-2.061v-1.155l3.958 3.958v1.154l-3.958-3.957zm0-2.062v-1.154l3.958 3.958v1.154l-3.958-3.958zm0-2.061v-1.154l3.958 3.958v1.154l-3.958-3.958zm0-1.978v-1.155l3.958 3.958v1.154l-3.958-3.957zm0-2.062v-1.154l3.958 3.958v1.154L223.431 279zm0-2.061v-1.154l3.958 3.957v1.155l-3.958-3.958zm0-1.978v-1.237l3.958 4.04v1.154l-3.958-3.957zm0-2.062v-1.154l3.958 3.958v1.154l-3.958-3.958zm0-2.061v-1.154l3.958 4.04v1.154l-3.958-4.04zm0-1.979v-1.154l3.958 4.04v1.154l-3.958-4.04zm0-2.061v-1.154l3.958 3.957v1.155l-3.958-3.958zm0-2.061v-1.154l3.958 3.957v1.155l-3.958-3.958zm0-2.061v-1.154l3.958 3.957v1.154l-3.958-3.957zm0-1.979v-1.154l3.958 3.957v1.155l-3.958-3.958zm0-2.061v-.33h.825l3.215 3.216v1.154l-4.04-4.04zm1.649-.33h1.154l1.155 1.155v1.154l-2.309-2.309zm2.061 0h.248v.248l-.248-.248zm-4.369 69.668h5.111v5.112h-5.111v-5.112zm-.578-74.862v.165l-.164-.165h.164zm-.989 0l.989.989v1.155l-2.226-2.144h1.237zm-2.061 0l3.05 3.051v.907h-.247l-3.957-3.958h1.154zm-2.061 0l4.04 3.958h-1.155l-2.885-2.886v-1.072zm0 1.979l2.061 1.979h-1.154l-.825-.825v-1.154h-.082zm0 26.878h3.627c.165 0 .33-.165.33-.33a.355.355 0 00-.33-.33h-3.627v-23.003h5.111v69.008h-5.111v-45.345zm2.885 46.582h1.155l.989.989v1.155l-2.144-2.144zm2.226 3.051v.906h-.247l-3.957-3.957h1.154l3.05 3.051zm-.164-3.051h.164v.165l-.164-.165zm-4.947 0l4.04 3.957h-1.155l-2.885-2.885v-1.072zm0 1.979l2.061 1.978h-1.154l-.825-.824v-1.154h-.082zm-5.772-77.995h5.112v5.112h-5.112v-5.112zm.578 73.295v-1.154l2.72 2.721h-1.154l-1.566-1.567zm.659 1.484h-.659v-.659l.659.659zm-.659-3.545v-1.154l3.957 3.957v.742h-.412l-3.545-3.545zm0-2.061v-1.154l3.957 4.04v1.154l-3.957-4.04zm0-1.979v-1.154l3.957 3.957v1.155l-3.957-3.958zm0-2.061v-1.154l3.957 3.957v1.154l-3.957-3.957zm0-2.061v-1.154l3.957 3.957v1.154l-3.957-3.957zm0-1.979v-1.154l3.957 3.957v1.155l-3.957-3.958zm0-2.061v-1.154l3.957 3.957v1.154l-3.957-3.957zm0-2.061v-1.154l3.957 3.957v1.154l-3.957-3.957zm0-1.979v-1.154l3.957 3.957v1.154l-3.957-3.957zm0-2.061v-1.154l3.957 3.957v1.154l-3.957-3.957zm0-2.061v-1.155l3.957 3.958v1.154l-3.957-3.957zm0-1.979v-1.154l3.957 3.957v1.154l-3.957-3.957zm0-2.061v-1.154l3.957 3.957v1.154l-3.957-3.957zm0-2.061v-1.155l3.957 3.958v1.154l-3.957-3.957zm0-1.979v-1.154l3.957 3.957v1.154l-3.957-3.957zm0-2.061v-1.155l3.957 3.958v1.154l-3.957-3.957zm0-2.061v-1.155l3.957 3.958v1.154l-3.957-3.957zm0-1.979v-1.154l3.957 3.957v1.154l-3.957-3.957zm0-2.061v-1.155l3.957 3.958v1.154l-3.957-3.957zm0-2.062v-1.154l3.957 3.958v1.154l-3.957-3.958zm0-2.061v-1.071l3.957 3.957v1.154l-3.957-4.04zm1.401-1.731h-1.154l-.247-.247v-1.155l1.401 1.402zM211.889 279v-1.154l3.462 3.463h-1.154L211.889 279zm.824 2.969h1.154l1.897 1.896v1.154l-3.051-3.05zm2.061 0h1.072v1.071l-1.072-1.071zm-2.885-5.03v-1.154l3.957 3.957v1.155l-3.957-3.958zm0-1.978v-1.237l3.957 4.04v1.154l-3.957-3.957zm0-2.062v-1.154l3.957 3.958v1.154l-3.957-3.958zm0-2.061v-1.154l3.957 4.04v1.154l-3.957-4.04zm0-1.979v-1.154l3.957 4.04v1.154l-3.957-4.04zm0-2.061v-1.154l3.957 3.957v1.155l-3.957-3.958zm.824-1.154h.412c.165 0 .33-.165.33-.33a.355.355 0 00-.33-.33h-.989l-.165-.164c.083-.083.083-.165.083-.165 0-.083-.083-.165-.083-.248h-.082v-.742l3.957 3.958v1.154l-3.133-3.133zm-.824-2.968v-1.154l3.957 3.957v1.154l-3.957-3.957zm0-1.979v-1.154l3.957 3.957v1.155l-3.957-3.958zm0-2.061v-.33h.824l3.133 3.216v1.154l-3.957-4.04zm1.649-.33h1.154l1.154 1.155v1.154l-2.308-2.309zm2.061 0h.247v.248l-.247-.248zm-4.288 69.668h5.112v5.112h-5.112v-5.112zm-1.319-61.67c.165.082.33.082.413 0l.247-.248v15.253h-5.112v-15.665h4.7l-.248.247c-.082.083-.082.248 0 .413zm.66 15.665v22.425h-5.112v-22.425h5.112zm-22.591-143.953h16.655v85.745h-16.655v-85.745zm0 86.322h16.655v21.107l-16.655-16.655v-4.452zm22.591 28.032v12.614h-5.112v-10.388c0-.082 0-.165-.082-.165l-30.093-30.093h1.401c.165 0 .33-.165.33-.33s-.082-.329-.33-.329h-1.979l-4.946-4.947 3.627-3.628 37.184 37.266zm-5.771 120.867l-19.375-9.646-.66-.33-2.391-1.237v-10.8l9.646 4.782.577.33 8.08 4.04 1.897.906 2.226 1.155v10.8zm0 80.633l-2.639-1.319-.659-.33-19.128-9.563v-10.801l22.426 11.213v10.8zm-51.365-45.345l28.444-11.378v10.965l-27.207 10.883-.66.248-.494.165v-10.883h-.083zm-6.431 15.252h-.824V384.12h.824v39.657zm0 14.181v1.154l-3.215-3.215h1.154l2.061 2.061zm-1.154-2.061h1.154v1.154l-1.154-1.154zm1.154 4.122v1.155l-4.534-4.535v-.66h.494l4.04 4.04zm0 1.979v1.154l-4.534-4.534v-1.155l4.534 4.535zm0 2.061v1.154l-4.534-4.534v-1.154l4.534 4.534zm0 2.061v1.155l-4.534-4.535v-1.154l4.534 4.534zm0 1.979v1.154l-4.534-4.534v-1.155l4.534 4.535zm0 2.061v1.155l-4.534-4.535v-1.154l4.534 4.534zm0 2.061v1.155l-4.534-4.535v-1.154l4.534 4.534zm0 2.062v1.154l-4.534-4.535v-1.154l4.534 4.535zm0 1.978v1.155l-4.534-4.535v-1.154l4.534 4.534zm0 2.062v1.154l-4.534-4.535v-1.154l4.534 4.535zm0 2.061v1.154l-4.534-4.535v-1.154l4.534 4.535zm0 1.978v1.155l-4.534-4.535v-1.154l4.534 4.534zm0 2.062v1.154l-4.534-4.535v-1.154l4.534 4.535zm0 2.061v1.154l-4.534-4.535v-1.154l4.534 4.535zm0 1.978v1.155l-4.534-4.535v-1.154l4.534 4.534zm0 2.062v1.154l-4.534-4.535v-1.154l4.534 4.535zm0 2.061v1.154l-4.534-4.535v-1.154l4.534 4.535zm0 1.979v1.154l-4.534-4.535v-1.154l4.534 4.535zm0 2.061v.412h-.742l-3.792-3.793v-1.154l4.534 4.535zm-1.566.412h-1.154l-1.732-1.814v-1.154l2.886 2.968zm-2.061 0h-.907v-.907l.907.907zm3.627.66v5.111h-5.111v-5.111h5.111zm-5.111-93.578h2.226v42.543h-2.226V384.12zm3.71 39.657h-.825V384.12h.825v39.657zm-3.71-83.436v-2.309h2.226v2.309h-2.226zm2.226.577v39.657h-.825v-39.657h.825zm-1.402 0v39.657h-.824v-39.657h.824zm1.402 40.317v2.226h-2.226v-2.226h2.226zm.659 2.226v-2.226h2.226v2.226h-2.226zm0-2.886v-42.543h2.226v42.543h-2.226zm-2.885-43.12v-2.308h5.111v2.308h-5.111zm0-2.885v-5.112h5.111v5.112h-5.111zm1.484-5.772h-.907v-.907l.907.907zm-.907-1.813v-1.155l2.968 2.968h-1.154l-1.814-1.813zm3.792 1.813l-3.792-3.875v-1.154l4.534 4.535v.412h-.742v.082zm-3.792-5.853v-1.155l4.534 4.535v1.154l-4.534-4.534zm0-2.062v-1.154l4.534 4.535v1.154l-4.534-4.535zm0-1.978v-1.155l4.534 4.535v1.154l-4.534-4.534zm0-2.061v-1.155l4.534 4.535v1.154l-4.534-4.534zm0-2.062v-1.154l4.534 4.535v1.154l-4.534-4.535zm0-1.978v-1.155l4.534 4.535v1.154l-4.534-4.534zm0-2.062v-1.154l4.534 4.535v1.154l-4.534-4.535zm0-2.061v-1.154l4.534 4.535v1.154l-4.534-4.535zm0-1.978v-1.155l4.534 4.535v1.154l-4.534-4.534zm0-2.062v-1.154l4.534 4.535v1.154l-4.534-4.535zm-.577 122.681h5.111v2.309h-5.111v-2.309zm2.885-.659v-2.226h2.226v2.226h-2.226zm2.226-119.548l-4.534-4.535v-1.154l4.534 4.535v1.154zm.66-3.381v-1.154l4.617 4.535v1.154l-4.617-4.535zm4.534 5.442v1.154l-4.617-4.534v-1.155l4.617 4.535zm-4.534-7.503v-1.154l4.617 4.535v1.154l-4.617-4.535zm0-2.061v-1.154l4.617 4.534v1.155l-4.617-4.535zm0-1.979v-1.154l4.617 4.535v1.154l-4.617-4.535zm0-2.061v-1.154l4.617 4.535v1.154l-4.617-4.535zm0-2.061v-1.154l4.617 4.534v1.155l-4.617-4.535zm0-1.979v-1.154l4.617 4.535v1.154l-4.617-4.535zm0-2.061v-1.154l4.617 4.535v1.154l-4.617-4.535zm.247-1.814h1.154l3.133 3.133v1.155l-4.287-4.288zm2.061 0h1.155l1.071 1.072v1.154l-2.226-2.226zm1.979 0h.247v.248l-.247-.248zm-4.287-.577v-5.111h5.194v5.111h-5.194zm0-5.771v-5.112h5.194v5.112h-5.194zm1.649-7.997l.824.824h-2.473v-.824h1.649zm-1.649-.578v-.824h.247l.825.824h-1.072zm3.133 2.062l.824.824h-3.875v-.824h3.051zm-3.133-4.782v-9.482c.082 0 .165 0 .247.083l.495-.495-.742-.247v-1.072l2.391-2.391-.495-.495-1.896 1.814v-1.566c0-.165-.083-.33-.33-.33a.355.355 0 00-.33.33v2.143l-1.731 1.732.33.329c.412-.164.907-.082 1.401 0v8.987l-13.933-13.933 4.122-4.04c0 .412.165.742.495 1.072.907.906 2.061.659 3.545-.825 1.402-1.402 1.649-2.638.742-3.545-.33-.33-.742-.412-1.072-.495l2.144-2.143 19.54 19.539h-8.74l.248-.247c.082-.082.082-.165.082-.165 0-.082-.082-.165-.082-.247-.083-.083-.33-.083-.412 0l-.248.247v-5.029a.355.355 0 00-.33-.33c-.164 0-.329.165-.329.33v5.441h-1.814a.355.355 0 00-.33.33c0 .165.165.33.33.33h1.401l-.247.247c-.082.165-.082.33 0 .413.082.082.33.082.412 0l.248-.248v6.926c0 .165.082.33.329.33.165 0 .33-.165.33-.33v-7.338h9.729l2.638 2.638.577.577c-.165.248-.165.413-.165.742 0 .248.083.495.165.742l-.577.578-10.471 10.47h-1.896v-5.441c0-.083 0-.165-.082-.247l-5.689-5.689zm-.66-10.718v.329c-.082 0-.165-.082-.329-.082l.329-.247zm-4.534 39.244v-1.154l4.534 4.535v1.154l-4.534-4.535zm4.534 5.442v1.154l-4.534-4.534v-1.155l4.534 4.535zm-4.534-7.503v-1.154l4.534 4.534v1.155l-4.534-4.535zm0-2.061v-1.154l4.534 4.534v1.155l-4.534-4.535zm0-1.979v-1.154l4.534 4.535v1.154l-4.534-4.535zm0-2.061v-1.154l4.534 4.534v1.155l-4.534-4.535zm0-2.061v-.66h.494l4.04 4.04v1.155l-4.534-4.535zm1.401-.66h1.155l2.061 2.062v1.154l-3.216-3.216zm1.979 0h1.154v1.155l-1.154-1.155zm-3.957-.577v-5.111h5.111v5.111h-5.111zm0-5.771v-5.112h5.111v5.112h-5.111zm4.04-5.771l-.743-.825h1.897v.825h-1.154zm-1.485-1.402l-.824-.824h3.38v.824h-2.556zm-1.401-1.402l-.825-.824h4.782v.824h-3.957zm-1.402-1.484l-.824-.824h5.606l.577.577v.247h-5.359zm-89.784-93l-1.814-1.814 1.566-1.566 9.07 9.069v3.216l-8.822-8.905zm8.821 9.729v1.154l-9.646-9.646.577-.577 9.07 9.069zm-49.55-52.848l.824.824H9.564v-.824h1.649zm-1.65-.578v-.824h.248l.825.824H9.564zm3.134 2.062l.742.824H9.564v-.824h3.133zm-1.732-3.381l1.98-4.617 9.81-9.811.578-.577c.164.165.412.247.742.247.247 0 .494-.082.742-.247l.577.577 1.896 1.896-7.173 16.655h-5.03l-4.122-4.123zm8.492-12.367c1.485-1.401 1.65-2.638.825-3.545-.66-.66-1.484-.66-2.309-.165l5.03-11.79 7.667 7.668-3.05 7.008-.165-.165-1.567-1.484-.577-.577c.165-.248.247-.413.247-.742 0-.248-.082-.495-.247-.742l.577-.578 2.556-2.555c0-.083.083-.165.083-.248 0-.082 0-.165-.083-.247-.165-.082-.33-.082-.412 0l-3.133 3.133a1.329 1.329 0 00-.742-.247c-.247 0-.495.082-.742.247l-.577-.577c-.165-.165-.33-.165-.412 0-.165.082-.165.33 0 .412l.577.577c-.165.248-.248.412-.248.742 0 .248.083.495.248.742l-9.317 9.317 2.391-5.442c.825.907 1.979.66 3.38-.742zm-3.215.165l1.072-2.473c1.154-1.072 1.896-1.402 2.473-.825s.248 1.402-.824 2.556c-.66.66-1.155.989-1.567 1.154-.412.083-.742.083-.99-.247-.081-.082-.081-.165-.164-.165zm44.851 11.13c.165 0 .33-.164.33-.329v-6.926l10.223-3.38 7.668 7.667-23.745 7.915-7.667-7.667 12.861-4.288v6.761c0 .083.165.247.33.247zm34.958 13.769l6.513 6.431 1.154 1.154-13.521 4.535v-10.224l5.854-1.896zm-5.936 1.237v-7.173l5.359 5.359-5.36 1.814zm13.026 7.255l-.577.577-12.367 12.367v-8.657l12.944-4.287zm-.165.989l.99-.989v.33c0 .165.164.33.247.33.165 0 .33-.165.33-.33v-.33l7.255 7.255-21.683 7.256v-.742l12.861-12.78zm9.317 6.761l7.667 7.668-23.744 7.915-6.02-6.019v-2.144l22.097-7.42zm57.218 62.165h4.947l30.423 30.423v10.223h-41.389l-15.912-15.912c.082-.082.165-.165.165-.247v-7.338c0-.165-.083-.33-.247-.33l5.936-5.936 16.077-16.077 4.534 4.535h-4.369c-.165 0-.33.164-.33.329s0 .33.165.33zm-1.154 44.027c-.248-.165-.413-.248-.742-.248-.248 0-.495.083-.742.248l-.578-.577-2.143-2.144h7.008l-2.144 2.144-.659.577zm0 1.154c0 .082 0 .165-.083.247l-.247-.247.247-.33a.621.621 0 01.083.33zm-.742-.412l-.248-.248c.083 0 .165-.082.248-.082.082 0 .165 0 .247.082l-.247.248zm.329 1.154c-.082 0-.164.082-.247.082-.082 0-.165 0-.247-.082l.247-.247.247.247zm-.742-.742l-.247.247c0-.082-.082-.165-.082-.247 0-.082 0-.165.082-.33l.247.33zm-13.438-45.181h8.409c.165 0 .33-.165.33-.33s-.165-.329-.33-.329h-6.596l12.697-4.205-15.17 15.17-5.359-5.359v-2.886l6.019-2.061zm-6.019 1.402v-1.319h4.122l-4.122 1.319zm5.936-1.979h-5.936v-8.245l13.439-4.452 7.667 7.668-15.17 5.029zm-5.936-8.904v-10.224l5.359-1.731 7.668 7.667-13.027 4.288zm0-10.883v-6.431l4.864 4.864-4.864 1.567zm0 30.175v-4.04l4.947 4.947-9.564 9.564-3.793-3.793 5.689-13.356 2.061 2.061v4.7c0 .165.165.33.33.33.165-.083.33-.165.33-.413zm-.66 7.421v7.007l-3.545-3.545 3.545-3.462zm-7.255 6.348c-.412.247-.824.495-1.319.989-.495.495-.742.907-.99 1.319l-3.875 3.875 5.442-12.614 3.628 3.628-2.886 2.803zm1.814.659c.577.578.247 1.402-.907 2.556-.577.66-1.154.99-1.567 1.155-.412.082-.742 0-.989-.248-.412-.412-.33-.989.165-1.649l1.649-1.649c.659-.577 1.237-.577 1.649-.165zm-30.753-24.239l-2.638 6.184-6.101-6.101h1.566c.165 0 .33-.165.33-.33a.355.355 0 00-.33-.33h-2.226l-.907-.907 11.955-27.867 7.668 7.668-9.07 21.188h-.082a.355.355 0 00-.33.33l.165.165zm-2.721 7.008l-.577.577-7.585-7.585h1.154l7.008 7.008zm-8.079-8.987l-7.668-7.667 11.955-27.867 7.667 7.667-11.954 27.867zm.494 1.402h-1.154l-9.316-9.317v-1.154l10.47 10.471zm-1.978 0h-1.155l-7.255-7.255v-1.155l8.41 8.41zm.577.577l7.997 7.997-.577.578-8.575-8.575h1.155zm8.657 8.245l.824-.825 1.567 1.567-1.567 1.566-1.566-1.566.742-.742zm1.071-1.484l-.165-.165 2.804-6.596h6.843c.165 0 .33-.165.33-.33s-.165-.329-.33-.329h-6.514l8.905-20.695 7.667 7.668-5.689 13.356-.824-.824c-.165-.083-.33-.083-.412 0-.165.082-.165.33 0 .412l.989.989h-.495c-.164 0-.329.165-.329.33s.165.33.329.33l-.247.495-.495.494-8.574 8.74-1.814-1.814-1.979-2.061zm36.112-4.535l-2.226-2.226h4.287v1.567l-2.061.659zm2.061 0v2.061l-1.566-1.566 1.566-.495zm-5.111-2.226l2.638 2.638-5.689 13.357-7.667-7.668 3.545-8.327h7.173zm-6.926-.577l1.896-4.37 4.37 4.37h-6.266zm7.173 0l-4.782-4.782 9.729-3.215v7.997h-4.947zm-5.277-5.277l-7.667-7.667 17.891-5.936v10.223l-10.224 3.38zm-.494.413l-2.061 4.864h-8.74a.355.355 0 00-.33.33c0 .165.165.33.33.33h8.492l-3.38 7.914-5.854-5.936-.989-.989h.33c.164 0 .247-.165.247-.33s-.083-.33-.247-.33h-.33l3.545-3.545c.082-.082.082-.165.082-.247 0-.083 0-.165-.082-.248-.165-.082-.33-.082-.412 0l-2.556 2.556-1.319 1.319h-.083l5.689-13.356 7.668 7.668zm-15.253 8.492l-4.864 11.295-3.216-3.216 8.08-8.079zm-4.782 12.944l.742.742h-1.484l.742-.742zm1.319 1.319l.825.824h-4.288l.825-.824h2.638zm-.742-2.391l-.165-.165 5.524-12.862.742-.742 1.319 1.32 6.102 6.018-5.937 13.934-7.585-7.503zm13.934-5.936l7.667 7.667-5.936 13.934-7.667-7.668 5.936-13.933zm16.489-36.029c-.165 0-.33.164-.33.329v6.596l-18.303 6.101-7.667-7.667 23.744-7.915 2.639 2.638s0-.082-.083-.082zm-26.795 4.864l-7.585-7.668 23.744-7.915 7.668 7.668-23.827 7.915zm-8.08-8.162l-7.668-7.668 23.745-7.915 7.668 7.668-23.745 7.915zm-8.162-8.08l-7.668-7.668 23.745-7.915 7.585 7.668-23.662 7.915zm-8.575-7.75L83.85 206.035l-1.402-1.402-2.061-2.061-4.287-4.287 11.954-27.867 1.484 1.484v3.71c0 .165.083.33.33.33.165 0 .33-.165.33-.33v-3.133l5.606 5.689zm-21.93-3.298c-.413-.495-.743-.907-.825-1.154-.082-.413 0-.742.247-.99.33-.329.825-.329 1.484 0l-.906 2.144zm1.483-1.731c.165.164.33.247.578.494 1.154 1.155 1.484 1.979.907 2.556-.495.495-1.32.247-2.474-.742l.99-2.308zm-1.319 2.968c1.237 1.154 2.309 1.319 3.133.494.907-.907.66-2.061-.742-3.545-.247-.247-.494-.495-.742-.659l1.567-3.628c0 .495.247.989.66 1.401.33.33.824.578 1.319.66.494.082.989-.082 1.319-.495.412-.412.577-.907.412-1.566.577.577.907 1.072.99 1.484.082.412 0 .824-.33 1.072-.413.412-.825.412-1.32 0l-.494.494c.412.248.742.413 1.154.413.412 0 .742-.165 1.072-.577.494-.495.66-.99.494-1.649-.082-.66-.494-1.32-1.319-2.144-1.319-1.319-2.473-1.567-3.462-.577l2.143-5.029 1.484 1.484c-.165.082-.247.082-.33.247-.907.907-.66 2.061.742 3.545 1.484 1.402 2.639 1.649 3.546.742.082-.082.165-.247.247-.33l1.979 1.897-18.633 18.633-.413.412 5.524-12.779zm4.205-8.327a1.18 1.18 0 01.825-.33c.33 0 .66.165.907.494.247.248.412.578.412.907 0 .33-.083.577-.33.825-.247.247-.495.33-.907.33-.33 0-.577-.165-.824-.413-.248-.247-.413-.577-.495-.989.082-.247.165-.577.412-.824zm10.883 1.484l.412-.413v.248l-.412.165zm.412.494v1.319l-.989-.989.99-.33zm-1.566-.247l-2.061-2.144c.082-.742-.248-1.566-1.237-2.556-.99-.989-1.814-1.319-2.556-1.236l-1.649-1.649 9.152-3.051v9.069l-1.65 1.567zm-2.803-1.896c-.083.165-.083.247-.248.412-.577.577-1.401.247-2.555-.907-.578-.66-.99-1.154-1.072-1.567-.083-.412-.083-.742.165-.989a.632.632 0 01.412-.165l3.298 3.216zm-2.144-3.051c.33.165.66.495 1.072.825.412.412.66.742.824 1.071l-1.896-1.896zm-3.05-3.133l-7.668-7.667 17.231-5.772v10.306l-9.564 3.133zm-10.636 27.537l17.726-17.726-11.378 26.631-6.266-6.266-1.319-1.319 1.237-1.32zm20.2-41.553l-17.727 5.936-7.667-7.667 23.002-7.668h.99l1.401 1.402v7.997zm-29.352 5.194l-7.667-7.667 3.05-7.008h.083l5.111 5.194v8.162l-.577 1.319zm.577.248v.412l-.082-.083.082-.329zm-.412.907l.412.329v6.761l-5.936 5.936 5.524-13.026zm.412 7.914v14.016c0 .165.165.33.33.33s.33-.165.33-.33v-14.675l3.133-3.133 1.32 1.319c.082.165.329.165.411 0 .083-.082.083-.165.083-.247 0-.083 0-.165-.083-.165l-.989-.99h.33c.165 0 .33-.082.33-.329a.355.355 0 00-.33-.33h-.33l.412-.412.577-.578 2.556-2.555c.083-.083.083-.165.083-.248 0-.082 0-.165-.083-.247-.082-.083-.33-.083-.412 0l-3.133 3.133-.742.742-1.32-1.319-1.813-1.896v-2.474l2.308-5.359 7.668 7.668-12.037 28.032-7.503-7.503-.247-.247 2.473-5.607 6.678-6.596zm2.721-3.957h.33l-.99.989-1.401 1.402v-5.442l1.402 1.402.989.989h-.33a.355.355 0 00-.33.33c0 .248.165.33.33.33zm-2.061-7.832v-6.102l1.814 1.814-1.814 4.288zm25.641-12.532h-19.87c-.165 0-.33.164-.33.329s.165.33.33.33H85.25l-21.519 7.173-2.308-2.308v-3.793a.355.355 0 00-.33-.33.355.355 0 00-.33.33v3.133l-4.287-4.287h3.38c.165 0 .33-.165.33-.33a.355.355 0 00-.33-.33h-3.38l23.333-7.75 7.667 7.668-.412.165zm-32.072 0H52.52c-.165 0-.33.164-.33.329s.165.33.33.33h2.308l-2.803 6.513-6.596-6.595c.083-.083.083-.083.083-.248 0-.165-.165-.329-.33-.329h-.33l-.577-.578 2.968-7.09 7.75 7.668zm-11.13-.99l-7.668-7.667 3.05-7.091 7.668 7.668-3.05 7.09zm-11.378.99l3.463-8.08 7.667 7.667-.164.413H32.483zm8.162 1.154c.578.577.248 1.401-.907 2.556-.577.659-1.154.989-1.566 1.154-.412.082-.742 0-.99-.247-.577-.578-.247-1.402.907-2.556 1.072-1.154 1.98-1.484 2.556-.907zm-5.194-9.646l-3.627 8.574H20.858l6.926-16.242 7.667 7.668zm-7.42-8.328l3.05-7.008 7.668 7.668-3.05 7.008-7.668-7.668zm11.213.248l-7.668-7.668 23.827-7.915 5.36 5.442v2.968l-21.52 7.173zm-8.162-8.162l-7.668-7.668L47.16 97.04l7.667 7.668-23.744 7.915zm-8.163-8.163l-7.667-7.667 23.744-7.915 7.668 7.667-23.745 7.915zm1.979 12.615c0 .082 0 .165-.082.247l-.33-.247.33-.248c.082 0 .082.083.082.248zm-.742-.495l-.33-.33c.083 0 .165-.082.33-.082.082 0 .165 0 .247.082l-.247.33zm.247 1.154c-.082.083-.165.083-.247.083-.082 0-.165 0-.33-.083l.33-.247.247.247zm-.742-.659l-.247.247c0-.082-.082-.165-.082-.247 0-.083 0-.165.082-.248l.247.248zm-3.71 20.941l-1.237 2.886-2.885-2.886h4.122zm.66 0h10.965l-4.782 11.048-7.667-7.668 1.484-3.38zm11.625 0h6.348c-.33.165-.742.495-1.072.907-1.401 1.402-1.649 2.638-.824 3.545.907.907 2.144.66 3.545-.824 1.484-1.402 1.649-2.638.742-3.545-.082-.083-.082-.083-.165-.083h2.309l-1.402 3.298a8.69 8.69 0 00-.99.825c-1.4 1.401-1.648 2.555-.824 3.462l-4.947 11.625-7.667-7.667 4.947-11.543zm9.976 3.958c.742-.495 1.319-.578 1.649-.165.577.577.33 1.401-.825 2.556-.577.659-1.154.989-1.566 1.154-.247.082-.495.082-.742-.083l1.484-3.462zm-1.979 2.885c-.165-.494.083-1.154.825-1.896l-.825 1.896zm.247 1.072c.825.495 1.897.165 3.133-1.072 1.402-1.401 1.65-2.638.742-3.545-.494-.495-1.071-.66-1.73-.412l1.236-2.968h.824l7.09 7.09-8.656 20.2-7.668-7.668 5.03-11.625zm11.79-.33l7.668 7.668-6.349 14.675-2.143 2.144c-.083.165-.083.33 0 .412.082.165.33.165.412 0l1.072-1.072-1.731 4.04-1.32-1.401-4.04-4.04-2.226-2.226 8.657-20.2zm7.585 36.524l11.955-27.949 7.668 7.667-4.37 10.224c-.824-.495-1.566-.412-2.226.165-.907.907-.66 1.978.66 3.38l-5.772 13.356c-.082-.082-.082-.082-.165-.082a.355.355 0 00-.33.33v.329l-.164-.247-1.32-1.319-2.06-2.061-2.392-2.391v-.495a.355.355 0 00-.33-.33c-.164 0-.247.165-.33.33l-.824-.907zm1.567 6.431l16.325 16.325-.578.577-15.747-15.748v-1.154zm0-.907v-3.215l4.535 4.534.742.825.577.495-1.32 1.319c-.164.082-.164.329 0 .412.083.082.248.082.413 0l.99-.989v.329c0 .165.164.33.329.33s.33-.165.33-.33v-.329l11.79 11.789-1.65 1.567-16.736-16.737zm18.798 15.665l1.566 1.649-.824.825-.825.824-1.566-1.566 1.649-1.732zm.99 3.051l8.326 8.327v1.154l-8.904-8.904.577-.577zm.412-.413l.577-.577 7.337 7.338v1.154l-7.915-7.915zm2.638.578l11.955-27.867 7.667 7.667-11.955 27.867-1.813-1.814v-14.758c0-.165-.083-.329-.33-.329-.165 0-.33.164-.33.329v14.181l-5.194-5.276zm5.854 14.84l2.308 2.309h-2.308v-2.309zm0-.824v-3.216l6.43 6.431H93.33l-3.215-3.215zm7.09 3.792l9.234 9.234 1.814 1.814-1.567 1.566-12.697-12.614h3.216zm11.625 11.295l1.814-1.813 1.566 1.566-1.814 1.814-1.813 1.814-1.567-1.567 1.814-1.814zm3.875.248l3.628 3.627-3.628 3.628-3.628-3.628 3.628-3.627zm.907 7.255h5.524l.824.824h-5.606l-.742-.824zm7.008 1.402l.824.824h-5.606l-.825-.824h5.607zm1.401 1.484l.825.824h-5.606l-.825-.824h5.606zm1.485 1.401l.824.825h-5.606l-.825-.825h5.607zm1.401 1.402l.825.824h-5.607l-.824-.824h5.606zm1.484 1.484l.825.824h-5.607l-.824-.824h5.606zm1.402 1.401l.824.825h-5.606l-.825-.825h5.607zm1.484 1.485l.824.824h-5.606l-.825-.824h5.607zm1.401 1.401l.825.825h-5.607l-.824-.825h5.606zm1.402 1.484l.824.825h-5.606l-.824-.825h5.606zm1.484 1.402l.825.824h-5.607l-.824-.824h5.606zm1.484 1.484l.825.824h-5.607l-.824-.824h5.606zm1.402 1.401l.824.825h-5.606l-.825-.825h5.607zm1.401 1.402l.825.824h-5.607l-.824-.824h5.606zm1.484 1.484l.825.825h-5.607l-.824-.825h5.606zm1.402 1.402l.824.824h-5.606l-.824-.824h5.606zm1.484 1.484l.824.824h-5.606l-.824-.824h5.606zm1.402 1.401l.824.825h-5.606l-.825-.825h5.607zm1.484 1.484l.824.825h-5.606l-.825-.825h5.607zm8.409 12.945H155c0 .082 0 .164.083.247.165.165.329.165.412 0l.247-.247h6.514c.164 0 .329-.165.329-.33s-.165-.33-.329-.33h-5.854l10.635-10.636c.165.165.495.248.743.248.247 0 .494-.083.742-.248l.577.577c.165.083.329.083.412 0 0-.082.082-.164.082-.247 0-.082 0-.165-.082-.247l-.577-.577c.165-.165.247-.413.247-.742 0-.248-.082-.495-.247-.742l3.133-3.133v-.083h32.896v15.665h-20.777c-.164 0-.329.165-.329.33s.082.33.329.33h20.777v22.425h-51.447v-22.26zm0 149.641l9.152-3.71.659-.248 18.551-7.42v10.883l-10.801 4.287-.659.248-16.984 6.76.082-10.8zm0-.66v-10.883l.99-.412.659-.247 26.795-10.719v10.883l-18.962 7.586-.66.247-8.822 3.545zm0 12.12l17.396-6.926.66-.247 10.306-4.122v10.883l-2.556.989-.659.247-25.147 10.059V443.07zm28.362-46.5l-28.444 11.377v-10.883l28.361-11.377v10.883h.083zm0-23.085l-10.553 4.204-1.567.66-16.324 6.513v-10.883l28.361-11.377v10.883h.083zm0-11.461l-28.444 11.378v-10.883l28.361-11.378v10.883h.083zm.66 58.29l22.425 11.213v10.801l-22.425-11.213v-10.801zm0-.742v-10.8l22.425 11.213v10.8l-22.425-11.213zm0-11.46v-10.8l22.425 11.213v10.8l-22.425-11.213zm0-11.542v-10.801l22.425 11.213v10.801l-22.425-11.213zm0-11.543v-10.8l22.425 11.212v10.801l-22.425-11.213zm0-11.46v-10.8l1.978.989.66.33 19.787 9.893v10.801l-22.425-11.213zm-.66-23.085l-28.444 11.378v-10.883l27.042-10.801.66-.247.659-.248v10.801h.083zm0-23.003l-9.317 3.71-.659.248-18.386 7.337v-10.883l10.636-4.204.659-.248 17.067-6.843v10.883zm-28.362 12.037l18.881-7.585.659-.247 8.822-3.545v10.883l-1.072.412-.659.247-26.631 10.636v-10.801zm29.022.165l22.425 11.213v10.801l-3.628-1.814-1.896-.907-6.183-3.133-.66-.33-10.058-5.029v-10.801zm0-.659v-10.883l22.425 11.213v10.8l-22.425-11.13zm0-11.543v-10.8l22.425 11.212v10.801l-22.425-11.213zm0-11.542v-10.801l22.425 11.213v10.8l-22.425-11.212zm.989-10.966h21.354v10.718l-21.354-10.718zm-1.649 10.966l-17.561 7.008-.66.247-10.223 4.04v-10.883l2.391-.989.659-.248 25.311-10.141v10.966h.083zm-29.599-3.628l-4.617-4.535v-1.154l4.617 4.535v1.154zm-4.534 13.769v-1.155l3.875 3.875h-1.154l-2.721-2.72zm1.814 2.72h-1.155l-.659-.659v-1.154l1.814 1.813zm-1.814-4.782v-1.154l4.617 4.535v1.154l-4.617-4.535zm0-1.978v-1.155l4.617 4.535v1.154l-4.617-4.534zm0-2.061v-1.155l4.617 4.535v1.154l-4.617-4.534zm0-2.062v-1.154l4.617 4.535v1.154l-4.617-4.535zm0-1.978v-1.155l4.617 4.535v1.154l-4.617-4.534zm0-2.062v-1.154l4.617 4.617v1.154l-4.617-4.617zm0-2.061v-1.154l4.617 4.535v1.154l-4.617-4.535zm0-1.978v-1.155l4.617 4.535v1.154l-4.617-4.534zm0 19.622h5.194v5.112h-5.194v-5.112zm5.771 56.064l15.253-6.101 1.566-.66 11.625-4.617v10.883l-28.444 11.378v-10.883zm0 80.633l28.444-11.378v10.801l-28.444 11.378v-10.801zm28.362-12.037l-28.444 11.377v-10.883l25.641-10.223.659-.247 2.061-.825v10.801h.083zm.66-10.801l18.633 9.317.659.329 3.133 1.567v10.801l-7.667-3.875-1.897-.99-.742-.412-.659-.33-11.46-5.771v-10.636zm-35.453-254.514v1.485c0 .164.165.329.33.329s.33-.165.33-.329v-.907l22.508 22.508 2.803 2.803-3.628 3.627L106.027 155l-1.319-1.319 1.319-1.319c.082-.083.082-.165.082-.247 0-.083-.082-.165-.082-.248-.083-.082-.33-.082-.412 0l-.99.99v-.33a.355.355 0 00-.33-.33c-.165 0-.247.165-.247.33v.33l-1.484-1.484-2.061-2.062-10.224-10.305c0-.165-.082-.248-.247-.248l-.824-.824h7.255l50.622 50.869zm-85.662-85.744l28.114 28.197v.577c0 .165.083.329.33.329.165 0 .33-.164.33-.247l5.524 5.524h-7.255l-27.043-27.043v-7.337zm0 8.162l1.566 1.649-1.566.495v-2.144zm-.33 6.266c.165 0 .33-.165.33-.33v-3.133l2.061-.742 7.668 7.668-9.894 3.298c-.082 0-.082-.083-.165-.083-.165 0-.165.083-.247.247l-13.439 4.453-7.668-7.668 21.024-7.008v2.968c0 .247.165.33.33.33zM32.896 74.615l27.867 27.867v7.255L29.27 78.242l3.627-3.627zm-19.87 19.952l15.83-15.83 9.73 9.729L14.84 96.38l-1.813-1.814zM8.74 111.386c.083.165.248.33.33.494.247.248.577.413 1.072.495l-1.32.907-.659-.577.577-1.319zm-4.946 20.199v-.824h3.133l.824.824H3.793zm1.648-2.226l.825.825H3.793v-.825H5.44zm-1.648-.577v-.824h.164l.825.824h-.99zm0-2.721v-1.566a.355.355 0 00-.33-.33.355.355 0 00-.33.33v.907l-.33-.33 5.03-11.707.824.824 2.556-1.731-.412-.578c-.495.083-.825 0-1.155-.329-.247-.248-.412-.577-.412-.907.082-.33.165-.66.495-.907.247-.247.577-.412.907-.495.412-.082.66.083.989.33.495.495.495.989 0 1.566l.577.495c.33-.412.495-.824.412-1.237a2.289 2.289 0 00-.66-1.236 2.063 2.063 0 00-.989-.577c-.33-.083-.66-.083-1.071 0 0 0-.083.082-.165.082l4.947-11.46 7.667 7.667-5.441 13.027c-.083.083-.165.083-.165.165-1.154 1.154-1.484 2.144-1.154 2.968l-3.133 7.255-1.402 1.402c-.083.082-.083.33 0 .412.165.083.33.083.412 0l.33-.33-1.237 2.969-6.76-6.679zm5.77 11.955h4.535l.825.825h-5.36v-.825zm.33 1.484H15.5l.825.825h-5.607l-.824-.825zm1.485 1.402h5.606l.824.824h-5.606l-.824-.824zm1.401 1.484h5.69l.824.824h-5.607l-.907-.824zm1.484 1.401h5.607l.824.825h-5.606l-.825-.825zm1.402 1.484h5.606l.825.825H16.49l-.824-.825zm1.402 1.402h5.606l.824.825h-5.606l-.824-.825zm1.484 1.402h5.606l.824.824h-5.688l-.742-.824zm1.401 1.484h5.606l.825.824h-5.606l-.825-.824zm1.484 1.401h5.607l.824.825h-5.606l-.825-.825zm1.402 1.484h5.606l.825.825h-5.607l-.824-.825zm1.484 1.402h5.606l.825.824h-5.607l-.824-.824zm1.401 1.484h5.607l.824.824h-5.606l-.825-.824zm1.485 1.402h5.606l.824.824h-5.606l-.825-.824zm1.401 1.401h5.606l.825.825h-5.606l-.825-.825zm1.484 1.484H35.7l.824.825h-5.606l-.825-.825zm1.402 1.402H37.1l.825.824h-5.607l-.824-.824zm1.484 1.484h5.606l.825.824h-5.607l-.824-.824zm1.401 1.402h5.607l.824.824h-5.606l-.825-.824zm1.402 1.484h5.606l.825.824h-5.689l-.742-.824zm1.484 1.401h5.606l.825.825H38.09l-.824-.825zm1.484 1.484h5.606l.413.412-.413.413h-4.782l-.824-.825zm2.226 2.226l-.824-.824h3.545l-.825.824h-1.896zm.577.66h.742l-.33.33-.412-.33zm.413 1.154l.164-.165 3.298-3.215.165-.165 3.628 3.628-3.628 3.627-3.628-3.71zm4.04 4.122l3.627-3.627 1.649 1.566-3.628 3.628-1.649-1.567zm2.06 2.062l1.567-1.567 1.649 1.567-1.649 1.566-1.566-1.566zm2.062 1.978l.577-.577 10.058 10.059v.33c0 .164.165.329.33.329.083 0 .165-.082.247-.082l15.336 15.417-.578.578-25.97-26.054zm26.465 26.466l1.567-1.649 1.649 1.649-1.65 1.566-1.566-1.566zm2.061 2.061l1.567-1.567 9.316 9.317v3.215l-10.883-10.965zm10.883 15.335v2.556l-2.556-2.556h2.556zm-6.843-1.319c.577-.577 1.567-.577 2.061 0l.743.742h-3.546l.742-.742zm-1.401 1.319h4.782l3.462 3.463v6.431c0 .165.083.33.33.33.165 0 .33-.165.33-.33v-5.772l45.346 45.346c.577.577.577 1.567 0 2.061l-2.556 2.556-2.556 2.556c-.165.247-.495.33-.824.412h-.413c-.329-.082-.659-.165-.824-.412l-38.09-38.09v-1.237c0-.165-.083-.33-.33-.33a.355.355 0 00-.33.33v.66l-11.955-11.955c-.577-.577-.577-1.567 0-2.144l2.556-2.556 1.072-1.319zM133.152 279l2.308 2.309h-4.617l2.309-2.309zm-6.843 5.937v-1.979a1.23 1.23 0 00.989-.989h2.061l-2.721 2.72c-.164.165-.247.165-.329.248zm-.66.164c-.495 0-.907-.082-1.237-.412l-1.236-1.236a2.089 2.089 0 00-2.968 0l-1.072 1.071-1.154-1.154c.494-.577.824-1.237 1.071-1.896.33.165.66.082.99-.083.165-.165.33-.412.33-.659 0-.165.082-.33.082-.495.082-.247.082-.577.082-.824 0-.33.083-.66.083-.907 0-2.061-.577-4.04-1.732-5.772-.082-.082-.164-.247-.247-.329l7.091 7.09c-.083.083-.083.165-.083.165v.824c-.495.165-.907.495-.989.99h-4.452a.355.355 0 00-.33.33c0 .165.165.329.33.329h4.452c.165.495.494.907.989.99v1.978zm-15.253-6.265c-.082-.083-.082-.165-.082-.165-.824-.495-1.484-1.155-1.896-1.979-.66-1.154-.742-2.556-.33-3.875.412-1.237 1.154-2.309 2.308-2.886.083 0 .083-.082.165-.082.083 0 .083-.083.083-.083v-.165s-.083 0-.083-.082c-.082 0-.082-.082-.082-.082-.165-.083-.33-.248-.33-.413v-.082c0-.165.083-.247.165-.412a.625.625 0 01.412-.165c.412.082.825.082 1.237.165a10.19 10.19 0 016.431 4.452c1.154 1.731 1.649 3.792 1.649 5.771 0 .247 0 .577-.083.825 0 .329-.082.659-.165.989 0 .082 0 .165-.082.247-.165.083-.33.083-.495-.082 0 0-.082-.083-.165-.083h-.165s0 .083-.082.083v.082c-.082.165-.165.33-.165.495-.082 0-.082-.082-.165-.082h-7.338a.354.354 0 00-.329.329c0 .165.165.33.329.33h7.256c-.99 1.896-3.051 3.133-5.277 2.803a5.78 5.78 0 01-2.556-5.689v-.082c-.082 0-.082 0-.165-.082zm-4.699-2.474c-.082-.082 0-.082 0 0l-.082-.082c-.825-.495-1.485-1.155-1.897-1.979-1.319-2.473-.33-5.606 2.144-6.926.082 0 .082-.082.082-.082v-.082s.083 0 .083-.083v-.082s-.083 0-.083-.083c-.082 0-.082-.082-.082-.082-.165-.083-.33-.33-.33-.495a.63.63 0 01.165-.412.625.625 0 01.412-.165h.165c.412 0 .742.082 1.154.165 1.402.33 2.639.907 3.793 1.731-.083 0-.247 0-.33-.082-.33 0-.659.082-.824.33-.083.082-.165.247-.248.412-.082.165-.082.247-.082.412 0 .247.082.412.165.577 0 .083.082.083.165.165-1.155.742-1.979 1.814-2.474 3.133-.412 1.484-.247 2.968.412 4.37a4.765 4.765 0 001.979 2.061c-.165.989 0 2.061.33 2.968-.66.165-1.319.247-1.979.165-1.896-1.237-2.885-3.463-2.473-5.771-.165 0-.165-.083-.165-.083zm-3.133-3.792a4.018 4.018 0 01-1.402 0c-1.896-1.237-2.885-3.463-2.473-5.772v-.165s0-.082-.082-.082v-.082c-.825-.495-1.484-1.155-1.897-1.979-.66-1.237-.824-2.556-.412-3.875.412-1.154 1.154-2.144 2.144-2.803.165-.083.247-.165.412-.248h.082l.083-.082v-.083s.082 0 .082-.082c0-.083 0-.083-.082-.083v-.082s-.083 0-.083-.082l-.082-.083c-.165-.082-.33-.33-.33-.495 0-.329.247-.494.577-.494 5.029.412 8.904 4.452 9.234 9.399a9.673 9.673 0 00-1.649-.413c-.165 0-.329 0-.494-.082-.165 0-.248 0-.413.082-.164.083-.329.165-.412.248-.247.247-.412.494-.412.824 0 .248.082.577.33.825-2.061 1.401-3.051 3.545-2.721 5.689zm-8.74-8.41c-.082-.082-.082-.082-.082-.165-.824-.495-1.484-1.154-1.896-1.979-1.32-2.473-.412-5.606 2.061-6.925.083 0 .083-.083.083-.083v-.247s-.083 0-.083-.082c0 0 0-.083-.082-.083-.248-.082-.33-.247-.33-.495 0-.164.082-.247.165-.412.082-.082.165-.082.247-.165h.165c.33 0 .577.083.907.165 1.566.248 2.968.907 4.205 1.814-.083 0-.248 0-.33-.082-.577 0-1.072.412-1.154.989v.165c0 .247.082.577.33.742-.083 0-.083.082-.165.082-1.072.742-1.897 1.732-2.309 3.051-.412 1.484-.33 2.968.412 4.37.412.824 1.154 1.566 1.979 2.061-.165.989 0 2.061.33 2.968-.66.165-1.32.247-1.979.165-1.896-1.237-2.886-3.463-2.473-5.689v-.083c.082 0 0 0 0-.082zm-4.287-15.335c0 .165.083.33.33.33.165 0 .33-.165.33-.33v-5.112l13.191 13.192c-.824-.495-1.731-.907-2.72-1.072a11.174 11.174 0 00-6.266-2.803h-.165c-.247 0-.495.082-.66.165-.082 0-.165.082-.165.164-.247.248-.33.495-.33.825 0 .33.083.577.33.742-.824.495-1.401 1.154-1.896 1.979l-5.194-5.195-.495-.494-12.697-12.697c-1.401-1.731-1.401-4.205 0-5.854.165-.165.248-.33.413-.494l.165-.165 2.72-2.721c0 .577.248 1.072.66 1.484l12.367 12.367v5.689h.082zm17.891 12.12l8.492 8.574c-1.071-.742-2.226-1.237-3.545-1.566-.989-.99-2.308-1.649-3.628-2.144a9.525 9.525 0 00-1.319-4.864zm17.809 20.364a.986.986 0 01.412-.412v.412h-.412zm.412.66v.412a.998.998 0 01-.412-.412h.412zm.989-.66h-.412v-.412c.165.082.33.247.412.412zm-.329-.989v-.495l1.566 1.484h-.494c-.248-.495-.578-.907-1.072-.989zm.329 1.649a.998.998 0 01-.412.412v-.412h.412zm-46.17-57.631l-.577.577-.577-.577h1.154zm-15.83 48.891l-.494-.495-2.804-2.803V256.08a.355.355 0 00-.33-.33.355.355 0 00-.33.33v13.274l-30.422-30.423c-.577-.577-.577-1.566 0-2.143l12.45-12.45h2.473c.165 0 .33-.165.33-.33s-.165-.329-.33-.329h-1.814l10.388-10.389 5.772-5.771c.33-.33.742-.495 1.154-.412v27.042c0 .165.165.33.33.33s.33-.165.33-.33v-26.877c.082.082.164.164.33.247l16.159 16.16H67.112c-.165 0-.33.164-.33.329s.165.33.33.33h11.295l.99.989-6.184 6.102-.247.247-.495.495c-1.567 1.896-1.567 4.699 0 6.678l16.984 16.984c-.082.082-.082.165-.082.247v25.229H72.718l-8.08-8.08zm37.761 35.7c-.577.577-1.566.577-2.144 0l-26.96-26.96h16.242v10.718c0 .165.083.329.33.329.165 0 .33-.164.33-.329v-10.718H103.8c.165 0 .329-.165.329-.33s-.164-.33-.329-.33H90.197V256.41l.99.989c-.66 1.567-.66 3.381.164 4.947.412.907 1.154 1.567 1.979 2.144-.33 2.473.742 4.864 2.886 6.183h.082c.825.083 1.567 0 2.308-.165.495 1.072 1.32 1.979 2.309 2.639h.082c.495.082 1.072 0 1.649 0 .083.412.248.907.495 1.319.495.824 1.072 1.566 1.979 2.061-.33 2.473.742 4.864 2.885 6.184h.083c.824.082 1.566 0 2.308-.165.495 1.071 1.32 1.978 2.309 2.638h.165c1.814.247 3.545-.412 4.782-1.567l1.154 1.072-15.005 15.088a2.089 2.089 0 000 2.968l2.308 2.309-3.71 3.875zm8.904-1.32a1.541 1.541 0 01-2.143 0l-2.556-2.555-2.556-2.556c-.577-.577-.577-1.567 0-2.144l15.253-15.253 1.236-1.319c.578-.577 1.567-.577 2.144 0l1.237 1.319c.412.413 1.072.66 1.649.578v7.502l-14.264 14.428zm24.157-24.156l-5.359 5.359-.494.494-3.381 3.381v-7.008l.495-.248.247-.247 3.216-3.215h5.606c.165.494.083 1.071-.33 1.484zm.742-2.144c-.082-.165-.165-.247-.247-.412l-2.309-2.309 2.309-2.308c.412-.413.66-.907.66-1.484 0-.495-.165-1.072-.66-1.484l-45.84-45.758v-3.133h2.968l13.274 13.274 2.061 2.061 4.04 4.04L144.2 275.62h-2.639c-.165 0-.329.165-.329.33v5.441h-5.03v-.082zm17.314 23.662h27.043l-24.487 9.811-.66.248-1.978.824v-10.883h.082zm-.659 183.61h-10.883v-5.112h10.883v5.112zm0-5.772h-5.195v-5.111h5.195v5.111zm-.578-45.758v1.154l-2.308-2.308h1.154l1.154 1.154zm-.247-1.154h.247v.247l-.247-.247zm.247 3.215v1.155l-4.287-4.288h1.154l3.133 3.133zm0 1.979v1.154l-4.617-4.534v-1.154l4.617 4.534zm0 2.061v1.155l-4.617-4.535v-1.154l4.617 4.534zm0 2.061v1.155l-4.617-4.535v-1.154l4.617 4.534zm0 1.979v1.154l-4.617-4.534v-1.154l4.617 4.534zm0 2.061v1.155l-4.617-4.535v-1.154l4.617 4.534zm0 2.062v1.154l-4.617-4.535v-1.154l4.617 4.535zm0 1.978v1.155l-4.617-4.535v-1.154l4.617 4.534zm0 2.061v1.155l-4.617-4.535v-1.154l4.617 4.534zm0 2.062v1.154l-4.617-4.535v-1.154l4.617 4.535zm0 1.978v1.155l-4.617-4.535v-1.154l4.617 4.534zm0 2.062v1.154l-4.617-4.535v-1.154l4.617 4.535zm0 2.061v1.154l-4.617-4.535v-1.154l4.617 4.535zm0 1.978v1.155l-4.617-4.535v-1.154l4.617 4.534zm0 2.062v1.154l-4.617-4.535v-1.154l4.617 4.535zm0 2.061v1.154l-4.617-4.535v-1.236l4.617 4.617zm0 2.061v1.154l-4.617-4.534v-1.155l4.617 4.535zm0 1.979v1.154l-4.617-4.535v-1.154l4.617 4.535zm0 2.061v1.154l-4.617-4.534v-1.155l4.617 4.535zm-.659 1.319h-1.154l-2.721-2.721v-1.154l3.875 3.875zm-2.061 0h-1.155l-.659-.66v-1.154l1.814 1.814zm3.298-41.718h-5.195v-3.71c0-.165-.082-.33-.329-.33-.165 0-.33.082-.33.33v3.71h-5.112v-5.112h10.883v5.112h.083zm0-5.771h-5.195v-94.402h5.195v94.402zm.659 53.837h8.74c.164 0 .329-.082.329-.329 0-.165-.165-.33-.329-.33h-8.74v-5.112l28.362-11.378v10.883l-7.173 2.886-1.566.66-19.705 7.915v-5.195h.082zm1.484 5.195l17.067-6.844 1.566-.659 8.245-3.298v7.503c-1.731.165-3.133 1.484-3.298 3.215H155v.083zm26.878-2.639v2.639h-2.638a2.981 2.981 0 012.638-2.639zm.33 5.854c-1.484 0-2.721-1.154-2.886-2.638h5.854c-.248 1.484-1.484 2.638-2.968 2.638zm.33-3.215v-2.639a2.982 2.982 0 012.638 2.639h-2.638zm3.132 0c-.164-1.732-1.484-3.133-3.215-3.216v-7.503l9.894 4.947h-8.245a.355.355 0 00-.33.33c0 .165.083.33.33.33h9.481l10.306 5.112H185.67zm19.211-.248l-9.894-4.947h9.894v4.947zm0-5.524H193.75l-11.295-5.606v-10.801l3.298 1.649.66.33 18.468 9.234v5.194zm0-5.936l-17.974-8.987-.659-.329-3.793-1.897v-10.8l10.966 5.524.659.329 2.556 1.32 8.162 4.122v10.718h.083zm5.771 11.708h-5.112v-5.112h5.112v5.112zm0-5.772h-5.112V304.971h5.112v177.838zm6.431-46.665v-1.154l.824.824 3.133 3.133h-1.154l-2.144-2.143-.659-.66zm.907-1.072h1.154l.33.248 2.803 2.803v.907h-.247l-3.133-3.133-.495-.495-.412-.33zm-.907 47.737v-42.542h5.111v42.542h-5.111zm-5.194-.659l.659.659h-.659v-.659zm0-.907v-1.155l2.72 2.721h-1.154l-1.566-1.566zm0-1.979v-1.154l3.957 3.957v.742h-.412l-3.545-3.545zm0-2.061v-1.154l3.957 3.957v1.154l-3.957-3.957zm0-34.628v-1.154l.247.247.495.495 3.215 3.298v1.154l-3.792-3.875-.165-.165zm1.649-2.308h1.154l1.072 1.071v1.155l-2.226-2.226zm2.308 9.234v1.154l-3.957-3.958v-1.154l3.957 3.958zm-3.957-4.865v-1.154l3.957 3.958v1.154l-3.957-3.958zm3.957 6.843v1.155l-3.957-3.958v-1.154l3.957 3.957zm0 2.062v1.154l-3.957-3.958v-1.154l3.957 3.958zm0 2.061v1.154l-3.957-3.957v-1.155l3.957 3.958zm0 2.061v1.154l-3.957-3.957v-1.155l3.957 3.958zm0 1.979v1.154l-3.957-3.958v-1.154l3.957 3.958zm0 2.061v1.154l-3.957-3.957v-1.155l3.957 3.958zm0 2.061v1.154l-3.957-4.04v-1.154l3.957 4.04zm0 1.979v1.154l-3.957-3.957v-1.155l3.957 3.958zm0 2.061v1.154l-3.957-3.957v-1.155l3.957 3.958zm0 2.061v1.154l-3.957-3.957v-1.237l3.957 4.04zm0 1.979v1.154l-3.957-3.957v-1.155l3.957 3.958zm0 2.061v1.154l-3.957-4.04v-1.071l3.957 3.957zm0 2.061v1.154l-3.957-3.957v-1.154l3.957 3.957zm0 2.061v1.155l-3.957-3.958v-1.154l3.957 3.957zm0-37.595l-.247-.248h.247v.248zm-2.226.742l2.226 2.226v1.154l-2.803-2.803-.495-.495-.742-.742v-.247h.825l.412.412.577.495zm3.463-4.123l.33.33 1.649 1.649h-1.155l-.824-.825v-1.154zm4.947 46.913h.164v.164l-.164-.164zm.164 1.071v1.155l-2.226-2.144h1.155l1.071.989zm0-49.798l-.164-.165h.164v.165zm0 .825v1.154l-2.226-2.144h1.155l1.071.99zm-5.771 3.545h-5.112v-5.112h5.112v5.112zm0 48.974h-5.112v-5.112h5.112v5.112zm1.484-.578l-.824-.824v-1.154l2.061 1.978h-1.237zm2.061 0l-2.885-2.885v-1.154l4.04 3.957h-1.155v.082zm2.226 0h-.247l-3.957-3.957h1.154l3.05 3.05v.907zm5.772.578h-5.112v-5.112h5.112v5.112zm-.577-47.243v1.155l-2.309-2.226h1.154l1.155 1.071zm-.248-1.071h.248v.247l-.248-.247zm.248 3.133v1.154l-3.958-3.958v-.329h.825l3.133 3.133zm0 1.978v1.155l-3.958-3.958v-1.154l3.958 3.957zm0 2.062v1.154l-3.958-3.958v-1.154l3.958 3.958zm0 2.061v1.154l-3.958-3.958v-1.154l3.958 3.958zm0 1.978v1.155l-3.958-3.958v-1.154l3.958 3.957zm0 2.062v1.154l-3.958-3.958v-1.154l3.958 3.958zm0 2.061v1.154l-3.958-3.957v-1.155l3.958 3.958zm0 2.061v1.154l-3.958-3.957v-1.155l3.958 3.958zm0 1.979v1.154l-3.958-3.958v-1.154l3.958 3.958zm0 2.061v1.154l-3.958-3.957v-1.155l3.958 3.958zm0 2.061v1.154l-3.958-4.04v-1.154l3.958 4.04zm0 1.979v1.154l-3.958-3.957v-1.155l3.958 3.958zm0 2.061v1.154l-3.958-3.957v-1.155l3.958 3.958zm0 2.061v1.154l-3.958-3.957v-1.237l3.958 4.04zm0 1.979v1.154l-3.958-3.957v-1.155l3.958 3.958zm0 2.061v1.154l-3.958-4.04v-1.071l3.958 3.957zm0 2.061v1.154l-3.958-3.957v-1.154l3.958 3.957zm0 2.061v1.155l-3.958-3.958v-1.154l3.958 3.957zm0 1.979v1.154l-3.958-3.957v-1.154l3.958 3.957zm0 2.061v.742h-.413l-3.545-3.545v-1.154l3.958 3.957zm-1.319.742h-1.155l-1.566-1.566v-1.155l2.721 2.721zm-1.979 0h-.66v-.659l.66.659zm3.875-43.202h-5.112v-5.112h5.112v5.112zm0-5.771h-16.655V333.745h16.655v100.091zM144.2 408.525v.906l.659.66v-.907l-.659-.659zm2.885-6.514v9.399l.577.577v-10.635l-.577.659zm50.128 59.527l-1.896-.989-.742-.413-.495.495 2.556 1.319 1.896.907-1.319-1.319z"/><path d="M41.47 380.327H10.554l.66.66h30.01v20.364l.66-.659v-20.117c-.082-.083-.247-.248-.412-.248zm1.155-1.154H3.793v-6.101a.355.355 0 00-.33-.33c-.083 0-.248.083-.248.165v6.184H0v.659h3.133v.577H0v.66h3.133v28.691c0 .165.165.33.33.33s.33-.165.33-.33v-28.691H41.14v83.436H3.793v-32.814a.355.355 0 00-.33-.33c-.165 0-.33.083-.33.33v32.814H0v.66h3.133v.494H0v.66h3.133v1.979c0 .165.165.33.33.33s.33-.165.33-.33v-1.979h38.832c.165 0 .33-.165.33-.33v-86.404a.355.355 0 00-.33-.33zm-.33 86.322H3.793V465H41.47c.165 0 .33-.165.33-.33v-84.095a.355.355 0 00-.33-.33H3.793v-.577h38.502v85.827zm-.824-85.168H10.553l.66.66h30.01v20.364l.66-.659v-20.117c-.082-.083-.247-.248-.412-.248z"/></g></svg>