<svg width="206" height="192" viewBox="0 0 206 192" fill="none" xmlns="http://www.w3.org/2000/svg">
<g clip-path="url(#clip0_97_4955)">
<path fill-rule="evenodd" clip-rule="evenodd" d="M205.5 56L193.7 49.4L170.8 36.2L136 15.8L80.2 48.1V191.6H68.4L66.4 190.3L9.9 158V177.8L34.1 191.6H0V77L6.5 73.1L9.8 71.1L13.1 73.1L44.6 91.5L66.3 103.4V40.2L69.6 38.2L101.1 20.4L132.6 2L135.9 0L139.2 2L170.7 20.4L205.5 40.2V56ZM9.9 141.6L66.3 174.5H66.4V119.2L44.7 106.7L38.1 103.4L9.9 86.9V106.7L38.1 123.2V138.3L9.9 122.5V141.6ZM135.9 86.8996V71.0996L205.5 111.3V127.1L135.9 86.8996ZM205.5 146.801L166.1 123.801V139.601L193.7 156.001L205.5 162.601V146.801ZM193.7 191.599L135.9 157.999V142.199L205.5 182.399V191.599H193.7ZM135.9 191.601H160.2L135.9 177.801V191.601ZM172.7 72.3996L135.9 51.3996V35.5996L172.7 56.5996V72.3996Z" fill="white"/>
</g>
<defs>
<clipPath id="clip0_97_4955">
<rect width="205.5" height="191.6" fill="white"/>
</clipPath>
</defs>
</svg>
