<svg width="20" height="20" fill="none" xmlns="http://www.w3.org/2000/svg"><path d="M14.172.985l1.54 1.65-2.419 2.418c-.44.44-.44 1.1 0 1.54.44.439 1.1.439 1.54 0l2.418-2.42 1.65 1.54c.439.44.989.11.989-.33V.655c0-.33-.22-.55-.55-.55h-4.728c-.44 0-.77.55-.44.88zM.98 5.713l1.54-1.54 2.418 2.42c.44.439 1.1.439 1.54 0 .44-.44.44-1.1 0-1.54l-2.31-2.419L5.708.985c.44-.33.11-.88-.33-.88H.649C.32.105.1.325.1.655v4.728c0 .44.55.77.88.33zm4.728 13.193l-1.65-1.54 2.42-2.418c.44-.44.44-1.1 0-1.54a1.065 1.065 0 00-1.54 0l-2.419 2.42-1.649-1.54c-.22-.44-.77-.11-.77.33v4.728c0 .33.22.55.55.55h4.728c.44 0 .77-.55.33-.99zm13.303-4.728l-1.65 1.54-2.418-2.42a1.065 1.065 0 00-1.54 0c-.439.44-.439 1.1 0 1.54l2.42 2.419-1.54 1.649c-.33.33-.11.99.44.99h4.728c.33 0 .55-.22.55-.55v-4.728c-.11-.44-.66-.77-.99-.44z" fill="#0F4E41"/></svg>