<svg width="40" height="38" fill="none" xmlns="http://www.w3.org/2000/svg"><path d="M28.005 37.364c-.374 0-.624-.25-.624-.624v-.686l-20.583-.062a1.518 1.518 0 01-1.497-1.497v-17.84c0-.373.25-.623.624-.623s.623.25.623.624v17.839c0 .124.125.25.25.25h20.52l.063-2.87a1.28 1.28 0 01-.374-.25l-6.3-4.615c-2.557-1.871-4.304-4.74-4.678-7.922-.374-3.118.561-6.3 2.62-8.67L27.38.127l.063-.063c.249 0 .436-.062.56-.062.188 0 .438.062.562.25l8.735 10.29c2.058 2.37 2.993 5.551 2.62 8.67a11.34 11.34 0 01-4.679 7.922l-6.3 4.615c-.124.063-.187.125-.311.187v2.87l1.87.062c.063 0 .126 0 .188-.062.062-.063.062-.125.062-.188V32.81c0-.375.25-.624.624-.624s.624.25.624.624v1.808c0 .811-.686 1.497-1.497 1.497H28.69l-.062.687c0 .249-.25.56-.624.56zm-8.296-26.01a10.205 10.205 0 00-2.37 7.734c.312 2.807 1.871 5.364 4.179 7.049l5.925 4.303v-5.489l-5.177-5.177a.603.603 0 010-.873.566.566 0 01.437-.187.57.57 0 01.437.187l4.303 4.304v-5.551l-3.804-3.867a.603.603 0 010-.874.566.566 0 01.436-.187.57.57 0 01.437.187l2.931 2.932V8.61c0-.375.25-.624.624-.624.375 0 .624.25.624.624v7.173l2.931-2.932a.566.566 0 01.437-.187c.187 0 .312.062.437.187.25.25.25.624 0 .873l-3.805 3.867v5.614l4.304-4.304a.566.566 0 01.436-.187c.188 0 .312.063.437.187.25.25.25.624 0 .873l-5.177 5.177v5.427l5.926-4.304a10.43 10.43 0 004.178-7.048c.312-2.807-.498-5.614-2.37-7.734l-8.42-9.793-8.296 9.855z" fill="#0F4E41"/><path d="M.624 17.967c-.187 0-.375-.063-.437-.187-.25-.312-.25-.686 0-.936l5.863-5.24c-.062-.124-.062-.249-.062-.311V5.99c0-.374.25-.624.624-.624s.623.25.623.624v4.616l10.729-9.543c.312-.25.686-.437 1.122-.437.437 0 .811.125 1.123.437l2.246 1.996c.25.249.25.623.062.873-.125.125-.312.25-.499.25-.125 0-.312-.063-.374-.125L19.46 2.124a.476.476 0 00-.312-.125.476.476 0 00-.312.125L1.06 17.78a.674.674 0 01-.436.187z" fill="#0F4E41"/></svg>