<svg width="264" height="351" fill="none" xmlns="http://www.w3.org/2000/svg"><path d="M167.795 236.012l-14.492 14.492.34.34 14.492-14.492-.34-.34zm-15.971 15.837l-.748.749.34.34.749-.749-.341-.34zm-18.058 18.149l-.748.748.34.34.748-.748-.34-.34zm15.925-15.908l-14.492 14.492.34.34 14.492-14.492-.34-.34zm74.567-74.491l-.748.749.34.34.748-.748-.34-.341zm-18.154 18.006l-.749.749.341.34.748-.749-.34-.34zM97.506 306.25l-.748.748.34.34.748-.748-.34-.34zm90.498-90.559l-.748.748.34.341.748-.749-.34-.34zm72.444-72.281l-.749.748.34.34.749-.748-.34-.34zM79.362 324.257l-.749.749.34.34.749-.749-.34-.34zM258.226 145.52l-14.492 14.492.341.34 14.491-14.492-.34-.34zm-15.964 15.853l-.748.748.34.34.748-.748-.34-.34zm-2.129 2.239l-14.492 14.492.34.34 14.492-14.492-.34-.34zm-70.16 70.231l-.748.749.34.34.748-.748-.34-.341zm.626 97.988l-2.887 4.908-3.079-3.079-2.213 2.116 14.625 14.626 2.213-2.213-11.161-11.066 4.907-2.886-.962-.962 10.007-10.007-.481-.385-10.007 10.007-.962-1.059zM33.676 202.704l4.138-2.406-.962-.866 10.68-10.68-.385-.289-10.584 10.584-.962-.866-2.31 4.138-10.968-10.969-2.214 2.213 14.626 14.529 2.213-2.213-3.272-3.175z" fill="#fff"/><path d="M27.808 303.736l8.66-8.66.866.866 2.405-4.138 16.742 16.743.578.577 18.763 18.763-5.87 5.869.385.385 5.87-5.869 18.666 18.666.77.289c2.117 0 3.656.096 5.292.289 1.444.096 2.983.288 5.004.288l.385.385 22.611-22.611 2.887 2.886 76.592-76.591 3.656 3.656 17.897-17.897c1.732-1.732 5.003-1.636 7.313-.673l8.371 8.371c.77.769 1.539 1.443 2.309 2.02l-4.522 4.523.769.769 4.715-4.714c4.426 2.886 9.141 3.271 11.739.673l.77-.77-.385-.384 85.444-85.444.385.385.769-.77c2.887-2.887 2.791-7.89 0-12.413l4.715-4.714-.769-.77-4.523 4.522c-.577-.866-1.251-1.635-2.02-2.405l-8.757-8.756c-1.251-2.791-1.154-4.811.289-6.255l18.571-18.57-3.657-3.657 24.055-24.055.097-.096.577-.577-.289-.289c.096-2.02.096-3.752 0-5.388 0-2.02-.096-4.138.193-7.024l-.289-.77-20.976-20.976 5.1-5.1-.385-.385-5.1 5.1-20.591-20.591-.962-.962-22.805-22.805 4.138-2.405-.866-.866 7.024-7.024-.385-.385-7.024 7.024-.866-.866-2.405 4.138-5.1-5.1-.77.77 5.1 5.1-5.87 5.869-5.099-5.1-.77.77 5.099 5.1-4.137 2.405.866.866-6.928 6.928.385.385 6.928-6.928.866.866 2.406-4.138 15.683 15.684-24.055 24.055-3.656-3.656-18.571 18.57c-1.539 1.54-3.464 1.733-5.869.674l-8.371-8.371c-.77-.77-1.54-1.443-2.406-2.02l4.523-4.523-.77-.77-4.715 4.715c-4.137-2.598-8.66-2.887-11.643-.673l-.385-.385-88.33 88.33.385.385c-1.155 1.732-1.347 4.041-.674 6.639l-25.69-25.691-.77.77 7.313 7.313 19.917 19.917c.289.674.674 1.347 1.155 2.021l-4.715 4.715.77.769 4.522-4.522c.578.77 1.251 1.636 2.021 2.309l8.082 8.083.097.577c.192.866.384 1.828.769 2.694-.192 1.251-.866 2.502-2.02 3.561l-16.454 16.453-29.54-29.539-.769.769 5.099 5.1 24.44 24.44-.769.77 3.656 3.656-75.148 75.148-24.44-24.44-.77.77 6.543 6.543 17.897 17.897-.77.77 2.887 2.886L56 295.653l-10.392-10.392 4.138-2.405-.866-.866 8.66-8.66-.385-.385-8.66 8.66-.866-.866-2.405 4.137-5.677-5.677-.77.77 5.677 5.677-5.1 5.1-10.007-10.007 4.619-2.694-.866-.866 20.11-20.11.866.866 2.887-5.004-5.004 2.887.866.866-20.11 20.11-.866-.866-2.694 4.618-10.103-10.103-10.97-10.969-7.312-7.313-.77.77 38.488 38.488-4.137 2.406.866.866-8.66 8.66 1.25.385zm73.127 41.759c-1.443-.096-2.983-.289-5.003-.289L77.65 326.925l-.385-.385-19.052-19.052c0-2.021-.192-3.56-.288-5.003-.096-.866-.193-1.732-.193-2.695l23.19 23.19.384.384 22.42 22.42c-.963-.193-1.829-.193-2.791-.289zm-42.818-48.399l5.966-5.965 2.405 4.137.866-.866 21.073 21.072-6.062 6.062-24.248-24.44zm24.633 24.633l6.061-6.062 20.303 20.302-.866.866 4.137 2.406-5.965 5.965-23.67-23.477zm70.818-17.897l-2.406-4.138-.866.866-13.567-13.567 36.66-36.66c5.196-5.196 5.196-13.759 0-18.955l-.192-.193 7.313-7.312 26.46 26.46-53.402 53.499zm-26.846-26.076l8.179 8.179-2.405 2.405c-4.427 4.426-11.643 4.426-16.069 0l-.77-.77c-4.426-4.426-4.426-11.642 0-16.068l2.406-2.406 8.178 8.179-9.237 9.237.385.385 9.333-9.141zm.289-.289l4.811-4.811-.385-.385-4.811 4.811-8.179-8.178 36.66-36.66c4.427-4.426 11.643-4.426 16.069 0l.193.192.384.385.193.192c4.426 4.427 4.426 11.643 0 16.069l-36.66 36.66-8.275-8.275zm120.083-33.581l-4.522-4.522-38.777-38.777.481-.481-.385-.385-.481.481-27.038-27.038h.674c1.058-.096 2.116-.096 3.079-.192.481 0 1.058-.096 1.539-.096.578-.096 1.059-.097 1.54-.193l69.663 69.664-3.464 3.464c-.769-.481-1.539-1.155-2.309-1.925zm-82.076-82.076l-4.715-4.714c-.769-.77-1.443-1.54-2.02-2.406l3.464-3.464 10.199 10.2-3.656 3.656-3.176-3.175-.096-.097zm128.935-52.055l-14.048 14.048.385.385 14.048-14.048 45.416 45.416-27.904 27.904-45.416-45.416 10.296-10.296-.385-.385-10.296 10.296-17.993-17.993c.962-1.54 2.406-3.56 4.523-6.255 1.347-1.635 2.598-3.271 3.848-4.714.77-.866 1.444-1.732 2.214-2.502 1.25-1.347 2.309-2.502 3.271-3.656 4.041-4.33 6.254-6.736 5.966-9.334-.096-1.154.192-1.732.769-2.79.578-.962 1.155-2.213 1.636-4.426l23.67 23.766zm19.822 75.629l-1.155-1.154 27.904-27.904 4.426 4.426-27.904 27.904-2.405-4.138-.866.866zm-143.561-15.491c0 .096.096.096 0 0zm-.481-3.368l2.309-2.309-1.058 3.56-1.251-1.251zm3.079-3.079l.577-.577 1.347 1.347-1.635 5.677-1.636-1.636 1.347-4.811zm46.956-13.663l-.482.481-.288.289 13.278-45.801 1.636 1.635-12.028 41.375c-.769.77-1.539 1.444-2.116 2.021zm14.625-43.107l1.636 1.636-10.488 36.179c-.096 0-.097.096-.193.096-.962.866-1.828 1.636-2.694 2.405l11.739-40.316zm2.021 2.117l1.635 1.636-8.948 30.886-.289.289-2.598 2.309 10.2-35.12zm2.117 2.021l1.635 1.635-7.409 25.499c-.577.577-1.251 1.154-1.924 1.828-.289.289-.674.577-.962.866l8.66-29.828zm2.02 2.116l1.636 1.636-5.773 19.725c-.866.866-1.829 1.925-2.983 2.983l7.12-24.344zm2.021 2.021l1.635 1.636-3.848 13.182-.193.192a71.887 71.887 0 01-3.079 3.561l5.485-18.571zm2.117 2.021l1.635 1.635v.097c-1.539 2.405-2.117 3.848-2.598 5.196-.288.673-.481 1.347-.866 2.213-.384.769-.866 1.539-1.443 2.405l3.272-11.546zm.096-.578l10.199-35.216 2.983-2.983-11.546 39.835-1.636-1.636zm-.385-.385l-1.636-1.635 8.564-29.444 2.983-2.983-9.911 34.062zm-2.021-2.02l-1.636-1.636 6.832-23.67 2.983-2.983-8.179 28.289zm-2.117-2.117l-1.635-1.636 5.196-17.8 2.982-2.983-6.543 22.419zm-2.02-2.021l-1.636-1.635 3.464-12.028 2.983-2.983-4.811 16.646zm-2.021-2.02l-1.636-1.636 1.829-6.254 2.982-2.983-3.175 10.873zm-2.117-2.117l-1.635-1.636.096-.481 2.983-2.983-1.444 5.1zm-15.876 45.512c-.192.193-.385.385-.577.481-.674.578-1.444 1.155-2.213 1.732l13.374-46.089 2.983-2.983-13.567 46.859zm-3.464 2.694c-.77.578-1.636 1.059-2.598 1.732l12.99-44.55 2.983-2.983-13.375 45.801zm-3.175 2.117c-.674.385-1.251.77-2.021 1.251l-.577.289 12.412-42.722 2.983-2.983-12.797 44.165zm-3.272 1.925l-.577.288c-.577.385-1.251.77-2.021 1.155l11.932-40.894 2.982-2.983-12.316 42.434zm-3.175 1.924c-.77.481-1.636.962-2.598 1.54l11.354-39.162 2.983-2.983-11.739 40.605zm-3.272 1.924c-.673.481-1.443.866-2.213 1.347-.096 0-.096.097-.192.097l-.192.096 10.873-37.334 2.982-2.982-11.258 38.776zm-3.175 2.021l-.866.481c-.673.385-1.251.77-1.732 1.155l10.392-35.698 2.983-2.983-10.777 37.045zm-3.271 2.117c-.193.096-.385.192-.578.385-.866.577-1.539.962-2.02 1.347l9.91-33.966 2.983-2.983-10.295 35.217zm-3.272 2.02c-.385.193-.673.385-.962.482-.385.192-.77.288-1.155.481-.096 0-.192.096-.192.096l9.237-31.753 2.983-2.983-9.911 33.677zm-2.983 1.251c-.288.097-.481.193-.769.289-.481.192-1.059.289-1.54.481l8.371-28.962 2.983-2.983-9.045 31.175zm-2.886.866c-.77.193-1.444.289-2.213.481l7.505-25.787 2.983-2.982-8.275 28.288zm-11.835 1.155l-.963-.962 1.636-5.677 1.636 1.636-1.443 5.003h-.866zm9.141-1.058l-1.636-1.636 5.773-20.014 2.983-2.983-7.12 24.633zm-2.021-2.117l-1.636-1.636 4.138-14.241 2.983-2.983-5.485 18.86zm-2.117-2.021l-1.636-1.636 2.406-8.467 2.983-2.983-3.753 13.086zm-2.021-2.021l-1.635-1.635.769-2.598 2.983-2.983-2.117 7.216zm-2.02-2.116l-.481-.481.962-.963-.481 1.444zm1.732 4.714l1.636 1.636-.866 2.791c-.289 0-.578 0-.963.096h-1.154l1.347-4.523zm2.117 2.117l1.635 1.636-.192.577c-.192 0-.481 0-.674.097-.481 0-.962.096-1.539.096l.77-2.406zm2.02 2.021l.096.096h-.192l.096-.096zm27.712 24.729l13.471-13.471-.385-.385-13.471 13.471-22.804-22.805a18.113 18.113 0 003.271-.866c.577-.192 1.155-.384 1.636-.577.385-.192.866-.289 1.251-.481 1.058-.481 2.117-1.155 4.041-2.406.77-.481 1.732-1.154 2.887-1.828l1.635-1.058.097-.096a497.754 497.754 0 018.082-4.908l1.732-1.058c3.753-2.213 6.254-3.753 8.467-5.773.482-.385.867-.77 1.348-1.251l.288-.289.385-.385c1.347-1.347 3.272-3.079 5.581-5.099 1.155-.963 2.309-2.021 3.464-3.079.673-.578 1.347-1.251 2.021-1.829 4.618-4.233 7.601-7.409 9.718-10.007.096-.096.192-.288.288-.384 1.059-1.444 1.829-2.695 2.406-3.849a9.63 9.63 0 00.962-2.406c.385-1.154.866-2.405 2.117-4.426l17.897 17.897-3.849 3.849.385.385 3.849-3.849 45.416 45.416L254.118 241l-45.127-45.512zm58.79-123.547l-2.02 6.831-1.636-1.636 2.021-6.831 1.635 1.635zm-2.597 9.044l-6.447 22.227c-.481.577-1.059 1.155-1.54 1.732-.481.577-1.058 1.155-1.539 1.828l7.986-27.326 1.54 1.54zm-4.715 20.303c-.289.385-.674.673-.963 1.058l6.062-20.88 1.636 1.636-4.618 15.876c-.578.674-1.348 1.444-2.117 2.31zm-5.677 6.35a179.714 179.714 0 00-3.272 3.945l10.007-34.254 1.636 1.636-8.371 28.673zm12.124-18.09c-.578 1.06-1.155 2.118-.963 3.946.097 1.154-.866 2.598-2.501 4.522l4.233-14.529.866.866c-.385 2.79-1.058 4.137-1.635 5.196zm1.443-8.37l.481-1.732c0 .866 0 1.635-.096 2.213l-.385-.481zm.481-3.753l-.962 3.272-1.636-1.636 2.021-6.832.481.481c.096 1.444.096 3.175.096 4.715zm-5.004-.77l-1.635-1.636.385-1.25 2.982-2.983-1.732 5.87zm-2.79.193l-10.392 35.698c-1.443 1.828-2.598 3.367-3.464 4.618l11.547-39.739 1.443-1.443.866.866zm-30.213 25.594l-10.2-10.199 27.904-27.904 10.2 10.2-27.904 27.903zm-.289.385l-57.059 57.059-10.199-10.199 57.059-57.06 10.199 10.2zm19.821 143.657l3.272-3.271 4.619 4.618c-1.828 1.059-4.908.482-7.891-1.347zm4.811-4.811l57.059-57.058 1.155 1.154-.866.866 4.137 2.406-57.058 57.058-4.427-4.426zm91.506-82.172l-4.715-4.715 3.945-3.945c1.829 3.176 2.214 6.447.77 8.66zm-5.484-5.388l-70.53-70.53c.096-.577.096-1.25.096-1.924.097-2.694.096-4.811.096-6.64l28.963 28.963-1.732 1.732.385.385 1.732-1.732 38.392 38.392 4.907 4.907c.77.77 1.443 1.539 2.021 2.405l-4.33 4.042zm-7.89-19.629l-31.657-31.657 11.162-11.161 26.653 26.653-.866.866 4.426 2.501-7.89 7.891c-1.059 1.058-2.021 2.597-1.828 4.907zm27.904-44.743l-23.19-23.189 8.949-8.948 26.461 26.46-8.949 8.949-2.406-4.138-.865.866zm-7.794-38.68l20.591 20.59c-.193 2.791-.193 4.812-.096 6.833 0 1.058.096 2.213 0 3.367l-25.595-25.594.77-.77-.385-.385-.77.77-26.364-26.365c1.154 0 2.309 0 3.367.096 2.021.097 4.138.193 6.832 0l21.169 21.169-.77.77.385.385.866-.866zm-49.746-39.643l5.869-5.87 21.842 21.842c-2.405.193-4.33.097-6.158 0-1.636-.096-3.368-.096-5.485 0l-.288-.288-15.78-15.684zm42.818 45.8l-8.949 8.95-23.959-23.96.866-.866-4.137-2.405 8.948-8.949 27.231 27.23zm-36.468-17.8l2.406 4.138.866-.866 23.959 23.958-2.983 2.983.385.385 2.983-2.983 23.189 23.19-.866.865 4.137 2.406-14.048 14.048-26.461-26.46 7.506-7.506-.385-.385-7.505 7.505-27.231-27.23 14.048-14.048zM293.087 53.37l28.674 28.674-5.581 5.58.385.385 5.581-5.58 27.904 27.903 2.213 2.214-8.949 8.948-2.501-4.426-.866.866-54.846-54.846.866-.866-3.752-2.213 8.852-8.852 2.02 2.213zm-11.546 7.217l2.213 3.752.866-.866 27.808 27.808-11.162 11.161-30.598-30.598c-.096-.673-.192-1.154-.385-1.635 1.251-.193 2.406-.867 3.464-1.829l7.794-7.793zm-24.921.096l4.522 4.522 3.56 3.56-4.426 4.426-10.199-10.199 4.137-4.137c.77.384 1.636 1.058 2.406 1.828zm-3.368-2.502l-3.945 3.945-4.715-4.715c2.213-1.347 5.581-1.058 8.66.77zm-5.388 5.485L219.96 91.57l-1.924-1.925.865-.866-4.137-2.405 27.904-27.904 5.196 5.196zm-33.389 23.092l2.406 4.138.866-.866 1.924 1.924-57.058 57.059-5.1-5.1 56.962-57.155zm-58.117 59.08l4.619 4.618-3.272 3.272c-1.924-2.983-2.405-5.966-1.347-7.89zm10.873 29.058a10.382 10.382 0 002.117-3.079 6.117 6.117 0 002.405 1.059l.289.096c.385.096.866.192 1.251.192h.289l28.481 28.482-12.605 12.605.385.384 12.605-12.604 32.137 32.137c-2.213-.096-4.522.385-6.062 1.925l-16.453 16.453-2.213-2.213-27.904-27.904 4.234-4.233-.385-.385-4.234 4.233-26.076-26.075-2.598-2.598-2.213-2.213 16.55-16.262zm12.894 48.688l-7.313 7.313-.193-.193c-5.195-5.196-13.759-5.196-18.955 0l-36.66 36.66-14.241-14.24.866-.866-4.137-2.406 53.402-53.402 27.231 27.134zM77.842 271.598l21.361-21.361 2.406 4.137.866-.866 14.24 14.241-2.405 2.406c-5.196 5.195-5.196 13.759 0 18.955l.77.77c5.196 5.196 13.759 5.196 18.955 0l2.406-2.406 13.567 13.567-.866.866 4.137 2.406-21.361 21.361-1.443-1.444-25.017-25.017 8.467-8.467-.385-.385-8.467 8.467-25.691-25.691-1.54-1.539zm25.691 28.674l-4.522 4.522.385.385 4.522-4.523 23.574 23.574-14.722 14.722-2.405-4.137-.866.866-20.303-20.303 6.64-6.639-.385-.385-6.64 6.639-21.072-21.072.866-.866-4.137-2.405 14.721-14.722 24.344 24.344zm-48.399-3.176l.385.385c0 2.021.193 3.56.289 5.004.096 1.347.192 2.598.288 4.233l-15.683-15.684 5.1-5.099 10.391 10.392-.77.769z" fill="#fff"/><path d="M119.988 169.893l-96.413 96.509-.866-.866-2.887 5.004 5.004-2.887-.866-.962 96.413-96.413.865.866 2.887-5.003-5.003 2.886.866.866zM12.989 255.819L131.34 137.468l.866.866 2.887-5.004-5.004 2.887.866.866-118.35 118.351-.867-.866-2.886 5.003 5.003-2.886-.866-.866z" fill="#fff"/></svg>