<svg width="20" height="20" fill="none" xmlns="http://www.w3.org/2000/svg"><g clip-path="url(#clip0_506_14436)" fill="#999"><path d="M14.685 10a3.842 3.842 0 00-3.835 3.84c0 2.035 3.425 5.878 3.571 6.042a.359.359 0 00.532 0c.147-.164 3.575-4.007 3.575-6.043A3.846 3.846 0 0014.685 10zm-2.096 3.55a2.097 2.097 0 114.195-.004 2.097 2.097 0 01-4.195.004z"/><path d="M16.07 13.55a1.384 1.384 0 11-2.768-.004 1.384 1.384 0 012.769.004zM13.259 20H6.83c-1.379 0-2.5-.984-2.5-2.194s1.121-2.194 2.5-2.194c.984 0 1.786-.663 1.786-1.48v-1.224c0-.816-.802-1.48-1.786-1.48h-5a.357.357 0 010-.714h5c1.378 0 2.5.985 2.5 2.194v1.225c0 1.21-1.122 2.193-2.5 2.193-.985 0-1.786.664-1.786 1.48s.801 1.48 1.786 1.48h6.428a.357.357 0 110 .714zM9.135 4.746a.357.357 0 01-.25.611H2.278v4.286a.357.357 0 11-.714 0V.357A.356.356 0 011.92 0h6.964a.357.357 0 01.25.61L7.067 2.68l2.068 2.067z"/></g><defs><clipPath id="clip0_506_14436"><path fill="#fff" d="M0 0h20v20H0z"/></clipPath></defs></svg>