<svg width="48" height="48" fill="none" xmlns="http://www.w3.org/2000/svg"><path d="M2.756 1.57c0 .657-.493 1.15-1.15 1.15-.658 0-1.15-.493-1.15-1.15A1.121 1.121 0 011.605.42c.657 0 1.15.493 1.15 1.15zm15.063 0c0 .657-.493 1.15-1.15 1.15-.658 0-1.15-.493-1.15-1.15 0-.657.547-1.15 1.15-1.15.657 0 1.15.493 1.15 1.15zm15.118 0c0 .657-.493 1.15-1.15 1.15-.658 0-1.206-.493-1.206-1.15 0-.657.548-1.15 1.205-1.15.603 0 1.15.493 1.15 1.15zM46.85 2.72a1.15 1.15 0 100-2.3 1.15 1.15 0 000 2.3zM2.756 16.524c0 .657-.493 1.15-1.15 1.15-.658 0-1.15-.493-1.15-1.15 0-.658.492-1.15 1.15-1.15.657 0 1.15.492 1.15 1.15zm15.063 0c0 .657-.493 1.15-1.15 1.15-.658 0-1.15-.493-1.15-1.15 0-.658.492-1.15 1.15-1.15.657 0 1.15.492 1.15 1.15zm15.118 0c0 .657-.493 1.15-1.15 1.15-.658 0-1.15-.493-1.15-1.15 0-.658.492-1.15 1.15-1.15.602 0 1.15.492 1.15 1.15zm13.913 1.15a1.15 1.15 0 100-2.3 1.15 1.15 0 000 2.3zM2.756 31.477c0 .658-.493 1.15-1.15 1.15-.658 0-1.15-.547-1.15-1.15 0-.657.492-1.15 1.15-1.15.657 0 1.15.493 1.15 1.15zm15.063 0c0 .658-.493 1.15-1.15 1.15-.658 0-1.15-.492-1.15-1.15 0-.657.492-1.15 1.15-1.15.657 0 1.15.493 1.15 1.15zm15.118 0c0 .658-.493 1.15-1.15 1.15-.658 0-1.15-.492-1.15-1.15 0-.657.492-1.15 1.15-1.15.602 0 1.15.493 1.15 1.15zm15.063 0c0 .658-.493 1.15-1.15 1.15-.658 0-1.15-.492-1.15-1.15 0-.657.492-1.15 1.15-1.15.657 0 1.15.493 1.15 1.15zM2.756 46.43c0 .658-.493 1.151-1.15 1.151-.658 0-1.15-.548-1.15-1.15 0-.603.492-1.15 1.15-1.15.657 0 1.15.493 1.15 1.15zm15.063 0c0 .658-.493 1.151-1.15 1.151-.658 0-1.15-.493-1.15-1.15 0-.657.492-1.15 1.15-1.15.657-.055 1.15.493 1.15 1.15zm15.118 0c0 .658-.493 1.151-1.15 1.151-.658 0-1.206-.548-1.206-1.15 0-.603.493-1.15 1.15-1.15.658-.055 1.206.493 1.206 1.15zm13.913 1.151a1.15 1.15 0 100-2.3 1.15 1.15 0 000 2.3z" fill="#B5C8C4"/></svg>