<svg width="258" height="240" fill="none" xmlns="http://www.w3.org/2000/svg"><g opacity=".1"><path fill="#fff" d="M0 0h257.143v240H0z"/><g clip-path="url(#clip0_607_13828)" fill-rule="evenodd" clip-rule="evenodd" fill="#0E473B"><path d="M12.292 88.885v150.609H0V96.292l8.195-4.938 4.097-2.47zm244.201 50.203v19.752l-86.864-50.203V88.885l86.864 50.203z"/><path d="M47.528 153.901v18.929l-35.237-19.752v-19.752l35.237 20.575zm35.237 64.194v19.752L12.291 197.52v-20.575l70.474 41.15zm-40.154 21.397h-30.32v-17.283l30.32 17.283zm40.154-110.28v19.752l-27.042-15.637-8.195-4.115-35.237-20.575V88.885l4.097 2.469 39.335 23.044 27.042 14.814zm173.728-79.009v19.752l-14.751-8.23-28.681-16.46-43.432-25.513-69.654 40.327v179.414H85.224l-2.458-1.646V50.203l4.097-2.469 39.334-22.221 39.335-23.044L169.629 0l4.098 2.469 39.334 23.044 43.432 24.69zm-14.751 144.849l-34.418-20.575v-19.752l49.168 28.805v19.752l-14.75-8.23zm14.751 32.919v11.522h-14.751l-72.113-41.973v-19.752l86.864 50.203zm-56.544 11.521h-30.32v-17.283l30.32 17.283z"/><path d="M215.519 70.777V90.53l-45.89-26.336V44.441l45.89 26.336z"/></g></g><path fill="url(#paint0_linear_607_13828)" d="M0 133h256v107H0z"/><defs><linearGradient id="paint0_linear_607_13828" x1="128" y1="133" x2="128" y2="240" gradientUnits="userSpaceOnUse"><stop stop-color="#fff" stop-opacity="0"/><stop offset="1" stop-color="#fff"/></linearGradient><clipPath id="clip0_607_13828"><path fill="#fff" d="M0 0h256.494v239.493H0z"/></clipPath></defs></svg>