<svg width="325" height="548" fill="none" xmlns="http://www.w3.org/2000/svg"><g opacity=".3" fill="#91AEA8"><path d="M293.498 399.701a7.453 7.453 0 017.447 7.448c0 .342 0 .685-.085 1.027-.086.428-.172.856-.257 1.199a7.692 7.692 0 01-4.88 4.879c-.428.086-.77.257-1.198.257-.343 0-.685.086-1.027.086a7.453 7.453 0 01-7.448-7.448 7.453 7.453 0 017.448-7.448zm-5.907 7.106h4.366c0-.086 0-.257.085-.343l-3.51-2.568c-.599.856-.941 1.883-.941 2.911zm1.284-3.425l3.51 2.568.256-.256-1.284-4.109c-1.027.428-1.883 1.027-2.482 1.797zm4.623-2.225c-.514 0-1.028.085-1.541.256l1.369 4.109h.343l1.369-4.109c-.513-.085-1.027-.256-1.54-.256zm-.429 5.992c0 .171.172.342.429.342a.368.368 0 00.342-.342.368.368 0 00-.342-.342c-.257 0-.429.171-.429.342zm2.569-5.564l-1.37 4.109c.086.085.171.085.257.171l3.51-2.568c-.6-.685-1.456-1.284-2.397-1.712zm2.825 2.311l-3.51 2.568c.085.086.085.257.085.343h4.366c-.085-1.028-.342-2.055-.941-2.911zm-3.425 3.595c-.085.086-.085.257-.085.343l3.51 2.568a6.866 6.866 0 00.941-2.911h-4.366zm2.74 3.682l.257-.257-3.51-2.569c-.086.086-.171.172-.257.172l1.37 4.109c.685-.257 1.284-.685 1.797-1.113l.343-.342zm-4.28 1.883c.513 0 1.027-.086 1.54-.171l-1.369-4.109h-.343l-1.369 4.109c.513.171.941.171 1.541.171zm-2.141-.343l1.284-4.109a62.151 62.151 0 01-.256-.257l-3.51 2.569c.599.77 1.455 1.369 2.482 1.797zm-2.825-2.311l3.51-2.568c0-.086-.085-.257-.085-.343h-4.366c0 1.028.342 2.055.941 2.911zm1.197-197.155c-1.541-1.626-2.483-3.852-2.483-6.163 0-1.113.171-2.14.599-3.082.086-.257.172-.428.257-.685.428-.856.942-1.712 1.627-2.397l-1.284-1.284c-.086-.086-.086-.171-.086-.257 0-.085 0-.171.086-.257.085-.085.342-.085.428 0l1.284 1.284a8.948 8.948 0 016.249-2.482c2.397 0 4.537.942 6.164 2.482l1.284-1.284c.086-.085.342-.085.428 0 .086.086.086.343 0 .428l-1.284 1.284a9.102 9.102 0 012.482 6.25c0 2.397-.941 4.537-2.482 6.163l1.284 1.285c.086.085.086.342 0 .428a.243.243 0 01-.428 0l-1.284-1.284c-.685.684-1.541 1.198-2.397 1.626-.257.086-.428.171-.685.257-.942.342-1.969.514-3.082.514a9.099 9.099 0 01-6.249-2.483l-1.284 1.284c-.172.171-.343.171-.428 0-.086-.086-.086-.171-.086-.257 0-.085 0-.171.086-.171l1.284-1.199zm6.677-14.638c-2.226 0-4.28.856-5.736 2.311l2.74 2.825c.77-.685 1.798-1.113 2.996-1.113a4.39 4.39 0 012.911 1.113l2.825-2.825c-1.541-1.455-3.51-2.311-5.736-2.311zm-3.253 9.759c.171.342.342.599.514.856l.171-.171 1.969-2.055-2.14-2.226c-.514.6-.856 1.37-.856 2.226.085.514.171.942.342 1.37zm3.253 2.14c.856 0 1.627-.342 2.226-.856l-2.226-2.14-2.054 2.054-.172.172c.257.256.6.428.856.599.428.085.856.171 1.37.171zm.428-3.424l2.226 2.226c.514-.6.77-1.37.77-2.226 0-.856-.256-1.627-.77-2.226l-2.226 2.226zm1.798-2.654c-.599-.514-1.37-.856-2.226-.856-.856 0-1.626.342-2.226.856l2.226 2.14 2.226-2.14zm6.249 2.654c0-2.226-.941-4.281-2.311-5.736l-2.825 2.825c.685.856 1.113 1.798 1.113 2.996 0 1.113-.428 2.141-1.113 2.997l2.825 2.825c1.455-1.712 2.311-3.681 2.311-5.907zm-8.475 8.475a8.06 8.06 0 002.568-.428c.257-.086.428-.171.685-.257a9.574 9.574 0 002.483-1.627l-2.825-2.825a4.39 4.39 0 01-2.911 1.113c-.342 0-.77 0-1.113-.171a4.88 4.88 0 01-1.883-.942l-2.74 2.825c1.456 1.456 3.51 2.312 5.736 2.312zm-3.424-5.565c-.428-.513-.856-1.198-1.027-1.883-.086-.342-.172-.685-.172-1.027v-.086c0-1.113.428-2.14 1.113-2.91l-2.825-2.825c-.685.684-1.198 1.54-1.626 2.482-.086.257-.172.428-.257.685-.257.856-.428 1.712-.428 2.654 0 2.226.856 4.28 2.311 5.735l2.911-2.825z"/><path d="M277.145 206.829l19.005-19.005c.171-.086.342-.086.428 0l19.005 19.005c.171.085.171.342 0 .428l-11.729 11.728-.513.514-6.763 6.763c-.086.085-.343.085-.428 0l-15.923-15.838-.514-.513-2.654-2.654c0-.086-.085-.171-.085-.257.085 0 .085-.086.171-.171zm3.082 2.654l.513.513 15.667 15.666 7.019-7.02 11.557-11.556-18.576-18.577-18.577 18.577 2.397 2.397z"/><path d="M278.686 206.829l17.463-17.464c.172-.171.343-.171.428 0l17.464 17.464c.086.085.086.342 0 .428L303.084 218.3l-.514.514-5.993 5.992c-.085.171-.342.171-.428 0l-15.152-15.152-.514-.514-1.883-1.883c-.086-.086-.171-.172-.171-.257.171 0 .171-.086.257-.171zm2.311 1.883l.514.514 14.895 14.895 5.821-5.821.514-.514L313.528 207l-17.122-16.95-17.036 17.035 1.627 1.627zM131.87 533.591c.343-.514.771-.856 1.284-.942.514-.171 1.113-.256 1.798-.256h4.794v1.112h-4.794c-1.027 0-1.712.172-2.14.514-.343.343-.514.942-.514 1.712 0 .514.086 1.028.343 1.37.257.342.513.514.941.599a5.94 5.94 0 001.37.171h4.794v1.113h-4.794c-1.284 0-2.226-.257-2.739-.77-.6-.514-.856-1.37-.856-2.483-.086-.941.171-1.626.513-2.14zm2.911-4.109v-2.14c0-2.055.856-3.082 2.482-3.082.514 0 1.027.171 1.455.428.429.257.685.685.771 1.113.086.428.171 1.027.171 1.626v3.082h-8.218v-1.113h3.339v.086zm1.027 0h2.91v-2.14c0-.514 0-.856-.085-1.113-.086-.257-.171-.428-.428-.6a1.448 1.448 0 00-.856-.256c-1.028 0-1.541.684-1.541 1.969v2.14zm-9.674-244.58c-.342-.599-.941-1.113-1.797-1.541v-.77c.599.256 1.113.513 1.455.941v-4.794h.77v6.25h-.428v-.086zm2.826-6.25h.856v.856h-.856v-.856zm4.024-.084c1.37 0 2.055 1.028 2.055 3.168s-.685 3.167-2.055 3.167c-1.369 0-2.054-1.027-2.054-3.167 0-2.14.685-3.168 2.054-3.168zm-.941 5.051c.171.428.513.599.941.599.857 0 1.285-.856 1.285-2.568 0-1.712-.428-2.568-1.285-2.568-.856 0-1.198.856-1.198 2.568-.086.942.086 1.627.257 1.969zm5.734-5.051c1.37 0 2.055 1.028 2.055 3.168s-.685 3.167-2.055 3.167c-1.369 0-1.968-1.027-1.968-3.167-.086-2.14.599-3.168 1.968-3.168zm-.941 5.051c.171.428.513.599.856.599.856 0 1.198-.856 1.198-2.568 0-1.712-.428-2.568-1.198-2.568-.856 0-1.199.856-1.199 2.568 0 .942.172 1.627.343 1.969zm60.524 49.137c.086-.256.171-.428.342-.599.514-.513 1.37-.77 2.74-.77 2.14 0 3.167.685 3.167 1.969s-.856 1.883-2.653 1.969h-1.028c-1.797-.086-2.654-.771-2.654-1.969 0-.172 0-.343.086-.6zm1.712 1.713c.257.085.685.085 1.113.085h.257c.942 0 1.541-.085 1.969-.257.428-.256.514-.513.514-.941 0-.856-.771-1.284-2.483-1.284-1.113 0-1.798.171-2.226.513-.171.171-.342.428-.342.685v.086c0 .599.428.941 1.198 1.113zm-1.711-5.137h.856v.856h-.856v-.856zm.684-4.623c.599-.428 1.37-.6 2.568-.6 1.969 0 2.996.685 2.996 2.141 0 .599-.171 1.027-.599 1.369-.428.343-.856.514-1.541.514-.513 0-1.027-.171-1.455-.428-.428-.343-.599-.771-.599-1.37 0-.685.256-1.113.77-1.455-.856 0-1.455.171-1.798.428-.428.257-.599.599-.599 1.027 0 .599.343.942 1.027 1.027l-.085.771c-.514-.086-.856-.257-1.113-.514s-.428-.685-.428-1.198c.085-.771.342-1.284.856-1.712zm2.054 1.455c0 .342.172.685.343.856.257.257.599.342 1.027.342.343 0 .771-.085 1.027-.342.257-.257.429-.514.429-.942 0-.342-.086-.685-.343-.856-.257-.171-.599-.342-1.027-.342-.428 0-.771.085-1.027.342-.257.257-.429.6-.429.942zm1.712-2.824l-.086-.77c.343 0 .6-.086.857-.257.256-.171.342-.514.342-.942 0-.342-.086-.599-.257-.77-.171-.257-.428-.343-.77-.343-.257 0-.514.086-.856.343-.343.257-.771.685-1.37 1.37-.856 1.027-1.627 1.54-2.312 1.54v-4.109h.685v2.997c.257-.172.428-.343.6-.514l.513-.685c.685-.856 1.284-1.37 1.627-1.541.342-.171.685-.257.941-.257.514 0 .942.172 1.285.514.342.342.513.856.513 1.37.086 1.284-.513 1.969-1.712 2.054zm-3.938-6.762c0 .685.428 1.027 1.199 1.198l-.086.771c-.514-.086-.942-.257-1.284-.6-.257-.342-.428-.856-.428-1.369 0-.428.085-.771.257-1.113.256-.343.513-.599.856-.771a2.371 2.371 0 011.113-.256c.599 0 1.027.171 1.455.513.342.343.599.856.599 1.37 0 .428-.171.77-.428 1.198l1.712-.342v-2.483h.6v3.082l-3.168.599-.086-.684c.428-.257.6-.6.6-1.113 0-.428-.086-.685-.343-.942-.257-.257-.599-.342-1.027-.342-.428 0-.77.085-1.027.342-.343.171-.514.514-.514.942zm2.569 168.731c2.14 0 3.167.684 3.167 2.054 0 1.37-1.027 2.055-3.167 2.055-2.14 0-3.168-.685-3.168-2.055s1.028-2.054 3.168-2.054zm0 3.253c.942 0 1.541-.086 1.969-.343.428-.171.514-.513.514-.941 0-.857-.771-1.285-2.483-1.285-1.712 0-2.568.428-2.568 1.199 0 .942.856 1.37 2.568 1.37zm-3.081-5.308h.856v.856h-.856v-.856zm.684-4.624c.599-.428 1.37-.599 2.568-.599 1.969 0 2.996.685 2.996 2.14 0 .6-.171 1.028-.599 1.37-.428.343-.856.514-1.541.514a2.322 2.322 0 01-1.455-.514c-.428-.342-.599-.77-.599-1.37 0-.684.256-1.112.77-1.455-.856 0-1.455.171-1.798.428-.428.257-.599.599-.599 1.027 0 .514.343.856 1.027 1.028l-.085.685c-.514-.086-.856-.257-1.113-.514-.257-.343-.428-.685-.428-1.199a2.346 2.346 0 01.856-1.541zm2.054 1.456c0 .342.172.685.343.856.257.171.599.342 1.027.342.343 0 .771-.085 1.027-.342.257-.257.429-.514.429-.856 0-.343-.086-.685-.343-.856-.257-.171-.599-.343-1.027-.343-.428 0-.771.086-1.027.343-.257.171-.429.513-.429.856zm-1.369-4.28l.513-.684c.685-.856 1.285-1.37 1.627-1.541.342-.171.685-.257.942-.257.513 0 .941.171 1.284.514.342.342.513.856.513 1.369 0 1.199-.599 1.884-1.797 1.969l-.086-.77c.342 0 .599-.086.856-.343.257-.171.343-.513.343-.941 0-.343-.086-.6-.257-.771-.172-.257-.428-.342-.771-.342-.257 0-.513.085-.856.342-.342.171-.77.685-1.37 1.37-.856 1.027-1.626 1.626-2.311 1.626v-4.109h.685v3.082c.257-.085.514-.257.685-.514zm2.739-5.479c0 .428-.172.77-.428 1.198l1.712-.342V468.7h.685v3.082l-3.168.599-.086-.685c.428-.256.6-.599.6-1.112 0-.429-.086-.685-.343-.942-.257-.257-.599-.343-1.027-.343-.428 0-.77.086-1.027.343-.343.171-.514.513-.514.942 0 .684.428 1.027 1.199 1.198l-.086.77c-.514-.085-.942-.256-1.284-.599-.257-.342-.428-.856-.428-1.369 0-.429.085-.857.257-1.113.256-.343.513-.514.856-.771a2.372 2.372 0 011.113-.257c.599 0 1.027.172 1.455.514.342.342.514.77.514 1.37zm-.342 71.739c-.257-.599-.942-1.113-1.798-1.541v-.77c.599.256 1.113.513 1.541.941v-4.794h.771v6.25h-.514v-.086zm2.824-6.25h.856v.856h-.856v-.856zm4.454 1.456v-1.456h.77v1.456h.856v.685h-.856v4.023h-.599l-2.825-4.023v-.685h2.654zm0 3.51v-2.74h-1.969l1.969 2.74zm2.395-.514l.771-.086c0 .343.085.6.257.856.171.257.513.343.856.343.342 0 .599-.086.856-.257s.342-.428.342-.77c0-.257-.085-.514-.257-.857-.171-.342-.684-.77-1.455-1.369-1.027-.856-1.541-1.627-1.541-2.312h4.109v.771h-3.082c.172.257.343.428.514.599l.685.514c.856.685 1.37 1.284 1.541 1.626.171.343.257.685.257 1.028 0 .513-.172.941-.514 1.198-.342.342-.856.514-1.37.514-1.198 0-1.883-.6-1.969-1.798zm8.646 1.712h-3.082l-.599-3.167.685-.086c.257.428.599.599 1.113.599.428 0 .684-.085.941-.428.257-.257.343-.599.343-1.027 0-.428-.086-.771-.343-1.027-.257-.343-.513-.428-.941-.428-.685 0-1.028.428-1.199 1.198l-.856-.085c.086-.514.257-.942.685-1.285.342-.342.77-.428 1.37-.428.428 0 .77.086 1.113.257.342.171.513.428.684.771.172.342.257.685.257 1.113 0 .599-.171 1.112-.513 1.455-.343.342-.857.599-1.37.599-.428 0-.771-.171-1.199-.428l.343 1.627h2.482v.77h.086zm87.49-421.785l-.599-.6.599-.599.599.599-.599.6zm3.596-2.654l-1.027-1.027.514-.514 1.027 1.027.599-.599.514.514-.599.599 2.825 2.825-.428.428-4.794-.856-.514-.514 1.883-1.883zm2.483 2.483l-1.969-1.969-1.37 1.369 3.339.6zm-34.072 35.783l-.342.343c-.685-.257-1.455-.171-2.397.171l-.514-.514c.6-.256 1.199-.428 1.712-.428l-3.424-3.424.514-.514 4.451 4.366zm-2.054-6.764l.599.685-.599.599-.599-.599.599-.685zM171.936 264.527l-.599-.6.599-.599.599.599-.599.6zm2.138-3.509c.941-.942 2.225-.685 3.681.77 1.455 1.456 1.712 2.74.77 3.681-.942.942-2.14.685-3.595-.77-1.541-1.455-1.798-2.74-.856-3.681zm1.369 3.167c.685.685 1.199 1.028 1.627 1.199.428.171.77 0 1.027-.257.599-.599.257-1.455-.942-2.654-1.198-1.198-2.054-1.455-2.653-.942-.6.514-.257 1.456.941 2.654zm67.204-83.209l-.599-.599.599-.6.599.6-.599.599zM106.275 510.647v16.351h4.109c.171 0 .343.171.343.342s-.172.343-.343.343h-3.681l.257.256c.085.086.085.343 0 .428-.171.086-.343.086-.428 0l-.257-.256v5.222a.368.368 0 01-.342.342c-.172 0-.343-.171-.343-.342v-5.65h-1.883c-.171 0-.343-.172-.343-.343 0-.171.172-.342.343-.342h1.455l-.257-.257c-.085-.086-.085-.171-.085-.257s0-.171.085-.257c.086-.085.343-.085.428 0l.257.257v-15.923c0-.171.171-.342.343-.342.171.085.342.171.342.428zm-22.772 16.351h3.681l-.256-.257c-.086-.086-.086-.171-.086-.257s0-.171.086-.257c.17-.171.342-.171.428 0l.257.257v-15.923c0-.171.17-.342.342-.342.171 0 .257.171.257.342v16.437h1.883c.171 0 .343.171.343.342s-.172.343-.343.343H88.64l.257.256c.085.086.085.343 0 .428-.086.086-.343.086-.428 0l-.257-.256v2.739c.599.514.856 1.37.856 2.739 0 2.055-.685 3.168-2.055 3.168s-2.054-1.027-2.054-3.168c0-2.14.684-3.167 2.054-3.167.171 0 .343.086.514.086v-2.825h-4.195c-.171 0-.342-.172-.342-.343.17-.171.342-.342.513-.342zm3.681 4.023c-.856 0-1.198.856-1.198 2.568 0 .942.086 1.541.342 1.969.172.428.514.6.942.6.856 0 1.199-.856 1.199-2.483 0-.514 0-.856-.086-1.198v.941c0 .171-.171.343-.257.343-.171 0-.342-.172-.342-.343v-2.14c-.257-.171-.428-.257-.6-.257zm3.253-.513h.856v.856h-.856v-.856zm5.308.428c.428.343.599.771.599 1.456 0 .856-.343 1.369-1.113 1.54.6.257.856.685.856 1.285 0 .428-.171.77-.428 1.112-.343.343-.77.514-1.37.514-.514 0-.942-.171-1.198-.428-.343-.257-.514-.685-.6-1.198l.77-.086c.087.77.515 1.113 1.114 1.113.342 0 .513-.086.77-.257.172-.171.257-.428.257-.685 0-.257 0-.428-.171-.599-.171-.171-.343-.257-.428-.343-.171-.085-.428-.085-.685-.085l-.086-.685a1.5 1.5 0 00.514.086c.342 0 .685-.086.856-.343.171-.257.343-.513.343-.856 0-.342-.086-.685-.343-.942-.257-.256-.514-.342-.856-.342-.685 0-1.027.428-1.199 1.199l-.77-.086c.086-.514.257-.942.6-1.284.342-.343.855-.514 1.369-.514.342-.085.77.086 1.198.428zm3.423-.514c1.37 0 2.055 1.027 2.055 3.167 0 2.055-.685 3.168-2.055 3.168s-2.055-1.027-2.055-3.168c.086-2.14.771-3.167 2.055-3.167zm-.856 5.051c.171.428.514.599.942.599.856 0 1.284-.856 1.284-2.483 0-1.712-.428-2.568-1.199-2.568-.856 0-1.198.856-1.198 2.568-.171.856-.086 1.541.171 1.884zm-28.249-48.452c2.055 0 3.168.685 3.168 2.055s-1.028 2.055-3.168 2.055-3.167-.685-3.167-2.055 1.112-2.055 3.167-2.055zm0 3.254c.942 0 1.54-.086 1.969-.343.428-.171.6-.514.6-.942 0-.856-.857-1.284-2.569-1.284s-2.568.428-2.568 1.284c.085.857.856 1.285 2.568 1.285zm-2.997-5.31h.856v.856h-.856v-.856zm.686-4.622c.513-.428 1.37-.599 2.568-.599 1.969 0 2.91.685 2.91 2.14 0 .6-.17 1.028-.599 1.37-.342.342-.856.514-1.455.514a2.328 2.328 0 01-1.455-.514c-.428-.342-.6-.77-.6-1.37 0-.685.257-1.113.77-1.541-.855 0-1.455.172-1.797.428-.342.257-.6.6-.6 1.028 0 .599.343.941.942 1.027l-.085.685c-.514-.086-.856-.257-1.113-.514s-.428-.685-.428-1.198c.085-.514.342-1.028.942-1.456zm2.054 1.456c0 .428.086.685.343.941.256.257.513.343.941.343.428 0 .77-.086 1.028-.343.342-.256.428-.513.428-.941 0-.343-.172-.6-.428-.856-.257-.257-.6-.343-1.028-.343-.428 0-.77.086-1.027.343-.086.256-.257.513-.257.856zm-2.226-4.708c0 .685.342 1.113 1.198 1.199l-.085.77c-.514-.085-.942-.256-1.199-.599-.342-.342-.513-.856-.513-1.37 0-.428.085-.77.256-1.113a1.68 1.68 0 01.77-.77 2.372 2.372 0 011.114-.257c.599 0 1.027.171 1.455.514.342.342.6.856.6 1.37 0 .428-.086.77-.429 1.198l1.627-.342v-2.483h.685v3.082l-3.168.599-.086-.685c.428-.257.6-.599.6-1.113 0-.428-.086-.684-.343-.941-.257-.257-.599-.343-1.027-.343-.428 0-.77.086-1.113.343-.171.171-.342.513-.342.941zm-.513-163.683h6.164v.514c-.6.257-1.113.856-1.541 1.798h-.685c.257-.6.513-1.113.941-1.541h-4.88v-.771zm-.001-3.252h.856v.856h-.856v-.856zm1.456-4.28v-.856h.685v.856h4.024v.599l-4.024 2.825h-.685v-2.654h-1.455v-.77h1.455zm.685 2.739l2.74-1.969h-2.74v1.969zm.856-8.39c2.055 0 3.168.684 3.168 2.054 0 1.37-1.028 2.055-3.168 2.055s-3.167-.685-3.167-2.055 1.112-2.054 3.167-2.054zm0 3.253c.942 0 1.54-.086 1.969-.343.428-.257.6-.513.6-.941 0-.857-.857-1.285-2.569-1.285s-2.568.428-2.568 1.199c.085.942.856 1.37 2.568 1.37z"/><path d="M64.156 448.583v1.455l.257-.257c.085-.085.342-.085.428 0 .085.171.085.343 0 .428l-.257.257h20.375c.17 0 .342.171.342.342 0 .172-.086.343-.343.343H64.156v50.166h8.903c.171 0 .257.171.257.342s-.086.342-.257.342h-8.903v4.88l.257-.257c.085-.085.342-.085.428 0 .085.171.085.343 0 .428l-.257.257h20.375c.17 0 .342.171.342.343 0 .171-.086.342-.343.342H64.156v1.969c0 .171-.171.342-.257.342a.368.368 0 01-.342-.342v-1.455l-.172.256c-.17.172-.342.172-.513 0 0-.085-.086-.085-.086-.256 0-.086 0-.172.086-.257l.257-.257h-5.223a.368.368 0 01-.342-.342c0-.172.086-.343.343-.343h5.65v-5.308H35.135c-.171 0-.342-.085-.342-.342 0-.171.17-.342.342-.342h28.422v-49.738l-.172.257a.55.55 0 01-.513 0c0-.086-.086-.171-.086-.257s0-.171.086-.257l.257-.257h-5.223a.368.368 0 01-.342-.342c0-.171.086-.343.343-.343h5.65v-1.797c0-.172.17-.343.342-.343.171 0 .257.171.257.343zm0-188.934v1.455l.257-.256c.085-.086.342-.086.428 0 .085.085.085.342 0 .428l-.257.256h20.375c.17 0 .342.172.342.343 0 .171-.086.342-.343.342H64.156v29.792h8.903c.171 0 .257.171.257.342s-.086.342-.257.342h-8.903v52.649l.257-.257c.085-.086.342-.086.428 0 .085.085.085.342 0 .428l-.257.257h20.375c.17 0 .342.171.342.342s-.086.343-.343.343H64.156v1.883c0 .171-.171.342-.257.342a.368.368 0 01-.342-.342v-1.455l-.172.256a.544.544 0 01-.513 0c0-.085-.086-.171-.086-.256 0-.086 0-.172.086-.257l.257-.257h-5.223a.368.368 0 01-.342-.342c0-.172.086-.343.343-.343h5.65v-52.905H35.135a.368.368 0 01-.342-.342c0-.172.17-.343.342-.343h28.422v-29.363l-.172.257a.55.55 0 01-.513 0c0-.086-.086-.171-.086-.257s0-.171.086-.257l.257-.257h-5.223a.368.368 0 01-.342-.342c0-.171.086-.343.343-.343h5.65v-1.883c0-.171.17-.342.342-.342.171.085.257.171.257.342zm-51.535 242.01c0 .171-.171.342-.257.342h-11.3c-.171 0-.257-.085-.257-.342 0-.171.172-.343.257-.343h11.3c.171 0 .257.172.257.343zm128.495 0c0-.171.085-.343.342-.343h7.534c.171 0 .342.172.342.343 0 .171-.086.342-.342.342h-7.534c-.257-.085-.342-.171-.342-.342zm-113.256 0a.368.368 0 01-.343.342h-7.534c-.17 0-.342-.085-.342-.342 0-.171.171-.343.343-.343h7.533c.171 0 .342.172.342.343zM321.66 7.792v7.619a.368.368 0 01-.342.342c-.171 0-.343-.171-.343-.342V7.79c0-.17.172-.342.343-.342.257.086.342.171.342.343zm0 15.238v37.924c0 .171-.171.342-.342.342s-.343-.171-.343-.342V23.03c0-.171.172-.343.343-.343.257 0 .342.172.342.343zm0 45.543v7.619c0 .171-.171.342-.342.342s-.343-.17-.343-.342v-7.62c0-.17.172-.341.343-.341.257 0 .342.17.342.342zm0 303.648v7.619c0 .172-.171.343-.342.343a.369.369 0 01-.343-.343v-7.619c0-.171.172-.342.343-.342.257 0 .342.171.342.342zm0-60.695v7.619a.368.368 0 01-.342.342c-.171 0-.343-.171-.343-.342v-7.619c0-.171.172-.342.343-.342.257 0 .342.171.342.342zm0-45.543v37.924a.368.368 0 01-.342.342c-.171 0-.343-.171-.343-.342v-38.01c0-.171.172-.342.343-.342.257.085.342.257.342.428zm0 167.02v7.619a.368.368 0 01-.342.342c-.171 0-.343-.171-.343-.342v-7.619c0-.172.172-.343.343-.343.257 0 .342.086.342.343zm0-106.325v37.924c0 .171-.171.343-.342.343s-.343-.172-.343-.343v-37.924c0-.171.172-.342.343-.342.257 0 .342.171.342.342zm-.256-121.819c.171 0 .342.172.342.343v37.924a.368.368 0 01-.342.342c-.172 0-.343-.171-.343-.342v-37.924c0-.171.171-.343.343-.343zm.256 45.886v7.619a.368.368 0 01-.342.342c-.171 0-.343-.171-.343-.342v-7.619c0-.171.172-.343.343-.343.257 0 .342.172.342.343zm-.256-52.82c-.172 0-.343-.171-.343-.342v-7.534c0-.171.171-.342.343-.342.171 0 .342.171.342.342v7.619c-.086.086-.171.257-.342.257zm-.343 348.935v-37.924c0-.171.171-.342.343-.342.171 0 .342.171.342.342v37.924c0 .171-.171.343-.342.343a.369.369 0 01-.343-.343zm-89.372-220.524c.171 0 .342.171.342.342v37.924c0 .171-.085.343-.342.343-.171 0-.343-.172-.343-.343v-37.924c.086-.171.172-.342.343-.342zm.342-318.544v7.619c0 .17-.085.342-.342.342-.171 0-.343-.171-.343-.342V7.79c0-.17.086-.342.343-.342.257.086.342.171.342.343zm0 364.429v7.619c0 .172-.085.343-.342.343a.369.369 0 01-.343-.343v-7.619c0-.171.086-.342.343-.342s.342.171.342.342zM231.432.002v.257c0 .171.086.342.343.342a.368.368 0 00.342-.342V.002h-.685zm.599 433.001v7.619c0 .171-.085.342-.342.342-.171 0-.343-.171-.343-.342v-7.619c0-.172.086-.343.343-.343s.342.086.342.343zm0-45.629v37.924c0 .171-.085.342-.342.342-.171 0-.343-.171-.343-.342v-37.924c0-.172.086-.343.343-.343.257.086.342.171.342.343zm0-75.848v7.619c0 .171-.085.342-.342.342-.171 0-.343-.171-.343-.342v-7.619c0-.171.086-.342.343-.342s.342.171.342.342zm0 136.629v37.924c0 .171-.085.342-.342.342-.171 0-.343-.171-.343-.342v-37.924c0-.171.086-.343.343-.343s.342.172.342.343zm0-425.125v37.924c0 .171-.085.342-.342.342-.171 0-.343-.171-.343-.342V23.03c0-.171.086-.343.343-.343s.342.172.342.343zm0 45.543v7.619c0 .171-.085.342-.342.342-.171 0-.343-.17-.343-.342v-7.62c0-.17.086-.341.343-.341s.342.17.342.342zm0 15.152v37.924c0 .171-.085.343-.342.343-.171 0-.343-.172-.343-.343V83.725c0-.171.086-.342.343-.342s.342.171.342.342zm0 106.324v7.619c0 .172-.085.343-.342.343a.369.369 0 01-.343-.343v-7.619c0-.171.086-.342.343-.342s.342.171.342.342zM261.223.002v.257c0 .171.172.342.343.342a.368.368 0 00.342-.342V.002h-.685zm0 258.362v-7.619c0-.171.172-.343.343-.343.171 0 .342.172.342.343v7.619a.368.368 0 01-.342.342c-.171 0-.343-.171-.343-.342zm-19.262 164.023c.086-.171.343-.171.428-.086l1.712 1.199 1.028.685 1.284.856c1.027-1.113 2.482-1.884 4.194-2.055l10.701-.941v-34.671c0-.172.172-.343.343-.343.171 0 .342.171.342.343v34.671l4.281-.343c2.482-.171 4.794.942 6.078 3.082 1.712 2.739 2.739 5.736 3.253 8.732.085.257.085.599.085.856.6 5.222-.513 10.53-3.338 15.152-1.284 2.141-3.596 3.253-6.078 3.082l-4.281-.342v33.9c0 .171-.171.343-.342.343s-.343-.172-.343-.343v-33.986l-3.167-.257-.856-.085-6.678-.6c-1.626-.171-3.081-.856-4.194-2.054l-1.284.856-1.028.685-1.712 1.198c-.171.086-.342.086-.428-.085-3.082-4.452-4.537-9.588-4.537-14.725-.086-5.136 1.455-10.273 4.537-14.724zm19.947 29.192l4.28.342c2.226.172 4.366-.856 5.479-2.739a23.616 23.616 0 003.338-14.296c0-.257-.085-.6-.085-.857-.428-3.081-1.541-6.163-3.253-8.988a5.876 5.876 0 00-5.479-2.74l-4.28.343v.513l4.366-.342c1.969-.171 3.938.77 4.965 2.483 1.712 2.825 2.825 5.992 3.167 9.16 0 .342.086.599.086.856.342 4.622-.771 9.331-3.253 13.44-1.027 1.712-2.996 2.654-4.965 2.482l-4.366-.342v.685zm0-3.424v2.225l4.366.428c1.797.172 3.424-.684 4.366-2.225 2.397-3.853 3.424-8.219 3.253-12.499 0-.257 0-.599-.086-.942-.257-3.253-1.37-6.506-3.167-9.416-.942-1.541-2.569-2.312-4.366-2.226l-4.366.342v1.456c0 .171-.172.342-.343.342a.368.368 0 01-.342-.342v-1.456l-10.53.942c-2.397.171-4.28 2.226-4.28 4.623v15.238c0 2.397 1.883 4.451 4.28 4.623l8.218.684.856.086 1.456.171v-2.14c0-.171.171-.342.342-.342s.257.085.343.171v.257zm-11.301 2.397l7.191.599.857.085 2.568.257v-.599l-2.055-.171-.856-.086-7.705-.685c-2.739-.256-4.879-2.482-4.879-5.222v-15.238c0-2.739 2.14-5.05 4.879-5.307l10.616-.942v-.599l-10.701.941c-2.996.257-5.308 2.74-5.308 5.822v15.238c0 3.167 2.312 5.65 5.393 5.907zm-4.622-1.884c-.856-1.113-1.37-2.482-1.37-3.938v-15.238c0-1.541.514-2.825 1.37-3.938l-1.028-.684a21.983 21.983 0 000 24.483l1.028-.685zm-1.541 1.028c-2.568-3.853-3.853-8.219-3.853-12.585 0-4.366 1.285-8.732 3.853-12.584l-.428-.342c-5.222 7.876-5.222 17.892 0 25.853l.428-.342zm-2.14 1.455l1.198-.771c-2.654-4.023-4.023-8.646-4.023-13.269 0-4.622 1.369-9.245 4.023-13.269l-1.198-.77c-5.736 8.561-5.736 19.518 0 28.079zm19.602-124.473v37.924c0 .171-.171.343-.342.343s-.343-.172-.343-.343v-37.924c0-.171.172-.342.343-.342.171 0 .342.171.342.342z"/><path d="M261.908 433.003v7.619a.368.368 0 01-.342.342c-.171 0-.343-.171-.343-.342v-7.619c0-.172.172-.343.343-.343.171 0 .342.086.342.343zm-.687 113.857v-37.924c0-.171.172-.342.343-.342.171 0 .342.171.342.342v37.924c0 .171-.171.343-.342.343s-.343-.172-.343-.343zm.687-174.639v7.619c0 .172-.171.343-.342.343a.369.369 0 01-.343-.343v-7.619c0-.171.172-.342.343-.342.171 0 .342.171.342.342zm-.002-303.648v7.619c0 .171-.171.342-.342.342s-.343-.17-.343-.342v-7.62c0-.17.172-.341.343-.341.171 0 .342.17.342.342zm0-45.543v37.924c0 .171-.171.342-.342.342s-.343-.171-.343-.342V23.03c0-.171.172-.343.343-.343.171 0 .342.172.342.343zm.002 288.496v7.619a.368.368 0 01-.342.342c-.171 0-.343-.171-.343-.342v-7.619c0-.171.172-.342.343-.342.171 0 .342.171.342.342zm0-303.734v7.619a.368.368 0 01-.342.342c-.171 0-.343-.171-.343-.342V7.79c0-.17.172-.342.343-.342.171.086.342.171.342.343zm-89.631 121.476v7.619c0 .171-.171.343-.342.343s-.343-.172-.343-.343v-7.619c0-.171.086-.342.343-.342.171 0 .342.171.342.342zm0 15.238v37.924c0 .172-.171.343-.342.343a.369.369 0 01-.343-.343v-37.924c0-.171.086-.342.343-.342.171 0 .342.171.342.342zm0-60.781v37.924c0 .171-.171.343-.342.343s-.343-.172-.343-.343V83.725c0-.171.086-.342.343-.342.171 0 .342.171.342.342zm0-15.152v7.619c0 .171-.171.342-.342.342s-.343-.17-.343-.342v-7.62c0-.17.086-.341.343-.341.171 0 .342.17.342.342zm0-45.543v37.924c0 .171-.171.342-.342.342s-.343-.171-.343-.342V23.03c0-.171.086-.343.343-.343.171 0 .342.172.342.343zm0-15.238v7.619a.368.368 0 01-.342.342c-.171 0-.343-.171-.343-.342V7.79c0-.17.086-.342.343-.342.171.086.342.171.342.343zm-2.569 524.515h.856c.172-.514.514-.942 1.028-1.028V508.85c0-.171.085-.342.342-.342.171 0 .343.171.343.342v22.429c.513.086.941.514 1.027 1.028h58.127V508.85c0-.171.086-.342.342-.342.172 0 .343.171.343.342v23.457h24.227l-.257-.257c-.086-.086-.086-.171-.086-.257s0-.171.086-.171c.085-.172.342-.172.428 0l.257.257v-21.317c0-.171.085-.342.256-.342.172 0 .343.171.343.342v21.745h1.883c.171 0 .343.171.343.342s-.172.342-.343.342h-1.455l.257.257c.085.086.085.343 0 .428-.171.172-.343.172-.428 0l-.257-.257v5.222a.368.368 0 01-.343.343c-.171 0-.256-.171-.256-.343v-5.65h-24.826v13.869c0 .171-.086.342-.343.342a.368.368 0 01-.342-.342v-13.869h-58.127a1.277 1.277 0 01-1.028 1.028v12.755c0 .171-.171.343-.342.343s-.343-.172-.343-.343v-12.755a1.278 1.278 0 01-1.027-1.028h-.856a.368.368 0 01-.342-.342c0-.171.342-.342.513-.342zm2.569-.343v.428h.342c-.086-.257-.171-.342-.342-.428zm.342 1.027h-.428v.428c.257-.085.342-.256.428-.428zm-1.027.428v-.428h-.428c.171.172.256.343.428.428zm0-1.112v-.428a1.016 1.016 0 00-.428.428h.428zm144.763-239.873c0 .171-.171.343-.342.343h-37.924c-.171 0-.342-.172-.342-.343 0-.171.171-.342.342-.342h37.924c.171 0 .342.171.342.342zm-45.544 0c0 .171-.172.343-.343.343h-7.533a.369.369 0 01-.343-.343c0-.171.171-.342.343-.342h7.533c.171 0 .343.171.343.342zm-242.951 0c0 .171-.172.343-.343.343h-7.534c-.17 0-.342-.172-.342-.343 0-.171.171-.342.343-.342h7.533c.171 0 .342.171.342.342zm-15.239 0c0 .171-.171.343-.257.343h-11.3c-.171 0-.257-.172-.257-.343 0-.171.172-.342.257-.342h11.3c.171 0 .257.171.257.342zm136.713 0c0 .171-.086.343-.342.343h-7.534c-.171 0-.342-.172-.342-.343 0-.171.085-.342.342-.342h7.534c.171 0 .342.171.342.342zM73.4 232.596c0 .172-.085.343-.256.343h-38.01a.368.368 0 01-.342-.343c0-.171.17-.342.342-.342h38.01c.17.086.256.257.256.342zm-45.54 0a.368.368 0 01-.343.343h-7.534a.368.368 0 01-.342-.343c0-.171.171-.342.343-.342h7.533c.171.086.342.257.342.342zm60.695 0a.368.368 0 01-.343.343h-7.619a.368.368 0 01-.342-.343c0-.171.171-.342.342-.342h7.62c.17.086.342.257.342.342zm173.951 0c0-.171.172-.342.343-.342h7.533c.171 0 .343.171.343.342a.369.369 0 01-.343.343h-7.533c-.171 0-.343-.086-.343-.343zm-249.885 0c0 .172-.171.343-.257.343h-11.3c-.171 0-.257-.171-.257-.343 0-.171.172-.342.257-.342h11.3c.171.086.257.257.257.342zm197.41-89.631c0 .172-.171.343-.342.343h-7.619a.369.369 0 01-.343-.343c0-.171.172-.342.343-.342h7.619c.257 0 .342.171.342.342zm-136.631 0c0 .172-.085.343-.256.343h-38.01a.368.368 0 01-.342-.343c0-.171.17-.342.342-.342h38.01c.17 0 .256.171.256.342zm15.155 0a.368.368 0 01-.343.343h-7.619a.368.368 0 01-.342-.343c0-.171.171-.342.342-.342h7.62c.17 0 .342.171.342.342zm-75.934 0c0 .172-.171.343-.257.343h-11.3c-.171 0-.257-.171-.257-.343 0-.171.172-.342.257-.342h11.3c.171 0 .257.171.257.342zm15.239 0a.368.368 0 01-.343.343h-7.534a.368.368 0 01-.342-.343c0-.171.171-.342.343-.342h7.533c.171 0 .342.171.342.342zm295.77 51.878l-1.712-1.712c0-.086-.085-.171-.085-.257 0-.085 0-.171.085-.257l3.082-2.996v.942l-2.397 2.397 1.199 1.198L325 192.96v.941l-.942.942c-.171.086-.342.086-.428 0zm-.342-51.878c0-.171.085-.342.342-.342H325v.599h-1.37c-.257.086-.342-.085-.342-.257zM321.66.002v.257a.368.368 0 01-.342.342c-.171 0-.343-.171-.343-.342V.002h.685z"/><path d="M172.277.002v.257a.368.368 0 01-.342.342.368.368 0 01-.343-.342V.002h.685zm-60.01 467.072v4.109l2.739-1.37.514.514-3.253 1.626v11.215l7.961-4.024-1.455 1.456-6.506 3.253v3.253l-.685.685v-21.402l.685.685zm7.961 12.156l1.969-1.027.77-.428.514.513-2.654 1.37-1.969.942 1.37-1.37zm52.049-61.808v9.759l-.599.599v-11.043l.599.685zm2.996 2.996v4.708l-.684.685v-6.078l.684.685zm-94.595 80.899h7.02V292.778h-7.02a.368.368 0 01-.343-.343c0-.171.171-.342.343-.342h7.02v-30.134c0-.171.17-.342.342-.342h17.806l6.078-5.993v-22.6H96.001a.368.368 0 01-.342-.342c0-.171.171-.343.342-.343h15.838v-89.031H95.916a.368.368 0 01-.343-.342c0-.172.171-.343.343-.343h15.923V.002h.684v142.621h17.293V.002h.599v142.621h3.425c.171 0 .342.171.342.343 0 .171-.086.342-.342.342h-3.425v89.031h3.425c.171 0 .342.172.342.343 0 .171-.086.342-.342.342h-3.425v4.024l17.293-17.293v-76.361h-6.249a.369.369 0 01-.343-.343c0-.171.086-.342.343-.342h6.249V.002h.685v142.621h.685c.171 0 .342.171.342.343 0 .171-.086.342-.342.342h-.685v75.762l17.292-17.292v-58.47h-9.074a.368.368 0 01-.342-.342c0-.172.171-.343.342-.343h9.074V.002h.6v142.621h28.25c.171 0 .342.171.342.343a.368.368 0 01-.342.342h-28.25v57.87l5.393-5.307v-5.822c0-.171.085-.342.342-.342.171 0 .343.171.343.342v5.137l51.878-51.878h-6.763c-.172 0-.343-.171-.343-.342 0-.172.171-.343.343-.343h7.447l6.678-6.677v-6.677c0-.172.085-.343.342-.343.171 0 .343.171.343.343v6.078l28.935-29.192v-22.43c0-.17.171-.342.342-.342s.343.171.343.343v21.744l28.678-28.679c.086-.085.342-.085.428 0l4.195 4.195 22.429 22.429 1.37-1.369 1.54-1.627.514-.514v-16.18c0-.17.171-.342.343-.342.171 0 .342.171.342.343v15.58L325 96.053v.942l-3.339 3.338v7.191l3.339 3.253v.942l-3.339-3.339v13.355c0 .171-.171.343-.342.343s-.343-.172-.343-.343v-13.954l-3.424-3.424-1.37 1.37c-.085.171-.342.171-.428 0 0-.086-.085-.172-.085-.257 0-.086 0-.171.085-.257l1.028-1.027h-.343c-.171 0-.342-.172-.342-.343 0-.171.171-.342.342-.342h.428l-.428-.428-.599-.599-2.654-2.654-1.198-1.199-1.798 1.798 5.65 13.44.257.514.942 2.226.684-.6.428.428-.856.857 5.222 12.156 2.483-2.483v1.712l-.514.514H325v.599h-1.198l-.857.856H325v.685h-2.654l-.599.599v.257H325v.685h-3.339v.856H325v.599h-3.339v.856h2.654l.685-.599v1.798l-.342.342H325v.685h-9.246v1.113l.086.086-.086.085v1.284l.086.086-.086.086v1.284l.086.085-.086.086v1.027h.257c.171 0 .343.171.343.343 0 .171-.172.342-.343.342h-.257v1.113l.086.086v4.023h5.222v-4.109c0-.171.171-.342.343-.342.171 0 .342.171.342.342v4.109H325v.685h-3.339v10.102c.514.085.942.513 1.028 1.027H325v.599h-2.226c-.085.599-.513.942-1.027 1.113v20.289a.368.368 0 01-.342.342c-.172 0-.343-.171-.343-.342v-20.289c-.514-.171-.942-.514-1.027-1.113h-.856c-.171 0-.343-.085-.343-.257 0-.171.172-.342.343-.342h.856a1.273 1.273 0 011.027-1.027v-10.102h-5.65a.368.368 0 01-.342-.342v-2.74l-32.959 32.959-4.195 4.195-2.14 2.14-2.14 2.14-27.48 27.48-2.14 2.14-12.071 12.071v3.081h3.339l1.198-1.198a2.17 2.17 0 013.082 0l1.199 1.198h2.397l17.207-17.292c.171-.257.513-.343.77-.514v-9.331c0-.171.171-.342.343-.342.171 0 .342.171.342.342v9.245c.599 0 1.199.172 1.712.6l5.479 5.564.514.514 11.214 11.214h35.27c.171 0 .343.172.343.343 0 .171-.172.342-.343.342h-34.499l12.498 12.499a2.17 2.17 0 010 3.082l-32.017 32.017v23.285a.368.368 0 01-.342.342c-.171 0-.343-.171-.343-.342v-22.686l-2.482 2.483-.514.513-7.876 7.876h4.88c.171 0 .342.171.342.342 0 .172-.171.343-.342.343h-5.479l-28.421 28.421a2.169 2.169 0 01-3.082 0l-3.767-3.766-2.397 2.397a2.17 2.17 0 01-3.082 0l-14.467-14.468v41.52l.256-.257c.172-.086.343-.086.428 0 .172.171.172.342 0 .428l-.256.257h5.222c.171 0 .342.171.342.342a.368.368 0 01-.342.342h-5.65v1.884c0 .171-.172.342-.343.342a.368.368 0 01-.342-.342v-1.456l-.257.257c-.086.086-.343.086-.428 0-.086-.085-.086-.171-.086-.257 0-.085 0-.171.086-.256l.257-.257h-12.499c-.171 0-.342-.171-.342-.343 0-.171.085-.342.342-.342h13.012v-42.461l-4.023-4.024-.514-.513-5.564-5.565c-.428-.428-.685-.941-.685-1.541 0-.171.085-.342.085-.513h-5.136v208.538h14.639a1.275 1.275 0 011.027-1.027v-53.162l-.257.257c-.085.171-.342.171-.428 0-.085-.086-.085-.171-.085-.257s0-.171.085-.257l.257-.257h-12.499a.368.368 0 01-.342-.342c0-.171.086-.342.342-.342h13.013v-1.884c0-.171.171-.342.342-.342s.343.171.343.342v1.456l.256-.257c.172-.086.343-.086.428 0 .172.085.172.342 0 .428l-.256.257h5.222c.171 0 .342.085.342.342a.368.368 0 01-.342.342h-5.65v53.59c.513.086.941.514 1.027 1.028h35.784v-7.619c0-.171.085-.343.342-.343.171 0 .342.172.342.343v7.619h29.192v-7.619c0-.171.172-.343.343-.343.171 0 .342.172.342.343v7.619h59.069v-7.619c0-.171.171-.343.343-.343.171 0 .342.172.342.343v7.619H325v.685h-16.779v2.397H325v.684h-16.779v.857H325v.684h-16.779v.856H325v.6H139.49c-.172 1.883-1.798 3.424-3.681 3.424-1.969 0-3.51-1.541-3.682-3.424H87.954c-.171 0-.342-.172-.342-.343v-5.65h-7.02c-.171 0-.342-.085-.342-.342.085 0 .256-.171.428-.171zM318.75 104.186h-.343l2.654 2.654v-5.907l-1.541 1.541-1.027 1.027h.257c.171 0 .342.171.342.342s-.171.343-.342.343zm2.91 32.445h1.199l.77-.856h-1.969v.856zm0 24.826c.172-.086.343-.257.428-.428h-.428v.428zm0-1.028h.428a1.027 1.027 0 00-.428-.428v.428zm-.599 1.028v-.428h-.428c.086.257.257.428.428.428zm-.428-1.028h.428v-.342c-.171 0-.342.171-.428.342zm-57.87 341.487h-2.312v2.397h2.312v-2.397zm41.862 0h-41.263v.856h41.263v-.856zm0 1.541h-41.263v.856h41.263v-.856zm.599 3.852h2.397v-2.397h-2.397v2.397zm0-2.996h2.397v-2.397h-2.397v2.397zm-44.773 2.996h44.174v-2.397h-44.174v2.397zm-2.996 0h2.311v-5.308h-2.311v5.308zm-5.992 0h5.393v-5.308h-5.393v5.308zm-.685-.599v-.771l-.771.771h.771zm-1.627 0l1.712-1.627v-1.198l-2.825 2.825h1.113zm-2.054 0l3.766-3.767v-.428h-.856l-4.194 4.109h1.284v.086zm-2.226 0l4.195-4.109h-1.199l-4.195 4.109h1.199zm-2.055 0l4.109-4.109h-1.198l-4.195 4.109h1.284zm-2.14 0l4.109-4.109h-1.113l-4.109 4.109h1.113zm-2.054 0l4.109-4.109h-1.199l-4.109 4.109h1.199zm-2.141 0l4.109-4.109h-1.198l-4.109 4.109h1.198zm-2.14 0l4.195-4.195h-1.199l-4.109 4.109h1.113v.086zm-2.14 0l4.195-4.109h-1.199l-4.194 4.109h1.198zm-2.055 0l4.11-4.195h-1.199l-4.109 4.109h1.198v.086zm-2.14 0l4.109-4.109h-1.198l-4.109 4.109h1.198zm-2.14 0l4.109-4.109h-1.198l-4.109 4.109h1.198zm-2.054 0l4.109-4.109h-1.199l-4.109 4.109h1.199zm-2.141 0l4.109-4.109h-1.198l-4.109 4.109h1.198zm-2.14 0l4.109-4.109h-1.198l-4.109 4.109h1.198zm-2.054 0l4.109-4.109h-1.199l-4.109 4.109h1.199zm-2.141 0l4.11-4.109h-1.199l-4.195 4.109h1.284zm-2.14 0l4.195-4.109h-1.199l-4.109 4.109h1.113zm-2.054 0l4.109-4.109h-1.199l-4.109 4.109h1.199zm-2.14 0l4.194-4.109h-1.198l-4.195 4.109h1.199zm-2.141 0l4.109-4.109h-1.198l-4.109 4.109h1.198zm-2.054 0l4.109-4.109h-1.199l-4.109 4.109h1.199zm-10.958-5.821a1.027 1.027 0 00-.428.428h.428v-.428zm.685 0v.428h.428a1.027 1.027 0 00-.428-.428zm8.133 5.821l4.109-4.109h-1.199l-4.195 4.109h1.285zm-2.141 0l4.11-4.109h-1.199l-4.109 4.109h1.198zm-2.054 0l4.109-4.195h-1.199l-4.109 4.109h1.199v.086zm-2.14 0l4.109-4.109h-1.199l-4.194 4.109h1.284zm-2.141 0l4.195-4.109h-1.198l-4.109 4.109h1.112zm-2.14 0l4.109-4.109h-.941c-.171.256-.428.342-.685.428l-.086.085v.856c0 .172-.171.343-.342.343a.369.369 0 01-.343-.343v-.171l-2.996 2.996h1.284v-.085zm-2.054 0l3.766-3.767c-.256-.086-.428-.257-.599-.428h-.171l-4.195 4.109h1.199v.086zm-2.14 0l4.194-4.109h-1.198l-4.109 4.109h1.113zm-2.141 0l4.11-4.109h-1.199l-4.109 4.109h1.198zm-2.054 0l4.109-4.109h-1.199l-4.194 4.109h1.284zm-2.14 0l4.109-4.109h-1.199l-4.109 4.109h1.199zm-3.339 0h1.198l4.11-4.109h-1.199l-4.109 4.109zm0-.942l3.253-3.253h-1.198l-1.969 2.055v1.198h-.086zm0-2.14l1.113-1.113h-1.113v1.113zM93.69 262.216h-5.308v5.308h5.308v-5.308zm-.685 76.105v-1.199l-2.74 2.825h1.2l1.54-1.626zm-.685 1.541h.685v-.685l-.685.685zm.685-3.681v-1.199l-4.11 4.109v.771h.429l3.681-3.681zm0-2.141v-1.198l-4.11 4.195v1.198l4.11-4.195zm0-2.054v-1.199l-4.11 4.11v1.198l4.11-4.109zm0-2.14v-1.199l-4.11 4.109v1.199l4.11-4.109zm0-2.14v-1.199l-4.11 4.109v1.199l4.11-4.109zm0-2.055v-1.199l-4.11 4.11v1.198l4.11-4.109zm0-2.14v-1.199l-4.11 4.109v1.199l4.11-4.109zm0-2.14v-1.199l-4.11 4.109v1.199l4.11-4.109zm0-2.055v-1.198l-4.11 4.109v1.198l4.11-4.109zm0-2.14v-1.199l-4.11 4.11v1.198l4.11-4.109zm0-2.14v-1.199l-4.11 4.109v1.199l4.11-4.109zm0-2.055v-1.198l-4.11 4.109v1.198l4.11-4.109zm0-2.14v-1.199l-4.11 4.11v1.198l4.11-4.109zm0-2.14v-1.199l-4.11 4.109v1.199l4.11-4.109zm0-2.055v-1.198l-4.11 4.109v1.198l4.11-4.109zm0-2.14v-1.198l-4.11 4.109v1.198l4.11-4.109zm0-2.14v-1.199l-4.11 4.11v1.198l4.11-4.109zm0-2.055v-1.198l-4.11 4.109v1.198l4.11-4.109zm0-2.14v-1.198l-4.11 4.109v1.198l4.11-4.109zm0-2.14v-1.199l-4.11 4.11v1.198l4.11-4.109zm0-2.14v-1.199l-4.11 4.109V298l4.11-4.109zm0-2.055v-1.198l-4.11 4.109v1.198l4.11-4.109zm0-2.14v-1.198l-4.11 4.109v1.198l4.11-4.109zm0-2.14v-1.199l-4.11 4.11v1.198l4.11-4.109zm0-2.055v-1.284l-4.11 4.195v1.198l4.11-4.109zm0-2.14v-1.198l-4.11 4.109v1.198l4.11-4.109zm0-2.14v-1.199l-4.11 4.195v1.199l4.11-4.195zm0-2.055v-1.198l-4.11 4.195v1.198l4.11-4.195zm0-2.14v-1.198l-4.11 4.109v1.198l4.11-4.109zm0-2.14v-1.198l-4.11 4.109v1.198l4.11-4.109zm0-2.14v-1.199l-4.11 4.109v1.199l4.11-4.109zm0-2.055v-1.198l-4.11 4.109v1.198l4.11-4.109zm0-2.14v-.342h-.856l-3.339 3.338v1.199l4.195-4.195zm-1.712-.342h-1.199l-1.198 1.198v1.199l2.397-2.397zm-2.14 0h-.257v.257l.257-.257zm4.537 72.338h-5.308v5.307h5.308v-5.307zm.6-77.732v.172l.17-.172h-.17zm1.026 0l-1.027 1.028v1.198l2.311-2.226h-1.284zm2.14 0l-3.167 3.168v.942h.257l4.11-4.11h-1.2zm2.14 0l-4.194 4.11H96.6l2.997-2.997v-1.113zm0 2.055l-2.14 2.055h1.2l.855-.856v-1.199h.086zm0 27.908H95.83a.368.368 0 01-.342-.343c0-.171.17-.342.342-.342h3.767v-23.884h-5.308v71.653h5.308v-47.084zM96.6 341.146h-1.198l-1.027 1.027v1.199l2.225-2.226zm-2.31 3.167v.942h.256l4.11-4.109h-1.2l-3.167 3.167zm.17-3.167h-.17v.171l.17-.171zm5.137 0l-4.195 4.109H96.6l2.997-2.996v-1.113zm0 2.054l-2.14 2.055h1.198l.856-.856V343.2h.086zm5.992-80.984h-5.307v5.308h5.307v-5.308zm-.599 76.105v-1.199l-2.825 2.825h1.198l1.627-1.626zm-.685 1.541h.685v-.685l-.685.685zm.685-3.681v-1.199l-4.109 4.109v.771h.428l3.681-3.681zm0-2.141v-1.198l-4.109 4.195v1.198l4.109-4.195zm0-2.054v-1.199l-4.109 4.11v1.198l4.109-4.109zm0-2.14v-1.199l-4.109 4.109v1.199l4.109-4.109zm0-2.14v-1.199l-4.109 4.109v1.199l4.109-4.109zm0-2.055v-1.199l-4.109 4.11v1.198l4.109-4.109zm0-2.14v-1.199l-4.109 4.109v1.199l4.109-4.109zm0-2.14v-1.199l-4.109 4.109v1.199l4.109-4.109zm0-2.055v-1.198l-4.109 4.109v1.198l4.109-4.109zm0-2.14v-1.199l-4.109 4.11v1.198l4.109-4.109zm0-2.14v-1.199l-4.109 4.109v1.199l4.109-4.109zm0-2.055v-1.198l-4.109 4.109v1.198l4.109-4.109zm0-2.14v-1.199l-4.109 4.11v1.198l4.109-4.109zm0-2.14v-1.199l-4.109 4.109v1.199l4.109-4.109zm0-2.055v-1.198l-4.109 4.109v1.198l4.109-4.109zm0-2.14v-1.198l-4.109 4.109v1.198l4.109-4.109zm0-2.14v-1.199l-4.109 4.11v1.198l4.109-4.109zm0-2.055v-1.198l-4.109 4.109v1.198l4.109-4.109zm0-2.14v-1.198l-4.109 4.109v1.198l4.109-4.109zm0-2.14v-1.199l-4.109 4.11v1.198l4.109-4.109zm0-2.14v-1.113l-4.109 4.109v1.199l4.109-4.195zm-1.455-1.798h1.198l.257-.257v-1.198l-1.455 1.455zm1.455-2.397v-1.198l-3.595 3.595h1.198l2.397-2.397zm-.856 3.082h-1.199l-1.969 1.969v1.198l3.168-3.167zm-2.14 0h-1.113v1.113l1.113-1.113zm2.996-5.222v-1.199l-4.109 4.11v1.198l4.109-4.109zm0-2.055v-1.284l-4.109 4.195v1.198l4.109-4.109zm0-2.14v-1.198l-4.109 4.109v1.198l4.109-4.109zm0-2.14v-1.199l-4.109 4.195v1.199l4.109-4.195zm0-2.055v-1.198l-4.109 4.195v1.198l4.109-4.195zm0-2.14v-1.198l-4.109 4.109v1.198l4.109-4.109zm-.856-1.198h-.428c-.171 0-.343-.172-.343-.343 0-.171.172-.342.343-.342h1.027l.171-.171c-.085-.086-.085-.172-.085-.172 0-.085.085-.171.085-.256h.086v-.771l-4.109 4.109v1.199l3.253-3.253zm.856-3.082v-1.199l-4.109 4.109v1.199l4.109-4.109zm0-2.055v-1.198l-4.109 4.109v1.198l4.109-4.109zm0-2.14v-.342h-.856l-3.253 3.338v1.199l4.109-4.195zm-1.712-.342h-1.199l-1.198 1.198v1.199l2.397-2.397zm-2.14 0h-.257v.257l.257-.257zm4.451 72.338h-5.307v5.307h5.307v-5.307zm1.37-64.034c-.171.085-.342.085-.428 0l-.257-.257v15.837h5.308v-16.265h-4.88l.257.257c.086.085.086.256 0 .428zm-.685 16.265v23.285h5.308v-23.285h-5.308zm23.456-149.47h-17.292v89.031h17.292v-89.031zm0 89.631h-17.292v21.915l17.292-17.293v-4.622zm-23.456 29.106v13.098h5.308v-10.787c0-.085 0-.171.085-.171l31.247-31.246h-1.455a.369.369 0 01-.343-.343c0-.171.086-.342.343-.342h2.054l5.137-5.137-3.767-3.766-38.609 38.694zm5.993 125.5l20.117-10.016.685-.343 2.483-1.284v-11.214l-10.016 4.965-.6.342-8.389 4.195-1.969.942-2.311 1.198v11.215zm0 83.724l2.739-1.37.685-.343 19.861-9.93v-11.215l-23.285 11.643v11.215zm53.333-47.084l-29.535-11.814v11.386l28.251 11.3.685.257.513.171v-11.3h.086zm6.677 15.837h.856v-41.177h-.856v41.177zm0 14.724v1.199l3.339-3.339h-1.199l-2.14 2.14zm1.199-2.14h-1.199v1.199l1.199-1.199zm-1.199 4.281v1.198l4.708-4.708v-.685h-.513l-4.195 4.195zm0 2.054v1.199l4.708-4.709v-1.198l-4.708 4.708zm0 2.14v1.199l4.708-4.709v-1.198l-4.708 4.708zm0 2.14v1.199l4.708-4.708v-1.199l-4.708 4.708zm0 2.055v1.199l4.708-4.709v-1.198l-4.708 4.708zm0 2.14v1.199l4.708-4.709v-1.198l-4.708 4.708zm0 2.14v1.199l4.708-4.708v-1.199l-4.708 4.708zm0 2.141v1.198l4.708-4.708v-1.199l-4.708 4.709zm0 2.054v1.199l4.708-4.709v-1.198l-4.708 4.708zm0 2.14v1.199l4.708-4.709v-1.198l-4.708 4.708zm0 2.14v1.199l4.708-4.708v-1.199l-4.708 4.708zm0 2.055v1.199l4.708-4.709v-1.198l-4.708 4.708zm0 2.14v1.199l4.708-4.709v-1.198l-4.708 4.708zm0 2.14v1.199l4.708-4.708v-1.199l-4.708 4.708zm0 2.055v1.198l4.708-4.708v-1.198l-4.708 4.708zm0 2.14v1.199l4.708-4.709v-1.198l-4.708 4.708zm0 2.14v1.199l4.708-4.709v-1.198l-4.708 4.708zm0 2.055v1.198l4.708-4.708v-1.199l-4.708 4.709zm0 2.14v.428h.771l3.937-3.938v-1.198l-4.708 4.708zm1.627.428h1.198l1.798-1.883v-1.199l-2.996 3.082zm2.14 0h.941v-.942l-.941.942zm-3.767.685v5.308h5.308v-5.308h-5.308zm5.308-97.164h-2.312v44.173h2.312v-44.173zm-3.853 41.177h.857v-41.177h-.857v41.177zm3.853-86.634v-2.397h-2.312v2.397h2.312zm-2.312.599v41.177h.856v-41.177h-.856zm1.456 0v41.177h.856v-41.177h-.856zm-1.456 41.862v2.311h2.312v-2.311h-2.312zm-.684 2.311v-2.311h-2.312v2.311h2.312zm0-2.996v-44.173h-2.312v44.173h2.312zm2.996-44.773v-2.397h-5.308v2.397h5.308zm0-2.996v-5.307h-5.308v5.307h5.308zm-1.541-5.992h.941v-.942l-.941.942zm.941-1.884v-1.198l-3.081 3.082h1.198l1.883-1.884zm-3.937 1.884l3.937-4.024v-1.198l-4.708 4.708v.428h.771v.086zm3.937-6.078v-1.199l-4.708 4.708v1.199l4.708-4.708zm0-2.141v-1.198l-4.708 4.708v1.199l4.708-4.709zm0-2.054v-1.199l-4.708 4.709v1.198l4.708-4.708zm0-2.14v-1.199l-4.708 4.709v1.198l4.708-4.708zm0-2.141v-1.198l-4.708 4.708v1.199l4.708-4.709zm0-2.054v-1.199l-4.708 4.709v1.198l4.708-4.708zm0-2.14v-1.199l-4.708 4.709v1.198l4.708-4.708zm0-2.14v-1.199l-4.708 4.708v1.199l4.708-4.708zm0-2.055v-1.198l-4.708 4.708v1.198l4.708-4.708zm0-2.14v-1.199l-4.708 4.709v1.198l4.708-4.708zm.6 127.383h-5.308v2.397h5.308v-2.397zm-2.996-.685v-2.311h-2.312v2.311h2.312zm-2.312-124.13l4.708-4.708v-1.199l-4.708 4.709v1.198zm-.685-3.51v-1.198l-4.794 4.708v1.199l4.794-4.709zm-4.708 5.65v1.199l4.794-4.709v-1.198l-4.794 4.708zm4.708-7.79v-1.199l-4.794 4.709v1.198l4.794-4.708zm0-2.14v-1.199l-4.794 4.709v1.198l4.794-4.708zm0-2.055v-1.198l-4.794 4.708v1.199l4.794-4.709zm0-2.14v-1.198l-4.794 4.708v1.198l4.794-4.708zm0-2.14v-1.199l-4.794 4.709v1.198l4.794-4.708zm0-2.055v-1.198l-4.794 4.708v1.199l4.794-4.709zm0-2.14v-1.198l-4.794 4.708v1.199l4.794-4.709zm-.257-1.883h-1.198l-3.253 3.253v1.198l4.451-4.451zm-2.14 0h-1.198l-1.113 1.113v1.198l2.311-2.311zm-2.054 0h-.257v.257l.257-.257zm4.451-.599v-5.308h-5.393v5.308h5.393zm0-5.993v-5.308h-5.393v5.308h5.393zm-1.712-8.304l-.856.856h2.568v-.856h-1.712zm1.712-.599v-.856h-.257l-.856.856h1.113zm-3.253 2.14l-.856.856h4.024v-.856h-3.168zm3.253-4.965v-9.845c-.085 0-.171 0-.257.086l-.513-.514.77-.257v-1.113l-2.482-2.482.513-.514 1.969 1.883v-1.626c0-.171.086-.343.343-.343.171 0 .342.172.342.343v2.226l1.798 1.797-.343.343c-.428-.171-.941-.086-1.455 0v9.331l14.468-14.468-4.281-4.194c0 .428-.171.77-.513 1.113-.942.941-2.14.684-3.681-.856-1.456-1.456-1.713-2.74-.771-3.682.343-.342.771-.428 1.113-.513l-2.226-2.226-20.289 20.289h9.075l-.257-.257c-.086-.086-.086-.171-.086-.171 0-.086.086-.171.086-.257.086-.086.342-.086.428 0l.257.257v-5.222c0-.171.171-.343.342-.343s.343.172.343.343v5.65h1.883c.171 0 .342.171.342.342s-.171.343-.342.343h-1.455l.256.257c.086.171.086.342 0 .428-.085.085-.342.085-.428 0l-.256-.257v7.191c0 .171-.086.342-.343.342a.368.368 0 01-.342-.342v-7.619h-10.102l-2.739 2.739-.6.599c.172.257.172.428.172.771 0 .257-.086.514-.172.77l.6.6 10.872 10.872h1.969v-5.65c0-.086 0-.172.085-.257l5.907-5.907zm.685-11.129v.342c.086 0 .171-.085.343-.085l-.343-.257zm4.708 40.749v-1.199l-4.708 4.709v1.198l4.708-4.708zm-4.708 5.65v1.198l4.708-4.708v-1.198l-4.708 4.708zm4.708-7.79v-1.199l-4.708 4.709v1.198l4.708-4.708zm0-2.14v-1.199l-4.708 4.708v1.199l4.708-4.708zm0-2.055v-1.199l-4.708 4.709v1.198l4.708-4.708zm0-2.14v-1.199l-4.708 4.709v1.198l4.708-4.708zm0-2.14v-.685h-.513l-4.195 4.195v1.198l4.708-4.708zm-1.455-.685h-1.198l-2.141 2.14v1.198l3.339-3.338zm-2.054 0h-1.199v1.198l1.199-1.198zm4.109-.599v-5.308h-5.308v5.308h5.308zm0-5.993v-5.308h-5.308v5.308h5.308zm-4.195-5.992l.77-.856h-1.969v.856h1.199zm1.541-1.456l.856-.856h-3.51v.856h2.654zm1.455-1.455l.856-.856h-4.965v.856h4.109zm1.456-1.541l.856-.856h-5.822l-.599.599v.257h5.565zm93.226-96.565l1.883-1.883-1.627-1.627-9.416 9.417v3.339l9.16-9.246zm-9.16 10.102v1.198l10.016-10.016-.6-.599-9.416 9.417zm51.449-54.874l-.856.856h2.569v-.856h-1.713zm1.713-.599v-.856h-.257l-.856.856h1.113zm-3.253 2.14l-.771.856h4.024v-.856h-3.253zm1.797-3.51l-2.054-4.794-10.188-10.187-.599-.6c-.171.172-.428.257-.77.257-.257 0-.514-.085-.771-.257l-.599.6-1.969 1.969 7.448 17.292h5.222l4.28-4.28zm-8.817-12.841c-1.541-1.455-1.712-2.74-.856-3.681.685-.685 1.541-.685 2.397-.171l-5.222-12.242-7.962 7.961 3.168 7.277.171-.171 1.626-1.541.6-.6c-.172-.256-.257-.428-.257-.77 0-.257.085-.514.257-.771l-.6-.599-2.653-2.654c0-.085-.086-.171-.086-.256 0-.086 0-.172.086-.257.171-.086.342-.086.428 0l3.253 3.253c.257-.171.513-.257.77-.257s.514.086.771.257l.599-.599c.171-.172.342-.172.428 0 .171.085.171.342 0 .428l-.599.599c.171.257.256.428.256.77 0 .257-.085.514-.256.771l9.673 9.673-2.482-5.65c-.856.942-2.055.685-3.51-.77zm3.338.171l-1.112-2.568c-1.199-1.113-1.969-1.455-2.569-.856-.599.599-.257 1.455.856 2.654.685.684 1.199 1.027 1.627 1.198.428.086.77.086 1.027-.257.086-.085.086-.171.171-.171zm-46.57 11.557a.368.368 0 01-.342-.342v-7.191l-10.615-3.51-7.962 7.961 24.655 8.218 7.961-7.961-13.354-4.452v7.02c0 .086-.172.257-.343.257zm-36.297 14.296l-6.763 6.678-1.199 1.198 14.04 4.709v-10.616l-6.078-1.969zm6.164 1.284v-7.447l-5.565 5.564 5.565 1.883zm-13.526 7.534l.599.599 12.841 12.841v-8.989l-13.44-4.451zm.171 1.027l-1.027-1.027v.342c0 .172-.172.343-.257.343a.369.369 0 01-.343-.343v-.342l-7.533 7.533 22.515 7.534v-.771l-13.355-13.269zm-9.674 7.02l-7.961 7.961 24.655 8.219 6.249-6.25v-2.225l-22.943-7.705zm-59.411 64.548h-5.136l-31.589 31.589v10.615h42.974l16.522-16.522c-.085-.086-.171-.172-.171-.257v-7.619c0-.171.086-.343.257-.343l-6.164-6.163-16.693-16.694-4.708 4.709h4.537c.171 0 .342.171.342.342s0 .343-.171.343zm1.199 45.714c.256-.171.428-.257.77-.257.257 0 .514.086.77.257l.6-.6 2.225-2.225h-7.276l2.226 2.225.685.6zm0 1.198c0 .086-.001.171.085.257l.257-.257-.257-.342c-.086.171-.085.257-.085.342zm.77-.428l.257-.257c-.086 0-.171-.085-.257-.085s-.171 0-.257.085l.257.257zm-.342 1.199c.085 0 .171.085.256.085.086 0 .172 0 .257-.085l-.257-.257-.256.257zm.77-.771l.257.257c0-.086.085-.171.085-.257 0-.085 0-.171-.085-.342l-.257.342zm13.954-46.912h-8.732c-.171 0-.342-.172-.342-.343 0-.171.171-.342.342-.342h6.849l-13.184-4.366 15.752 15.751 5.564-5.564v-2.996l-6.249-2.14zm6.249 1.455v-1.37h-4.28l4.28 1.37zm-6.163-2.055h6.163v-8.56l-13.954-4.623-7.961 7.961 15.752 5.222zm6.163-9.245v-10.615l-5.564-1.798-7.962 7.961 13.526 4.452zm0-11.3v-6.678l-5.051 5.051 5.051 1.627zm0 31.332v-4.195l-5.136 5.137 9.93 9.93 3.938-3.938-5.907-13.868-2.14 2.14v4.879c0 .172-.171.343-.342.343-.172-.086-.343-.171-.343-.428zm.685 7.704v7.277l3.681-3.681-3.681-3.596zm7.534 6.592c.428.257.856.514 1.369 1.027.514.514.771.942 1.028 1.37l4.023 4.024-5.65-13.098-3.767 3.767 2.997 2.91zm-1.884.685c-.599.599-.257 1.455.942 2.654.599.685 1.198 1.027 1.626 1.198.428.086.771 0 1.028-.256.428-.428.342-1.028-.172-1.713l-1.712-1.712c-.685-.599-1.284-.599-1.712-.171zm31.932-25.168l2.739 6.42 6.335-6.335h-1.627a.368.368 0 01-.342-.342c0-.171.171-.343.342-.343h2.312l.941-.941-12.413-28.935-7.961 7.961 9.417 22.001h.085c.172 0 .343.171.343.342l-.171.172zm2.825 7.276l.599.599 7.876-7.875h-1.199l-7.276 7.276zm8.389-9.331l7.962-7.961-12.413-28.936-7.962 7.962 12.413 28.935zm-.514 1.455h1.199l9.674-9.673v-1.199l-10.873 10.872zm2.055 0h1.199l7.533-7.533v-1.199l-8.732 8.732zm-.599.6l-8.304 8.303.599.6 8.903-8.903h-1.198zm-8.989 8.56l-.856-.856-1.627 1.627 1.627 1.626 1.627-1.626-.771-.771zm-1.113-1.541l.171-.171-2.91-6.848h-7.106c-.171 0-.342-.172-.342-.343 0-.171.171-.342.342-.342h6.763l-9.245-21.488-7.962 7.962 5.907 13.868.856-.856c.171-.085.343-.085.428 0 .171.086.171.343 0 .428l-1.027 1.027h.514c.171 0 .342.172.342.343a.368.368 0 01-.342.342l.256.514.514.514 8.903 9.074 1.884-1.883 2.054-2.141zm-37.496-4.708l2.312-2.311h-4.452v1.626l2.14.685zm-2.14 0v2.14l1.627-1.626-1.627-.514zm5.308-2.311l-2.74 2.739 5.907 13.868 7.962-7.961-3.681-8.646h-7.448zm7.191-.6l-1.969-4.537-4.537 4.537h6.506zm-7.448 0l4.965-4.965-10.102-3.339v8.304h5.137zm5.479-5.478l7.961-7.962-18.577-6.164v10.616l10.616 3.51zm.513.428l2.141 5.05h9.074c.171 0 .342.172.342.343a.368.368 0 01-.342.342h-8.818l3.51 8.218 6.078-6.163 1.028-1.028h-.343c-.171 0-.257-.171-.257-.342s.086-.342.257-.342h.343l-3.681-3.681c-.086-.086-.086-.172-.086-.257 0-.086 0-.171.086-.257.171-.086.342-.086.428 0l2.653 2.654 1.37 1.369h.086l-5.907-13.868-7.962 7.962zm15.838 8.817l5.051 11.728 3.338-3.338-8.389-8.39zm4.965 13.44l-.771.771h1.541l-.77-.771zm-1.37 1.37l-.856.856h4.452l-.856-.856h-2.74zm.771-2.483l.171-.171-5.736-13.354-.77-.771-1.37 1.37-6.335 6.249 6.164 14.468 7.876-7.791zm-14.468-6.163l-7.961 7.961 6.163 14.468 7.962-7.962-6.164-14.467zm-17.121-37.41c.171 0 .342.171.342.342v6.849l19.005 6.334 7.961-7.961-24.654-8.218-2.74 2.739s0-.085.086-.085zm27.822 5.05l7.876-7.961-24.655-8.218-7.961 7.961 24.74 8.218zm8.389-8.475l7.962-7.961-24.655-8.218-7.961 7.961 24.654 8.218zm8.476-8.389l7.961-7.962-24.655-8.218-7.876 7.961 24.57 8.219zm8.903-8.047l12.413 28.935 1.455-1.455 2.14-2.141 4.452-4.451-12.413-28.935-1.541 1.541v3.852c0 .171-.086.342-.343.342a.368.368 0 01-.342-.342v-3.253l-5.821 5.907zm22.771-3.425c.428-.513.771-.941.856-1.198.086-.428 0-.771-.257-1.027-.342-.343-.856-.343-1.541 0l.942 2.225zm-1.541-1.797c-.171.171-.342.256-.599.513-1.199 1.199-1.541 2.055-.942 2.654.514.514 1.37.257 2.568-.77l-1.027-2.397zm1.37 3.082c-1.284 1.198-2.397 1.369-3.253.513-.942-.942-.685-2.14.77-3.681.257-.257.514-.514.771-.685l-1.627-3.767c0 .514-.257 1.028-.685 1.456-.342.342-.856.599-1.369.685a1.421 1.421 0 01-1.37-.514c-.428-.428-.599-.942-.428-1.627-.599.6-.942 1.113-1.027 1.541-.086.428 0 .856.342 1.113.428.428.856.428 1.37 0l.513.514c-.428.257-.77.428-1.198.428-.428 0-.771-.171-1.113-.599-.514-.514-.685-1.028-.514-1.712.086-.685.514-1.37 1.37-2.226 1.37-1.37 2.568-1.627 3.596-.599l-2.226-5.222-1.541 1.54c.171.086.257.086.342.257.942.942.685 2.14-.77 3.681-1.541 1.456-2.74 1.713-3.681.771-.086-.086-.171-.257-.257-.343l-2.055 1.969 19.348 19.348.428.428-5.736-13.269zm-4.366-8.647a1.225 1.225 0 00-.856-.342c-.343 0-.685.171-.942.513-.257.257-.428.6-.428.942 0 .343.086.599.343.856.256.257.513.343.941.343.343 0 .6-.172.856-.428.257-.257.428-.6.514-1.028-.086-.257-.171-.599-.428-.856zm-11.3 1.541l-.428-.428v.257l.428.171zm-.428.514v1.369l1.027-1.027-1.027-.342zm1.626-.257l2.141-2.226c-.086-.77.256-1.626 1.284-2.654 1.027-1.027 1.883-1.369 2.653-1.284l1.713-1.712-9.503-3.167v9.416l1.712 1.627zm2.911-1.969c.086.171.086.257.257.428.599.599 1.455.257 2.654-.942.599-.685 1.027-1.198 1.112-1.626.086-.428.086-.771-.171-1.027a.651.651 0 00-.428-.172l-3.424 3.339zm2.226-3.167c-.343.171-.685.513-1.113.856-.428.428-.685.77-.856 1.112l1.969-1.968zm3.167-3.254l7.962-7.961-17.892-5.992v10.7l9.93 3.253zm11.044 28.593l-18.406-18.405 11.814 27.651 6.506-6.506 1.37-1.37-1.284-1.37zm-20.974-43.146l18.405 6.164 7.962-7.961-23.885-7.962h-1.027l-1.455 1.455v8.304zm30.476 5.394l7.961-7.962-3.167-7.277h-.086l-5.307 5.394v8.475l.599 1.37zm-.599.256v.428l.085-.085-.085-.343zm.428.942l-.428.342v7.02l6.163 6.164-5.735-13.526zm-.428 8.218v14.553a.369.369 0 01-.343.343c-.171 0-.342-.171-.342-.343v-15.238l-3.253-3.253-1.37 1.37a.243.243 0 01-.428 0c-.086-.086-.086-.171-.086-.257 0-.085 0-.171.086-.171l1.027-1.027h-.342c-.171 0-.343-.086-.343-.343 0-.171.172-.342.343-.342h.342l-.428-.428-.599-.599-2.654-2.654c-.085-.086-.085-.171-.085-.257s0-.171.085-.257c.086-.085.343-.085.428 0l3.253 3.253.771.771 1.369-1.37 1.884-1.969v-2.568l-2.397-5.565-7.962 7.962 12.499 29.106 7.79-7.79.257-.257-2.568-5.821-6.934-6.849zm-2.825-4.109h-.343l1.027 1.027 1.456 1.456v-5.65l-1.456 1.455-1.027 1.027h.343c.171 0 .342.172.342.343 0 .257-.171.342-.342.342zm2.14-8.133v-6.334l-1.884 1.883 1.884 4.451zm-26.624-13.012h20.631c.172 0 .343.171.343.343 0 .171-.171.342-.343.342h-18.748l22.344 7.448 2.397-2.397v-3.938c0-.171.171-.342.342-.342s.343.171.343.342v3.253l4.451-4.452h-3.51a.368.368 0 01-.342-.342c0-.171.171-.342.342-.342h3.51l-24.227-8.047-7.961 7.961.428.171zm33.301 0h2.568c.172 0 .343.171.343.343 0 .171-.171.342-.343.342h-2.397l2.911 6.763 6.849-6.849c-.086-.085-.086-.085-.086-.256 0-.172.171-.343.342-.343h.343l.599-.599-3.082-7.362-8.047 7.961zm11.557-1.027l7.962-7.962-3.168-7.362-7.961 7.962 3.167 7.362zm11.814 1.027l-3.596-8.389-7.961 7.961.171.428h11.386zm-8.475 1.199c-.6.599-.257 1.455.941 2.654.6.684 1.199 1.027 1.627 1.198.428.086.77 0 1.027-.257.599-.599.257-1.455-.941-2.654-1.113-1.198-2.055-1.541-2.654-.941zm5.393-10.016l3.767 8.903h11.385l-7.191-16.865-7.961 7.962zm7.705-8.647l-3.168-7.276-7.961 7.961 3.167 7.277 7.962-7.962zm-11.643.257l7.962-7.961-24.741-8.219-5.564 5.651v3.081l22.343 7.448zm8.475-8.475l7.962-7.961-24.655-8.219-7.962 7.962 24.655 8.218zm8.475-8.475l7.962-7.961-24.655-8.219-7.962 7.962 24.655 8.218zm-2.054 13.098c0 .086 0 .171.085.257l.343-.257-.343-.257c-.085 0-.085.086-.085.257zm.77-.514l.343-.342c-.086 0-.172-.086-.343-.086-.085 0-.171 0-.257.086l.257.342zm-.257 1.199c.086.085.172.085.257.085.086 0 .171 0 .343-.085l-.343-.257-.257.257zm.771-.685l.257.257c0-.086.085-.171.085-.257s0-.171-.085-.257l-.257.257zm3.852 21.744l1.284 2.996 2.996-2.996h-4.28zm-.685 0h-11.385l4.965 11.471 7.961-7.961-1.541-3.51zm-12.07 0h-6.592c.342.171.77.514 1.113.942 1.455 1.455 1.712 2.739.856 3.681-.942.942-2.226.685-3.681-.856-1.541-1.456-1.712-2.74-.771-3.681.086-.086.086-.086.172-.086h-2.397l1.455 3.424c.342.257.685.514 1.027.856 1.455 1.456 1.712 2.654.856 3.596l5.137 12.071 7.961-7.962-5.136-11.985zm-10.359 4.109c-.77-.513-1.37-.599-1.712-.171-.599.599-.342 1.455.856 2.654.599.685 1.199 1.027 1.627 1.198.256.086.513.086.77-.085l-1.541-3.596zm2.055 2.996c.171-.513-.086-1.198-.856-1.969l.856 1.969zm-.257 1.113c-.856.514-1.969.172-3.253-1.113-1.455-1.455-1.712-2.739-.771-3.681.514-.513 1.113-.684 1.798-.428l-1.284-3.082h-.856l-7.362 7.363 8.989 20.973 7.961-7.961-5.222-12.071zm-12.242-.342l-7.961 7.961 6.591 15.238 2.226 2.226c.086.171.086.343 0 .428-.085.171-.342.171-.428 0l-1.113-1.113 1.798 4.195 1.37-1.455 4.195-4.195 2.311-2.311-8.989-20.974zm-7.876 37.924l-12.413-29.021-7.961 7.962 4.537 10.615c.856-.514 1.627-.428 2.311.171.942.942.685 2.055-.684 3.51l5.992 13.868c.086-.085.086-.085.171-.085.171 0 .343.171.343.342v.342l.171-.256 1.37-1.37 2.14-2.14 2.482-2.483v-.514c0-.171.172-.342.343-.342.171 0 .257.171.342.342l.856-.941zm-1.626 6.677l-16.95 16.95.599.6 16.351-16.351v-1.199zm0-.941v-3.339l-4.709 4.708-.77.856-.599.514 1.369 1.37c.172.085.172.342 0 .428-.085.085-.256.085-.428 0l-1.027-1.028v.343a.368.368 0 01-.342.342c-.172 0-.343-.171-.343-.342v-.343l-12.242 12.242 1.713 1.627 17.378-17.378zm-19.519 16.265l-1.626 1.712.856.856.856.856 1.627-1.626-1.713-1.798zm-1.027 3.167l-8.646 8.647v1.198l9.245-9.245-.599-.6zm-.428-.428l-.599-.599-7.619 7.619v1.199l8.218-8.219zm-2.739.599l-12.413-28.935-7.962 7.962 12.413 28.935 1.884-1.883v-15.324c0-.171.085-.342.342-.342.171 0 .342.171.342.342v14.724l5.394-5.479zm-6.078 15.41l-2.397 2.397h2.397v-2.397zm0-.856v-3.339l-6.678 6.677h3.339l3.339-3.338zm-7.363 3.938l-9.588 9.588-1.883 1.883 1.627 1.626 13.183-13.097h-3.339zm-12.07 11.728l-1.884-1.884-1.626 1.627 1.883 1.883 1.884 1.884 1.626-1.627-1.883-1.883zm-4.024.257l-3.766 3.766 3.766 3.767 3.767-3.767-3.767-3.766zm-.941 7.533h-5.736l-.856.856h5.821l.771-.856zm-7.277 1.455l-.856.856h5.821l.856-.856h-5.821zm-1.455 1.541l-.856.856h5.821l.856-.856h-5.821zm-1.541 1.456l-.856.856h5.821l.856-.856h-5.821zm-1.456 1.455l-.856.856h5.822l.856-.856h-5.822zm-1.541 1.541l-.856.856h5.822l.856-.856h-5.822zm-1.455 1.455l-.856.856h5.821l.856-.856h-5.821zm-1.541 1.541l-.856.856h5.821l.856-.856h-5.821zm-1.455 1.455l-.856.856h5.821l.856-.856h-5.821zm-1.455 1.541l-.856.856h5.821l.856-.856h-5.821zm-1.541 1.456l-.856.856h5.821l.856-.856h-5.821zm-1.541 1.541l-.856.856h5.821l.856-.856h-5.821zm-1.456 1.455l-.856.856h5.822l.856-.856h-5.822zm-1.455 1.455l-.856.856h5.821l.856-.856h-5.821zm-1.541 1.541l-.856.856h5.821l.856-.856h-5.821zm-1.455 1.455l-.856.856h5.821l.856-.856h-5.821zm-1.541 1.541l-.856.856h5.821l.856-.856h-5.821zm-1.455 1.456l-.856.856h5.821l.856-.856h-5.821zm-1.541 1.541l-.856.856h5.821l.856-.856h-5.821zm-8.732 13.44h-1.541c0 .086 0 .171-.086.257-.171.171-.342.171-.428 0l-.257-.257h-6.763c-.171 0-.342-.171-.342-.343 0-.171.171-.342.342-.342h6.079L151.56 281.05c-.171.171-.513.257-.77.257s-.514-.086-.771-.257l-.599.599c-.171.086-.342.086-.428 0 0-.086-.086-.171-.086-.257 0-.085 0-.171.086-.257l.599-.599c-.171-.171-.257-.428-.257-.77 0-.257.086-.514.257-.771l-3.253-3.253v-.086h-34.157v16.266h21.573c.171 0 .342.171.342.342s-.085.343-.342.343h-21.573v23.285H165.6v-23.114zm0 155.377l-9.503-3.853-.684-.256-19.262-7.705v11.3l11.214 4.452.685.256 17.635 7.02-.085-11.214zm0-.685v-11.3l-1.028-.428-.684-.257-27.823-11.129v11.3l19.69 7.876.685.257 9.16 3.681zm0 12.584l-18.063-7.191-.685-.257-10.701-4.28v11.3l2.654 1.027.685.257 26.11 10.444v-11.3zm-29.449-48.282l29.534 11.813v-11.3l-29.448-11.814v11.301h-.086zm0-23.97l10.958 4.366 1.626.684 16.95 6.763v-11.3l-29.448-11.813v11.3h-.086zm0-11.9l29.534 11.814v-11.3l-29.448-11.814v11.3h-.086zm-.685 60.524l-23.285 11.643v11.215l23.285-11.643v-11.215zm0-.77v-11.215l-23.285 11.643v11.215l23.285-11.643zm0-11.899v-11.215l-23.285 11.643v11.214l23.285-11.642zm0-11.985v-11.215L112.181 412.2v11.214l23.285-11.642zm0-11.985v-11.215l-23.285 11.643v11.214l23.285-11.642zm0-11.9v-11.214l-2.054 1.027-.685.342-20.546 10.273v11.215l23.285-11.643zm.685-23.97l29.534 11.814v-11.3l-28.079-11.215-.685-.256-.684-.257v11.214h-.086zm0-23.884l9.674 3.852.684.257 19.091 7.619v-11.3l-11.044-4.366-.684-.257-17.721-7.105v11.3zm29.449 12.499l-19.604-7.876-.685-.257-9.16-3.681v11.3l1.113.428.685.257 27.651 11.043v-11.214zm-30.134.171l-23.285 11.642v11.215l3.767-1.883 1.969-.942 6.42-3.253.685-.343 10.444-5.222v-11.214zm0-.685v-11.3l-23.285 11.642v11.215l23.285-11.557zm0-11.985v-11.215l-23.285 11.643v11.215l23.285-11.643zm0-11.985v-11.215l-23.285 11.643v11.215l23.285-11.643zm-1.027-11.386h-22.172v11.129l22.172-11.129zm1.712 11.386l18.234 7.277.685.256 10.615 4.195v-11.3l-2.482-1.027-.685-.257-26.281-10.53v11.386h-.086zm30.733-3.767l4.794-4.708v-1.199l-4.794 4.709v1.198zm4.708 14.297v-1.199l-4.023 4.024h1.198l2.825-2.825zm-1.883 2.825h1.198l.685-.685v-1.199l-1.883 1.884zm1.883-4.966v-1.198l-4.794 4.708v1.199l4.794-4.709zm0-2.054v-1.199l-4.794 4.709v1.198l4.794-4.708zm0-2.14v-1.199l-4.794 4.709v1.198l4.794-4.708zm0-2.14v-1.199l-4.794 4.708v1.199l4.794-4.708zm0-2.055v-1.199l-4.794 4.709v1.198l4.794-4.708zm0-2.14v-1.199l-4.794 4.794v1.199l4.794-4.794zm0-2.14v-1.199l-4.794 4.709v1.198l4.794-4.708zm0-2.055v-1.198l-4.794 4.708v1.198l4.794-4.708zm0 20.375h-5.393v5.307h5.393v-5.307zM165.6 400.3l-15.838-6.335-1.626-.684-12.071-4.794v11.3L165.6 411.6v-11.3zm0 83.724l-29.535-11.814v11.215l29.535 11.813v-11.214zm-29.449-12.499l29.534 11.814v-11.3l-26.623-10.615-.685-.257-2.14-.856v11.214h-.086zm-.685-11.214l-19.347 9.673-.685.343-3.253 1.626v11.215l7.961-4.024 1.969-1.027.771-.428.685-.342 11.899-5.993v-11.043zm36.811-264.269v1.541a.368.368 0 01-.342.342c-.172 0-.343-.171-.343-.342v-.942l-23.37 23.371-2.911 2.911 3.767 3.766 65.831-65.746 1.37-1.37-1.37-1.369c-.085-.086-.085-.172-.085-.257 0-.086.085-.171.085-.257.086-.086.343-.086.428 0l1.028 1.027v-.342c0-.171.171-.343.342-.343s.257.172.257.343v.342l1.541-1.541 2.14-2.14 10.615-10.701c0-.171.086-.256.257-.256l.856-.857h-7.533l-52.563 52.82zm88.946-89.031l-29.192 29.277v.6c0 .171-.086.342-.343.342-.171 0-.342-.171-.342-.257l-5.736 5.736h7.534l28.079-28.079v-7.619zm0 8.475l-1.627 1.712 1.627.514v-2.226zm.342 6.506a.368.368 0 01-.342-.342v-3.254l-2.14-.77-7.962 7.961 10.273 3.425c.086 0 .086-.086.171-.086.171 0 .171.086.257.257l13.954 4.623 7.961-7.962-21.829-7.276v3.082c0 .256-.172.342-.343.342zm29.278-44.516l-28.935 28.935v7.534l32.702-32.702-3.767-3.767zm20.631 20.717l-16.436-16.436-10.102 10.101 24.655 8.219 1.883-1.884zm4.452 17.464c-.086.171-.257.342-.343.514-.257.256-.599.428-1.113.513l1.37.942.685-.599-.599-1.37zm5.136 20.974v-.856h-3.253l-.856.856h4.109zm-1.712-2.312l-.856.856h2.568v-.856h-1.712zm1.712-.599v-.856h-.171l-.856.856h1.027zm0-2.825v-1.626c0-.172.171-.343.343-.343.171 0 .342.171.342.343v.941l.342-.342-5.222-12.156-.856.856-2.654-1.798.428-.599c.514.085.857 0 1.199-.343.257-.257.428-.599.428-.941-.086-.343-.171-.685-.514-.942a2.04 2.04 0 00-.941-.514c-.428-.085-.685.086-1.028.343-.513.513-.513 1.027 0 1.626l-.599.514c-.342-.428-.513-.856-.428-1.284a2.38 2.38 0 01.685-1.284 2.153 2.153 0 011.027-.6c.343-.085.685-.085 1.113 0 0 0 .086.086.171.086l-5.136-11.899-7.961 7.961 5.65 13.526c.085.086.171.086.171.171 1.198 1.199 1.541 2.226 1.198 3.082l3.253 7.533 1.456 1.456c.085.085.085.342 0 .428-.172.085-.343.085-.428 0l-.343-.343 1.284 3.082 7.02-6.934zm-5.992 12.413h-4.709l-.856.856h5.565v-.856zm-.343 1.541h-5.821l-.856.856h5.821l.856-.856zm-1.541 1.455h-5.821l-.856.856h5.821l.856-.856zm-1.455 1.541h-5.907l-.856.856h5.821l.942-.856zm-1.541 1.456h-5.821l-.856.856h5.821l.856-.856zm-1.455 1.54h-5.822l-.856.857h5.822l.856-.857zm-1.456 1.456h-5.821l-.856.856h5.821l.856-.856zm-1.541 1.455h-5.821l-.856.856h5.907l.77-.856zm-1.455 1.541h-5.821l-.856.856h5.821l.856-.856zm-1.541 1.455h-5.821l-.856.856h5.821l.856-.856zm-1.455 1.541h-5.821l-.856.856h5.821l.856-.856zm-1.541 1.456h-5.821l-.856.856h5.821l.856-.856zm-1.455 1.541h-5.822l-.856.856h5.822l.856-.856zm-1.541 1.455h-5.822l-.856.856h5.822l.856-.856zm-1.456 1.455h-5.821l-.856.856h5.821l.856-.856zm-1.541 1.541h-5.821l-.856.856h5.821l.856-.856zm-1.455 1.455h-5.821l-.856.857h5.821l.856-.857zm-1.541 1.541h-5.821l-.856.856h5.821l.856-.856zm-1.455 1.456h-5.821l-.856.856h5.821l.856-.856zm-1.455 1.541h-5.822l-.856.856h5.907l.771-.856zm-1.541 1.455h-5.822l-.856.856h5.822l.856-.856zm-1.541 1.541h-5.822l-.428.428.428.428h4.966l.856-.856zm-2.312 2.311l.856-.856h-3.681l.856.856h1.969zm-.599.685h-.77l.342.343.428-.343zm-.428 1.199l-.171-.172-3.424-3.338-.172-.172-3.766 3.767 3.766 3.767 3.767-3.852zm-4.195 4.28l-3.766-3.767-1.713 1.627 3.767 3.766 1.712-1.626zm-2.14 2.14l-1.626-1.626-1.713 1.626 1.713 1.627 1.626-1.627zm-2.14 2.055l-.599-.6-10.444 10.444v.343c0 .171-.172.342-.343.342-.085 0-.171-.085-.257-.085l-15.923 16.008.6.599 26.966-27.051zm-27.48 27.48l-1.626-1.713-1.713 1.713 1.713 1.626 1.626-1.626zm-2.14 2.14l-1.627-1.627-9.673 9.674v3.338l11.3-11.385zm-11.3 15.923v2.653l2.654-2.653h-2.654zm7.105-1.37c-.599-.599-1.626-.599-2.14 0l-.77.77h3.681l-.771-.77zm1.455 1.37h-4.965l-3.595 3.595v6.677c0 .172-.086.343-.343.343-.171 0-.342-.171-.342-.343v-5.992l-47.084 47.084c-.599.599-.599 1.626 0 2.14l2.654 2.654 2.654 2.654c.171.256.513.342.856.428h.428c.342-.086.685-.172.856-.428l39.55-39.551v-1.284c0-.171.086-.342.343-.342.171 0 .342.171.342.342v.685l12.413-12.413c.599-.599.599-1.627 0-2.226l-2.654-2.654-1.113-1.369zm-53.846 56.757l-2.397 2.397h4.794l-2.397-2.397zm7.105 6.164v-2.055a1.273 1.273 0 01-1.027-1.027h-2.14l2.825 2.825c.171.171.256.171.342.257zm.685.171c.514 0 .942-.086 1.284-.428l1.284-1.284a2.17 2.17 0 013.082 0l1.113 1.113 1.198-1.199c-.513-.599-.856-1.284-1.113-1.969-.342.171-.684.086-1.027-.085-.171-.172-.342-.428-.342-.685 0-.171-.086-.343-.086-.514-.085-.257-.085-.599-.085-.856 0-.342-.086-.685-.086-.942 0-2.14.599-4.194 1.798-5.992.085-.086.171-.257.257-.342l-7.363 7.362a.263.263 0 01.086.171v.856c.514.171.942.514 1.027 1.027h4.623c.171 0 .342.171.342.343a.368.368 0 01-.342.342h-4.623c-.171.514-.513.942-1.027 1.027v2.055zm15.837-6.506c.086-.086.086-.171.086-.171.856-.514 1.541-1.199 1.969-2.055.685-1.198.77-2.654.342-4.023-.428-1.285-1.198-2.397-2.397-2.997-.085 0-.085-.085-.171-.085-.086 0-.086-.086-.086-.086v-.171s.086 0 .086-.086c.086 0 .086-.085.086-.085.171-.086.342-.257.342-.428v-.086c0-.171-.086-.257-.171-.428a.653.653 0 00-.428-.171c-.428.085-.856.085-1.284.171a10.582 10.582 0 00-6.678 4.623c-1.198 1.798-1.712 3.938-1.712 5.992 0 .257 0 .599.086.856 0 .343.085.685.171 1.028 0 .085 0 .171.086.256.171.086.342.086.513-.085 0 0 .086-.086.171-.086h.172s0 .086.085.086v.085c.086.172.172.343.172.514.085 0 .085-.086.171-.086h7.619c.171 0 .342.172.342.343a.368.368 0 01-.342.342h-7.534c1.028 1.969 3.168 3.253 5.479 2.911a6.002 6.002 0 002.654-5.907v-.086c.086 0 .086 0 .171-.085zm4.88-2.568c.085-.086 0-.086 0 0l.085-.086c.856-.514 1.541-1.198 1.969-2.055 1.37-2.568.343-5.821-2.225-7.191-.086 0-.086-.085-.086-.085v-.086s-.086 0-.086-.085v-.086s.086 0 .086-.086c.086 0 .086-.085.086-.085.171-.086.342-.343.342-.514a.658.658 0 00-.171-.428.658.658 0 00-.428-.171h-.171c-.428 0-.771.086-1.199.171a11.01 11.01 0 00-3.938 1.798c.086 0 .257 0 .343-.086.342 0 .684.086.856.343.085.085.171.257.256.428.086.171.086.257.086.428 0 .257-.086.428-.171.599 0 .086-.086.086-.171.171 1.198.771 2.054 1.884 2.568 3.253.428 1.541.257 3.082-.428 4.537a4.936 4.936 0 01-2.055 2.141c.171 1.027 0 2.14-.342 3.082.685.171 1.37.256 2.054.171 1.969-1.284 2.997-3.596 2.569-5.993.171 0 .171-.085.171-.085zm3.253-3.938c.428.085.942.085 1.455 0 1.969-1.284 2.996-3.596 2.568-5.993v-.171s0-.086.086-.086v-.085c.856-.514 1.541-1.199 1.969-2.055.685-1.284.856-2.654.428-4.023-.428-1.199-1.198-2.226-2.226-2.911-.171-.086-.257-.171-.428-.257h-.085l-.086-.085v-.086s-.086 0-.086-.086c0-.085 0-.085.086-.085v-.086s.086 0 .086-.085l.085-.086c.171-.086.343-.342.343-.514 0-.342-.257-.513-.6-.513-5.222.428-9.245 4.622-9.588 9.759a9.978 9.978 0 011.713-.428c.171 0 .342 0 .513-.086.171 0 .257 0 .428.086.171.085.343.171.428.257.257.257.428.513.428.856 0 .257-.085.599-.342.856 2.14 1.455 3.167 3.681 2.825 5.907zm9.074-8.732c.086-.086.086-.086.086-.171.856-.514 1.541-1.199 1.969-2.055 1.37-2.568.428-5.821-2.14-7.191-.086 0-.086-.086-.086-.086v-.256s.086 0 .086-.086c0 0 0-.086.085-.086.257-.085.343-.256.343-.513 0-.171-.086-.257-.172-.428-.085-.086-.171-.086-.256-.172h-.172c-.342 0-.599.086-.941.172-1.627.257-3.082.941-4.366 1.883.085 0 .257 0 .342-.086.599 0 1.113.428 1.199 1.028v.171c0 .257-.086.599-.343.77.086 0 .086.086.171.086 1.113.771 1.969 1.798 2.397 3.167.429 1.541.343 3.082-.428 4.538-.428.856-1.198 1.626-2.054 2.14.171 1.027 0 2.14-.343 3.082.685.171 1.37.257 2.055.171 1.969-1.284 2.996-3.596 2.568-5.907v-.086c-.085 0 0 0 0-.085zm4.452-15.923c0 .171-.086.342-.343.342a.368.368 0 01-.342-.342v-5.308l-13.697 13.697c.856-.513 1.798-.941 2.825-1.113a11.612 11.612 0 016.506-2.91h.171c.257 0 .514.085.685.171.086 0 .171.086.171.171.257.257.343.514.343.856 0 .343-.086.6-.343.771.856.513 1.456 1.198 1.969 2.054l5.393-5.393.514-.514 13.184-13.183c1.455-1.798 1.455-4.366 0-6.078-.172-.171-.257-.343-.428-.514l-.172-.171-2.825-2.825c0 .599-.257 1.113-.685 1.541l-12.841 12.841v5.907h-.085zm-18.577 12.584l-8.817 8.903c1.112-.77 2.311-1.284 3.681-1.626 1.027-1.028 2.397-1.712 3.766-2.226a9.9 9.9 0 011.37-5.051zm-18.491 21.145a1.038 1.038 0 00-.428-.428v.428h.428zm-.428.685v.428c.171-.086.342-.257.428-.428h-.428zm-1.027-.685h.428v-.428a1.027 1.027 0 00-.428.428zm.342-1.027v-.514l-1.626 1.541h.513c.257-.514.599-.942 1.113-1.027zm-.342 1.712c.085.171.256.342.428.428v-.428h-.428zm47.94-59.839l.599.599.599-.599h-1.198zm16.436 50.765l.514-.514 2.91-2.911v-14.382c0-.171.172-.342.343-.342.171 0 .342.171.342.342v13.783l31.589-31.589c.599-.599.599-1.626 0-2.226l-12.926-12.926h-2.569c-.171 0-.342-.172-.342-.343 0-.171.171-.342.342-.342h1.884l-10.787-10.787-5.992-5.992c-.343-.343-.771-.514-1.199-.428v28.079a.368.368 0 01-.342.342c-.171 0-.343-.171-.343-.342v-27.908a1.174 1.174 0 01-.342.257l-16.779 16.779h11.129c.171 0 .342.171.342.342s-.171.343-.342.343h-11.728l-1.028 1.027 6.421 6.335.257.257.513.513c1.627 1.969 1.627 4.88 0 6.934l-17.635 17.635c.086.086.086.172.086.257v26.196h17.293l8.389-8.389zm-39.208 37.067c.599.6 1.627.6 2.226 0l27.993-27.993h-16.864v11.129c0 .171-.086.342-.343.342a.368.368 0 01-.342-.342v-11.129h-14.125a.369.369 0 01-.343-.343c0-.171.172-.342.343-.342h14.125V266.24l-1.027 1.027c.685 1.627.685 3.51-.172 5.136-.428.942-1.198 1.627-2.054 2.226.342 2.568-.771 5.051-2.996 6.421h-.086c-.856.085-1.627 0-2.397-.171-.514 1.112-1.37 2.054-2.397 2.739h-.086c-.513.086-1.112 0-1.712 0a4.48 4.48 0 01-.513 1.37c-.514.856-1.113 1.626-2.055 2.14.342 2.568-.77 5.051-2.996 6.42h-.086c-.856.086-1.626 0-2.397-.171-.513 1.113-1.369 2.055-2.397 2.74h-.171c-1.883.256-3.681-.428-4.965-1.627l-1.199 1.113 15.581 15.666a2.17 2.17 0 010 3.082l-2.397 2.397 3.852 4.023zm-9.245-1.369c.599.599 1.626.599 2.225 0l2.654-2.654 2.654-2.654c.599-.599.599-1.627 0-2.226l-15.837-15.837-1.284-1.37c-.6-.599-1.627-.599-2.226 0l-1.284 1.37c-.428.428-1.113.685-1.712.599v7.79l14.81 14.982zm-25.083-25.083l5.564 5.564.514.514 3.51 3.51v-7.277a82.05 82.05 0 01-.514-.257l-.257-.256-3.338-3.339h-5.822c-.171.514-.085 1.113.343 1.541zm-.771-2.226c.086-.171.171-.257.257-.428l2.397-2.397-2.397-2.397c-.428-.428-.685-.942-.685-1.541 0-.514.171-1.113.685-1.541l47.598-47.512v-3.253h-3.082l-13.783 13.783-2.14 2.14-4.195 4.195-32.959 33.044h2.74c.171 0 .342.171.342.343v5.65h5.222v-.086zM165.6 316.662h-28.079l25.425 10.187.685.257 2.054.856v-11.3h-.085zm.685 190.647h11.3v-5.308h-11.3v5.308zm0-5.992h5.393v-5.308h-5.393v5.308zm.599-47.512v1.198l2.397-2.397h-1.199l-1.198 1.199zm.257-1.199h-.257v.257l.257-.257zm-.257 3.339v1.198l4.451-4.451h-1.198l-3.253 3.253zm0 2.054v1.199l4.794-4.708v-1.199l-4.794 4.708zm0 2.141v1.198l4.794-4.708v-1.199l-4.794 4.709zm0 2.14v1.198l4.794-4.708v-1.199l-4.794 4.709zm0 2.054v1.199l4.794-4.709v-1.198l-4.794 4.708zm0 2.141v1.198l4.794-4.708v-1.199l-4.794 4.709zm0 2.14v1.198l4.794-4.708v-1.199l-4.794 4.709zm0 2.054v1.199l4.794-4.709v-1.198l-4.794 4.708zm0 2.14v1.199l4.794-4.708v-1.199l-4.794 4.708zm0 2.141v1.198l4.794-4.708v-1.199l-4.794 4.709zm0 2.054v1.199l4.794-4.709v-1.198l-4.794 4.708zm0 2.14v1.199l4.794-4.709v-1.198l-4.794 4.708zm0 2.141v1.198l4.794-4.708v-1.199l-4.794 4.709zm0 2.054v1.199l4.794-4.709v-1.198l-4.794 4.708zm0 2.14v1.199l4.794-4.709v-1.198l-4.794 4.708zm0 2.14v1.199l4.794-4.708v-1.285l-4.794 4.794zm0 2.141v1.198l4.794-4.708v-1.199l-4.794 4.709zm0 2.054v1.199l4.794-4.709v-1.198l-4.794 4.708zm0 2.14v1.199l4.794-4.709v-1.198l-4.794 4.708zm.685 1.37h1.198l2.825-2.825v-1.198l-4.023 4.023zm2.14 0h1.198l.685-.685v-1.198l-1.883 1.883zm-3.424-43.317h5.393v-3.852c0-.172.085-.343.342-.343.171 0 .343.086.343.343v3.852h5.307v-5.308h-11.3v5.308h-.085zm0-5.993h5.393v-98.02h-5.393v98.02zm-.685 55.902h-9.075c-.171 0-.342-.086-.342-.343 0-.171.171-.342.342-.342h9.075v-5.308l-29.449-11.813v11.3l7.448 2.996 1.626.685 20.46 8.218v-5.393h-.085zm-1.541 5.393l-17.721-7.105-1.626-.685-8.561-3.424v7.79c1.798.171 3.253 1.541 3.424 3.338h24.484v.086zm-27.908-2.739v2.739h2.739a3.095 3.095 0 00-2.739-2.739zm-.342 6.078c1.54 0 2.825-1.199 2.996-2.74h-6.078c.256 1.541 1.541 2.74 3.082 2.74zm-.343-3.339v-2.739a3.095 3.095 0 00-2.739 2.739h2.739zm-3.253 0c.171-1.798 1.541-3.253 3.339-3.339v-7.79l-10.273 5.137h8.561c.171 0 .342.171.342.342s-.086.342-.342.342h-9.845l-10.701 5.308h18.919zm-19.946-.257l10.272-5.136h-10.272v5.136zm0-5.735h11.557l11.728-5.822v-11.214l-3.425 1.712-.684.342-19.176 9.588v5.394zm0-6.164l18.662-9.331.685-.343 3.938-1.969v-11.214l-11.386 5.735-.685.343-2.654 1.37-8.475 4.28v11.129h-.085zm-5.993 12.156h5.308v-5.308h-5.308v5.308zm0-5.992h5.308V316.662h-5.308v184.655zm-6.677-48.454v-1.199l-.856.857-3.253 3.253h1.198l2.226-2.226.685-.685zm-.942-1.113h-1.198l-.343.257-2.91 2.911v.941h.256l3.253-3.253.514-.513.428-.343zm.942 49.567v-44.174h-5.308v44.174h5.308zm5.393-.685l-.685.685h.685v-.685zm0-.942v-1.198l-2.825 2.825h1.198l1.627-1.627zm0-2.055v-1.198l-4.109 4.109v.771h.428l3.681-3.682zm0-2.14v-1.198l-4.109 4.109v1.198l4.109-4.109zm0-35.955v-1.198l-.257.257-.513.513-3.339 3.425v1.198l3.938-4.023.171-.172zm-1.712-2.397h-1.199l-1.113 1.113v1.199l2.312-2.312zm-2.397 9.588v1.199l4.109-4.109v-1.199l-4.109 4.109zm4.109-5.05v-1.199l-4.109 4.109v1.199l4.109-4.109zm-4.109 7.105v1.198l4.109-4.109v-1.198l-4.109 4.109zm0 2.14v1.199l4.109-4.11v-1.198l-4.109 4.109zm0 2.14v1.199l4.109-4.109v-1.199l-4.109 4.109zm0 2.14v1.199l4.109-4.109v-1.199l-4.109 4.109zm0 2.055v1.199l4.109-4.11v-1.198l-4.109 4.109zm0 2.14v1.199l4.109-4.109v-1.199l-4.109 4.109zm0 2.14v1.199l4.109-4.195v-1.198l-4.109 4.194zm0 2.055v1.198l4.109-4.109v-1.198l-4.109 4.109zm0 2.14v1.199l4.109-4.11v-1.198l-4.109 4.109zm0 2.14v1.199l4.109-4.109v-1.284l-4.109 4.194zm0 2.055v1.198l4.109-4.109v-1.198l-4.109 4.109zm0 2.14v1.199l4.109-4.195v-1.113l-4.109 4.109zm0 2.14v1.199l4.109-4.109v-1.199l-4.109 4.109zm0 2.14v1.199l4.109-4.109v-1.199l-4.109 4.109zm0-39.036l.257-.257h-.257v.257zm2.311.77l-2.311 2.311v1.199l2.911-2.911.513-.513.771-.771v-.257h-.856l-.428.428-.6.514zm-3.595-4.28l-.343.342-1.712 1.712h1.199l.856-.856v-1.198zm-5.137 48.71h-.17v.171l.17-.171zm-.17 1.113v1.198l2.31-2.225h-1.198l-1.113 1.027zm0-51.707l.17-.171h-.17v.171zm0 .856v1.199l2.31-2.226h-1.198l-1.113 1.027zm5.992 3.681h5.307v-5.307h-5.307v5.307zm0 50.851h5.307v-5.308h-5.307v5.308zm-1.541-.599l.856-.856v-1.199l-2.14 2.055h1.284zm-2.14 0l2.996-2.996v-1.199l-4.195 4.109H96.6v.086zm-2.312 0h.257l4.11-4.109h-1.2l-3.167 3.167v.942zm-5.992.599h5.307v-5.308h-5.307v5.308zm.599-49.053v1.199l2.397-2.312h-1.199l-1.198 1.113zm.257-1.113h-.257v.257l.257-.257zm-.257 3.253v1.199l4.109-4.109v-.343h-.856l-3.253 3.253zm0 2.055v1.198l4.109-4.109v-1.198l-4.11 4.109zm0 2.14v1.199l4.109-4.109v-1.199l-4.11 4.109zm0 2.14v1.199l4.109-4.109v-1.199l-4.11 4.109zm0 2.055v1.198l4.109-4.109v-1.198l-4.11 4.109zm0 2.14v1.199l4.109-4.11v-1.198l-4.11 4.109zm0 2.14v1.199l4.109-4.109v-1.199l-4.11 4.109zm0 2.14v1.199l4.109-4.109v-1.199l-4.11 4.109zm0 2.055v1.199l4.109-4.11v-1.198l-4.11 4.109zm0 2.14v1.199l4.109-4.109v-1.199l-4.11 4.109zm0 2.14v1.199l4.109-4.195v-1.198l-4.11 4.194zm0 2.055v1.198l4.109-4.109v-1.198l-4.11 4.109zm0 2.14v1.199l4.109-4.11v-1.198l-4.11 4.109zm0 2.14v1.199l4.109-4.109v-1.284l-4.11 4.194zm0 2.055v1.198l4.109-4.109v-1.198l-4.11 4.109zm0 2.14v1.199l4.109-4.195v-1.113l-4.11 4.109zm0 2.14v1.199l4.109-4.109v-1.199l-4.11 4.109zm0 2.14v1.199l4.109-4.109v-1.199l-4.11 4.109zm0 2.055v1.198l4.109-4.109v-1.198l-4.11 4.109zm0 2.14v.771h.428l3.681-3.682v-1.198l-4.11 4.109zm1.37.771h1.198l1.627-1.627v-1.198l-2.825 2.825zm2.054 0h.685v-.685l-.685.685zm-4.023-44.859h5.307v-5.307h-5.307v5.307zm0-5.992h17.292V346.539H88.297v103.927zm86.976-26.281v.941l-.684.685v-.941l.684-.685zm-2.996-6.763v9.759l-.599.599v-11.043l.599.685zm-52.049 61.808l1.969-1.027.77-.428.514.513-2.654 1.37-1.969.942 1.37-1.37z"/><path d="M281.94 394.907h32.102l-.685.685h-31.161v21.145l-.684-.685v-20.888c.085-.086.256-.257.428-.257zm-1.199-1.198h40.321v-6.335c0-.172.171-.343.343-.343.085 0 .256.086.256.171v6.421H325v.685h-3.253v.599H325v.685h-3.253v29.791c0 .171-.171.343-.342.343a.369.369 0 01-.343-.343v-29.791h-38.78v86.634h38.78v-34.071c0-.172.171-.343.343-.343.171 0 .342.086.342.343v34.071H325v.685h-3.253v.514H325v.685h-3.253v2.054c0 .171-.171.343-.342.343a.369.369 0 01-.343-.343v-2.054h-40.321c-.171 0-.342-.172-.342-.343v-89.716c0-.171.171-.342.342-.342zm.343 89.63h39.978v-.514H281.94c-.172 0-.343-.171-.343-.342v-87.319c0-.171.171-.343.343-.343h39.122v-.599h-39.978v89.117zm.856-88.432h32.102l-.685.685h-31.161v21.145l-.684-.685v-20.888c.085-.086.256-.257.428-.257z"/></g></svg>