<svg width="344" height="581" fill="none" xmlns="http://www.w3.org/2000/svg"><g opacity=".3" fill="#91AEA8"><path d="M33.392 156.344c-4.355 0-7.894-3.539-7.894-7.895 0-.362 0-.725.09-1.088.091-.454.182-.908.273-1.271a8.154 8.154 0 015.172-5.172c.454-.091.817-.272 1.27-.272.363 0 .726-.091 1.09-.091 4.355 0 7.894 3.539 7.894 7.894 0 4.356-3.54 7.895-7.895 7.895zm6.261-7.532h-4.627c0 .091 0 .273-.091.363l3.72 2.723c.635-.908.998-1.997.998-3.086zm-1.36 3.63l-3.721-2.722-.272.272 1.36 4.355c1.09-.453 1.997-1.088 2.632-1.905zm-4.9 2.359c.544 0 1.088-.091 1.633-.272l-1.452-4.355h-.363l-1.452 4.355c.544.091 1.089.272 1.633.272zm.453-6.352c0-.181-.181-.362-.454-.362-.181 0-.363.181-.363.362a.39.39 0 00.363.363c.272 0 .454-.181.454-.363zm-2.722 5.898l1.452-4.355c-.091-.091-.182-.091-.273-.181l-3.72 2.722c.635.726 1.543 1.361 2.54 1.814zm-2.994-2.449l3.72-2.723c-.091-.09-.091-.272-.091-.363h-4.628c.091 1.089.363 2.178.998 3.086zm3.629-3.811c.09-.091.09-.273.09-.363l-3.72-2.723a7.286 7.286 0 00-.998 3.086h4.628zm-2.904-3.902l-.272.272 3.72 2.722c.091-.091.182-.181.273-.181l-1.452-4.356c-.726.272-1.361.726-1.906 1.18l-.363.363zm4.537-1.996c-.544 0-1.089.09-1.633.181l1.452 4.355h.363l1.452-4.355c-.545-.181-.998-.181-1.634-.181zm2.269.362l-1.361 4.356.272.272 3.72-2.722c-.635-.817-1.542-1.452-2.631-1.906zm2.994 2.45l-3.72 2.723c0 .09.09.272.09.363h4.628c0-1.089-.363-2.178-.998-3.086zm-1.272 208.974c1.634 1.724 2.632 4.083 2.632 6.533 0 1.179-.182 2.268-.635 3.266-.091.273-.182.454-.273.726-.453.908-.998 1.815-1.724 2.541l1.361 1.361c.091.091.091.182.091.272 0 .091 0 .182-.09.272-.091.091-.363.091-.454 0l-1.361-1.361c-1.724 1.634-3.993 2.632-6.624 2.632-2.54 0-4.81-.998-6.533-2.632l-1.361 1.361c-.091.091-.363.091-.454 0-.09-.09-.09-.363 0-.453l1.36-1.361a9.647 9.647 0 01-2.63-6.624c0-2.541.998-4.809 2.63-6.533l-1.36-1.361c-.09-.091-.09-.363 0-.454.09-.182.363-.182.454 0l1.36 1.361c.727-.726 1.634-1.27 2.541-1.724.273-.091.454-.182.726-.272.998-.363 2.087-.545 3.267-.545 2.54 0 4.9.998 6.624 2.632l1.36-1.361c.182-.182.364-.182.455 0 .09.09.09.181.09.272 0 .091 0 .181-.09.181l-1.362 1.271zm-7.077 15.516c2.359 0 4.537-.907 6.08-2.45l-2.904-2.994c-.817.725-1.906 1.179-3.176 1.179a4.656 4.656 0 01-3.085-1.179l-2.995 2.994c1.634 1.543 3.72 2.45 6.08 2.45zm3.448-10.344a8.056 8.056 0 00-.545-.908l-.181.182-2.087 2.178 2.268 2.359c.545-.635.908-1.452.908-2.359-.09-.545-.182-.999-.363-1.452zm-3.448-2.269c-.908 0-1.724.363-2.36.908l2.36 2.268 2.177-2.178.182-.181c-.272-.272-.635-.454-.907-.635-.454-.091-.908-.182-1.452-.182zm-.454 3.63l-2.36-2.359c-.544.635-.816 1.451-.816 2.359 0 .907.273 1.724.817 2.359l2.36-2.359zm-1.905 2.813c.635.544 1.451.907 2.359.907.907 0 1.724-.363 2.359-.907l-2.36-2.269-2.358 2.269zm-6.624-2.813c0 2.359.998 4.537 2.45 6.079l2.994-2.994c-.726-.908-1.18-1.906-1.18-3.176 0-1.18.454-2.268 1.18-3.176l-2.994-2.994c-1.543 1.815-2.45 3.902-2.45 6.261zm8.983-8.983a8.56 8.56 0 00-2.722.453c-.273.091-.454.182-.726.273-.998.453-1.815.998-2.632 1.724l2.995 2.994a4.652 4.652 0 013.085-1.18c.363 0 .816 0 1.18.182a5.163 5.163 0 011.996.998l2.903-2.994c-1.542-1.543-3.72-2.45-6.08-2.45zm3.63 5.898c.453.544.907 1.27 1.088 1.996.09.363.182.726.182 1.089v.091a4.654 4.654 0 01-1.18 3.085l2.994 2.994c.726-.726 1.27-1.633 1.724-2.631.091-.273.182-.454.273-.726.272-.908.453-1.815.453-2.813 0-2.359-.907-4.537-2.45-6.08l-3.085 2.995z"/><path d="M50.721 360.778l-20.143 20.144c-.182.091-.363.091-.454 0L9.98 360.778c-.182-.091-.182-.363 0-.453l12.431-12.432.544-.544 7.169-7.168c.09-.091.363-.091.454 0l16.877 16.786.544.545 2.813 2.813c0 .09.09.181.09.272-.09 0-.09.09-.18.181zm-3.266-2.813l-.545-.544-16.605-16.605-7.44 7.44-12.25 12.25 19.69 19.69 19.69-19.69-2.54-2.541z"/><path d="M49.09 360.777l-18.51 18.511c-.182.181-.364.181-.454 0l-18.511-18.511c-.09-.091-.09-.363 0-.454l11.615-11.705.544-.544 6.352-6.352c.09-.182.362-.182.453 0l16.061 16.061.544.544 1.997 1.996c.09.091.181.182.181.273-.181 0-.181.09-.272.181zm-2.45-1.996l-.544-.545-15.789-15.788-6.17 6.17-.545.545-11.433 11.433 18.148 17.966 18.057-18.057-1.724-1.724zM204.707 14.429c-.363.544-.816.907-1.361.998-.544.181-1.179.272-1.905.272h-5.082v-1.18h5.082c1.089 0 1.815-.18 2.268-.544.363-.363.545-.998.545-1.815 0-.544-.091-1.088-.363-1.451-.273-.363-.545-.545-.998-.636a6.318 6.318 0 00-1.452-.181h-5.082v-1.18h5.082c1.361 0 2.359.273 2.903.817.636.544.908 1.452.908 2.631.09.999-.182 1.724-.545 2.269zm-3.086 4.354v2.269c0 2.178-.907 3.266-2.631 3.266-.545 0-1.089-.181-1.543-.453a1.78 1.78 0 01-.816-1.18 9.116 9.116 0 01-.182-1.724v-3.266h8.711v1.179h-3.539v-.09zm-1.089 0h-3.085v2.269c0 .544 0 .907.091 1.18.091.272.182.453.454.635.272.181.544.272.907.272 1.089 0 1.633-.726 1.633-2.087v-2.269zm10.254 259.24c.363.636.998 1.18 1.905 1.634v.816c-.635-.272-1.179-.544-1.542-.998v5.082h-.817v-6.624h.454v.09zm-2.996 6.625h-.907v-.907h.907v.907zm-4.265.09c-1.451 0-2.177-1.089-2.177-3.357 0-2.269.726-3.357 2.177-3.357 1.452 0 2.178 1.088 2.178 3.357 0 2.268-.726 3.357-2.178 3.357zm.999-5.353c-.182-.454-.545-.635-.999-.635-.907 0-1.361.907-1.361 2.722 0 1.814.454 2.722 1.361 2.722.908 0 1.271-.908 1.271-2.722.09-.998-.091-1.724-.272-2.087zm-6.079 5.353c-1.452 0-2.177-1.089-2.177-3.357 0-2.269.725-3.357 2.177-3.357s2.087 1.088 2.087 3.357c.091 2.268-.635 3.357-2.087 3.357zm.998-5.353c-.181-.454-.544-.635-.907-.635-.907 0-1.27.907-1.27 2.722 0 1.814.453 2.722 1.27 2.722.907 0 1.27-.908 1.27-2.722 0-.998-.181-1.724-.363-2.087zm-64.151-52.083c-.091.272-.182.454-.363.635-.545.545-1.452.817-2.904.817-2.268 0-3.357-.726-3.357-2.087 0-1.361.907-1.996 2.813-2.087h1.089c1.905.091 2.813.817 2.813 2.087 0 .181 0 .363-.091.635zm-1.815-1.815c-.272-.09-.726-.09-1.179-.09h-.273c-.998 0-1.633.09-2.087.272-.453.272-.544.544-.544.998 0 .907.817 1.361 2.631 1.361 1.18 0 1.906-.181 2.36-.544.181-.182.362-.454.362-.726v-.091c0-.635-.453-.998-1.27-1.18zm1.813 5.445h-.907v-.908h.907v.908zm-.724 4.9c-.635.453-1.452.635-2.722.635-2.087 0-3.176-.726-3.176-2.269 0-.635.181-1.089.635-1.451.454-.363.908-.545 1.633-.545.545 0 1.089.182 1.543.454.454.363.635.816.635 1.452 0 .725-.272 1.179-.816 1.542.907 0 1.542-.181 1.905-.454.454-.272.635-.635.635-1.088 0-.636-.363-.999-1.089-1.089l.091-.817c.544.091.907.272 1.18.545.272.272.453.725.453 1.27-.09.817-.363 1.361-.907 1.815zm-2.178-1.543c0-.363-.181-.726-.363-.907-.272-.273-.635-.363-1.089-.363-.363 0-.816.09-1.088.363-.273.272-.454.544-.454.998 0 .363.091.726.363.907.272.182.635.363 1.089.363.453 0 .816-.091 1.089-.363.272-.272.453-.635.453-.998zm-1.815 2.994l.091.817c-.363 0-.635.09-.907.272-.273.181-.363.544-.363.998 0 .363.09.635.272.817.181.272.454.363.817.363.272 0 .544-.091.907-.363.363-.273.817-.726 1.452-1.452.907-1.089 1.724-1.633 2.45-1.633v4.355h-.726v-3.176a3.935 3.935 0 00-.635.545l-.545.726c-.726.907-1.361 1.451-1.724 1.633-.363.181-.726.272-.998.272-.544 0-.998-.181-1.361-.544-.363-.363-.544-.908-.544-1.452-.091-1.361.544-2.087 1.814-2.178zm4.173 7.167c0-.726-.454-1.089-1.271-1.27l.091-.817c.544.091.998.273 1.361.635.272.363.454.908.454 1.452 0 .454-.091.817-.272 1.18-.273.363-.545.635-.908.817a2.517 2.517 0 01-1.179.272c-.636 0-1.089-.182-1.543-.545-.363-.363-.635-.907-.635-1.452 0-.453.181-.816.454-1.27l-1.815.363v2.632h-.635v-3.267l3.357-.635.091.726c-.454.272-.635.635-.635 1.179 0 .454.09.726.363.998.272.273.635.363 1.088.363.454 0 .817-.09 1.089-.363.363-.181.545-.544.545-.998zm-2.721-178.844c-2.268 0-3.357-.726-3.357-2.178s1.089-2.178 3.357-2.178c2.269 0 3.358.726 3.358 2.178s-1.089 2.178-3.358 2.178zm0-3.449c-.998 0-1.633.091-2.087.363-.453.182-.544.545-.544.998 0 .908.817 1.362 2.631 1.362 1.815 0 2.722-.454 2.722-1.27 0-.999-.907-1.453-2.722-1.453zm3.265 5.626h-.907v-.907h.907v.907zm-.724 4.9c-.635.454-1.452.635-2.722.635-2.087 0-3.176-.725-3.176-2.268 0-.635.181-1.089.635-1.452s.908-.544 1.633-.544c.545 0 1.089.181 1.543.544.454.363.635.817.635 1.452 0 .726-.272 1.18-.816 1.543.907 0 1.542-.182 1.905-.454.454-.272.635-.635.635-1.09 0-.544-.363-.906-1.089-1.088l.091-.726c.544.09.907.272 1.18.545.272.362.453.725.453 1.27a2.488 2.488 0 01-.907 1.633zm-2.178-1.542c0-.363-.181-.726-.363-.908-.272-.181-.635-.363-1.089-.363-.363 0-.816.091-1.088.363-.273.272-.454.545-.454.908s.091.726.363.907c.272.181.635.363 1.089.363.453 0 .816-.09 1.089-.363.272-.181.453-.544.453-.907zm1.452 4.535l-.544.726c-.726.908-1.361 1.452-1.724 1.633-.363.182-.726.273-.999.273-.544 0-.998-.182-1.361-.545-.363-.363-.544-.907-.544-1.452 0-1.27.635-1.996 1.905-2.087l.091.817c-.363 0-.635.09-.907.363-.272.182-.363.544-.363.998 0 .363.091.635.272.817.182.272.454.363.817.363.272 0 .544-.09.907-.363.363-.182.817-.726 1.452-1.452.907-1.089 1.724-1.724 2.45-1.724v4.355h-.726v-3.266a1.41 1.41 0 00-.726.544zm-2.905 5.808c0-.453.181-.816.453-1.27l-1.814.363v2.631h-.726v-3.266l3.357-.635.091.725c-.454.273-.635.636-.635 1.18 0 .454.09.726.363.998.272.272.635.363 1.088.363.454 0 .817-.09 1.089-.363.363-.181.545-.544.545-.998 0-.726-.454-1.089-1.271-1.27l.091-.817c.544.09.998.272 1.361.635.272.363.454.908.454 1.452 0 .454-.091.907-.272 1.18-.273.362-.545.544-.908.816a2.512 2.512 0 01-1.179.273c-.636 0-1.089-.182-1.543-.545-.363-.363-.544-.817-.544-1.452zm.363-76.039c.273.635.998 1.18 1.906 1.634v.816c-.635-.272-1.18-.544-1.633-.998v5.082h-.817V5.355h.544v.09zm-2.992 6.623h-.908v-.907h.908v.907zm-4.721-1.542v1.542h-.816v-1.542h-.908V9.8h.908V5.535h.635l2.994 4.265v.726h-2.813zm0-3.72v2.903h2.087l-2.087-2.903zm-2.54.544l-.817.09c0-.362-.09-.634-.272-.907-.181-.272-.544-.363-.907-.363s-.635.091-.908.273c-.272.181-.363.453-.363.816 0 .272.091.545.273.908.181.363.726.816 1.542 1.451 1.089.908 1.634 1.724 1.634 2.45h-4.356v-.816h3.267a3.944 3.944 0 00-.545-.635l-.726-.545c-.907-.726-1.451-1.36-1.633-1.724a2.422 2.422 0 01-.272-1.089c0-.544.181-.998.544-1.27.363-.363.908-.545 1.452-.545 1.27 0 1.996.636 2.087 1.906zm-9.164-1.815h3.266l.635 3.358-.725.09c-.273-.453-.636-.635-1.18-.635-.454 0-.726.09-.998.454-.272.272-.363.635-.363 1.089 0 .453.091.816.363 1.088.272.364.544.454.998.454.726 0 1.089-.454 1.27-1.27l.908.09c-.091.545-.273.999-.726 1.362-.363.363-.817.453-1.452.453-.454 0-.817-.09-1.18-.272-.363-.181-.544-.454-.726-.816a2.517 2.517 0 01-.272-1.18c0-.635.182-1.18.545-1.543.363-.363.907-.635 1.451-.635.454 0 .817.182 1.271.454l-.363-1.724h-2.632v-.817h-.09zm-92.736 447.07l.635.635-.635.635-.635-.635.635-.635zm-3.81 2.812l1.09 1.089-.545.545-1.09-1.089-.634.635-.545-.544.635-.636-2.994-2.994.454-.454 5.081.908.544.544-1.996 1.996zm-2.631-2.631l2.087 2.087 1.452-1.452-3.54-.635zm36.112-37.929l.363-.363c.726.272 1.543.181 2.541-.182l.544.545c-.635.272-1.27.453-1.814.453l3.63 3.63-.545.544-4.719-4.627zm2.179 7.17l-.636-.726.636-.635.635.635-.636.726zM162.241 299.62l.635.635-.635.636-.636-.636.636-.635zm-2.268 3.72c-.999.998-2.36.725-3.902-.817-1.543-1.543-1.815-2.904-.817-3.902.998-.998 2.269-.726 3.811.817 1.634 1.542 1.906 2.903.908 3.902zm-1.452-3.358c-.726-.726-1.271-1.089-1.724-1.27-.454-.182-.817 0-1.089.272-.635.635-.272 1.543.998 2.813 1.27 1.27 2.178 1.543 2.813.998.635-.544.272-1.542-.998-2.813zm-71.23 88.199l.636.635-.636.635-.635-.635.635-.635zM231.838 38.745v-17.33h-4.356a.39.39 0 01-.363-.363.39.39 0 01.363-.362h3.902l-.272-.273c-.091-.09-.091-.363 0-.453.181-.091.363-.091.453 0l.273.272V14.7c0-.182.181-.363.362-.363a.39.39 0 01.363.363v5.989h1.997a.39.39 0 01.363.363.39.39 0 01-.363.363h-1.543l.272.272c.091.09.091.181.091.272 0 .09 0 .181-.091.272-.09.09-.363.09-.453 0l-.273-.272v16.877a.39.39 0 01-.363.363c-.181-.09-.362-.181-.362-.453zm24.135-17.33h-3.902l.272.272c.091.09.091.181.091.272 0 .09 0 .181-.091.272-.181.182-.363.182-.453 0l-.273-.272v16.877a.39.39 0 01-.363.363c-.181 0-.272-.181-.272-.363V21.415h-1.996a.39.39 0 01-.363-.363.39.39 0 01.363-.363h1.543l-.273-.273c-.09-.09-.09-.363 0-.453.091-.091.363-.091.454 0l.272.272V17.33c-.635-.544-.907-1.452-.907-2.903 0-2.178.726-3.358 2.178-3.358 1.451 0 2.177 1.09 2.177 3.358s-.726 3.357-2.177 3.357c-.182 0-.363-.09-.545-.09v2.994h4.446a.39.39 0 01.363.363c-.181.181-.363.363-.544.363zm-3.902-4.265c.907 0 1.27-.908 1.27-2.722 0-.998-.09-1.634-.363-2.087-.181-.454-.544-.635-.998-.635-.907 0-1.27.907-1.27 2.63 0 .545 0 .908.091 1.271v-.998c0-.181.181-.363.272-.363a.39.39 0 01.363.363v2.269c.272.181.454.272.635.272zm-3.449.545h-.907v-.907h.907v.907zm-5.624-.453c-.453-.363-.635-.817-.635-1.543 0-.907.363-1.451 1.18-1.633-.635-.272-.908-.726-.908-1.361 0-.454.182-.817.454-1.18.363-.363.817-.544 1.452-.544.544 0 .998.181 1.27.454.363.272.545.726.636 1.27l-.817.09c-.091-.816-.545-1.179-1.18-1.179-.363 0-.544.09-.816.272-.182.182-.273.454-.273.726 0 .272 0 .454.182.635.181.182.363.273.454.363.181.091.453.091.725.091l.091.726c-.272-.09-.453-.09-.544-.09-.363 0-.726.09-.908.362-.181.272-.363.545-.363.908s.091.725.363.998c.273.272.545.363.908.363.726 0 1.089-.454 1.27-1.27l.817.09c-.091.545-.272.998-.635 1.361s-.908.545-1.452.545c-.363.09-.817-.091-1.271-.454zm-3.629.545c-1.452 0-2.178-1.089-2.178-3.357 0-2.178.726-3.358 2.178-3.358s2.178 1.09 2.178 3.358c-.091 2.268-.817 3.357-2.178 3.357zm.908-5.353c-.182-.454-.545-.636-.999-.636-.907 0-1.361.908-1.361 2.632 0 1.814.454 2.722 1.271 2.722.907 0 1.27-.908 1.27-2.722.181-.908.091-1.633-.181-1.996zm29.942 51.356c-2.178 0-3.358-.727-3.358-2.179 0-1.451 1.089-2.177 3.358-2.177 2.268 0 3.357.726 3.357 2.177 0 1.452-1.18 2.178-3.357 2.178zm0-3.449c-.998 0-1.634.09-2.087.363-.454.181-.636.544-.636.998 0 .907.908 1.361 2.723 1.361 1.814 0 2.722-.454 2.722-1.36-.091-.908-.908-1.362-2.722-1.362zm3.177 5.628h-.908v-.908h.908v.908zm-.727 4.898c-.545.453-1.452.635-2.723.635-2.087 0-3.085-.726-3.085-2.268 0-.636.182-1.09.635-1.452.363-.363.908-.545 1.543-.545.544 0 1.089.182 1.543.545.453.363.635.816.635 1.452 0 .725-.272 1.18-.817 1.633.908 0 1.543-.182 1.906-.454s.635-.635.635-1.089c0-.635-.363-.998-.998-1.089l.09-.725c.545.09.908.272 1.18.544.272.272.454.726.454 1.27-.091.545-.363 1.09-.998 1.543zm-2.178-1.543c0-.453-.091-.726-.363-.998s-.545-.363-.998-.363c-.454 0-.817.09-1.089.363-.363.272-.454.545-.454.998 0 .363.182.635.454.908.272.272.635.363 1.089.363.453 0 .816-.091 1.089-.363.09-.273.272-.545.272-.908zm2.359 4.99c0-.726-.363-1.18-1.27-1.27l.091-.817c.544.09.998.272 1.27.635.363.363.544.907.544 1.452 0 .453-.09.816-.272 1.18a1.777 1.777 0 01-.816.816 2.512 2.512 0 01-1.18.272c-.635 0-1.089-.181-1.543-.544-.363-.363-.635-.908-.635-1.452 0-.454.091-.817.454-1.27l-1.724.362v2.632h-.726v-3.267l3.357-.635.091.726c-.454.272-.635.635-.635 1.18 0 .453.091.726.363.998s.635.363 1.089.363c.453 0 .816-.091 1.179-.363.182-.182.363-.545.363-.998zm.544 173.495h-6.533v-.545c.635-.272 1.18-.907 1.634-1.905h.726c-.273.635-.545 1.179-.999 1.633h5.172v.817zm.002 3.447h-.908v-.908h.908v.908zm-1.544 4.538v.907h-.726v-.907h-4.265v-.635l4.265-2.995h.726v2.813h1.542v.817h-1.542zm-.726-2.904l-2.904 2.087h2.904v-2.087zm-.907 8.893c-2.178 0-3.358-.726-3.358-2.178 0-1.451 1.089-2.177 3.358-2.177 2.268 0 3.357.726 3.357 2.177 0 1.452-1.18 2.178-3.357 2.178zm0-3.448c-.998 0-1.634.091-2.087.363-.454.272-.636.545-.636.998 0 .908.908 1.361 2.723 1.361 1.814 0 2.722-.453 2.722-1.27-.091-.998-.908-1.452-2.722-1.452z"/><path d="M276.479 104.532v-1.543l-.272.272c-.091.091-.363.091-.454 0-.091-.181-.091-.363 0-.453l.272-.273h-21.596a.39.39 0 01-.363-.363c0-.181.091-.363.363-.363h22.05V48.637h-9.437c-.181 0-.272-.182-.272-.363 0-.182.091-.363.272-.363h9.437v-5.172l-.272.272c-.091.09-.363.09-.454 0-.091-.182-.091-.363 0-.454l.272-.272h-21.596a.39.39 0 01-.363-.363c0-.181.091-.363.363-.363h22.05v-2.087c0-.181.181-.363.272-.363a.39.39 0 01.363.363v1.543l.181-.273c.182-.181.363-.181.545 0 0 .091.091.091.091.273 0 .09 0 .181-.091.272l-.272.272h5.535a.39.39 0 01.363.363c0 .181-.091.363-.363.363h-5.989v5.625h30.125c.182 0 .363.09.363.363a.39.39 0 01-.363.363h-30.125v52.719l.181-.272a.578.578 0 01.545 0c0 .09.091.181.091.272 0 .09 0 .181-.091.272l-.272.272h5.535c.181 0 .363.182.363.363 0 .182-.091.363-.363.363h-5.989v1.906a.39.39 0 01-.363.363c-.181 0-.272-.182-.272-.363zm0 200.259v-1.542l-.272.272c-.091.091-.363.091-.454 0-.091-.091-.091-.363 0-.454l.272-.272h-21.596a.39.39 0 01-.363-.363c0-.181.091-.363.363-.363h22.05v-31.577h-9.437c-.181 0-.272-.181-.272-.363 0-.181.091-.363.272-.363h9.437v-55.804l-.272.272c-.091.091-.363.091-.454 0-.091-.09-.091-.363 0-.453l.272-.273h-21.596a.39.39 0 01-.363-.363c0-.181.091-.363.363-.363h22.05v-1.996c0-.181.181-.363.272-.363a.39.39 0 01.363.363v1.543l.181-.272a.578.578 0 01.545 0c0 .09.091.181.091.272 0 .09 0 .181-.091.272l-.272.272h5.535c.181 0 .363.182.363.363 0 .182-.091.363-.363.363h-5.989v56.077h30.125c.182 0 .363.181.363.362a.39.39 0 01-.363.363h-30.125v31.124l.181-.272a.578.578 0 01.545 0c0 .09.091.181.091.272 0 .09 0 .181-.091.272l-.272.272h5.535c.181 0 .363.182.363.363 0 .182-.091.363-.363.363h-5.989v1.996a.39.39 0 01-.363.363c-.181-.09-.272-.181-.272-.363zm54.626-256.517c0-.182.182-.363.273-.363h11.977c.182 0 .272.09.272.363 0 .181-.181.363-.272.363h-11.977c-.182 0-.273-.182-.273-.363zm-136.199 0c0 .181-.091.363-.363.363h-7.985a.39.39 0 01-.363-.363c0-.182.091-.363.363-.363h7.985c.272.09.363.181.363.363zm120.047 0a.39.39 0 01.363-.363h7.985c.182 0 .363.09.363.363a.39.39 0 01-.363.363h-7.985a.39.39 0 01-.363-.363zM3.54 571.744v-8.075a.39.39 0 01.362-.363.39.39 0 01.363.363v8.075a.39.39 0 01-.363.363c-.272-.09-.363-.181-.363-.363zm0-16.15v-40.197a.39.39 0 01.362-.363.39.39 0 01.363.363v40.197a.39.39 0 01-.363.363c-.272 0-.363-.181-.363-.363zm0-48.273v-8.076a.39.39 0 01.362-.363.39.39 0 01.363.363v8.076a.39.39 0 01-.363.363c-.272 0-.363-.182-.363-.363zm0-321.85v-8.076a.39.39 0 01.362-.363.39.39 0 01.363.363v8.076a.39.39 0 01-.363.363c-.272 0-.363-.181-.363-.363zm0 64.334v-8.076a.39.39 0 01.362-.363.39.39 0 01.363.363v8.076a.39.39 0 01-.363.363c-.272 0-.363-.182-.363-.363zm0 48.273V257.88a.39.39 0 01.362-.363.39.39 0 01.363.363v40.288a.39.39 0 01-.363.363c-.272-.09-.363-.272-.363-.453zm0-177.033v-8.075a.39.39 0 01.362-.363.39.39 0 01.363.363v8.075a.39.39 0 01-.363.363c-.272 0-.363-.091-.363-.363zm0 112.699v-40.197a.39.39 0 01.362-.363.39.39 0 01.363.363v40.197a.39.39 0 01-.363.363c-.272 0-.363-.181-.363-.363zm.272 129.121a.39.39 0 01-.363-.363v-40.197a.39.39 0 01.363-.363.39.39 0 01.363.363v40.197a.39.39 0 01-.363.363zm-.272-48.636v-8.076a.39.39 0 01.362-.363.39.39 0 01.363.363v8.076a.39.39 0 01-.363.363c-.272 0-.363-.182-.363-.363zm.272 55.986a.39.39 0 01.363.363v7.985a.39.39 0 01-.363.363.39.39 0 01-.363-.363v-8.076c.091-.091.182-.272.363-.272zM4.175.364V40.56a.39.39 0 01-.363.363.39.39 0 01-.363-.363V.364A.39.39 0 013.812 0a.39.39 0 01.363.363zm94.731 233.743a.39.39 0 01-.363-.363v-40.197c0-.181.09-.363.363-.363a.39.39 0 01.363.363v40.197c-.09.182-.182.363-.363.363zm-.363 337.637v-8.075c0-.182.09-.363.363-.363a.39.39 0 01.363.363v8.075c0 .182-.09.363-.363.363-.272-.09-.363-.181-.363-.363zm0-386.273v-8.076c0-.181.09-.363.363-.363a.39.39 0 01.363.363v8.076c0 .182-.09.363-.363.363-.272 0-.363-.181-.363-.363zm.634 394.531v-.272c0-.182-.09-.363-.363-.363a.39.39 0 00-.363.363v.272h.726zm-.634-458.957v-8.075c0-.182.09-.363.363-.363a.39.39 0 01.363.363v8.075c0 .182-.09.363-.363.363-.272 0-.363-.091-.363-.363zm0 48.365v-40.197c0-.181.09-.363.363-.363a.39.39 0 01.363.363v40.197c0 .182-.09.363-.363.363-.272-.09-.363-.181-.363-.363zm0 80.395v-8.076c0-.181.09-.363.363-.363a.39.39 0 01.363.363v8.076c0 .181-.09.363-.363.363-.272 0-.363-.182-.363-.363zm0-144.82V64.787c0-.181.09-.363.363-.363a.39.39 0 01.363.363v40.198c0 .181-.09.363-.363.363-.272 0-.363-.182-.363-.363zm0 450.609v-40.197c0-.182.09-.363.363-.363a.39.39 0 01.363.363v40.197c0 .182-.09.363-.363.363-.272 0-.363-.181-.363-.363zm0-48.273v-8.076c0-.182.09-.363.363-.363a.39.39 0 01.363.363v8.076c0 .181-.09.363-.363.363-.272 0-.363-.182-.363-.363zm0-16.061v-40.197c0-.182.09-.363.363-.363a.39.39 0 01.363.363v40.197c0 .182-.09.363-.363.363-.272 0-.363-.181-.363-.363zm0-112.697v-8.076c0-.181.09-.363.363-.363a.39.39 0 01.363.363v8.076c0 .181-.09.363-.363.363-.272 0-.363-.182-.363-.363zM67.6 580.002v-.272a.39.39 0 00-.362-.363.39.39 0 00-.363.363v.272h.726zm0-273.849v8.076a.39.39 0 01-.362.363.39.39 0 01-.363-.363v-8.076a.39.39 0 01.363-.363.39.39 0 01.363.363zm20.415-173.855c-.09.182-.363.182-.453.091l-1.815-1.27-1.089-.726-1.361-.907c-1.089 1.179-2.631 1.996-4.446 2.177l-11.343.998v36.749a.39.39 0 01-.362.363.39.39 0 01-.363-.363v-36.749l-4.537.363c-2.632.182-5.082-.998-6.443-3.266-1.815-2.904-2.903-6.08-3.448-9.256-.09-.272-.09-.635-.09-.907a25.18 25.18 0 013.538-16.061c1.361-2.268 3.811-3.448 6.443-3.266l4.537.363V64.698a.39.39 0 01.362-.363.39.39 0 01.364.363v36.023l3.357.273.907.09 7.078.636c1.724.181 3.266.907 4.446 2.177l1.361-.907 1.089-.726 1.815-1.27c.181-.091.363-.091.453.09 3.267 4.719 4.81 10.163 4.81 15.607.09 5.445-1.543 10.889-4.81 15.607zm-21.142-30.941l-4.537-.363c-2.359-.182-4.627.907-5.807 2.903a25.042 25.042 0 00-3.539 15.154c0 .272.091.635.091.907.454 3.267 1.633 6.533 3.448 9.528 1.27 1.996 3.448 3.085 5.807 2.903l4.537-.363v-.544l-4.627.363c-2.087.181-4.174-.817-5.263-2.632-1.815-2.994-2.995-6.351-3.357-9.709 0-.363-.091-.635-.091-.907-.363-4.9.816-9.891 3.448-14.246 1.089-1.815 3.176-2.813 5.263-2.631l4.627.362v-.725zm0 3.629v-2.359l-4.627-.454c-1.906-.181-3.63.726-4.628 2.359-2.54 4.084-3.63 8.711-3.448 13.248 0 .272 0 .635.09.998.273 3.448 1.453 6.897 3.358 9.982.998 1.633 2.722 2.45 4.628 2.359l4.627-.363v-1.543a.39.39 0 01.363-.363.39.39 0 01.363.363v1.543l11.161-.998c2.54-.182 4.537-2.359 4.537-4.9v-16.152c0-2.54-1.996-4.718-4.537-4.899l-8.71-.726-.908-.091-1.543-.182v2.269a.39.39 0 01-.363.363c-.181 0-.272-.091-.363-.182v-.272zm11.978-2.541l-7.622-.635-.908-.09-2.722-.273v.635l2.178.182.907.091 8.167.726c2.903.272 5.172 2.631 5.172 5.535v16.151c0 2.904-2.269 5.354-5.172 5.626l-11.252.998v.635l11.343-.998c3.175-.272 5.625-2.904 5.625-6.17v-16.152c0-3.357-2.45-5.988-5.716-6.261zm4.9 1.997c.907 1.179 1.451 2.631 1.451 4.174v16.151c0 1.633-.544 2.994-1.451 4.174l1.088.726a23.3 23.3 0 000-25.951l-1.088.726zm1.633-1.089c2.722 4.083 4.083 8.711 4.083 13.338 0 4.628-1.36 9.256-4.083 13.339l.454.363c5.535-8.348 5.535-18.964 0-27.403l-.454.363zm2.268-1.543l-1.27.817c2.813 4.265 4.265 9.165 4.265 14.064 0 4.9-1.452 9.8-4.265 14.065l1.27.817c6.08-9.074 6.08-20.689 0-29.763zM66.875 233.744v-40.197a.39.39 0 01.363-.363.39.39 0 01.363.363v40.197a.39.39 0 01-.363.363.39.39 0 01-.363-.363z"/><path d="M66.875 121.045v-8.075a.39.39 0 01.363-.363.39.39 0 01.363.363v8.075a.39.39 0 01-.363.363c-.181 0-.363-.091-.363-.363zM67.6.364V40.56a.39.39 0 01-.362.363.39.39 0 01-.363-.363V.364A.39.39 0 0167.238 0a.39.39 0 01.363.363zm-.725 185.107v-8.076a.39.39 0 01.363-.363.39.39 0 01.363.363v8.076a.39.39 0 01-.363.363.39.39 0 01-.363-.363zm0 321.85v-8.076a.39.39 0 01.363-.363.39.39 0 01.363.363v8.076a.39.39 0 01-.363.363.39.39 0 01-.363-.363zm0 48.273v-40.197a.39.39 0 01.363-.363.39.39 0 01.363.363v40.197a.39.39 0 01-.363.363.39.39 0 01-.363-.363zm0-305.789v-8.076a.39.39 0 01.363-.363.39.39 0 01.363.363v8.076a.39.39 0 01-.363.363.39.39 0 01-.363-.363zm0 321.939v-8.075a.39.39 0 01.363-.363.39.39 0 01.363.363v8.075a.39.39 0 01-.363.363c-.181-.09-.363-.181-.363-.363zm95.004-128.757v-8.076a.39.39 0 01.363-.363.39.39 0 01.363.363v8.076c0 .181-.091.363-.363.363a.39.39 0 01-.363-.363zm0-16.151v-40.197a.39.39 0 01.363-.363c.181 0 .363.182.363.363v40.197c0 .182-.091.363-.363.363a.39.39 0 01-.363-.363zm0 64.424v-40.197a.39.39 0 01.363-.363.39.39 0 01.363.363v40.197c0 .182-.091.363-.363.363a.39.39 0 01-.363-.363zm0 16.061v-8.076a.39.39 0 01.363-.363.39.39 0 01.363.363v8.076c0 .181-.091.363-.363.363a.39.39 0 01-.363-.363zm0 48.273v-40.197a.39.39 0 01.363-.363.39.39 0 01.363.363v40.197c0 .182-.091.363-.363.363a.39.39 0 01-.363-.363zm0 16.15v-8.075a.39.39 0 01.363-.363.39.39 0 01.363.363v8.075c0 .182-.091.363-.363.363-.182-.09-.363-.181-.363-.363zM164.6 15.79h-.908c-.181.545-.544.998-1.089 1.09v23.773c0 .181-.09.363-.363.363-.181 0-.362-.182-.362-.363V16.879a1.35 1.35 0 01-1.089-1.089H99.177v24.863c0 .181-.09.363-.363.363a.39.39 0 01-.363-.363V15.79H72.772l.272.273c.091.09.091.181.091.272 0 .09 0 .181-.09.181-.091.182-.364.182-.454 0l-.272-.272v22.594c0 .181-.091.363-.273.363a.39.39 0 01-.363-.363V15.79h-1.996a.39.39 0 01-.363-.363.39.39 0 01.363-.363h1.543l-.273-.272c-.09-.09-.09-.363 0-.454.182-.181.364-.181.454 0l.272.273V9.076a.39.39 0 01.363-.363c.182 0 .273.181.273.363v5.988h26.314V.364c0-.18.09-.362.363-.362a.39.39 0 01.363.363v14.7h61.611a1.353 1.353 0 011.089-1.09V.456a.39.39 0 01.363-.362.39.39 0 01.363.362v13.52c.544.091.998.545 1.089 1.09h.907a.39.39 0 01.363.362c0 .182-.363.363-.544.363zm-2.722.363V15.7h-.363c.09.272.181.363.363.453zm-.363-1.089h.453v-.453c-.272.09-.363.272-.453.453zm1.088-.453v.453h.454c-.181-.181-.272-.363-.454-.453zm0 1.18v.453c.182-.09.363-.272.454-.454h-.454zM9.164 270.041a.39.39 0 01.363-.363h40.197a.39.39 0 01.363.363.39.39 0 01-.363.363H9.527a.39.39 0 01-.363-.363zm48.274 0a.39.39 0 01.362-.363h7.985a.39.39 0 01.363.363.39.39 0 01-.363.363h-7.984a.39.39 0 01-.364-.363zm257.515 0c0-.181.182-.363.363-.363h7.985a.39.39 0 01.363.363.39.39 0 01-.363.363h-7.985a.39.39 0 01-.363-.363zm16.152 0c0-.181.182-.363.273-.363h11.977c.182 0 .272.182.272.363 0 .182-.181.363-.272.363h-11.977c-.182 0-.273-.181-.273-.363zm-144.91 0c0-.181.091-.363.363-.363h7.985a.39.39 0 01.363.363c0 .182-.091.363-.363.363h-7.985a.39.39 0 01-.363-.363zm80.487 63.424c0-.181.09-.363.272-.363h40.288c.181 0 .363.182.363.363a.39.39 0 01-.363.363h-40.288c-.182-.091-.272-.272-.272-.363zm48.271 0c0-.181.182-.363.363-.363h7.985a.39.39 0 01.363.363.39.39 0 01-.363.363h-7.985c-.181-.091-.363-.272-.363-.363zm-64.334 0c0-.181.182-.363.363-.363h8.076c.181 0 .363.182.363.363a.39.39 0 01-.363.363h-8.076c-.181-.091-.363-.272-.363-.363zm-184.379 0a.39.39 0 01-.363.363h-7.985a.39.39 0 01-.363-.363.39.39 0 01.363-.363h7.985c.182 0 .363.091.363.363zm264.865 0c0-.181.182-.363.273-.363h11.977c.182 0 .272.182.272.363 0 .182-.181.363-.272.363h-11.977c-.182-.091-.273-.272-.273-.363zm-209.244 95.004c0-.181.182-.363.363-.363h8.076c.181 0 .363.182.363.363a.39.39 0 01-.363.363h-8.076c-.272 0-.363-.181-.363-.363zm144.821 0c0-.181.09-.363.272-.363h40.288c.181 0 .363.182.363.363a.39.39 0 01-.363.363h-40.288c-.182 0-.272-.181-.272-.363zm-16.063 0c0-.181.182-.363.363-.363h8.076c.181 0 .363.182.363.363a.39.39 0 01-.363.363h-8.076a.39.39 0 01-.363-.363zm80.486 0c0-.181.182-.363.273-.363h11.977c.182 0 .272.182.272.363 0 .182-.181.363-.272.363h-11.977c-.182 0-.273-.181-.273-.363zm-16.152 0c0-.181.182-.363.363-.363h7.985a.39.39 0 01.363.363.39.39 0 01-.363.363h-7.985a.39.39 0 01-.363-.363zM1.452 373.481l1.815 1.814c0 .091.09.182.09.273 0 .09 0 .181-.09.272L0 379.016v-.999l2.54-2.54-1.27-1.271L0 375.477v-.998l.998-.998c.182-.091.363-.091.454 0zm.363 54.988c0 .182-.091.363-.363.363H0v-.635h1.452c.272-.091.363.091.363.272zM3.54 580.002v-.272a.39.39 0 01.362-.363.39.39 0 01.363.363v.272h-.726z"/><path d="M161.878 580.002v-.272a.39.39 0 01.363-.363c.181 0 .362.181.362.363v.272h-.725zm63.607-495.07v-4.355l-2.903 1.452-.545-.545 3.448-1.724V67.874l-8.438 4.264 1.542-1.542 6.896-3.448V63.7l.726-.726v22.684l-.726-.725zm-8.438-12.884l-2.087 1.088-.817.454-.544-.544 2.812-1.452 2.087-.998-1.451 1.452zm-55.169 65.513v-10.344l.635-.636v11.706l-.635-.726zm-3.176-3.176v-4.991l.726-.726v6.443l-.726-.726zm100.266-85.748h-7.441v221.039h7.441c.181 0 .363.182.363.363a.39.39 0 01-.363.363h-7.441v31.94a.39.39 0 01-.363.363h-18.873l-6.443 6.352v23.955h16.878a.39.39 0 01.363.363.391.391 0 01-.363.363h-16.787v94.368h16.877a.39.39 0 01.363.363.39.39 0 01-.363.363h-16.877v151.17h-.726v-151.17h-18.329v151.17h-.635v-151.17h-3.63a.391.391 0 01-.363-.363c0-.182.091-.363.363-.363h3.63v-94.368h-3.63a.391.391 0 01-.363-.363c0-.182.091-.363.363-.363h3.63v-4.265l-18.329 18.329v80.939h6.623a.39.39 0 01.363.363c0 .181-.09.363-.363.363h-6.623v151.261h-.726v-151.17h-.726a.39.39 0 01-.363-.363c0-.182.09-.363.363-.363h.726v-80.304l-18.33 18.329v61.975h9.619a.39.39 0 01.363.363.391.391 0 01-.363.363h-9.619v151.17h-.635v-151.17h-29.943a.39.39 0 01-.363-.363.39.39 0 01.363-.363h29.943v-61.34l-5.716 5.626v6.17c0 .182-.091.363-.363.363a.39.39 0 01-.363-.363v-5.444l-54.988 54.988h7.169a.39.39 0 01.363.363.391.391 0 01-.363.363h-7.895l-7.077 7.077v7.078c0 .181-.091.363-.363.363a.39.39 0 01-.363-.363v-6.443L67.6 467.486v23.774a.39.39 0 01-.363.363.39.39 0 01-.363-.363v-23.048l-30.397 30.397c-.09.091-.363.091-.454 0l-4.446-4.446L7.804 470.39l-1.452 1.452-1.634 1.724-.544.544v17.15a.39.39 0 01-.363.363.39.39 0 01-.363-.363v-16.515L0 478.193v-.998l3.539-3.539v-7.622L0 462.586v-.998l3.539 3.539v-14.155a.39.39 0 01.363-.363.39.39 0 01.363.363v14.79l3.63 3.63 1.451-1.452a.257.257 0 01.454 0c0 .091.09.181.09.272 0 .091 0 .182-.09.272l-1.09 1.089h.364a.39.39 0 01.363.363.39.39 0 01-.363.363H8.62l.454.454.635.635 2.813 2.813 1.27 1.27 1.906-1.905-5.989-14.246-.272-.545-.998-2.359-.726.635-.454-.453.907-.908-5.535-12.885L0 445.437v-1.815l.544-.545H0v-.635h1.27l.908-.907H0v-.726h2.813l.635-.635v-.272H0v-.726h3.539v-.908H0v-.635h3.539v-.907H.726l-.726.635v-1.906l.363-.363H0v-.725h9.8v-1.18l-.091-.091.09-.09v-1.362l-.09-.09.09-.091v-1.361l-.09-.091.09-.091v-1.088h-.271a.39.39 0 01-.363-.363.39.39 0 01.363-.363H9.8v-1.18l-.091-.091v-4.264H4.174v4.355a.39.39 0 01-.363.363.39.39 0 01-.363-.363v-4.355H0v-.726h3.539v-10.707a1.353 1.353 0 01-1.09-1.089H0v-.636h2.36c.09-.635.544-.998 1.088-1.179v-21.505a.39.39 0 01.363-.363.39.39 0 01.363.363v21.505c.544.181.998.544 1.089 1.179h.907c.182 0 .363.091.363.273a.39.39 0 01-.363.363h-.907c-.09.544-.545.998-1.089 1.089v10.707h5.989a.39.39 0 01.363.363v2.903l34.934-34.934 4.446-4.446 2.269-2.269 2.268-2.268 29.127-29.127 2.269-2.269 12.794-12.794v-3.266h-3.539l-1.27 1.27a2.3 2.3 0 01-3.267 0l-1.27-1.27h-2.541l-18.238 18.329c-.182.272-.545.363-.817.544v9.891a.39.39 0 01-.363.363.39.39 0 01-.363-.363v-9.8c-.635 0-1.27-.182-1.815-.635l-5.807-5.898-.544-.545-11.887-11.886H9.528a.39.39 0 01-.363-.363.39.39 0 01.363-.363h36.567l-13.248-13.248a2.3 2.3 0 010-3.267l33.937-33.936V257.88a.39.39 0 01.362-.363.39.39 0 01.364.363v24.046l2.63-2.632.545-.544 8.348-8.348h-5.172a.39.39 0 01-.363-.363.39.39 0 01.363-.363h5.807l30.126-30.125a2.3 2.3 0 013.266 0l3.993 3.992 2.54-2.54a2.3 2.3 0 013.267 0l15.335 15.335v-44.009l-.272.273c-.182.09-.363.09-.454 0-.182-.182-.182-.363 0-.454l.272-.272h-5.535a.391.391 0 01-.363-.363.39.39 0 01.363-.363h5.989v-1.996a.39.39 0 01.363-.363.39.39 0 01.363.363v1.542l.272-.272c.091-.091.363-.091.454 0 .09.091.09.181.09.272 0 .091 0 .182-.09.272l-.273.273h13.248c.182 0 .363.181.363.362 0 .182-.091.363-.363.363H138.83v45.007l4.265 4.264.544.545 5.898 5.898c.454.454.726.998.726 1.633 0 .182-.091.363-.091.545h5.445V48.818H140.1a1.35 1.35 0 01-1.089 1.09v56.348l.273-.272c.09-.182.363-.182.453 0 .091.091.091.181.091.272 0 .091 0 .182-.091.272l-.272.272h13.248c.181 0 .363.182.363.363 0 .182-.091.363-.363.363h-13.792v1.997a.391.391 0 01-.363.363.39.39 0 01-.363-.363v-1.543l-.272.272c-.182.091-.363.091-.454 0-.182-.09-.182-.363 0-.453l.272-.273h-5.535c-.181 0-.363-.09-.363-.363 0-.181.182-.363.363-.363h5.989V49.998a1.352 1.352 0 01-1.089-1.089H99.177v8.076c0 .181-.09.363-.363.363a.39.39 0 01-.363-.363v-8.076H67.51v8.076a.39.39 0 01-.364.363.39.39 0 01-.362-.363v-8.076H4.174v8.076a.39.39 0 01-.363.363.39.39 0 01-.363-.363v-8.076H0v-.726h17.785v-2.54H0v-.726h17.785v-.908H0v-.726h17.785v-.907H0v-.635h196.63c.182-1.996 1.906-3.63 3.902-3.63 2.087 0 3.72 1.634 3.902 3.63h46.821a.39.39 0 01.363.363v5.989h7.441c.181 0 .362.09.362.363-.09 0-.272.181-.453.181zM6.624 469.573h.363l-2.813-2.813v6.261l1.633-1.633 1.09-1.089h-.273a.39.39 0 01-.363-.363.39.39 0 01.363-.363zm-3.085-34.39h-1.27l-.817.908h2.087v-.908zm0-26.314a1.093 1.093 0 00-.454.454h.454v-.454zm0 1.089h-.454c.09.181.272.363.454.454v-.454zm.635-1.089v.454h.454c-.091-.272-.273-.454-.454-.454zm.454 1.089h-.454v.363c.181 0 .363-.182.454-.363zM65.967 48.002h2.45v-2.54h-2.45v2.54zm-44.371 0h43.736v-.908H21.596v.908zm0-1.633h43.736v-.908H21.596v.908zm-.635-4.084H18.42v2.541h2.54v-2.54zm0 3.176H18.42v2.54h2.54v-2.54zm47.456-3.176H21.596v2.541h46.82v-2.54zm3.176 0h-2.45v5.626h2.45v-5.626zm6.351 0h-5.716v5.626h5.716v-5.626zm.726.636v.816l.817-.817h-.817zm1.724 0l-1.814 1.724v1.27l2.994-2.995h-1.18zm2.178 0l-3.992 3.992v.454h.907l4.446-4.356h-1.36v-.09zm2.36 0l-4.447 4.355h1.27l4.447-4.356h-1.27zm2.177 0l-4.355 4.355h1.27l4.446-4.356h-1.36zm2.269 0l-4.356 4.355h1.18l4.355-4.356h-1.18zm2.177 0L87.2 47.275h1.27l4.356-4.356h-1.27zm2.269 0l-4.356 4.355h1.27l4.356-4.356h-1.27zm2.268 0l-4.446 4.446h1.27l4.356-4.356h-1.18v-.09zm2.269 0l-4.447 4.355h1.27l4.447-4.356h-1.27zm2.177 0l-4.355 4.446h1.27l4.356-4.356h-1.271v-.09zm2.269 0l-4.356 4.355h1.27l4.356-4.356h-1.27zm2.268 0l-4.355 4.355h1.27l4.356-4.356h-1.271zm2.178 0l-4.355 4.355h1.27l4.355-4.356h-1.27zm2.268 0l-4.355 4.355h1.27l4.356-4.356h-1.271zm2.269 0l-4.356 4.355h1.271l4.355-4.356h-1.27zm2.178 0l-4.356 4.355h1.27l4.356-4.356h-1.27zm2.268 0l-4.355 4.355h1.27l4.446-4.356h-1.361zm2.269 0l-4.447 4.355h1.271l4.355-4.356h-1.179zm2.177 0l-4.355 4.355h1.27l4.356-4.356h-1.271zm2.269 0l-4.446 4.355h1.27l4.446-4.356h-1.27zm2.268 0l-4.355 4.355h1.27l4.356-4.356h-1.271zm2.178 0l-4.356 4.355h1.271l4.355-4.356h-1.27zm11.614 6.17c.182-.09.363-.273.454-.454h-.454v.454zm-.725 0v-.454h-.454c.091.181.272.363.454.454zm-8.621-6.17l-4.355 4.355h1.27l4.446-4.356h-1.361zm2.269 0l-4.356 4.355h1.271l4.355-4.356h-1.27zm2.178 0l-4.356 4.446h1.27l4.356-4.356h-1.27v-.09zm2.268 0l-4.355 4.355h1.27l4.446-4.356h-1.361zm2.268 0l-4.446 4.355h1.271l4.355-4.356h-1.18zm2.269 0l-4.355 4.355h.998c.181-.272.453-.363.726-.454l.09-.09v-.908a.39.39 0 01.363-.363.39.39 0 01.363.363v.182l3.176-3.176h-1.361v.09zm2.178 0l-3.993 3.992c.272.09.454.272.635.454h.182l4.446-4.356h-1.27v-.09zm2.268 0l-4.446 4.355h1.27l4.356-4.356h-1.18zm2.269 0l-4.356 4.355h1.27l4.356-4.356h-1.27zm2.177 0l-4.355 4.355h1.27l4.446-4.356h-1.361zm2.269 0l-4.356 4.355h1.271l4.355-4.356h-1.27zm3.539 0h-1.271l-4.355 4.355h1.27l4.356-4.356zm0 .998l-3.448 3.448h1.27l2.087-2.178v-1.27h.091zm0 2.268l-1.18 1.18h1.18v-1.18zm89.559 255.883h5.625v-5.626h-5.625v5.626zm.725-80.667v1.271l2.904-2.995h-1.27l-1.634 1.724zm.726-1.633h-.726v.726l.726-.726zm-.726 3.902v1.27l4.356-4.355v-.817h-.454l-3.902 3.902zm0 2.268v1.271l4.356-4.447v-1.27l-4.356 4.446zm0 2.178v1.27l4.356-4.355v-1.271l-4.356 4.356zm0 2.268v1.271l4.356-4.356v-1.27l-4.356 4.355zm0 2.269v1.27l4.356-4.355v-1.271l-4.356 4.356zm0 2.178v1.27l4.356-4.356v-1.27l-4.356 4.356zm0 2.268v1.27l4.356-4.355v-1.27l-4.356 4.355zm0 2.268v1.271l4.356-4.356v-1.27l-4.356 4.355zm0 2.178v1.271l4.356-4.356v-1.27l-4.356 4.355zm0 2.269v1.27l4.356-4.355v-1.271l-4.356 4.356zm0 2.268v1.27l4.356-4.355v-1.27l-4.356 4.355zm0 2.178v1.27l4.356-4.355v-1.271l-4.356 4.356zm0 2.268v1.271l4.356-4.356v-1.27l-4.356 4.355zm0 2.269v1.27l4.356-4.355v-1.271l-4.356 4.356zm0 2.178v1.27l4.356-4.356v-1.27l-4.356 4.356zm0 2.268v1.27l4.356-4.355v-1.27l-4.356 4.355zm0 2.268v1.271l4.356-4.356v-1.27l-4.356 4.355zm0 2.178v1.27l4.356-4.355v-1.27l-4.356 4.355zm0 2.269v1.27l4.356-4.356v-1.27l-4.356 4.356zm0 2.268v1.27l4.356-4.355v-1.27l-4.356 4.355zm0 2.269v1.27l4.356-4.356v-1.27l-4.356 4.356zm0 2.177v1.271l4.356-4.356v-1.27l-4.356 4.355zm0 2.269v1.27l4.356-4.355v-1.271l-4.356 4.356zm0 2.268v1.271l4.356-4.356v-1.27l-4.356 4.355zm0 2.178v1.361l4.356-4.446v-1.271l-4.356 4.356zm0 2.268v1.271l4.356-4.356v-1.27l-4.356 4.355zm0 2.269v1.27l4.356-4.446v-1.27l-4.356 4.446zm0 2.178v1.27l4.356-4.446v-1.271l-4.356 4.447zm0 2.268v1.27l4.356-4.355v-1.27l-4.356 4.355zm0 2.269v1.27l4.356-4.356v-1.27l-4.356 4.356zm0 2.268v1.27l4.356-4.355v-1.27l-4.356 4.355zm0 2.178v1.27l4.356-4.355v-1.271l-4.356 4.356zm0 2.268v.363h.908l3.539-3.539v-1.27l-4.447 4.446zm1.815.363h1.271l1.27-1.27v-1.271l-2.541 2.541zm2.269 0h.272v-.272l-.272.272zm-4.809-76.674h5.625v-5.626h-5.625v5.626zm-.636 82.391v-.182l-.181.182h.181zm-1.089 0l1.089-1.089v-1.271l-2.45 2.36h1.361zm-2.268 0l3.357-3.358v-.998h-.272l-4.355 4.356h1.27zm-2.268 0l4.446-4.356h-1.271l-3.175 3.176v1.18zm0-2.178l2.268-2.178h-1.27l-.908.908v1.27h-.09zm0-29.581h3.992a.39.39 0 01.363.363.39.39 0 01-.363.363h-3.992v25.316h5.625V219.77h-5.625v49.906zm3.175-51.267h1.271l1.089-1.089v-1.27l-2.36 2.359zm2.45-3.357v-.999h-.272l-4.355 4.356h1.27l3.357-3.357zm-.181 3.357h.181v-.182l-.181.182zm-5.444 0l4.446-4.356h-1.271l-3.175 3.176v1.18zm0-2.178l2.268-2.178h-1.27l-.908.908v1.27h-.09zm-6.352 85.839h5.626v-5.626h-5.626v5.626zm.635-80.667v1.271l2.994-2.995h-1.27l-1.724 1.724zm.726-1.633h-.726v.726l.726-.726zm-.726 3.902v1.27l4.355-4.355v-.817h-.453l-3.902 3.902zm0 2.268v1.271l4.355-4.447v-1.27l-4.355 4.446zm0 2.178v1.27l4.355-4.355v-1.271l-4.355 4.356zm0 2.268v1.271l4.355-4.356v-1.27l-4.355 4.355zm0 2.269v1.27l4.355-4.355v-1.271l-4.355 4.356zm0 2.178v1.27l4.355-4.356v-1.27l-4.355 4.356zm0 2.268v1.27l4.355-4.355v-1.27l-4.355 4.355zm0 2.268v1.271l4.355-4.356v-1.27l-4.355 4.355zm0 2.178v1.271l4.355-4.356v-1.27l-4.355 4.355zm0 2.269v1.27l4.355-4.355v-1.271l-4.355 4.356zm0 2.268v1.27l4.355-4.355v-1.27l-4.355 4.355zm0 2.178v1.27l4.355-4.355v-1.271l-4.355 4.356zm0 2.268v1.271l4.355-4.356v-1.27l-4.355 4.355zm0 2.269v1.27l4.355-4.355v-1.271l-4.355 4.356zm0 2.178v1.27l4.355-4.356v-1.27l-4.355 4.356zm0 2.268v1.27l4.355-4.355v-1.27l-4.355 4.355zm0 2.268v1.271l4.355-4.356v-1.27l-4.355 4.355zm0 2.178v1.27l4.355-4.355v-1.27l-4.355 4.355zm0 2.269v1.27l4.355-4.356v-1.27l-4.355 4.356zm0 2.268v1.27l4.355-4.355v-1.27l-4.355 4.355zm0 2.269v1.179l4.355-4.355v-1.271l-4.355 4.447zm1.543 1.905h-1.271l-.272.272v1.271l1.543-1.543zm-1.543 2.541v1.27l3.811-3.811h-1.27l-2.541 2.541zm.907-3.267h1.271l2.087-2.087v-1.27l-3.358 3.357zm2.269 0h1.179v-1.179l-1.179 1.179zm-3.176 5.535v1.271l4.355-4.356v-1.27l-4.355 4.355zm0 2.178v1.361l4.355-4.446v-1.271l-4.355 4.356zm0 2.268v1.271l4.355-4.356v-1.27l-4.355 4.355zm0 2.269v1.27l4.355-4.446v-1.27l-4.355 4.446zm0 2.178v1.27l4.355-4.446v-1.271l-4.355 4.447zm0 2.268v1.27l4.355-4.355v-1.27l-4.355 4.355zm.907 1.27h.454a.39.39 0 01.363.363.39.39 0 01-.363.363h-1.089l-.181.182c.091.09.091.181.091.181 0 .091-.091.182-.091.272h-.091v.817l4.355-4.355v-1.271l-3.448 3.448zm-.907 3.267v1.27l4.355-4.355v-1.27l-4.355 4.355zm0 2.178v1.27l4.355-4.355v-1.271l-4.355 4.356zm0 2.268v.363h.907l3.448-3.539v-1.27l-4.355 4.446zm1.815.363h1.27l1.27-1.27v-1.271l-2.54 2.541zm2.268 0h.272v-.272l-.272.272zm-4.718-76.674h5.626v-5.626h-5.626v5.626zm-1.452 67.872c.182-.09.363-.09.454 0l.272.273v-16.787h-5.626v17.24h5.172l-.272-.272c-.091-.091-.091-.272 0-.454zm.726-17.24v-24.681h-5.626v24.681h5.626zm-24.862 158.43h18.329v-94.368h-18.329v94.368zm0-95.004h18.329v-23.229l-18.329 18.329v4.9zm24.862-30.851v-13.883h-5.626v11.433c0 .091 0 .182-.091.182l-33.119 33.119h1.542a.39.39 0 01.363.363c0 .182-.09.363-.363.363h-2.177l-5.445 5.445 3.993 3.992 40.923-41.014zm-6.352-133.022l-21.323 10.616-.726.363-2.632 1.361v11.887l10.617-5.263.635-.363 8.892-4.446 2.087-.998 2.45-1.271v-11.886zm0-88.743l-2.903 1.452-.726.363-21.052 10.526v11.887l24.681-12.341V80.486zm-56.53 49.906l31.305 12.522v-12.068l-29.944-11.977-.726-.273-.544-.181v11.977h-.091zm-7.077-16.786h-.908v43.645h.908v-43.645zm0-15.607v-1.27l-3.539 3.538h1.27l2.269-2.268zm-1.271 2.268h1.271v-1.27l-1.271 1.27zm1.271-4.537v-1.27l-4.991 4.99v.727h.544l4.447-4.447zm0-2.177v-1.27l-4.991 4.99v1.27l4.991-4.99zm0-2.269v-1.27l-4.991 4.99v1.27l4.991-4.99zm0-2.268v-1.27l-4.991 4.99v1.27l4.991-4.99zm0-2.178v-1.27l-4.991 4.99v1.27l4.991-4.99zm0-2.268V83.3l-4.991 4.99v1.27l4.991-4.99zm0-2.269v-1.27l-4.991 4.99v1.27l4.991-4.99zm0-2.268v-1.27l-4.991 4.99v1.27l4.991-4.99zm0-2.178v-1.27l-4.991 4.99v1.27l4.991-4.99zm0-2.269v-1.27l-4.991 4.99v1.271l4.991-4.99zm0-2.268v-1.27l-4.991 4.99v1.27l4.991-4.99zm0-2.178v-1.27l-4.991 4.99v1.27l4.991-4.99zm0-2.268v-1.27l-4.991 4.99v1.27l4.991-4.99zm0-2.269v-1.27l-4.991 4.99v1.27l4.991-4.99zm0-2.177v-1.27l-4.991 4.99v1.27l4.991-4.99zm0-2.269v-1.27l-4.991 4.99v1.27l4.991-4.99zm0-2.268v-1.27l-4.991 4.99v1.27l4.991-4.99zm0-2.178v-1.27l-4.991 4.99v1.27l4.991-4.99zm0-2.269v-.453h-.817l-4.174 4.174v1.27l4.991-4.99zm-1.724-.453h-1.271l-1.905 1.996v1.27l3.176-3.266zm-2.269 0h-.998v.998l.998-.998zm3.993-.726v-5.626h-5.626v5.626h5.626zm-5.626 102.988h2.45V110.43h-2.45v46.821zm4.083-43.645h-.907v43.645h.907v-43.645zm-4.083 91.827v2.541h2.45v-2.541h-2.45zm2.45-.635v-43.645h-.908v43.645h.908zm-1.543 0v-43.645h-.907v43.645h.907zm1.543-44.371v-2.45h-2.45v2.45h2.45zm.726-2.45v2.45h2.45v-2.45h-2.45zm0 3.176v46.821h2.45v-46.821h-2.45zm-3.176 47.456v2.541h5.626v-2.541h-5.626zm0 3.176v5.626h5.626v-5.626h-5.626zm1.633 6.352h-.998v.998l.998-.998zm-.998 1.996v1.27l3.267-3.266h-1.271l-1.996 1.996zm4.174-1.996l-4.174 4.264v1.271l4.991-4.991v-.454h-.817v-.09zm-4.174 6.442v1.27l4.991-4.99v-1.271l-4.991 4.991zm0 2.269v1.27l4.991-4.991v-1.27l-4.991 4.991zm0 2.177v1.271l4.991-4.991v-1.27l-4.991 4.99zm0 2.269v1.27l4.991-4.991v-1.27l-4.991 4.991zm0 2.268v1.271l4.991-4.991v-1.27l-4.991 4.99zm0 2.178v1.27l4.991-4.99v-1.271l-4.991 4.991zm0 2.268v1.271l4.991-4.991v-1.27l-4.991 4.99zm0 2.269v1.27l4.991-4.99v-1.271l-4.991 4.991zm0 2.178v1.27l4.991-4.991v-1.27l-4.991 4.991zm0 2.268v1.27l4.991-4.99v-1.271l-4.991 4.991zm-.635-135.019h5.626v-2.541h-5.626v2.541zm3.176.726v2.45h2.45v-2.45h-2.45zm2.45 131.571l-4.991 4.991v1.27l4.991-4.991v-1.27zm.725 3.72v1.271l5.082-4.991v-1.27l-5.082 4.99zm4.991-5.989v-1.27l-5.081 4.991v1.27l5.081-4.991zm-4.991 8.258v1.27l5.082-4.991v-1.27l-5.082 4.991zm0 2.268v1.27l5.082-4.99v-1.271l-5.082 4.991zm0 2.178v1.27l5.082-4.99v-1.271l-5.082 4.991zm0 2.268v1.271l5.082-4.991v-1.27l-5.082 4.99zm0 2.269v1.27l5.082-4.991v-1.27l-5.082 4.991zm0 2.177v1.271l5.082-4.991v-1.27l-5.082 4.99zm0 2.269v1.27l5.082-4.99v-1.271l-5.082 4.991zm.273 1.996h1.27l3.448-3.448v-1.27l-4.718 4.718zm2.268 0h1.27l1.18-1.179v-1.271l-2.45 2.45zm2.178 0h.272v-.272l-.272.272zm-4.719.635v5.626h5.717v-5.626h-5.717zm0 6.352v5.626h5.717v-5.626h-5.717zm1.815 8.802l.908-.908h-2.723v.908h1.815zm-1.815.635v.907h.273l.907-.907h-1.18zm3.449-2.269l.907-.907h-4.265v.907h3.358zm-3.449 5.263v10.435c.091 0 .182 0 .273-.091l.544.545-.817.272v1.18l2.632 2.631-.545.545-2.087-1.997v1.724c0 .182-.09.363-.362.363a.39.39 0 01-.363-.363v-2.359l-1.906-1.905.363-.363c.454.181.998.09 1.543 0v-9.891l-15.335 15.335 4.537 4.446c0-.454.181-.817.544-1.179.998-.999 2.269-.726 3.902.907 1.542 1.542 1.815 2.904.817 3.902-.363.363-.817.453-1.18.544l2.359 2.359 21.505-21.505h-9.618l.272.273c.091.09.091.181.091.181 0 .091-.091.181-.091.272-.091.091-.363.091-.454 0l-.272-.272v5.535a.39.39 0 01-.363.363.39.39 0 01-.363-.363v-5.989h-1.996a.39.39 0 01-.363-.363c0-.181.182-.363.363-.363h1.543l-.273-.272c-.09-.181-.09-.363 0-.454.091-.09.363-.09.454 0l.272.273v-7.622c0-.182.091-.363.363-.363a.39.39 0 01.363.363v8.075h10.707l2.904-2.903.635-.635c-.181-.273-.181-.454-.181-.817 0-.272.09-.545.181-.817l-.635-.635-11.524-11.524h-2.087v5.989c0 .091 0 .182-.091.272l-6.261 6.261zm-.725 11.796v-.363c-.091 0-.182.091-.363.091l.363.272zm-4.991-43.191v1.27l4.991-4.991v-1.27l-4.991 4.991zm4.991-5.989v-1.27l-4.991 4.99v1.271l4.991-4.991zm-4.991 8.257v1.271l4.991-4.991v-1.27l-4.991 4.99zm0 2.269v1.27l4.991-4.991v-1.27l-4.991 4.991zm0 2.177v1.271l4.991-4.991v-1.27l-4.991 4.99zm0 2.269v1.27l4.991-4.99v-1.271l-4.991 4.991zm0 2.268v.726h.544l4.447-4.446v-1.27l-4.991 4.99zm1.543.726h1.27l2.268-2.268v-1.271l-3.538 3.539zm2.177 0h1.271v-1.27l-1.271 1.27zm-4.355.635v5.626h5.626v-5.626h-5.626zm0 6.352v5.626h5.626v-5.626h-5.626zm4.446 6.352l-.817.907h2.087v-.907h-1.27zm-1.633 1.542l-.908.908h3.721v-.908h-2.813zm-1.543 1.543l-.907.907h5.263v-.907h-4.356zm-1.542 1.633l-.908.908h6.17l.636-.636v-.272h-5.898zM57.165 383.825l-1.996 1.996 1.724 1.725 9.981-9.982v-3.539l-9.709 9.8zm9.71-10.707v-1.27l-10.617 10.616.635.635 9.981-9.981zM12.34 431.281l.908-.907h-2.722v.907h1.814zm-1.814.636v.907h.272l.907-.907h-1.18zm3.448-2.269l.816-.907h-4.264v.907h3.448zm-1.906 3.72l2.178 5.082 10.798 10.798.635.635c.181-.182.454-.272.817-.272.272 0 .544.09.816.272l.636-.635 2.087-2.087-7.895-18.329h-5.535l-4.537 4.536zm9.346 13.611c1.634 1.543 1.815 2.904.908 3.902-.726.726-1.634.726-2.541.181l5.535 12.976 8.439-8.439-3.358-7.712-.181.181-1.724 1.633-.635.636c.181.272.272.453.272.816 0 .272-.09.545-.272.817l.635.635 2.813 2.813c0 .091.09.181.09.272 0 .091 0 .182-.09.272-.182.091-.363.091-.454 0l-3.448-3.448c-.272.182-.544.273-.817.273-.272 0-.544-.091-.816-.273l-.635.635c-.182.182-.363.182-.454 0-.182-.09-.182-.362 0-.453l.635-.635c-.181-.273-.272-.454-.272-.817 0-.272.09-.544.272-.817l-10.253-10.253 2.631 5.989c.907-.999 2.178-.726 3.72.816zm-3.539-.181l1.18 2.722c1.27 1.18 2.087 1.542 2.722.907.635-.635.272-1.542-.907-2.813-.726-.725-1.27-1.088-1.724-1.27-.454-.091-.817-.091-1.089.272-.09.091-.09.182-.181.182zm49.362-12.25a.39.39 0 01.363.363v7.622l11.252 3.72 8.438-8.438-26.132-8.711-8.439 8.438 14.155 4.719v-7.441c0-.09.182-.272.363-.272zm38.473-15.153l7.169-7.078 1.27-1.27-14.881-4.991v11.252l6.442 2.087zm-6.533-1.361v7.894l5.898-5.898-5.898-1.996zm14.337-7.985l-.635-.636-13.611-13.61v9.527l14.246 4.719zm-.182-1.089l1.089 1.089v-.363c0-.182.182-.363.273-.363.181 0 .362.181.362.363v.363l7.985-7.985-23.864-7.985v.816l14.155 14.065zm10.254-7.441l8.439-8.438-26.133-8.711-6.624 6.624v2.359l24.318 8.166zm62.972-68.417h5.445l33.482-33.482v-11.252h-45.55l-17.513 17.513c.091.091.181.181.181.272v8.076c0 .181-.09.363-.272.363l6.533 6.533 17.694 17.694 4.991-4.991h-4.809a.39.39 0 01-.363-.363c0-.181 0-.363.181-.363zm-1.27-48.454c-.272.181-.454.272-.817.272-.272 0-.544-.091-.816-.272l-.635.635-2.36 2.359h7.713l-2.359-2.359-.726-.635zm0-1.27c0-.091 0-.182-.091-.273l-.272.273.272.363c.091-.182.091-.273.091-.363zm-.817.453l-.272.273c.091 0 .182.09.272.09.091 0 .182 0 .273-.09l-.273-.273zm.363-1.27c-.09 0-.181-.091-.272-.091-.091 0-.181 0-.272.091l.272.272.272-.272zm-.816.817l-.272-.273c0 .091-.091.182-.091.273 0 .09 0 .181.091.363l.272-.363zm-14.791 49.724h9.256c.181 0 .363.182.363.363a.39.39 0 01-.363.363h-7.259l13.973 4.628-16.696-16.696-5.898 5.898v3.176l6.624 2.268zm-6.624-1.542v1.452h4.537l-4.537-1.452zm6.534 2.178h-6.534v9.073l14.791 4.9 8.439-8.438-16.696-5.535zm-6.534 9.799v11.252l5.898 1.905 8.439-8.438-14.337-4.719zm0 11.978v7.077l5.354-5.353-5.354-1.724zm0-33.21v4.446l5.445-5.445-10.526-10.525-4.174 4.174 6.261 14.699 2.269-2.268v-5.172a.39.39 0 01.363-.363c.181.091.362.181.362.454zm-.725-8.167v-7.713l-3.902 3.902 3.902 3.811zm-7.985-6.987c-.454-.272-.908-.544-1.452-1.089-.545-.544-.817-.998-1.089-1.452l-4.265-4.264 5.989 13.883 3.992-3.993-3.175-3.085zm1.996-.726c.635-.635.272-1.542-.998-2.813-.635-.726-1.271-1.089-1.724-1.27-.454-.091-.817 0-1.089.272-.454.454-.363 1.089.181 1.815l1.815 1.815c.726.635 1.361.635 1.815.181zm-33.846 26.677l-2.903-6.805-6.715 6.715h1.724a.39.39 0 01.363.363.39.39 0 01-.363.363h-2.45l-.998.998 13.157 30.669 8.439-8.438-9.981-23.32h-.091a.39.39 0 01-.363-.363l.181-.182zm-2.994-7.712l-.635-.636-8.348 8.348h1.27l7.713-7.712zm-8.892 9.89l-8.439 8.439 13.157 30.669 8.439-8.438-13.157-30.67zm.544-1.542h-1.27l-10.254 10.253v1.27l11.524-11.523zm-2.178 0h-1.27l-7.985 7.985v1.27l9.255-9.255zm.635-.636l8.802-8.801-.635-.635-9.437 9.436h1.27zm9.528-9.073l.907.907 1.724-1.724-1.724-1.724-1.724 1.724.817.817zm1.18 1.633l-.182.181 3.085 7.259h7.532c.181 0 .362.182.362.363 0 .182-.181.363-.362.363h-7.169l9.8 22.776 8.439-8.439-6.261-14.7-.908.908c-.181.09-.363.09-.453 0a.257.257 0 010-.454l1.088-1.089h-.544a.39.39 0 01-.363-.363c0-.181.182-.363.363-.363l-.272-.544-.545-.545-9.436-9.618-1.997 1.996-2.177 2.269zm39.743 4.99l-2.45 2.45h4.719v-1.724l-2.269-.726zm2.269 0v-2.268l-1.724 1.724 1.724.544zm-5.626 2.45l2.903-2.903-6.261-14.7-8.438 8.439 3.902 9.164h7.894zm-7.622.636l2.087 4.809 4.809-4.809h-6.896zm7.894 0L151.261 339l10.707 3.539v-8.801h-5.444zm-5.807 5.807l-8.439 8.439 19.69 6.533v-11.252l-11.251-3.72zm-.545-.454l-2.268-5.353h-9.618a.39.39 0 01-.363-.363.39.39 0 01.363-.363h9.346l-3.721-8.711-6.442 6.533-1.089 1.089h.363c.181 0 .272.181.272.363 0 .181-.091.363-.272.363h-.363l3.902 3.901c.091.091.091.182.091.273 0 .09 0 .181-.091.272-.182.091-.363.091-.454 0l-2.813-2.813-1.452-1.452h-.09l6.261 14.7 8.438-8.439zm-16.786-9.346l-5.354-12.431-3.539 3.539 8.893 8.892zm-5.263-14.246l.816-.817h-1.633l.817.817zm1.452-1.452l.907-.907h-4.718l.907.907h2.904zm-.817 2.632l-.181.181 6.079 14.155.817.817 1.451-1.452 6.715-6.624-6.533-15.334-8.348 8.257zm15.335 6.533l8.438-8.439-6.533-15.335-8.438 8.439 6.533 15.335zm18.148 39.653a.39.39 0 01-.363-.363v-7.259l-20.144-6.715-8.439 8.439 26.133 8.711 2.903-2.904s0 .091-.09.091zm-29.491-5.354l-8.347 8.439 26.132 8.711 8.439-8.439-26.224-8.711zm-8.892 8.983l-8.439 8.439 26.133 8.711 8.439-8.439-26.133-8.711zm-8.983 8.893l-8.439 8.438 26.133 8.711 8.348-8.439-26.042-8.71zm-9.437 8.529l-13.157-30.67-1.543 1.543-2.268 2.268-4.718 4.719 13.157 30.669 1.633-1.633v-4.083c0-.182.09-.363.363-.363a.39.39 0 01.363.363v3.448l6.17-6.261zm-24.136 3.63c-.454.544-.817.998-.908 1.27-.09.454 0 .816.273 1.089.362.363.907.363 1.633 0l-.998-2.359zm1.633 1.905c.181-.181.363-.272.635-.544 1.27-1.271 1.634-2.178.998-2.813-.544-.545-1.451-.273-2.722.816l1.089 2.541zm-1.452-3.267c1.361-1.27 2.54-1.451 3.448-.544.998.998.726 2.268-.816 3.902-.273.272-.545.544-.817.726l1.724 3.992c0-.544.272-1.089.726-1.542a2.758 2.758 0 011.452-.726 1.503 1.503 0 011.452.544c.453.454.635.998.453 1.724.635-.635.998-1.179 1.09-1.633.09-.454 0-.908-.364-1.18-.454-.453-.907-.453-1.452 0l-.544-.544c.454-.272.817-.454 1.27-.454.454 0 .817.182 1.18.635.544.545.726 1.089.544 1.815-.09.726-.544 1.452-1.451 2.359-1.452 1.452-2.723 1.724-3.812.635l2.36 5.535 1.633-1.633c-.181-.091-.272-.091-.363-.272-.998-.998-.726-2.268.817-3.902 1.633-1.542 2.903-1.815 3.901-.816.091.09.182.272.273.363l2.177-2.087-20.507-20.507-.453-.454 6.08 14.064zm4.628 9.165a1.3 1.3 0 00.907.363c.363 0 .726-.181.998-.544.273-.273.454-.636.454-.999s-.09-.635-.363-.907c-.272-.272-.544-.363-.998-.363-.363 0-.635.182-.907.454-.273.272-.454.635-.545 1.089.09.272.182.635.454.907zm11.977-1.633l.454.453v-.272l-.454-.181zm.454-.545v-1.452l-1.089 1.089 1.09.363zm-1.724.273l-2.268 2.359c.09.816-.273 1.724-1.361 2.813-1.09 1.088-1.997 1.451-2.813 1.361l-1.815 1.814 10.072 3.358v-9.981l-1.815-1.724zm-3.085 2.087c-.09-.182-.09-.273-.272-.454-.635-.635-1.543-.272-2.813.998-.635.726-1.09 1.27-1.18 1.724-.09.454-.09.817.182 1.089a.69.69 0 00.453.181l3.63-3.538zm-2.36 3.357c.364-.182.727-.545 1.18-.908.454-.453.726-.816.908-1.179l-2.087 2.087zm-3.357 3.448l-8.438 8.439 18.964 6.351v-11.342l-10.526-3.448zm-11.705-30.307l19.509 19.509-12.522-29.309-6.896 6.897-1.452 1.451 1.361 1.452zm22.231 45.732l-19.509-6.533-8.438 8.439 25.316 8.439h1.088l1.543-1.543v-8.802zm-32.303-5.716l-8.439 8.439 3.358 7.712h.09l5.626-5.716v-8.983l-.635-1.452zm.635-.272v-.454l-.09.091.09.363zm-.453-.998l.453-.363v-7.441l-6.533-6.533 6.08 14.337zm.453-8.711v-15.426a.39.39 0 01.363-.363.39.39 0 01.363.363v16.152l3.448 3.448 1.452-1.452a.257.257 0 01.454 0c.09.091.09.181.09.272 0 .091 0 .182-.09.182l-1.09 1.088h.364c.181 0 .363.091.363.363a.39.39 0 01-.363.363h-.363l.454.454.635.635 2.813 2.813c.09.091.09.182.09.272 0 .091 0 .182-.09.272-.091.091-.363.091-.454 0l-3.448-3.448-.817-.816-1.451 1.452-1.997 2.087v2.722l2.54 5.898 8.44-8.439-13.248-30.851-8.257 8.257-.273.272 2.723 6.171 7.35 7.259zm2.995 4.355h.363l-1.09-1.089-1.542-1.542v5.988l1.543-1.542 1.089-1.089h-.363a.39.39 0 01-.363-.363c0-.272.181-.363.363-.363zm-2.269 8.62v6.715l1.997-1.996-1.997-4.719zm28.22 13.793H73.952a.39.39 0 01-.363-.363.39.39 0 01.363-.363h19.872l-23.683-7.895-2.54 2.541v4.174a.39.39 0 01-.364.363.39.39 0 01-.363-.363v-3.448l-4.718 4.718h3.72a.39.39 0 01.363.363.39.39 0 01-.363.363h-3.72l25.679 8.53 8.439-8.439-.454-.181zm-35.297 0H57.8a.39.39 0 01-.362-.363.39.39 0 01.362-.363h2.541l-3.085-7.169-7.26 7.259c.092.091.092.091.092.273a.39.39 0 01-.363.363h-.363l-.635.635 3.266 7.803 8.53-8.438zm-12.25 1.088l-8.439 8.439 3.357 7.804 8.44-8.439-3.358-7.804zm-12.522-1.088l3.811 8.892 8.439-8.439-.182-.453H35.751zm8.983-1.271c.635-.635.272-1.542-.998-2.813-.635-.726-1.27-1.089-1.724-1.27-.454-.091-.817 0-1.089.272-.635.635-.272 1.543.998 2.813 1.18 1.27 2.178 1.633 2.813.998zm-5.716 10.617l-3.993-9.437H22.957l7.622 17.875 8.439-8.438zm-8.167 9.164l3.357 7.713 8.44-8.439-3.358-7.712-8.439 8.438zm12.34-.272l-8.438 8.439 26.223 8.711 5.898-5.989v-3.267l-23.682-7.894zm-8.983 8.983l-8.438 8.439 26.132 8.711 8.44-8.439-26.134-8.711zm-8.983 8.983l-8.438 8.439 26.132 8.711 8.439-8.439-26.133-8.711zm2.178-13.883c0-.091 0-.181-.09-.272l-.364.272.363.272c.091 0 .091-.09.091-.272zm-.817.545l-.363.363c.091 0 .182.09.363.09.091 0 .182 0 .273-.09l-.273-.363zm.273-1.271c-.091-.09-.182-.09-.273-.09-.09 0-.181 0-.363.09l.363.273.273-.273zm-.817.726l-.272-.272c0 .091-.091.181-.091.272 0 .091 0 .182.09.272l.273-.272zm-4.083-23.047l-1.361-3.176-3.176 3.176h4.537zm.726 0h12.068l-5.263-12.159-8.439 8.438 1.634 3.721zm12.794 0h6.987c-.363-.182-.817-.545-1.18-.998-1.543-1.543-1.815-2.904-.907-3.902.998-.998 2.359-.726 3.901.907 1.634 1.543 1.815 2.904.817 3.902-.09.091-.09.091-.181.091h2.54l-1.542-3.63c-.363-.272-.726-.544-1.09-.907-1.542-1.543-1.814-2.813-.907-3.811l-5.444-12.794-8.438 8.438 5.444 12.704zm10.98-4.356c.816.545 1.451.635 1.814.182.635-.636.363-1.543-.908-2.813-.635-.726-1.27-1.089-1.724-1.271-.272-.09-.544-.09-.816.091l1.633 3.811zm-2.179-3.176c-.181.545.091 1.271.908 2.087l-.908-2.087zm.273-1.179c.907-.545 2.087-.182 3.448 1.179 1.542 1.543 1.815 2.904.816 3.902-.544.545-1.18.726-1.905.454l1.36 3.266h.908l7.804-7.803-9.528-22.231-8.438 8.439 5.535 12.794zm12.975.363l8.439-8.439-6.987-16.151-2.36-2.36c-.09-.181-.09-.363 0-.453.092-.182.364-.182.455 0l1.18 1.179-1.906-4.446-1.452 1.543-4.446 4.446-2.45 2.45 9.527 22.231zm8.348-40.197l13.157 30.76 8.439-8.439-4.81-11.251c-.907.544-1.723.453-2.45-.182-.997-.998-.725-2.178.727-3.72l-6.352-14.7c-.09.091-.09.091-.181.091a.39.39 0 01-.363-.363v-.363l-.182.272-1.452 1.452-2.268 2.269-2.632 2.631v.544a.39.39 0 01-.362.363c-.182 0-.273-.181-.363-.363l-.908.999zm1.724-7.078l17.966-17.966-.635-.635-17.33 17.331v1.27zm0 .998v3.539l4.99-4.991.817-.907.636-.545-1.452-1.451a.257.257 0 010-.454c.09-.091.272-.091.454 0l1.088 1.089v-.363a.39.39 0 01.363-.363.39.39 0 01.363.363v.363l12.976-12.976-1.815-1.724-18.42 18.42zm20.689-17.24l1.724-1.815-.908-.907-.907-.908-1.724 1.724 1.815 1.906zm1.088-3.358l9.165-9.164v-1.271l-9.8 9.8.635.635zm.454.454l.635.635 8.076-8.075v-1.271l-8.71 8.711zm2.904-.635l13.157 30.67 8.439-8.439-13.158-30.67-1.996 1.996v16.243c0 .181-.09.363-.363.363a.39.39 0 01-.363-.363v-15.607l-5.716 5.807zm6.442-16.333l2.541-2.541h-2.54v2.541zm0 .907v3.539l7.078-7.077h-3.539l-3.539 3.538zm7.804-4.174l10.162-10.162 1.997-1.997-1.724-1.724-13.974 13.883h3.539zm12.794-12.431l1.996 1.996 1.724-1.724-1.996-1.996-1.996-1.996-1.724 1.724 1.996 1.996zm4.265-.272l3.992-3.993-3.992-3.992-3.993 3.992 3.993 3.993zm.998-7.985h6.079l.908-.907h-6.171l-.816.907zm7.712-1.543l.908-.907h-6.17l-.908.907h6.17zm1.543-1.633l.907-.907h-6.17l-.907.907h6.17zm1.633-1.542l.908-.908h-6.171l-.907.908h6.17zm1.543-1.543l.907-.907h-6.17l-.907.907h6.17zm1.633-1.633l.908-.908h-6.171l-.907.908h6.17zm1.543-1.543l.907-.907h-6.17l-.907.907h6.17zm1.633-1.633l.907-.908h-6.17l-.907.908h6.17zm1.543-1.543l.907-.907h-6.17l-.908.907h6.171zm1.542-1.633l.908-.907H140.1l-.907.907h6.17zm1.633-1.543l.908-.907h-6.17l-.908.907h6.17zm1.634-1.633l.907-.907h-6.17l-.907.907h6.17zm1.542-1.542l.908-.908h-6.171l-.907.908h6.17zm1.543-1.543l.907-.907h-6.17l-.907.907h6.17zm1.633-1.633l.908-.908h-6.171l-.907.908h6.17zm1.543-1.543l.907-.907h-6.17l-.908.907h6.171zm1.633-1.633l.907-.907h-6.17l-.907.907h6.17zm1.543-1.543l.907-.907h-6.17l-.908.907h6.171zm1.633-1.633l.907-.907h-6.17l-.907.907h6.17zm9.255-14.246h1.633c0-.091 0-.181.091-.272.182-.182.363-.182.454 0l.272.272h7.168a.39.39 0 01.363.363.39.39 0 01-.363.363h-6.442l11.705 11.705c.182-.181.545-.272.817-.272.272 0 .544.091.817.272l.635-.635c.181-.091.363-.091.453 0 0 .091.091.182.091.272 0 .091 0 .182-.091.273l-.635.635c.182.181.272.453.272.816 0 .273-.09.545-.272.817l3.448 3.448v.091h36.205v-17.24H202.71a.39.39 0 01-.363-.363c0-.182.091-.363.363-.363h22.866v-24.681h-56.621v24.499zm0-164.69l10.072 4.083.726.272 20.416 8.167V105.53l-11.887-4.718-.725-.273-18.693-7.44.091 11.887zm0 .726v11.977l1.089.454.726.272 29.49 11.796v-11.977l-20.87-8.348-.726-.273-9.709-3.901zm0-13.339l19.146 7.622.726.272 11.342 4.537V92.827l-2.813-1.09-.726-.271-27.675-11.07v11.977zm31.214 51.177l-31.305-12.522v11.977l31.214 12.522V143.55h.091zm0 25.406l-11.614-4.627-1.724-.726-17.967-7.169v11.978l31.214 12.522v-11.978h.091zm0 12.613l-31.305-12.522v11.978l31.214 12.522v-11.978h.091zm.726-64.152l24.681-12.341V93.19l-24.681 12.34v11.887zm0 .817v11.886l24.681-12.34v-11.887l-24.681 12.341zm0 12.612v11.887l24.681-12.341v-11.886l-24.681 12.34zm0 12.704v11.886l24.681-12.34v-11.887l-24.681 12.341zm0 12.703v11.887l24.681-12.341v-11.886l-24.681 12.34zm0 12.613v11.886l2.178-1.088.726-.363 21.777-10.889v-11.887l-24.681 12.341zm-.726 25.406l-31.305-12.522v11.978l29.763 11.887.726.272.725.272v-11.887h.091zm0 25.316l-10.253-4.083-.726-.272-20.235-8.076v11.978l11.705 4.627.726.273 18.783 7.531v-11.978zm-31.214-13.247l20.779 8.348.726.272 9.709 3.902v-11.978l-1.179-.454-.726-.272-29.309-11.705v11.887zm31.94-.182l24.681-12.34v-11.887l-3.992 1.996-2.087.998-6.806 3.448-.726.363-11.07 5.535v11.887zm0 .726v11.978l24.681-12.341v-11.887l-24.681 12.25zm0 12.703v11.887l24.681-12.34v-11.887l-24.681 12.34zm0 12.704v11.887l24.681-12.341v-11.887l-24.681 12.341zm1.089 12.068h23.501v-11.796l-23.501 11.796zm-1.815-12.068l-19.327-7.713-.726-.272-11.252-4.446v11.977l2.632 1.089.726.272 27.856 11.161v-12.068h.091zm-32.575 3.992l-5.081 4.991v1.27l5.081-4.99v-1.271zm-4.991-15.153v1.27l4.265-4.264h-1.27l-2.995 2.994zm1.997-2.994h-1.271l-.726.726v1.27l1.997-1.996zm-1.997 5.262v1.271l5.082-4.991v-1.27l-5.082 4.99zm0 2.178v1.271l5.082-4.991v-1.27l-5.082 4.99zm0 2.269v1.27l5.082-4.991v-1.27l-5.082 4.991zm0 2.268v1.27l5.082-4.99v-1.27l-5.082 4.99zm0 2.178v1.27l5.082-4.99v-1.271l-5.082 4.991zm0 2.268v1.271l5.082-5.082v-1.27l-5.082 5.081zm0 2.269v1.27l5.082-4.99v-1.271l-5.082 4.991zm0 2.178v1.27l5.082-4.991v-1.27l-5.082 4.991zm0-21.596h5.717v-5.626h-5.717v5.626zm6.352-61.702l16.787 6.714 1.724.726 12.794 5.081v-11.977l-31.305-12.522v11.978zm0-88.743l31.305 12.522V67.601L168.955 55.08v11.886zm31.214 13.248l-31.305-12.522V79.67l28.22 11.251.726.272 2.268.908V80.214h.091zm.726 11.887l20.507-10.254.726-.363 3.448-1.724V67.874l-8.439 4.264-2.087 1.09-.816.453-.726.363-12.613 6.352V92.1zm-39.017 280.11v-1.634a.39.39 0 01.363-.363c.181 0 .362.182.362.363v.999l24.772-24.772 3.085-3.085-3.992-3.993-69.778 69.687-1.452 1.452 1.452 1.452c.091.091.091.182.091.272 0 .091-.091.182-.091.273-.091.09-.363.09-.454 0l-1.089-1.089v.363a.39.39 0 01-.363.363c-.181 0-.272-.182-.272-.363v-.363l-1.633 1.633-2.269 2.268-11.251 11.343c0 .181-.091.272-.272.272l-.908.907h7.985l55.714-55.985zM67.6 466.579l30.942-31.033v-.635c0-.181.09-.363.363-.363.181 0 .363.182.363.272l6.079-6.079h-7.984L67.6 458.503v8.076zm0-8.983l1.724-1.815-1.724-.545v2.36zm-.363-6.896c.182 0 .363.181.363.362v3.449l2.269.816 8.438-8.438-10.888-3.63c-.091 0-.091.091-.182.091-.181 0-.181-.091-.272-.273l-14.79-4.899-8.439 8.438 23.138 7.713v-3.267c0-.272.182-.362.363-.362zm-31.032 47.184l30.67-30.67v-7.985l-34.663 34.662 3.993 3.993zm-21.868-21.959l17.422 17.422 10.707-10.708-26.133-8.71-1.996 1.996zm-4.719-18.511c.091-.181.272-.363.363-.544.273-.272.635-.454 1.18-.545l-1.452-.998-.726.635.635 1.452zm-5.444-22.231v.908h3.448l.907-.908H4.174zm1.815 2.45l.907-.907H4.174v.907h1.815zm-1.815.635v.908h.181l.908-.908H4.174zm0 2.995v1.724a.39.39 0 01-.363.363.39.39 0 01-.363-.363v-.998l-.363.363 5.535 12.884.908-.907 2.812 1.906-.453.635c-.545-.091-.908 0-1.27.363-.273.272-.454.635-.454.998.09.363.181.726.544.998.272.272.635.454.998.544.454.091.726-.09 1.09-.363.544-.544.544-1.088 0-1.724l.634-.544c.363.454.545.907.454 1.361a2.52 2.52 0 01-.726 1.361 2.276 2.276 0 01-1.089.635c-.363.091-.726.091-1.18 0 0 0-.09-.09-.18-.09l5.443 12.612 8.44-8.438-5.99-14.337c-.09-.091-.181-.091-.181-.182-1.27-1.27-1.633-2.359-1.27-3.266l-3.448-7.985-1.543-1.543c-.09-.091-.09-.363 0-.453.181-.091.363-.091.454 0l.363.362-1.362-3.266-7.44 7.35zm6.352-13.157h4.99l.908-.908h-5.898v.908zm.363-1.634h6.17l.907-.907h-6.17l-.907.907zm1.633-1.542h6.17l.907-.908h-6.17l-.907.908zm1.543-1.634h6.26l.908-.907h-6.17l-.998.907zm1.633-1.542h6.17l.907-.907h-6.17l-.907.907zm1.542-1.633h6.17l.908-.908h-6.17l-.908.908zm1.543-1.543h6.17l.907-.907h-6.17l-.907.907zm1.633-1.542h6.17l.908-.908h-6.261l-.817.908zm1.543-1.634h6.17l.907-.907h-6.17l-.907.907zm1.633-1.542h6.17l.908-.908H24.5l-.908.908zm1.543-1.634h6.17l.907-.907h-6.17l-.907.907zm1.633-1.542h6.17l.907-.908h-6.17l-.907.908zm1.542-1.633h6.17l.908-.908h-6.17l-.908.908zm1.634-1.543h6.17l.907-.907h-6.17l-.907.907zm1.542-1.543h6.17l.908-.907h-6.17l-.908.907zm1.634-1.633h6.17l.907-.907h-6.17l-.907.907zm1.542-1.542h6.17l.908-.908h-6.17l-.908.908zm1.633-1.634h6.17l.908-.907h-6.17l-.908.907zm1.543-1.542h6.17l.908-.908h-6.17l-.908.908zm1.542-1.634h6.17l.908-.907h-6.26l-.818.907zm1.634-1.542h6.17l.907-.907h-6.17l-.907.907zm1.633-1.633h6.17l.454-.454-.454-.454h-5.263l-.907.908zm2.45-2.45l-.907.907h3.901l-.907-.907h-2.087zm.635-.726h.817l-.363-.363-.454.363zm.454-1.271l.181.182 3.63 3.539.181.181 3.993-3.992-3.993-3.993-3.992 4.083zm4.446-4.537l3.993 3.993 1.814-1.724-3.992-3.993-1.815 1.724zm2.269-2.268l1.724 1.724 1.814-1.724-1.814-1.724-1.724 1.724zm2.268-2.178l.635.635 11.07-11.07v-.363a.39.39 0 01.363-.363c.091 0 .182.091.273.091l16.877-16.968-.635-.635-28.583 28.673zm29.127-29.127l1.724 1.815 1.815-1.815-1.815-1.724-1.724 1.724zm2.269-2.268l1.724 1.724 10.253-10.254v-3.538L86.565 349.98zm11.977-16.878v-2.813l-2.813 2.813h2.813zm-7.531 1.452c.635.635 1.724.635 2.268 0l.817-.816h-3.902l.817.816zm-1.543-1.452h5.263l3.811-3.811v-7.077c0-.182.09-.363.363-.363a.39.39 0 01.363.363v6.351l49.906-49.906c.635-.635.635-1.724 0-2.268l-2.813-2.813-2.813-2.813c-.181-.272-.544-.363-.907-.454h-.454c-.363.091-.726.182-.907.454l-41.921 41.921v1.361c0 .182-.091.363-.363.363a.39.39 0 01-.363-.363v-.726l-13.157 13.157c-.635.636-.635 1.725 0 2.36l2.813 2.813 1.18 1.451zm57.075-60.159l2.54-2.541h-5.081l2.541 2.541zm-7.532-6.533v2.177c.545.091.999.545 1.089 1.089h2.269l-2.995-2.994c-.181-.182-.272-.182-.363-.272zm-.725-.182c-.545 0-.999.091-1.362.454l-1.361 1.361a2.3 2.3 0 01-3.266 0l-1.18-1.18-1.27 1.271c.544.635.907 1.361 1.179 2.087.363-.182.726-.091 1.089.09.182.182.363.454.363.726 0 .182.091.363.091.545.091.272.091.635.091.907 0 .363.09.726.09.998 0 2.269-.635 4.446-1.905 6.352-.091.091-.182.272-.272.363l7.803-7.804c-.09-.09-.09-.181-.09-.181v-.908c-.545-.181-.999-.544-1.089-1.088h-4.9a.39.39 0 01-.363-.363.39.39 0 01.363-.363h4.9c.181-.545.544-.998 1.089-1.089v-2.178zm-16.787 6.896c-.091.091-.091.182-.091.182-.907.544-1.633 1.27-2.087 2.177-.726 1.271-.816 2.813-.363 4.265.454 1.361 1.271 2.541 2.541 3.176.091 0 .091.091.181.091.091 0 .091.09.091.09v.182s-.091 0-.091.091c-.09 0-.09.09-.09.09-.182.091-.363.273-.363.454v.091c0 .181.09.272.181.454.091.09.272.181.454.181.454-.091.907-.091 1.361-.181a11.224 11.224 0 007.078-4.9c1.27-1.906 1.814-4.174 1.814-6.352 0-.272 0-.635-.09-.907 0-.363-.091-.726-.182-1.089 0-.091 0-.182-.091-.273-.181-.09-.363-.09-.544.091 0 0-.091.091-.182.091h-.181s0-.091-.091-.091v-.091c-.091-.181-.181-.362-.181-.544-.091 0-.091.091-.182.091h-8.075a.39.39 0 01-.363-.363.39.39 0 01.363-.363h7.985c-1.089-2.087-3.358-3.448-5.808-3.085a6.36 6.36 0 00-2.813 6.261v.09c-.09 0-.09 0-.181.091zm-5.172 2.722c-.091.091 0 .091 0 0l-.091.091c-.907.545-1.633 1.27-2.087 2.178-1.452 2.722-.363 6.17 2.359 7.622.091 0 .091.091.091.091v.09s.091 0 .091.091v.091s-.091 0-.091.091c-.091 0-.091.09-.091.09-.181.091-.363.363-.363.545a.69.69 0 00.182.453.692.692 0 00.454.182h.181c.454 0 .817-.091 1.27-.182a11.65 11.65 0 004.174-1.905c-.09 0-.272 0-.363.091-.363 0-.726-.091-.907-.363-.091-.091-.182-.273-.272-.454-.091-.181-.091-.272-.091-.454 0-.272.091-.453.181-.635 0-.091.091-.091.182-.181-1.27-.817-2.178-1.997-2.722-3.448-.454-1.634-.272-3.267.453-4.81a5.236 5.236 0 012.178-2.268c-.181-1.089 0-2.268.363-3.267-.726-.181-1.452-.272-2.178-.181-2.087 1.361-3.175 3.811-2.722 6.352-.181 0-.181.09-.181.09zm-3.448 4.174a4.434 4.434 0 00-1.543 0c-2.087 1.361-3.176 3.811-2.722 6.352v.182s0 .09-.091.09v.091c-.907.544-1.633 1.27-2.087 2.178-.726 1.361-.907 2.813-.453 4.264.453 1.271 1.27 2.36 2.359 3.086.181.09.272.181.454.272h.09l.091.09v.091s.091 0 .091.091 0 .091-.091.091v.09s-.091 0-.091.091l-.09.091c-.182.091-.363.363-.363.544 0 .363.272.545.635.545 5.535-.454 9.799-4.9 10.162-10.344-.544.181-1.179.363-1.814.453-.182 0-.363 0-.545.091-.181 0-.272 0-.453-.091-.182-.09-.363-.181-.454-.272-.272-.272-.454-.544-.454-.907a1.3 1.3 0 01.363-.908c-2.268-1.542-3.357-3.901-2.994-6.261zm-9.619 9.256c-.09.09-.09.09-.09.181-.908.545-1.634 1.271-2.087 2.178-1.452 2.722-.454 6.17 2.268 7.622.091 0 .091.091.091.091v.272s-.091 0-.091.091c0 0 0 .09-.091.09-.272.091-.362.273-.362.545 0 .181.09.272.181.453.091.091.181.091.272.182h.182c.363 0 .635-.091.998-.182 1.724-.272 3.266-.998 4.627-1.996-.09 0-.272 0-.362.091-.636 0-1.18-.454-1.271-1.089v-.181c0-.273.091-.636.363-.817-.091 0-.091-.091-.181-.091-1.18-.816-2.087-1.905-2.541-3.357-.454-1.633-.363-3.267.454-4.809.453-.908 1.27-1.724 2.177-2.269-.181-1.089 0-2.268.363-3.266-.726-.182-1.451-.273-2.177-.182-2.087 1.361-3.176 3.811-2.723 6.261v.091c.091 0 0 0 0 .091zm-4.718 16.877c0-.181.09-.363.363-.363a.39.39 0 01.363.363v5.626l14.518-14.518c-.907.544-1.905.998-2.994 1.179a12.305 12.305 0 01-6.896 3.085h-.182c-.272 0-.544-.09-.726-.181-.09 0-.181-.091-.181-.182-.272-.272-.363-.544-.363-.907s.091-.635.363-.817c-.908-.544-1.543-1.27-2.087-2.177l-5.717 5.716-.544.545-13.974 13.973c-1.543 1.906-1.543 4.628 0 6.443.182.181.272.363.454.544l.181.182 2.995 2.994c0-.635.272-1.18.726-1.633l13.61-13.611v-6.261h.091zm19.69-13.339l9.346-9.436c-1.179.816-2.45 1.361-3.901 1.724-1.089 1.089-2.541 1.814-3.993 2.359 0 1.996-.544 3.811-1.452 5.353zm19.6-22.412c.091.182.272.363.454.454v-.454h-.454zm.454-.726v-.454a1.098 1.098 0 00-.454.454h.454zm1.088.726h-.453v.454a1.09 1.09 0 00.453-.454zm-.363 1.089v.544l1.724-1.633h-.544c-.272.544-.635.998-1.18 1.089zm.363-1.815a1.095 1.095 0 00-.453-.454v.454h.453zm-50.813 63.426l-.635-.635-.636.635h1.27zm-17.422-53.808l-.544.545-3.085 3.085v15.244a.39.39 0 01-.364.363.39.39 0 01-.362-.363v-14.609L33.3 317.042c-.635.635-.635 1.724 0 2.359l13.702 13.701h2.722a.39.39 0 01.363.363.39.39 0 01-.363.363h-1.997l11.433 11.433 6.352 6.352c.363.363.817.544 1.27.454v-29.762a.39.39 0 01.364-.363.39.39 0 01.362.363v29.58c.091-.09.182-.181.363-.272l17.785-17.785H73.861a.39.39 0 01-.363-.363.39.39 0 01.363-.363h12.431l1.09-1.088-6.806-6.715-.272-.272-.545-.545c-1.724-2.087-1.724-5.172 0-7.35l18.692-18.692c-.09-.09-.09-.181-.09-.272v-27.766H80.03l-8.892 8.892zm41.558-39.289c-.635-.636-1.724-.636-2.359 0l-29.671 29.671h17.875V257.88c0-.181.09-.363.363-.363a.39.39 0 01.363.363v11.796h14.972c.181 0 .363.182.363.363a.39.39 0 01-.363.363H99.268v27.403l1.089-1.089c-.726-1.724-.726-3.72.181-5.444.454-.998 1.271-1.724 2.178-2.359-.363-2.722.817-5.354 3.176-6.806h.091c.907-.09 1.724 0 2.54.182.545-1.18 1.452-2.178 2.541-2.904h.091c.544-.091 1.179 0 1.814 0 .091-.454.273-.998.545-1.452.544-.907 1.18-1.724 2.178-2.268-.363-2.722.816-5.354 3.175-6.806h.091c.908-.09 1.724 0 2.541.182.544-1.18 1.452-2.178 2.541-2.904h.181c1.996-.272 3.902.454 5.263 1.724l1.27-1.179-16.514-16.605a2.3 2.3 0 010-3.267l2.541-2.541-4.084-4.264zm9.8 1.451c-.635-.635-1.724-.635-2.359 0l-2.813 2.813-2.813 2.813c-.635.635-.635 1.724 0 2.359l16.787 16.787 1.361 1.452c.635.635 1.724.635 2.359 0l1.361-1.452c.454-.454 1.18-.726 1.815-.635v-8.257l-15.698-15.88zm26.586 26.587l-5.898-5.898-.544-.545-3.72-3.72v7.713l.544.272.272.272 3.539 3.539h6.17c.182-.544.091-1.179-.363-1.633zm.817 2.359c-.091.182-.181.272-.272.454l-2.541 2.54 2.541 2.541c.454.454.726.998.726 1.633 0 .545-.182 1.18-.726 1.634l-50.45 50.36v3.448h3.266l14.609-14.609 2.268-2.269 4.446-4.446 34.935-35.025h-2.904a.39.39 0 01-.363-.363v-5.989H149.9v.091zm19.055-26.042h29.762l-26.949-10.798-.726-.272-2.178-.907v11.977h.091zm-.726-202.075h-11.977v5.626h11.977v-5.626zm0 6.352h-5.716v5.626h5.716v-5.626zm-.635 50.36v-1.27l-2.541 2.54h1.271l1.27-1.27zm-.272 1.27h.272v-.272l-.272.272zm.272-3.538v-1.27l-4.718 4.718h1.27l3.448-3.449zm0-2.178v-1.27l-5.081 4.99v1.27l5.081-4.99zm0-2.269v-1.27l-5.081 4.99v1.27l5.081-4.99zm0-2.268v-1.27l-5.081 4.99v1.27l5.081-4.99zm0-2.178v-1.27l-5.081 4.99v1.27l5.081-4.99zm0-2.268v-1.27l-5.081 4.99v1.27l5.081-4.99zm0-2.269v-1.27l-5.081 4.99v1.27l5.081-4.99zm0-2.178v-1.27l-5.081 4.99v1.271l5.081-4.99zm0-2.268v-1.27l-5.081 4.99v1.27l5.081-4.99zm0-2.268v-1.27l-5.081 4.99v1.27l5.081-4.99zm0-2.178v-1.27l-5.081 4.99v1.27l5.081-4.99zm0-2.269v-1.27l-5.081 4.99v1.27l5.081-4.99zm0-2.268V68.6l-5.081 4.99v1.27l5.081-4.99zm0-2.178v-1.27l-5.081 4.99v1.27l5.081-4.99zm0-2.268v-1.27l-5.081 4.99v1.27l5.081-4.99zm0-2.269v-1.27l-5.081 4.99v1.362l5.081-5.082zm0-2.268v-1.27l-5.081 4.99v1.27l5.081-4.99zm0-2.178v-1.27l-5.081 4.99v1.27l5.081-4.99zm0-2.268v-1.27l-5.081 4.99v1.27l5.081-4.99zm-.726-1.452h-1.27l-2.995 2.994v1.27l4.265-4.264zm-2.268 0h-1.271l-.726.726v1.27l1.997-1.996zm3.629 45.913h-5.716v4.084c0 .181-.091.363-.363.363-.182 0-.363-.091-.363-.363v-4.084h-5.626v5.626h11.978v-5.626h.09zm0 6.352h-5.716V211.15h5.716V107.254zm.726-59.252h9.618c.182 0 .363.09.363.363a.39.39 0 01-.363.363h-9.618v5.626l31.214 12.522V54.898l-7.894-3.176-1.724-.726-21.687-8.71v5.716h.091zm1.633-5.717l18.783 7.532 1.724.725 9.074 3.63v-8.257c-1.905-.181-3.448-1.633-3.629-3.539h-25.952v-.09zm29.581 2.904v-2.904h-2.903a3.28 3.28 0 002.903 2.904zm.363-6.442c-1.633 0-2.994 1.27-3.176 2.903h6.443c-.272-1.633-1.634-2.903-3.267-2.903zm.363 3.538v2.904a3.281 3.281 0 002.904-2.904h-2.904zm3.448 0c-.181 1.906-1.633 3.448-3.539 3.54v8.256l10.889-5.444h-9.074a.39.39 0 01-.363-.363c0-.181.091-.363.363-.363h10.435l11.342-5.626h-20.053zm21.142.273l-10.888 5.444h10.888v-5.444zm0 6.08h-12.249l-12.432 6.17v11.886l3.63-1.815.726-.363 20.325-10.162v-5.717zm0 6.532l-19.781 9.89-.726.364-4.174 2.087v11.886l12.069-6.08.726-.362 2.812-1.452 8.984-4.537V55.17h.09zm6.352-12.885h-5.626v5.626h5.626v-5.626zm0 6.352h-5.626V244.36h5.626V48.637zm7.078 51.358v1.27l.907-.907 3.448-3.448H242l-2.36 2.36-.725.725zm.998 1.18h1.27l.363-.273 3.085-3.085v-.998h-.272l-3.448 3.448-.545.545-.453.363zm-.998-52.538v46.821h5.625v-46.82h-5.625zm-5.717.726l.726-.726h-.726v.726zm0 .998v1.27l2.994-2.994h-1.27l-1.724 1.724zm0 2.178v1.27l4.355-4.355v-.817h-.453l-3.902 3.902zm0 2.268v1.27l4.355-4.355v-1.27l-4.355 4.355zm0 38.11v1.27l.272-.271.545-.545 3.538-3.63v-1.27l-4.173 4.265-.182.181zm1.815 2.541h1.27l1.18-1.18v-1.27l-2.45 2.45zm2.54-10.163v-1.27l-4.355 4.356v1.27l4.355-4.356zm-4.355 5.354v1.27l4.355-4.355v-1.27l-4.355 4.355zm4.355-7.531v-1.27l-4.355 4.355v1.27l4.355-4.355zm0-2.269v-1.27l-4.355 4.355v1.27l4.355-4.355zm0-2.268v-1.27l-4.355 4.355v1.27l4.355-4.355zm0-2.269v-1.27l-4.355 4.355v1.27l4.355-4.355zm0-2.177v-1.27l-4.355 4.355v1.27l4.355-4.355zm0-2.269v-1.27l-4.355 4.355v1.27l4.355-4.355zm0-2.268v-1.27l-4.355 4.445v1.27l4.355-4.445zm0-2.178v-1.27l-4.355 4.355v1.27l4.355-4.355zm0-2.269v-1.27l-4.355 4.356v1.27l4.355-4.356zm0-2.268v-1.27l-4.355 4.355v1.361l4.355-4.446zm0-2.178v-1.27l-4.355 4.355v1.27l4.355-4.355zm0-2.268v-1.27l-4.355 4.446v1.18l4.355-4.356zm0-2.269v-1.27l-4.355 4.355v1.27l4.355-4.355zm0-2.268v-1.27l-4.355 4.355v1.27l4.355-4.355zm0 41.377l-.272.272h.272v-.272zm-2.449-.817l2.449-2.45v-1.27l-3.085 3.085-.544.544-.817.817v.272h.908l.453-.454.636-.544zm3.811 4.537l.363-.363 1.814-1.815h-1.27l-.907.908v1.27zm5.444-51.63h.181v-.182l-.181.182zm.181-1.18v-1.27l-2.45 2.359h1.271l1.179-1.089zm0 54.806l-.181.182h.181v-.182zm0-.907v-1.27l-2.45 2.359h1.271l1.179-1.089zm-6.351-3.902h-5.626v5.626h5.626v-5.626zm0-53.899h-5.626v5.626h5.626v-5.626zm1.633.636l-.907.907v1.27l2.268-2.178h-1.361zm2.268 0l-3.175 3.175v1.27l4.446-4.355h-1.271v-.09zm2.45 0h-.272l-4.355 4.355h1.27l3.357-3.357v-.998zm6.352-.636h-5.626v5.626h5.626v-5.626zm-.635 51.994v-1.27l-2.541 2.45h1.271l1.27-1.18zm-.272 1.18h.272v-.273l-.272.272zm.272-3.449v-1.27l-4.356 4.355v.363h.908l3.448-3.448zm0-2.178v-1.27l-4.356 4.356v1.27l4.356-4.356zm0-2.268v-1.27l-4.356 4.355v1.27l4.356-4.355zm0-2.269v-1.27l-4.356 4.356v1.27l4.356-4.356zm0-2.177v-1.27l-4.356 4.355v1.27l4.356-4.355zm0-2.269v-1.27l-4.356 4.355v1.27l4.356-4.355zm0-2.268v-1.27l-4.356 4.355v1.27l4.356-4.355zm0-2.269v-1.27l-4.356 4.355v1.27l4.356-4.355zm0-2.177v-1.27l-4.356 4.355v1.27l4.356-4.355zm0-2.269v-1.27l-4.356 4.355v1.27l4.356-4.355zm0-2.268v-1.27l-4.356 4.445v1.27l4.356-4.445zm0-2.178v-1.27l-4.356 4.355v1.27l4.356-4.355zm0-2.269v-1.27l-4.356 4.356v1.27l4.356-4.356zm0-2.268v-1.27l-4.356 4.355v1.361l4.356-4.446zm0-2.178v-1.27l-4.356 4.355v1.27l4.356-4.355zm0-2.268v-1.27l-4.356 4.446v1.18l4.356-4.356zm0-2.269v-1.27l-4.356 4.355v1.27l4.356-4.355zm0-2.268v-1.27l-4.356 4.355v1.27l4.356-4.355zm0-2.178v-1.27l-4.356 4.355v1.27l4.356-4.355zm0-2.268v-.817h-.454l-3.902 3.902v1.27l4.356-4.355zm-1.452-.817h-1.27l-1.724 1.724v1.27l2.994-2.994zm-2.178 0h-.726v.726l.726-.726zm4.265 47.547h-5.626v5.626h5.626v-5.626zm0 6.352h-18.329v110.156h18.329V102.536zm-92.19 27.856v-.998l.726-.726v.999l-.726.725zm3.176 7.169v-10.344l.635-.636v11.706l-.635-.726zm55.169-65.513l-2.087 1.088-.817.454-.544-.544 2.812-1.452 2.087-.998-1.451 1.452z"/><path d="M45.642 161.426H11.614l.726-.726h33.03v-22.413l.725.726v22.14c-.09.091-.272.273-.453.273zm1.27 1.27H4.174v6.714a.39.39 0 01-.363.363c-.09 0-.272-.09-.272-.181v-6.805H0v-.726h3.448v-.635H0v-.726h3.448v-31.577a.39.39 0 01.363-.363.39.39 0 01.363.363V160.7h41.105V68.872H4.174v36.114a.39.39 0 01-.363.363c-.181 0-.363-.091-.363-.363V68.872H0v-.726h3.448v-.544H0v-.726h3.448v-2.178a.39.39 0 01.363-.363.39.39 0 01.363.363v2.178h42.738a.39.39 0 01.363.363v95.094a.39.39 0 01-.363.363zm-.363-95.003H4.174v.544h41.468a.39.39 0 01.362.363v92.553a.39.39 0 01-.362.363H4.173v.635h42.375V67.693zm-.907 93.733H11.614l.726-.726h33.03v-22.413l.725.726v22.14c-.09.091-.272.273-.453.273z"/></g></svg>