<svg width="252" height="235" fill="none" xmlns="http://www.w3.org/2000/svg"><path fill-rule="evenodd" clip-rule="evenodd" d="M12.046 87.033v147.472H0V94.285l8.03-4.834 4.016-2.418zm239.319 49.157v19.341l-85.127-49.157v-19.34l85.127 49.156zM46.58 150.695v18.535l-34.533-19.341v-19.34l34.532 20.146zm34.532 62.858v19.34l-69.065-39.487V173.26l69.065 40.293zM41.76 234.505H12.048v-16.923l29.714 16.923zM81.112 126.52v19.341L54.61 130.549l-8.03-4.029-34.533-20.146v-19.34l4.015 2.417 38.548 22.564 26.502 14.505z" fill="#fff"/><path fill-rule="evenodd" clip-rule="evenodd" d="M251.364 49.157v19.34l-14.455-8.058-28.108-16.117-42.563-24.982-68.262 39.487v175.677H83.521l-2.41-1.612V49.157l4.016-2.417 38.548-21.759 38.547-22.563L166.238 0l4.015 2.418 38.548 22.563 42.563 24.176zm-14.455 141.83l-33.729-20.146V151.5l48.184 28.205v19.34l-14.455-8.058zm14.456 32.235v11.282h-14.456l-70.671-41.099v-19.341l85.127 49.158zm-55.413 11.283h-29.714v-16.923l29.714 16.923z" fill="#fff"/><path fill-rule="evenodd" clip-rule="evenodd" d="M211.211 69.303v19.34l-44.973-25.787v-19.34l44.973 25.787z" fill="#fff"/></svg>