<svg width="36" height="36" fill="none" xmlns="http://www.w3.org/2000/svg"><path d="M31.328 14.881h-.089v-2.183C31.24 5.685 25.554 0 18.541 0 11.528 0 5.843 5.685 5.843 12.698v2.183h-.535c-1.96 0-3.475 1.738-3.475 3.743v5.57a3.52 3.52 0 003.475 3.608h3.297a.846.846 0 00.802-.936V15.95c0-.534-.311-1.069-.802-1.069h-.98v-2.183c0-6.029 4.887-10.916 10.916-10.916 6.029 0 10.916 4.887 10.916 10.916v2.183h-.98c-.49 0-.802.535-.802 1.07v10.915a.847.847 0 00.802.936H29.5l-.089.134a7.04 7.04 0 01-5.658 2.806 4.411 4.411 0 00-8.733.847 4.455 4.455 0 004.456 4.41 4.59 4.59 0 003.208-1.38 3.92 3.92 0 001.069-2.139 8.821 8.821 0 007.084-3.52l.847-1.247c1.915-.134 3.118-1.337 3.118-3.075V19.07c0-1.915-1.425-4.188-3.475-4.188zM7.625 26.02H5.308a1.738 1.738 0 01-1.693-1.827v-5.57c0-1.024.713-1.96 1.693-1.96h2.317v9.357zm13.768 7.351a2.63 2.63 0 01-1.916.847 2.718 2.718 0 01-2.674-2.629 2.629 2.629 0 115.258-.002v.002a2.361 2.361 0 01-.668 1.782zM33.02 24.64c0 1.203-1.158 1.38-1.693 1.38h-1.871v-9.356h1.871c.98 0 1.693 1.381 1.693 2.406v5.57z" fill="#0F4E41"/></svg>