<svg width="40" height="41" fill="none" xmlns="http://www.w3.org/2000/svg"><path d="M21.732 12.335c.334 0 .6-.267.6-.6v-5.6c0-.333-.266-.6-.6-.6-.333 0-.6.267-.6.6v5.6c-.066.267.267.6.6.6zm-18.4 5.467h4.134c.333 0 .6-.267.6-.6 0-.334-.267-.6-.6-.6H3.332c-.333 0-.6.267-.6.6 0 .333.267.6.6.6zm13.667 0h2.067c.333 0 .6-.267.6-.6 0-.334-.267-.6-.6-.6h-2.067c-.333 0-.6.267-.6.6 0 .333.267.6.6.6zm-4.267 0H14.8c.333 0 .6-.267.6-.6 0-.334-.267-.6-.6-.6h-2.067c-.333 0-.6.267-.6.6 0 .333.267.6.6.6zM8.666 29.468c-.267.267-.267.667 0 .867.266.267.666.267.866 0l2.534-2.533c.266-.267.266-.667 0-.867-.267-.2-.667-.266-.867 0L8.666 29.47zm15.466-3.933c-.266-.267-.666-.267-.866 0l-4.8 4.8c-.267.267-.267.667 0 .867.266.266.666.266.866 0l4.8-4.8c.267-.2.267-.6 0-.867zm1.134 1.733l-2.534 2.534c-.266.267-.266.666 0 .867.267.266.667.266.867 0l2.533-2.534c.267-.267.267-.667 0-.867-.2-.2-.6-.2-.866 0z" fill="#0F4E41"/><path d="M38.133.002H19.6a1.863 1.863 0 00-1.867 1.867v11.733H1.867A1.863 1.863 0 000 15.469v22.6c0 1.066.867 1.933 1.867 1.933h36.266A1.863 1.863 0 0040 38.135V1.87c0-1-.867-1.867-1.867-1.867zM19 1.869c0-.334.267-.6.6-.6h18.533c.334 0 .6.266.6.6v13H22.267c-.267-.734-.934-1.267-1.8-1.267H19V1.869zm5.667 36.866H21.4v-1.533h3.267v1.533zm.6-2.8h-11c-.2 0-.334-.133-.334-.333v-.933h18.134v1c0 .2-.134.333-.334.333h-6.466v-.067zM11.2 35.47c-3.333 0-6-2.667-6-6 0-3.334 2.667-6 6-6 .6 0 1.133.066 1.667.2-.067.2-.134.4-.134.6v.333c-.466-.133-1-.267-1.533-.267a5.064 5.064 0 00-5.067 5.067c0 2.8 2.267 5.067 5.067 5.067.533 0 1.067-.067 1.533-.267v1c-.533.2-1.066.267-1.533.267zm1.533-6.867c-.066 0-.2.067-.266.133l-1 1c-.267.267-.267.667 0 .867.266.2.666.267.866 0l.334-.333v2.666c-.467.2-1 .334-1.534.334-2.066 0-3.8-1.734-3.8-3.8 0-2.067 1.734-3.8 3.8-3.8.534 0 1.067.133 1.534.333v2.6h.066zm19.334 4.8H13.933V24.27c0-.2.134-.334.334-.334h17.466c.2 0 .334.134.334.334v9.133zm-30.2-18.467h18.6c.333 0 .6.267.6.6v3.6h-19.8v-3.6c0-.333.266-.6.6-.6zm-.6 23.2V20.402h19.866v2.333h-6.866c-.134 0-.2 0-.334.067-.866-.333-1.8-.533-2.733-.533-4 0-7.267 3.266-7.267 7.266S7.2 36.802 11.2 36.802c.6 0 1.2-.067 1.8-.2.267.467.8.733 1.333.733H20.2v1.534H1.867c-.334-.134-.6-.4-.6-.734zm36.866.6h-12.2v-1.533H31.8c.867 0 1.6-.733 1.6-1.6V24.269c0-.867-.733-1.6-1.6-1.6h-9.467v-6.534h16.4V38.07c0 .4-.266.666-.6.666z" fill="#0F4E41"/></svg>