<svg width="40" height="40" fill="none" xmlns="http://www.w3.org/2000/svg"><path d="M39.314 14.964L20.169 1.03a.705.705 0 00-.716 0L.243 14.964a.617.617 0 00-.13.847l2.67 3.711c.196.26.586.326.847.13l.651-.455V37.82c0 1.172.912 2.149 2.019 2.149h26.697c1.107 0 2.019-.977 2.019-2.149V18.936l.912.651c.13.066.325.13.455.13s.326-.13.391-.26l2.67-3.711c.195-.196.13-.587-.13-.782zM22.709 38.732h-6.121v-9.507h6.12v9.507zm11.005-.912c0 .52-.326.912-.782.912h-8.986V28.639a.652.652 0 00-.651-.651h-7.358a.652.652 0 00-.651.65v10.094H6.3c-.391 0-.782-.456-.782-.912V18.285l14.26-10.353L33.715 18.09v19.73zm2.409-19.535L20.169 6.63a.705.705 0 00-.716 0L3.435 18.285l-1.954-2.67L19.779 2.267 38.076 15.55l-1.953 2.735zm-16.344 4.623c-.456 0-.847.196-1.172.456a1.65 1.65 0 000 2.344c.325.326.716.456 1.172.456.456 0 .846-.13 1.172-.456.325-.325.456-.716.456-1.172 0-.456-.196-.846-.456-1.172-.326-.325-.716-.456-1.172-.456zm.325 1.889c-.13.13-.456.13-.586 0-.13-.13-.13-.456 0-.586.13-.13.456-.13.586 0 .13.195.13.456 0 .586zm3.777-3.321c.26.26.26.651 0 .846a.59.59 0 01-.456.196.591.591 0 01-.456-.196 4.636 4.636 0 00-3.255-1.367c-1.238 0-2.345.456-3.256 1.367-.26.26-.651.26-.847 0-.26-.26-.26-.65 0-.846a5.708 5.708 0 014.103-1.693c1.628-.065 3.06.586 4.167 1.693zm2.28-2.344c.26.26.26.65 0 .846-.261.26-.652.26-.847 0a7.82 7.82 0 00-11.07 0 .591.591 0 01-.456.195c-.326 0-.651-.26-.651-.585a.59.59 0 01.195-.456c3.582-3.517 9.312-3.517 12.828 0zm-6.382-5.86a12.27 12.27 0 018.66 3.58c.26.261.26.652 0 .847-.26.26-.651.26-.846 0a11.043 11.043 0 00-7.814-3.256c-2.93 0-5.73 1.172-7.814 3.256-.26.26-.651.26-.847 0-.26-.26-.26-.651 0-.846a12.273 12.273 0 018.66-3.582z" fill="#0F4E41"/></svg>