<svg width="40" height="41" fill="none" xmlns="http://www.w3.org/2000/svg"><path d="M20.021 16.016a5.045 5.045 0 01-5.044-5.05 5.045 5.045 0 1110.089 0c0 2.79-2.257 5.05-5.045 5.05zm0-8.771a3.713 3.713 0 00-3.717 3.72c0 2.06 1.66 3.722 3.717 3.722a3.713 3.713 0 003.717-3.721c0-2.06-1.66-3.721-3.717-3.721z" fill="#0F4E41"/><path d="M.705 40.002c-.066 0-.132 0-.265-.067-.332-.132-.531-.531-.398-.863L4.887 26.58c.066-.266.332-.399.597-.399h8.895l-.067-.133c-3.518-5.78-5.243-10.83-5.243-15.016C9.069 4.919 13.98.002 20.02.002c2.92 0 5.642 1.13 7.766 3.19 2.058 2.06 3.186 4.85 3.186 7.773 0 4.187-1.726 9.236-5.244 15.017l-.066.133h8.894c.266 0 .531.2.597.399l4.78 12.558c0 .066.066.133.066.265a.666.666 0 01-.664.665H.706zm32.591-1.263h5.111l-3.12-8.172-6.505 2.325 4.514 5.847zm-1.66-.066l-4.115-5.382-10.885 3.92-4.182 1.462h19.183zm-23.098 0l6.77-2.392-6.77-8.837H5.949L1.635 38.673h6.903zm8.098-2.857l18.187-6.512-.73-1.86H24.8a64.217 64.217 0 01-4.315 5.913l-.066.067c-.133.133-.265.133-.398.133a.753.753 0 01-.531-.2 64.217 64.217 0 01-4.315-5.913h-4.978l6.439 8.372zM20.02 1.33c-5.31 0-9.625 4.319-9.625 9.634-.066 8.107 7.302 18.007 9.625 20.997 2.323-2.924 9.69-12.824 9.624-20.997 0-2.59-.995-4.983-2.787-6.843C24.998 2.328 22.61 1.33 20.02 1.33z" fill="#0F4E41"/></svg>