<svg width="14" height="16" fill="none" xmlns="http://www.w3.org/2000/svg"><path d="M10.182 5.818h1.454V3.636h2.182V2.182h-2.182V0h-1.454v2.182H8v1.454h2.182v2.182zm-4.364 2.91c.4 0 .743-.143 1.028-.428.285-.286.427-.628.427-1.027 0-.4-.143-.743-.428-1.028a1.398 1.398 0 00-1.027-.427 1.4 1.4 0 00-1.027.428 1.398 1.398 0 00-.427 1.027c0 .4.142.742.427 1.027.285.285.628.428 1.027.427zm0 7.272c-1.951-1.66-3.409-3.203-4.372-4.627C.482 9.949 0 8.631 0 7.418 0 5.6.585 4.151 1.755 3.073c1.17-1.08 2.524-1.618 4.063-1.618a6.994 6.994 0 01.727.036v1.473a2.505 2.505 0 00-.355-.046 6.427 6.427 0 00-.372-.009c-1.224 0-2.258.421-3.1 1.264-.843.843-1.264 1.924-1.263 3.245 0 .86.357 1.846 1.072 2.955.715 1.11 1.812 2.343 3.291 3.7 1.479-1.358 2.576-2.591 3.291-3.7.715-1.11 1.073-2.095 1.073-2.955v-.145h1.454v.145c0 1.212-.482 2.53-1.446 3.955C9.227 12.797 7.77 14.34 5.818 16z" fill="#91AEA8"/></svg>