<svg width="1157" height="785" fill="none" xmlns="http://www.w3.org/2000/svg"><mask id="mask0_603_12409" style="mask-type:alpha" maskUnits="userSpaceOnUse" x="0" y="0" width="1157" height="785"><path fill="#0F4E41" d="M0 0h1157v785H0z"/></mask><g opacity=".2" stroke="#fff" stroke-miterlimit="10" stroke-linecap="round" stroke-linejoin="round" mask="url(#mask0_603_12409)"><path d="M53.117 53.209l14.498-1.814L88.91 29.174m-11.176-8.011l25.976 18.442 64.939-36.582M92.533 44.29l18.878 10.884 18.726-10.884-1.359-10.581m15.404-9.824l-41.832 26m18.123 0l-5.739-8.768m41.078-27.664l13.743 21.465M60.82 61.523l-12.837 20.86-27.184 9.827m36.698 8.163l-9.515-17.988m83.969-24.944s33.376 10.884 43.645 14.512c10.27 3.628 31.563 15.267 31.563 15.267s25.825 16.78 38.209 17.838c12.232 1.058 32.469 0 44.249 3.023 11.93 3.023 33.828 10.43 33.828 10.43l51.347 14.814 75.662 21.768s73.698 11.79 81.4 11.337c7.702-.454 16.008-3.628 25.825-3.023 9.816.453 42.889 2.872 51.347 6.348 8.457 3.477 38.359 18.896 46.665 19.5 8.306.454 45.759-5.744 45.759-5.744s18.274-2.57 24.919 0 51.951 5.744 51.951 5.744"/><path d="M92.533 91.605s14.649-3.477 22.2-6.047 8.004-2.418 17.217-3.174c9.212-.756 17.669-2.117 27.636-15.872m-41.982-.906l-6.192 21.011m23.106-28.267l-14.045 25.395m19.178-23.733l-11.024 22.674m20.388-19.651l-10.119 18.442m24.618-4.686l-25.371 51.244m46.513-52.303l-29.902 65.907m0-47.01l17.82 7.86m-26.277 32.349l17.216-36.28m-16.611 11.792l17.972 9.069m28.392-39.605l-32.319 67.117m-8.61-47.465l-6.947-2.42-16.763 23.28m37.605-83.441l3.172 32.802s22.804-20.105 57.69-23.128c34.886-3.023 51.649.454 68.714-4.232M168.799 63.036l17.367-9.675m31.866 12.244l-13.743-7.255m4.53-8.465l-9.514 17.384m-39.717 17.533l-3.776-1.058-25.673 22.07m3.927-13.605l-29.752 8.616M266.661 6.803l-85.327 157.209"/><path d="M298.225 6.803l-96.956 174.139-63.126 68.477"/><path d="M279.045 41.117l-19.33 4.082-67.809 127.732m35.037-93.117l11.327 5.594m14.345-66.814l26.429 15.116m-2.265-26.907l13.441 14.511m9.817-9.22l18.274 14.058m7.55-17.535l-38.359 99.012m46.664-90.244l-7.098 14.058m12.988 6.498l-17.669-8.767m-51.498 76.641l-.604-11.186 3.021-8.012m34.583-31.443l26.277 12.093 37.755 20.407m-80.191 8.767l33.829 12.245m5.738-42.174l-24.012 36.128m-3.019-38.396l20.84 11.489m3.776 16.477l-9.665-.907m45.002-43.535l-13.742 28.418m11.175-67.569l88.045 148.896 101.033-81.93M401.221 93.418l-20.237-5.744"/><path d="M415.719 88.582l66.298 16.326 12.837.907 126.404 27.511 79.89 24.186 77.323 22.675M444.865 78.756l-4.531 15.872m20.237-21.163l-7.551 24.337"/><path d="M474.768 103.244L500.139 117l38.661 10.279 25.221 3.779 50.743 19.802 36.849 81.326 15.555 44.744-10.42 86.012M542.574 107.627l-23.408-5.895-12.232-24.338 9.363-26"/><path d="M577.915 6.803l-29.449 74.825-17.669 84.803 59.653 37.639"/><path d="M504.217 6.803l46.514 68.779 20.237 22.22 34.584 32.047"/><path d="M655.539 6.803L643.306 46.71 530.795 166.43l-54.669 23.581-91.67-18.291-70.073-9.221m1.51-6.952l-14.649-10.582-24.767-11.488 5.889-14.209m78.08 9.826l-16.008 41.872m26.426-38.849l-20.387 48.07"/><path d="M314.082 164.012l40.172 31.442 72.187-47.314 3.172-24.79m-30.658 106.57l19.935-37.942 5.437-12.396 2.114-31.441m.001 69.836l-7.551-26m-.606 43.836l-14.045-15.872"/><path d="M383.551 98.559l17.669 5.744-6.947 23.732 33.829 6.803m-29.147 5.442l2.265-10.884"/><path d="M395.934 102.641l-8.608 29.476 12.837 2.268m94.086-13l-16.612 37.942m3.323-27.21l-11.024 26m20.689 3.174l-14.498 28.721 63.127 14.058 62.673 20.558-8.155 18.896 1.057 11.186-14.649 17.988 1.661 24.035-5.889 3.779-15.253-3.779"/><path d="M572.629 241.105l29.298-16.477 12.383 36.431-1.359 15.872-11.024 24.639-21.898 2.268-3.625 5.895-15.706-6.5v-17.232l-2.87-9.07-25.371-5.593 1.057-36.884 5.739-30.384"/><path d="M512.823 206.186l-5.889 18.441 26.579 9.826 25.976 1.36 15.555 6.652 18.726 1.058"/><path d="M580.029 217.523l-7.4 14.512-37-8.465m13.139-16.326l1.51 19.651m17.517-13.454l-4.229 16.477m-27.183-10.732l-24.465-9.977m10.572 20.71l2.266-15.419m38.812 42.477l-30.506-6.953-27.788-14.21-13.29 29.931 17.368 12.697"/><path d="M506.934 269.826l20.84 2.872-8.004 10.733 8.004 10.581m7.854-1.814l9.213 3.477 7.853-9.977-20.237-14.36-4.682 1.36m-24.918-45.803l-4.681-19.651-10.421 1.058-2.718 5.896-22.955 10.581-1.812 14.209 8.759 8.314 20.237 5.593"/><path d="M499.383 233.849l-12.534-2.872-10.723 1.36-14.8-1.36m-.755 4.837l-13.893 5.291-5.135 16.023-10.27 16.931 1.36 14.36 16.763 16.477"/><path d="M422.666 260.453l10.269 10.884 27.335 10.581 14.498 13.756 71.282 31.895 6.645 3.024 15.102 38.244 1.057 26 18.878 55.325"/><path d="M411.188 284.941l60.106 31.593 28.09 16.628 33.073 27.663v44.593l12.082 32.802M411.188 306.709l44.098 27.058"/><path d="M431.575 295.674L416.02 322.43l13.591 9.372m19.785-26.906l-38.208 55.477 20.689-12.093m9.515 25.244l-13.894-36.883"/><path d="M441.393 316.686l52.857 32.197-2.265 7.256 24.012 9.674m6.492-13.301l-22.2 44.593m-10.268-69.384l-18.123 58.5m-5.739-25.85l-8.608 19.954m25.07-29.023l-15.404-6.046m24.767 20.558l-9.363 25.547m19.782-30.988l-12.383 32.198m-34.735-35.675l-6.947 19.652m11.932-94.63l-7.551 24.791m22.048-11.035l-9.665 17.686m16.46-14.663l10.421 17.989m9.515-9.069l-7.853 22.221m7.853 5.289l5.437-12.697 10.42 4.081m-1.359 20.559l1.359-11.942h27.033l1.661-7.558m-13.592 33.257v-25.698m-15.102 10.127l45.005 9.825m-29.903 9.524l35.339 4.232 69.922-20.558 25.523 19.651"/><path d="M630.771 376.094l-23.257-35.07v-17.232l15.555-19.349 2.869-47.314"/><path d="M605.551 357.803l8.759 22.825 39.567 25.698 56.482 25.244 69.168 22.977m-175.184-71.048l-10.572-41.116m-130.33-57.441l8.458-21.163m-34.434 0l29.751 11.791 11.477-4.233 11.327 5.593 12.837 17.384m44.702 13.303l-1.51 9.07m33.979 5.743l-62.674-29.477-10.42-1.512-6.645 5.291 76.719 33.105m4.832-33.103l14.196-1.059v-24.337l29.902-14.209 6.041 6.651 37-1.058"/><path d="M623.977 290.234l43.191-13.303 10.421-65 10.722-85.256 12.837-71.802m-37.756 252.743l-40.323-3.175-3.473 35.373m40.02-.453l-38.964-7.558"/><path d="M623.977 287.361l21.596-13 5.889 13-3.473 19.349m-79.135 19.651l-8.004 24.942 22.653-7.86 36.094-3.628 18.122 8.465m-253.412-34.466l-7.551 31.442m284.371-18.895l38.661 14.814m-22.2 23.733l10.42-28.267m11.931 10.43l-14.044-4.686m13.892 8.918l-16.914 1.209m17.066-38.698l-34.433-22.372 35.037-25.396 33.979-26.756-1.812-54.569m-32.922 100.22l-34.282 6.5"/><path d="M648.291 224.78l27.788-2.57 25.371-13 31.262-24.488 3.171-25.396 17.065-46.104 4.531-44.895-4.078-59.71"/><path d="M643.307 46.709l114.171 18.442-24.012 28.267-8.608 9.826-24.163 50.186m.452 52.756l-57.841-66.209-16.31 37.941m46.817-77.848l-13.743 34.314"/><path d="M647.385 53.059l25.975 11.035 24.768 6.953 44.249 11.942 13.29 3.779 22.804 3.477m.905 26.907l-26.428-3.93-58.445-21.163-27.335-10.733m51.951-4.535l-1.812 8.767 37 14.512m9.06 75.733l8.457 60.918m-38.51-32.65l34.282-1.21m-33.979 19.348l36.698 2.721m-107.828-36.127l1.661 11.488h-11.175m-48.782-9.373l30.356 3.628m3.172 6.954l-10.723-1.209m-10.42 15.872l21.143-5.14m-31.412-30.082l10.269 1.361m-11.024-35.07l-6.494 20.105-1.964 13.605-9.514 21.314m-38.812-38.547l-3.02 12.093-3.172 19.651-50.592-12.244 7.4-20.709m64.184 1.209l-1.812 15.57m-6.947 1.662l17.518 1.361v9.674m2.417-27.511l-1.359 10.279m6.644-50.338l-10.119 39.303m24.616-36.279l-10.874 37.942m-52.855 1.058l-8.91 20.104m225.322-57.894l-46.816-13.605m48.325 9.372L706.734 110.5"/><path d="M635.756 103.244l9.967 11.79-5.89 16.024 8.458 3.325 32.016-89.79-29.147-8.92m-14.045 64.397l20.086 9.372"/><path d="M562.209 46.709l8.759 16.78 90.311 34.313M560.85 86.767l10.118-23.279"/><path d="M587.58 113.221l2.869-42.325 4.078-24.186 1.812-11.035 11.629-28.872m-41.077 27.965l23.559 11.941m-17.671-26.906l25.07 11.337m-4.38 21.919l15.253 6.953m1.51 70.895L627.6 84.953l12.837-35.22m6.191 21.919l-12.987-3.326m-21.142 11.186l-10.571 47.011M590.449 20.861l24.466 10.28m-78.229 23.732l-8.608 22.826m-15.707-24.642l6.947-23.883 49.384.907m-52.554 65.604l-20.237-2.267-3.927 12.093m-6.041 3.78l-6.041 14.058 4.833 5.744m15.554-35.221l2.114-9.372m8.308.453l9.665 1.663m-8.005-20.407l10.421 2.116M430.971 8.617l-13.894 29.326-6.645 41.872-3.776 4.686m70.981-77.698l-5.285 19.349 30.959 13.453"/><path d="M428.707 13.454l33.678 14.814 3.473-21.465m-95.596 16.324l11.628-7.709m9.967 3.176l-6.343 15.116m14.649-20.257l-12.837 29.93-22.653 40.36-7.702 24.036 7.249 11.639-1.057 10.43m43.494-109.289l-7.702 13.15m15.405-12.395l-8.458 18.291m-62.976-15.117l14.045 9.07m10.722 2.268l12.233 8.919m354.597 194.546l-21.747 57.442-13.29 21.011m78.985-60.616l-19.331 1.361-28.392-9.221m-7.703 20.557l36.094-11.337"/><path d="M767.597 236.721l-1.964 54.721-6.494 18.29-8.608 16.628"/><path d="M699.789 321.07l20.841 1.058 35.641 5.442 22.2-1.209m-69.319-23.732h33.829l35.49 13.907m-64.637-22.524l12.988.302 51.649-15.267m-35.49 23.581l-2.417-12.396"/><path d="M778.47 309.733l-17.518-5.29-6.343-18.291-2.718-11.791 26.579-3.023m-61.163 13.605l34.583-10.582m-18.575 28.268l-2.567 19.802m-54.973-82.081l24.768 25.697m-86.232-51.85l13.893 33.71 27.335-6.5m-14.044-13.757l-19.784 4.686"/><path d="M640.134 245.034l-5.587-15.721-7.401-8.163m93.483 100.979v34.767m25.523-30.837l2.719 28.418m29.599-18.895l-30.204 12.395m-348.707-115.64l-45.306-36.884-12.233 9.523-18.122 36.431 19.028 26.604-76.567 74.524-83.515 28.267-40.02 16.477-21.898 15.116 15.102 20.558M16.72 444.872L45.718 409.5l8.306-12.546 16.914-24.791 69.168-62.884 103.751-91.151 79.739-99.616"/><path d="M235.4 146.93l75.209 34.011 31.412 24.035"/><path d="M213.502 401.942l-13.592-41.57-41.38-64.697-13.743-11.489 24.768-28.57 39.718-67.721 23.408-39.755 20.69-42.628m-5.889 46.861l-29.298 43.081"/><path d="M260.319 158.117l-33.678 44.744-34.735 39.756m84.57-77.094l-38.812 47.012m15.707 14.511l31.11-33.105 21.596 8.919"/><path d="M268.02 242.616l6.796-11.639L259.109 221m71.584 6.953l-26.127-17.535m34.736 0L309.4 186.686m16.159 49.127l-22.955-15.872m-5.889 28.42l20.841 15.419v6.5l-11.478 13.151-7.853.756"/><path d="M355.461 340.419l-1.057-26.605-20.992-23.43-4.984-11.337-10.873-8.768m15.706-15.873l-7.4 4.837-6.645-2.418-1.661 6.953m-62.522-123.499l22.804 12.093m-92.878 46.257l11.478 11.186m-47.724-19.803l84.118 71.5 54.368 60.767 30.355 47.012m-21.293 7.559l-14.8-48.977m8.458 50.941l-17.972-41.57m4.529-4.535l-38.812-42.023-38.51-33.256-20.539-17.233-39.719-35.22m-9.816 14.209l40.474 36.43 54.367 51.546 31.11 39.303m19.785 37.187l-37.302-31.291-67.959-68.93-13.592-12.093m3.926-4.536l-39.869-35.07m88.649 61.071l-30.657 33.104m-3.172-47.163l28.543 19.802"/><path d="M274.817 248.965l-28.09 28.116-9.061 13.605-13.743 16.477-13.592 17.686-30.204 21.616m42.436-9.221l-12.383 12.093 5.134 10.582m5.436-1.966l12.082 38.395m9.816-39.754l10.119 33.709 24.767 46.558 12.384 35.977m-47.27-142.093l18.727-14.36m19.633-46.106l-24.918 17.384m12.383 0l25.824-17.384m-27.637 29.023l30.808-19.652m-18.423 33.56l22.502-20.407m-68.715-31.29l26.278-28.872m-5.739 133.021l27.637-7.709m-16.764 16.779l-2.869-11.337m68.11-65.754l-20.69 18.744m16.764-4.233l-14.196 12.546 18.123-2.267 17.065-17.081m-30.656 35.069l13.591-12.849 9.817 9.675 9.061-9.675 6.796 4.233m-185.001 44.29l-38.208-59.407-41.681-50.489 2.265 29.477 14.498 43.686m-6.496 5.896l22.351 26.151 16.008-11.488"/><path d="M155.811 381.989l-37.906-52.453-19.935-30.233-28.543-22.825-32.62-23.582m77.927 124.254l-8.306 4.838m14.498 20.407l-34.13-44.593-45.911-33.105M16.72 299.303l25.976 32.5 18.123 26.151 47.722 57.139m-88.648-36.28l51.045-6.651m-14.045 20.409L9.02 356.594"/><path d="M9.02 345.256l36.396-24.942 50.743-58.802m-65.846 54.871l32.318-31.442m-39.717 22.07L43 288.721m9.664-35.071L9.02 292.802m37.453-39.906l-9.666-10.279-27.787-9.976"/><path d="M9.02 241.106l45.759-57.593 28.09-25.396m36.396-45.5l-25.673 31.291 21.143 23.581 34.734-30.081m13.29 30.081l-36.698-33.104"/><path d="M104.918 130l14.347 18.14 30.204 1.965M97.67 104.906l-12.535 12.547 12.534 12.546 12.837-13.302-12.837-11.791zM9.02 73.313l28.391-18.14m84.12 174.595l-38.662-23.883-41.681 47.011m-12.686-36.431l42.739 39.907"/><path d="M96.158 236.419l6.192-12.396-19.482-18.139-49.837-40.361m35.641 160.384l8.155 8.767 9.665-8.767-8.91-8.466m-3.322 6.047l7.098 7.105m-3.473 3.175l17.367 16.325m-10.42-22.523l14.196 17.686m-53.311-8.918l31.11 29.477m81.551-31.141l-9.665 8.011m21.446 9.071l-10.421 8.163m-16.914 27.36l17.972 29.326m4.077-37.791l13.139 33.105m-1.662-38.396l15.706 34.466M171.82 396.35h6.192l6.192 13.907m-74.907-22.978l-49.082 39.605m37.605-41.116l5.739 6.197M9.02 388.791l31.412 14.512 5.286 6.197L9.02 440.186m4.378-12.547l17.519-28.721M13.398 510.175h12.384l5.135 9.069 115.229-82.232m9.666-3.627l22.201-8.768m-1.663-12.244l7.853 29.477 29.6-8.465m3.926 11.488l-22.653 7.558m26.431 3.325l-103.148 24.337m16.914-35.22l36.547 81.477 4.531 16.325 47.874-5.593"/><path d="M232.832 488.709l-40.776 13.302-7.853 39.756 6.494 43.686"/><path d="M123.191 577.14l54.821-8.011 67.355-3.024 22.955 13.303 26.882 29.93 116.437-4.535 165.821 6.349h95.596l43.796 5.442 35.792 11.035 25.824 15.721M176.35 542.674l-105.413 3.024-40.02-26.454-17.519 13.151m0-11.488l106.772-4.686"/><path d="M82.87 482.209l25.673 34.616.755 15.57 12.081 11.791m-50.441-25.545l1.812 63.488m50.441-1.209l-52.254-35.221 11.931-11.186-1.963-15.872m27.637 6.045H81.66m27.638 7.71l-26.429 2.117m-34.434-3.628l-11.628 16.174 4.077 4.686"/><path d="M70.938 545.697l-22.502 4.082L9.02 572.755m48.024 10.13l-.151-20.256M74.26 443.662l-17.367 8.768m25.975 1.511l-24.616 13m32.621-3.324L72.75 476.315m-7.098 18.138v17.384m104.356-37.336l56.784-3.175m-11.478 96.138v-11.337l96.352-184.721M186.469 556.885l28.845-.756m12.383-23.734l18.878-4.383"/><path d="M266.661 457.873l-38.964-60.012 88.196 69.082-51.649 11.186m4.078-92.512l9.213 51.244m20.69-39.756l-26.278 8.314m45.608 31.442l-31.412 6.803m30.656 1.207l29.902-1.209m7.402 21.92l-38.208 1.36m-.756 21.767l44.702-6.5m-45.306 29.478l53.31-6.349m-38.964 62.732l-9.363-37.186 1.057-16.325m-168.69-68.023l11.477-4.686m3.624 128.941l4.833 30.233m12.384-24.036l-15.857 2.419m-37.754 2.57l22.804 24.488 7.4 23.884 8.608 41.872 49.988 25.697 24.314 7.256"/><path d="M235.701 687.489h-11.478l-40.02-20.71h-15.857m1.057 5.442l-9.816 8.767-29.6 4.988-18.425 9.675-26.58 34.919m99.221-63.791l4.531-40.965-1.661-29.326m51.045 22.676l-49.837-1.512m-35.793 85.557l11.931-17.232m-4.831-4.989l30.657 18.744m5.889-13.755l-16.31 37.79m21.143 12.547l27.939-64.093m-72.339 32.955l-25.975 52.907m30.354 13.906s-13.138-15.872-33.828-12.849c-20.539 3.024-22.2-10.732-22.2-10.732l-2.87-9.675L9.02 694.594"/><path d="M31.673 733.292l11.024-22.675 25.976-52.756L9.02 687.489m43.796-50.639l-24.617-31.291 70.829-14.209M75.771 707.14l-17.67-27.814m202.52-98.861l2.869 26.907-22.351 92.36-13.441 47.617-12.837 30.383m79.588-2.719l-10.269-44.896m-15.858 44.894l19.029-31.29m46.816-19.953l-20.388 35.523M338.85 636.85l-33.829 3.325-8.759 86.768m11.023-3.024l18.878-85.86m6.192 79.359l5.437-81.477m28.391 22.826l-29.751-3.326m18.726 89.942l20.237-29.477m37.303 24.035l-21.294 37.791m29.599-25.244l-15.706 25.244M263.49 649.094l31.715 13.302m314.424-51.246l3.926-51.244 60.711 6.198"/><path d="M632.735 552.652l-4.077 58.5-10.27 57.896-27.486-3.931m187.568-67.269l-53.613-20.407-50.592-11.337-23.559-20.407-5.89 17.384m107.829 64.547l13.138-34.616m-131.236 97.047l7.249-32.5 30.959-3.477 35.792 7.256 69.923 17.232"/><path d="M778.47 690.057l-23.71-2.267-82.608-22.674-56.935-12.698m11.476 17.837l2.115-14.814m-81.4-25.091l40.625 4.686h65.694V610.85"/><path d="M700.694 360.523l1.208 19.803 3.473 62.732-4.681 12.093-3.776 19.5-3.624 45.954-4.078 10.581-14.951 34.919-1.208 45.046-.906 53.965-1.662 35.373-1.208 56.988m45.308-127.28l-41.833-3.779m105.714 31.141l-37-15.418-12.534 24.186"/><path d="M653.727 656.198v-21.163l18.877 2.116m-84.571-2.115l32.47-24.186-2.568 24.186m39.87-91.907h26.277m-1.057 2.568l43.645 12.849m1.51-9.976l19.783 4.082m-3.019-17.99l-3.02 16.023m36.546-25.243l-44.853-8.465m43.644 24.186l-58.596-11.488-58.747-15.721-35.641-13.907m155.25-92.209l-57.992-6.197m24.768 42.173l7.098-38.849"/><path d="M730.898 417.965l-14.045 75.581 17.518 18.14-19.783 118.511-15.404 78.756m3.323-316.383h-50.894l-4.682 41.57-7.702 29.477-12.233 25.093-10.722 36.732-4.38 20.256-12.535 19.803m-34.13 13.301l14.498-33.105m-50.895 0h121.874"/><path d="M616.273 525.441l19.18 6.047 5.588 14.209m21.898-4.535l-9.212-17.383 30.355-50.338m-48.629 58.048l18.274-7.71m0-12.244l7.702-28.57m-22.654 9.976l-96.502-34.767-24.164 76.488m49.99 2.419l-47.119-11.64m58.747 2.872l-54.821-15.418"/><path d="M583.2 500.046l-49.837-14.058-48.175-13.756m88.951 60.315l4.228-15.57 33.527-99.163 7.249-2.267 13.592 46.105"/><path d="M691.331 470.268l-52.102-6.651-38.662-12.244-58.294-5.442-70.375-21.012-43.796-27.058-88.045-42.779"/><path d="M329.486 385.616l26.731-8.767 7.853-10.128m18.877-18.744l-14.498 20.86m-31.865 38.546l11.931-9.523 25.371-26.454 34.886-12.244"/><path d="M356.217 376.85l7.853 5.593 32.922 17.081m-50.291-.303l47.421 16.325m-42.134 43.989l39.719-7.558m-48.781-20.255l37.604-12.396 73.849 26.605m-39.416 17.685l8.759-34.919m-8.759 3.024l4.38-10.733"/><path d="M398.652 512.896l12.535-19.802 54.972-62.431 30.053-35.069"/><path d="M438.371 537.082l5.135-48.372 14.045-37.791 5.739-17.081m-21.898 72.709h-6.947v8.011m61.768-9.22l-8.457 34.616 1.812 67.872"/><path d="M409.376 596.035l-37.605-1.058 33.527-16.174 126.857 6.651"/><path d="M493.948 514.559l-30.658-13.454-3.624 38.547-4.078 41.721 2.417 65.151-10.572 41.721 1.812 29.174-18.575 57.593m12.986-3.476l5.286-8.919 9.212 2.57-3.775 9.826m13.14-91.757l1.359 41.872-16.159 38.395m9.664-2.871l6.494-15.267-1.208-17.233"/><path d="M439.881 746.593l-6.192-32.5 34.735-3.325m-31.714 19.349l-14.347 14.965m57.237 11.639l25.975 3.93 23.559 8.616m29.904-17.988l-5.286 17.989m11.477 5.743l22.502-79.058m-42.135 23.582l32.469 10.582m-57.086-11.187l8.155 2.419 54.367-10.582-57.085-7.558-22.352-7.256m25.826-2.569l-22.804-8.163m-8.004-9.977l-12.535 33.407 12.535 2.116 12.081-38.546m-45.608-24.034l18.122 30.988 10.27-25.244 10.118-45.5 11.629-47.314m-6.342 0l6.342-24.035m5.286 25.093l5.437-19.046"/><path d="M474.164 614.629l-1.812 16.93 25.069 6.5m2.415-10.43l45.004 15.418m-21.141 17.384l9.666-50.942-3.323-16.93m-99.372 13v20.86h10.722v-20.407m-57.689-49.883l7.702 31.291-3.624 20.407v24.034l-22.804 77.396 53.461 34.465m-56.483-136.954v20.86m66.298 41.419l-41.077-35.524m252.355 57.895l-15.404 40.058-34.734-11.942m-1.36-27.964l45.76 14.814m18.425-11.337l-15.404 41.57-10.119 38.395m-33.83-37.338l39.719 15.116m-37.453-6.196l35.49 13.756m32.317-.001l-11.93-18.14m-14.196-5.592l32.47 11.186m32.771 8.918l42.135 21.011m-9.817.001l13.441-44.442 30.657 11.942m-109.188-7.558l33.225-2.267 35.943-14.058m-15.404-4.838l24.616-30.686m6.042 31.896l12.082-28.872m-47.723 6.197v19.802m-14.197-4.384l-1.359 24.942m-12.08-29.022v30.232m-5.286-33.408l-2.115 33.558m-6.041-33.558v33.86m-5.738-25.546l24.919 9.977 38.51-1.36m43.794 33.255l-33.828-9.674M529.136 721.35l-.755 22.372-109.037 2.872m99.521-21.768l22.804 6.651M280.254 592.559h29.902M450.754 376.85l-11.024 28.116 48.628-.302 11.931 27.965-19.331 50.79-47.722-13.907-41.531-13.755m146.039 16.476l-46.213-16.477m50.742 2.418l2.266-12.244m-1.209-42.477l8.91 24.186m97.711-21.313l-107.678 32.651m7.704-2.419l8.306-27.058-3.323-9.977m-.755 23.128l22.502-4.686m-5.74-13.303l-12.686 4.837m-67.656-7.405l14.649 10.581v13.756l-4.984 6.198m9.062 3.475l3.171-9.674 30.355 7.407m-5.738-15.872l-24.617-6.197v-10.733m41.53 74.372l6.796 13.302 23.559-15.268m-30.355 30.082l-9.514 42.175m65.09-81.78l15.857 6.349m-1.209-11.337l-3.625 9.523m26.28-34.312l58.445 8.918m-41.984 24.034l5.889-29.628m-27.335 12.697l23.56 6.802m35.188 9.222l31.413 6.047 11.326-3.023 4.078-23.431"/><path d="M769.711 451.221l-9.061 25.697-17.216-7.709m-129.123-88.581l8.155 28.872 19.481-24.338 9.515 1.059 2.265-16.024m-262.022 68.78l27.637 6.953m-42.587 8.617l-2.718-18.442m8.909 4.081l-17.065 1.662m80.041 11.791l-17.367-1.662m-54.518 68.628s6.796-2.872 8.91 0c0 0 2.417-8.465 10.723-4.081 0 0 1.359-1.965 6.494-1.965h40.473m-60.106 25.092l24.466-8.163m-22.05-10.883l5.286 16.477m5.587-20.559l4.833 17.082m4.379-248.663l-12.686 12.697-53.914-55.93s-3.02-4.384 3.473-10.128c6.645-5.744 10.421-.756 10.421-.756l52.706 54.117zm-66.448-43.082l-12.686-.454m25.672-11.336l.906-31.593m28.696 17.384l-38.813 38.547"/><path d="M381.739 309.431l-36.245-34.918 26.278-26.152s6.947-4.837 11.628-6.651c4.531-1.814 10.421-2.569 9.515-7.709-.906-5.14-15.858-15.872-15.858-15.872"/><path d="M363.012 257.129l28.09 27.814-6.192 7.104m-2.869-28.721l-12.686 12.698m15.856 28.418l-34.734-34.616"/><path d="M349.571 263.629l-20.69-22.221 21.596-38.547 23.71 18.14 24.767 60.616-12.081 12.395M379.171 312l-24.013-23.732"/><path d="M394.727 271.338l4.832-1.511-2.416-12.698"/><path d="M9.02 3.023S64.142 70.291 98.122 95.99c33.979 25.697 152.531 125.465 163.102 139.069 10.572 13.605 27.184 23.431 31.714 31.745 4.531 8.313 43.796 145.116 52.103 171.569 8.306 26.454 33.979 98.256 33.979 98.256s7.551 18.14 18.878 15.116c0 0 13.592-.755 5.286-27.209-8.307-26.453-23.711-86.616 5.587-165.372 0 0 40.172 82.233 52.858 97.349 12.685 15.116 48.93 72.558 58.747 80.116 9.816 7.558 15.857 21.919 24.163 31.744 8.306 9.826 10.571 22.675 25.673 34.768 15.103 12.093 25.674 43.081 18.878 80.872-6.796 37.791 16.612 93.721 16.612 93.721m44.25-720.293s-6.645 34.012-18.726 54.419c-12.082 20.407-28.543 72.105-29.298 97.349M367.693 104.303l44.551 179.128s-3.775-29.477 6.041-47.617c9.817-18.139 32.319-80.721 32.319-80.721m-157.666 111.71l53.612-260m-76.265 0s8.91 56.686 86.686 42.325C434.898 34.768 564.02 6.803 564.02 6.803m-51.648 11.035L494.25 61.222M245.368 6.803S174.69 172.93 93.592 264.535M9.02 365.814s177.449 210.873 183.49 222.21c6.041 11.337 61.163 146.93 67.959 148.29 6.796 1.361 31.412-37.186 31.412-37.186" stroke-width="3"/><path d="M250.049 718.627s15.404-33.861 26.579-27.814c11.176 6.046 46.364 18.895 68.715 43.384 22.351 24.639 35.188 43.535 35.188 43.535" stroke-width="3"/><path d="M539.102 665.117l-211.58 53.512-67.054 17.686-16.763 41.418m203.727-89.489l-32.016 45.047" stroke-width="3"/><path d="M9.02 586.512s92.122-8.314 121.571-4.535c29.449 3.779 341.307 67.268 380.572 75.582 39.266 8.313 230.307 60.465 267.307 79.058" stroke-width="3"/><path d="M9.02 658.768s30.959-18.593 57.387-26.907c26.429-8.314 106.621-30.686 128.821-37.942 22.2-7.255 65.241-13.453 91.67-17.232 26.428-3.779 97.408-22.675 111-24.942 0 0 7.4.151 7.551-8.163 0 0 17.669-10.732 49.988-4.686 32.318 6.047 56.179-6.349 68.865 1.361" stroke-width="3"/><path d="M405.298 690.059l-90.31-72.407s-8.76-32.198-4.078-46.407c4.682-14.21 3.171-157.058 12.686-205.431M138.143 422.5s24.163 46.105 49.081 74.07c24.919 27.965 55.123 57.442 58.143 69.535 3.021 12.093-17.971 102.639-17.971 102.639l44.4 21.314M9.02 628.838S43 642.443 64.142 655.291c21.143 12.849 62.674 25.698 75.51 37.035 12.837 11.337 42.286 36.279 67.205 46.105 24.918 9.825 64.183 28.721 74.755 39.302" stroke-width="3"/><path d="M86.795 777.734s41.078-59.71 43.192-91.756c2.114-32.198-7.702-102.942-8.457-134.837-.755-31.896-5.89-123.5-5.89-123.5m438.112 155.545s-2.568 41.872-14.649 81.93c-12.082 40.058-40.021 112.616-40.021 112.616m62.975-107.476l-35.641 107.477m103.299-.001s48.326-24.942 66.449-34.011m-37.453 34.012s63.278-29.931 98.616-49.733m-157.061 35.524l-192.401-57.139m77.926-27.815s6.494 44.745-13.592 99.163m-102.996-15.117l37-62.884m-91.216-82.08l-33.376 75.733" stroke-width="3"/><path d="M74.26 660.733s82.306-39.302 134.559-35.221c52.404 4.081 98.466 9.523 98.466 9.523" stroke-width="3"/><path d="M9.02 743.72s61.163-26 74-43.988c12.836-17.988 23.861-44.895 21.747-58.349-2.115-13.453-6.645-46.407-5.89-60.465m334.813 109.14l-35.792-138.314 196.629 15.57" stroke-width="3"/><path d="M511.164 657.558l27.939-96.291s43.645-40.512 90.612-63.942c46.817-23.43 135.164-50.639 148.756-83.139M9.02 303.837s58.898-25.697 84.571-39.302" stroke-width="3"/><path d="M778.469 485.988s-24.163 21.163-103.449 50.64-239.519 92.965-251.6 99.011c-11.931 6.047-21.445 45.954-17.217 64.093 4.229 18.14 22.351 78 22.351 78M9.02 256.221s74.755-19.651 117.796 35.523c43.041 55.175 77.171 112.919 77.171 112.919s42.89 126.674 53.462 152.372c10.571 25.698 24.918 38.547 16.612 58.198-8.306 19.651-18.123 65.756-18.123 65.756" stroke-width="3"/><path d="M9.02 382.441s100.428 31.745 130.632 43.838c30.205 12.093 112.964 55.93 136.825 67.267 23.862 11.337 121.421 58.198 121.421 58.198l36.245 139.976 13.29-3.325-32.017 44.895m-58.445-393.476s47.722-44.291 55.273-56.384c7.551-12.093 25.674-69.535 43.041-71.802 17.368-2.267 123.082-12.093 135.164-7.558 12.081 4.535 70.224 34.767 85.326 36.279 15.102 1.512 83.817-1.512 102.695-4.535" stroke-width="3"/><path d="M9.02 445.93s80.796-11.338 129.122-23.431c48.327-12.093 174.278-48.372 188.776-57.442 14.347-9.069 23.257-26.453 33.98-25.697 10.722.756 153.286 71.802 176.694 65.756 23.408-6.047 129.123-49.884 240.878-52.152M10.53 591.35l17.669 14.209-2.417 169.453M9.02 130s66.449-41.57 104.204-61.977c37.755-20.406 107.225-65 107.225-65" stroke-width="4"/><path d="M643.306 46.709s-67.96 1.663-92.878.151c-24.919-1.511-36.245 5.29-50.592 12.093-14.347 6.802-112.51 39.302-155.551 52.907-43.041 13.605-159.176 55.326-159.176 55.326L84.227 84.348 16.721 13.454" stroke-width="4"/><path d="M620.654 6.803s77.021 131.511 80.041 146.628c3.021 15.116-3.02 191.372 0 207.093 3.021 15.872 77.776 136.046 77.776 136.046" stroke-width="4"/><path d="M1421.54 57.441s-33.37 10.884-43.64 14.512c-10.27 3.628-31.57 15.267-31.57 15.267s-25.82 16.78-38.21 17.838c-12.23 1.058-32.46 0-44.24 3.023-11.94 3.023-33.83 10.43-33.83 10.43l-51.35 14.814-75.66 21.768s-73.7 11.79-81.4 11.337c-7.7-.454-16.01-3.628-25.826-3.023-9.817.453-42.89 2.872-51.347 6.348-8.458 3.477-38.36 18.896-46.666 19.5-8.306.454-45.759-5.744-45.759-5.744s-18.274-2.57-24.919 0c-6.644 2.57-51.951 5.744-51.951 5.744"/><path d="M1191.84 8.617l-88.05 148.896-101.03-81.93m149.51 17.835l20.24-5.744"/><path d="M1137.77 88.582l-66.29 16.326-12.84.907-126.406 27.511-79.89 24.186-77.322 22.675M1108.63 78.756l4.53 15.872m-20.24-21.163l7.55 24.337"/><path d="M1078.72 103.244L1053.35 117l-38.66 10.279-25.219 3.779-50.743 19.802-36.849 81.326-15.555 44.744 10.421 86.012m114.175-255.315l23.41-5.895 12.23-24.338-9.36-26"/><path d="M975.577 6.803l29.453 74.825 17.67 84.803-59.658 37.639"/><path d="M1049.28 6.803l-46.52 68.779-20.236 22.22-34.584 32.047"/><path d="M897.954 6.803l12.232 39.907L1022.7 166.43l54.67 23.581 91.67-18.291 70.07-9.221"/><path d="M1239.41 164.012l-40.17 31.442-72.19-47.314-3.17-24.79m30.66 106.57l-19.94-37.942-5.43-12.396-2.12-31.441m0 69.836l7.55-26m.61 43.836l14.04-15.872"/><path d="M1169.94 98.559l-17.67 5.744 6.95 23.732-33.83 6.803m29.15 5.442l-2.27-10.884"/><path d="M1157.56 102.641l8.61 29.476-12.84 2.268m-94.09-13l16.62 37.942m-3.33-27.21l11.03 26m-20.69 3.174l14.5 28.721-63.13 14.058-62.675 20.558 8.155 18.896-1.057 11.186 14.649 17.988-1.661 24.035 5.89 3.779 15.253-3.779"/><path d="M980.864 241.105l-29.298-16.477-12.384 36.431 1.359 15.872 11.025 24.639 21.898 2.268 3.624 5.895 15.706-6.5v-17.232l2.87-9.07 25.376-5.593-1.06-36.884-5.74-30.384"/><path d="M1040.67 206.186l5.89 18.441-26.58 9.826-25.977 1.36-15.555 6.652-18.726 1.058"/><path d="M973.463 217.523l7.4 14.512 36.997-8.465m-13.14-16.326l-1.51 19.651m-17.513-13.454l4.229 16.477m27.184-10.732l24.46-9.977m-10.57 20.71l-2.26-15.419m-38.816 42.477l30.506-6.953 27.79-14.21 13.29 29.931-17.37 12.697"/><path d="M1046.56 269.826l-20.84 2.872 8 10.733-8 10.581m-7.86-1.814l-9.21 3.477-7.85-9.977 20.24-14.36 4.68 1.36m24.91-45.803l4.69-19.651 10.42 1.058 2.72 5.896 22.95 10.581 1.81 14.209-8.76 8.314-20.23 5.593"/><path d="M1054.11 233.849l12.53-2.872 10.73 1.36 14.8-1.36m.75 4.837l13.89 5.291 5.14 16.023 10.27 16.931-1.36 14.36-16.76 16.477"/><path d="M1130.83 260.453l-10.27 10.884-27.34 10.581-14.5 13.756-71.28 31.895-6.64 3.024-15.105 38.244-1.057 26-18.877 55.325"/><path d="M1142.3 284.941l-60.1 31.593-28.09 16.628-33.07 27.663v44.593l-12.09 32.802m133.35-131.511l-44.09 27.058"/><path d="M1121.92 295.674l15.55 26.756-13.59 9.372m-19.78-26.906l38.2 55.477-20.69-12.093m-9.51 25.244l13.89-36.883"/><path d="M1112.1 316.686l-52.86 32.197 2.27 7.256-24.01 9.674m-6.5-13.301l22.2 44.593m10.27-69.384l18.12 58.5m5.74-25.85l8.61 19.954m-25.07-29.023l15.41-6.046m-24.77 20.558l9.36 25.547m-19.78-30.988l12.38 32.198m34.74-35.675l6.94 19.652m-11.93-94.63l7.55 24.791m-22.04-11.035l9.66 17.686m-16.46-14.663l-10.42 17.989m-9.52-9.069l7.86 22.221m-7.86 5.289l-5.43-12.697-10.42 4.081m1.36 20.559l-1.36-11.942h-27.04l-1.66-7.558m13.6 33.257v-25.698m15.1 10.127l-45.007 9.825m29.907 9.524l-35.344 4.232-69.922-20.558-25.523 19.651"/><path d="M922.721 376.094l23.258-35.07v-17.232l-15.556-19.349-2.869-47.314"/><path d="M947.941 357.803l-8.759 22.825-39.567 25.698-56.482 25.244-69.167 22.977m175.183-71.048l10.572-41.116m130.329-57.441l-8.46-21.163m34.44 0l-29.75 11.791-11.48-4.233-11.33 5.593-12.83 17.384m-44.71 13.303l1.51 9.07m-33.976 5.743l62.676-29.477 10.42-1.512 6.64 5.291-76.715 33.105m-4.833-33.103l-14.196-1.059v-24.337l-29.902-14.209-6.041 6.651-37-1.058"/><path d="M929.516 290.234l-43.192-13.303-10.421-65-10.722-85.256-12.837-71.802M890.1 307.616l40.323-3.175 3.473 35.373m-40.019-.453l38.963-7.558"/><path d="M929.516 287.361l-21.596-13-5.89 13 3.473 19.349m79.135 19.651l8.005 24.942-22.654-7.86-36.093-3.628-18.123 8.465m-23.408-21.919l-38.661 14.814m22.2 23.733l-10.42-28.267m-11.931 10.43l14.045-4.686m-13.893 8.918l16.914 1.209m-17.065-38.698l34.432-22.372-35.036-25.396-33.98-26.756 1.812-54.569m32.923 100.22l34.281 6.5"/><path d="M905.201 224.78l-27.788-2.57-25.371-13-31.261-24.488-3.172-25.396-17.065-46.104-4.531-44.895 4.078-59.71"/><path d="M910.186 46.709L796.014 65.151l24.012 28.267 8.608 9.826 24.164 50.186m-.453 52.756l57.841-66.209 16.31 37.941m-46.817-77.848l13.743 34.314"/><path d="M906.107 53.059l-25.975 11.035-24.767 6.953-44.25 11.942-13.289 3.779-22.805 3.477m-.905 26.907l26.428-3.93 58.445-21.163 27.335-10.733m-51.951-4.535l1.813 8.767-37.001 14.512m-9.06 75.733l-8.457 60.918m38.51-32.65l-34.282-1.21m33.979 19.348l-36.698 2.721m107.828-36.127l-1.661 11.488h11.176m48.781-9.373l-30.355 3.628m-3.172 6.954l10.722-1.209m10.42 15.872l-21.143-5.14m31.413-30.082l-10.27 1.361m11.025-35.07l6.494 20.105 1.963 13.605 9.514 21.314m38.808-38.547l3.02 12.093 3.18 19.651 50.59-12.244-7.4-20.709m-64.186 1.209l1.812 15.57m6.948 1.662l-17.519 1.361v9.674m-2.417-27.511l1.359 10.279m-6.643-50.338l10.118 39.303m-24.616-36.279l10.874 37.942m52.86 1.058l8.91 20.104M806.283 128.64l46.817-13.605m-48.326 9.372l41.984-13.907"/><path d="M917.736 103.244l-9.967 11.79 5.89 16.024-8.457 3.325-32.017-89.79 29.147-8.92m14.045 64.397l-20.086 9.372"/><path d="M991.283 46.709l-8.759 16.78-90.31 34.313m100.429-11.035l-10.119-23.279"/><path d="M965.912 113.221l-2.869-42.325-4.078-24.186-1.812-11.035-11.629-28.872m41.078 27.965l-23.56 11.941m17.671-26.906l-25.07 11.337m4.38 21.919l-15.253 6.953m-1.51 70.895l-17.368-45.954-12.836-35.22m-6.192 21.919l12.988-3.326m21.141 11.186l10.571 47.011m11.479-105.662l-24.465 10.28m78.232 23.732l8.6 22.826m15.71-24.642l-6.95-23.883-49.38.907m52.55 65.604l20.24-2.267 3.93 12.093m6.04 3.78l6.04 14.058-4.83 5.744m-15.56-35.221l-2.11-9.372m-8.31.453l-9.66 1.663m8-20.407l-10.42 2.116m91.82-59.708l13.9 29.326 6.64 41.872 3.78 4.686m-70.99-77.698l5.29 19.349-30.96 13.453"/><path d="M1124.79 13.454l-33.68 14.814-3.48-21.465m65.7 6.65l12.84 29.93 22.65 40.36 7.7 24.036-7.25 11.639 1.06 10.43m-43.49-109.289l7.7 13.15m-15.41-12.395l8.46 18.291M818.969 239.291l21.747 57.442 13.29 21.011m-78.984-60.616l19.33 1.361 28.392-9.221m7.703 20.557l-36.094-11.337"/><path d="M785.896 236.721l1.963 54.721 6.494 18.29 8.608 16.628"/><path d="M853.703 321.07l-20.841 1.058-35.641 5.442-22.2-1.209m69.319-23.732h-33.829l-35.49 13.907m64.637-22.524l-12.988.302-51.649-15.267m35.49 23.581l2.417-12.396"/><path d="M775.022 309.733l17.518-5.29 6.343-18.291 2.719-11.791-26.58-3.023m61.164 13.605l-34.584-10.582m18.575 28.268l2.567 19.802m54.973-82.081l-24.768 25.697m86.233-51.85l-13.894 33.71-27.335-6.5m14.045-13.757l19.783 4.686"/><path d="M913.358 245.034l5.588-15.721 7.4-8.163m-93.483 100.979v34.767m-25.523-30.837l-2.719 28.418m-29.599-18.895l30.205 12.395m348.703-115.64l45.31-36.884 12.23 9.523 18.12 36.431-19.02 26.604 76.56 74.524 83.52 28.267 40.02 16.477 21.9 15.116-15.11 20.558m12.84 154.187l-54.82-8.011-67.35-3.024-22.96 13.303-26.88 29.93-116.44-4.535-165.819 6.349h-95.597l-43.796 5.442-35.792 11.035-25.824 15.721m365.768 96.591l21.3 37.791m-29.6-25.244l15.71 25.244"/><path d="M943.863 611.15l-3.926-51.244-60.711 6.198"/><path d="M920.757 552.652l4.078 58.5 10.269 57.896 27.486-3.931m-187.568-67.269l53.613-20.407 50.592-11.337 23.559-20.407 5.89 17.384m-107.828 64.547l-13.139-34.616m131.236 97.047l-7.249-32.5-30.959-3.477-35.792 7.256-69.922 17.232"/><path d="M775.022 690.057l23.71-2.267 82.609-22.674 56.934-12.698m-11.476 17.837l-2.114-14.814m81.395-25.091l-40.621 4.686h-65.694V610.85"/><path d="M852.799 360.523l-1.208 19.803-3.474 62.732 4.682 12.093 3.775 19.5 3.625 45.954 4.077 10.581 14.951 34.919 1.208 45.046.907 53.965 1.661 35.373 1.208 56.988m-45.307-127.28l41.832-3.779m-105.714 31.141l37-15.418 12.535 24.186"/><path d="M899.766 656.198v-21.163l-18.878 2.116m84.571-2.115L932.99 610.85l2.567 24.186m-39.869-91.907H869.41m1.057 2.568l-43.645 12.849m-1.51-9.976l-19.783 4.082m3.019-17.99l3.02 16.023m-36.546-25.243l44.853-8.465m-43.644 24.186l58.596-11.488 58.747-15.721 35.641-13.907m-155.25-92.209l57.992-6.197m-24.768 42.173l-7.097-38.849"/><path d="M822.594 417.965l14.045 75.581-17.518 18.14 19.783 118.511 15.405 78.756m-3.323-316.383h50.894l4.681 41.57 7.702 29.477 12.233 25.093 10.722 36.732 4.38 20.256 12.535 19.803m34.131 13.301l-14.498-33.105m50.894 0H902.786"/><path d="M937.219 525.441l-19.18 6.047-5.588 14.209m-21.898-4.535l9.213-17.383-30.356-50.338m48.629 58.048l-18.273-7.71m0-12.244l-7.702-28.57m22.653 9.976l96.503-34.767 24.16 76.488m-49.987 2.419l47.117-11.64m-58.745 2.872l54.825-15.418"/><path d="M970.292 500.046l49.838-14.058 48.17-13.756m-88.946 60.315l-4.229-15.57-33.527-99.163-7.249-2.267-13.591 46.105"/><path d="M862.161 470.268l52.103-6.651 38.661-12.244 58.295-5.442 70.37-21.012 43.8-27.058 88.05-42.779"/><path d="M1216.91 407.383l-11.93-9.523-25.37-26.454-34.89-12.244"/><path d="M1197.28 376.85l-7.86 5.593-32.92 17.081m54.07 32.198l-37.61-12.396-73.85 26.605m39.42 17.685l-8.76-34.919m8.76 3.024l-4.38-10.733"/><path d="M1154.84 512.896l-12.53-19.802-54.98-62.431-30.05-35.069"/><path d="M1115.12 537.082l-5.13-48.372-14.05-37.791-5.74-17.081m21.9 72.709h6.95v8.011m-61.77-9.22l8.46 34.616-1.82 67.872"/><path d="M1144.12 596.035l37.6-1.058-33.53-16.174-126.85 6.651"/><path d="M1059.54 514.559l30.66-13.454 3.63 38.547 4.07 41.721-2.41 65.151 10.57 41.721-1.81 29.174 18.57 57.593m-12.98-3.476l-5.29-8.919-9.21 2.57 3.77 9.826m-13.14-91.757l-1.36 41.872 16.16 38.395m-9.66-2.871l-6.49-15.267 1.2-17.233"/><path d="M1113.61 746.593l6.19-32.5-34.73-3.325m31.71 19.349l14.35 14.965m-57.24 11.639l-25.97 3.93-23.56 8.616m-29.905-17.988l5.285 17.989m-11.476 5.743l-22.502-79.058m42.138 23.582l-32.473 10.582m57.083-11.187l-8.15 2.419-54.369-10.582 57.089-7.558 22.35-7.256m-25.83-2.569l22.81-8.163m8-9.977l12.54 33.407-12.54 2.116-12.08-38.546m45.61-24.034l-18.12 30.988-10.27-25.244-10.12-45.5-11.63-47.314m6.34 0l-6.34-24.035m-5.29 25.093l-5.44-19.046"/><path d="M1079.33 614.629l1.81 16.93-25.07 6.5m-2.41-10.43l-45.01 15.418m21.14 17.384l-9.66-50.942 3.32-16.93m99.37 13v20.86h-10.72v-20.407m57.69-49.883l-7.7 31.291 3.62 20.407v24.034l22.81 77.396-53.47 34.465m-9.81-74.675l41.08-35.524m-252.359 57.895l15.404 40.058 34.735-11.942m1.359-27.964L919.7 706.384m-18.426-11.337l15.404 41.57 10.119 38.395m33.83-37.338l-39.718 15.116m37.452-6.196l-35.49 13.756m-32.317-.001l11.93-18.14m14.196-5.592l-32.47 11.186m-32.771 8.918l-42.134 21.011m9.816.001l-13.441-44.442-30.657 11.942m109.188-7.558l-33.225-2.267-35.943-14.058m15.404-4.838l-24.616-30.686m-6.042 31.896l-12.082-28.872m47.723 6.197v19.802m14.197-4.384l1.359 24.942m12.08-29.022v30.232m5.286-33.408l2.115 33.558m6.041-33.558v33.86m5.738-25.546l-24.918 9.977-38.511-1.36m-43.794 33.255l33.829-9.674m215.508-22.371l.75 22.372 109.04 2.872m-99.52-21.768l-22.81 6.651m90.92-354.627l11.02 28.116-48.63-.302-11.93 27.965 19.33 50.79 47.73-13.907 41.53-13.755m-146.04 16.476l46.21-16.477m-50.74 2.418l-2.27-12.244m1.21-42.477l-8.91 24.186m-97.709-21.313l107.679 32.651m-7.7-2.419l-8.311-27.058 3.323-9.977m.755 23.128l-22.502-4.686m5.74-13.303l12.686 4.837m67.659-7.405l-14.65 10.581v13.756l4.98 6.198m-9.06 3.475l-3.17-9.674-30.36 7.407m5.74-15.872l24.62-6.197v-10.733m-41.531 74.372l-6.795 13.302-23.56-15.268m30.355 30.082l9.511 42.175m-65.087-81.78l-15.857 6.349m1.209-11.337l3.625 9.523m-26.279-34.312l-58.445 8.918m41.984 24.034l-5.89-29.628m27.335 12.697l-23.559 6.802m-35.189 9.222l-31.412 6.047-11.327-3.023-4.078-23.431"/><path d="M783.781 451.221l9.061 25.697 17.217-7.709m129.123-88.581l-8.156 28.872-19.481-24.338-9.514 1.059-2.266-16.024m262.025 68.78l-27.64 6.953m-26.58 7.709l17.37-1.662m54.52 68.628s-6.8-2.872-8.92 0c0 0-2.41-8.465-10.72-4.081 0 0-1.36-1.965-6.49-1.965h-40.48m60.11 25.092l-24.46-8.163m11.17-14.965l-4.83 17.082m-4.38-248.663l12.69 12.697 53.91-55.93s3.02-4.384-3.47-10.128c-6.65-5.744-10.42-.756-10.42-.756l-52.71 54.117z"/><path d="M1203.92 263.629l20.69-22.221-21.59-38.547-23.71 18.14-24.77 60.616 12.08 12.395"/><path d="M1158.77 271.338l-4.84-1.511 2.42-12.698"/><path d="M1544.47 3.023s-55.12 67.268-89.1 92.966c-33.98 25.697-152.53 125.465-163.1 139.069-10.57 13.605-27.19 23.431-31.72 31.745-4.53 8.313-43.79 145.116-52.1 171.569-8.3 26.454-33.98 98.256-33.98 98.256s-7.55 18.14-18.88 15.116c0 0-13.59-.755-5.28-27.209 8.3-26.453 23.71-86.616-5.59-165.372 0 0-40.17 82.233-52.86 97.349-12.68 15.116-48.93 72.558-58.74 80.116-9.82 7.558-15.86 21.919-24.17 31.744-8.3 9.826-10.568 22.675-25.67 34.768-15.102 12.093-25.674 43.081-18.878 80.872 6.796 37.791-16.612 93.721-16.612 93.721M903.54 57.441s6.645 34.012 18.726 54.419c12.082 20.407 28.543 72.105 29.298 97.349M1185.8 104.303l-44.55 179.128s3.77-29.477-6.04-47.617c-9.82-18.139-32.32-80.721-32.32-80.721m180.32-148.29s-8.91 56.686-86.69 42.325c-77.93-14.36-207.048-42.325-207.048-42.325m51.648 11.035l18.12 43.384" stroke-width="3"/><path d="M1014.39 665.117l211.58 53.512 67.05 17.686 16.77 41.418m-203.73-89.489l32.02 45.047" stroke-width="3"/><path d="M1544.47 586.512s-92.12-8.314-121.57-4.535c-29.45 3.779-341.31 67.268-380.57 75.582-39.27 8.313-230.308 60.465-267.308 79.058" stroke-width="3"/><path d="M1544.47 658.768s-30.96-18.593-57.39-26.907c-26.42-8.314-106.62-30.686-128.82-37.942-22.2-7.255-65.24-13.453-91.67-17.232-26.42-3.779-97.4-22.675-111-24.942 0 0-7.4.151-7.55-8.163 0 0-17.67-10.732-49.98-4.686-32.32 6.047-56.18-6.349-68.87 1.361" stroke-width="3"/><path d="M1148.19 690.059l90.31-72.407s8.76-32.198 4.08-46.407c-4.68-14.21-3.17-157.058-12.68-205.431M999.741 583.186s2.569 41.872 14.649 81.93c12.08 40.058 40.02 112.616 40.02 112.616m-62.975-107.476l35.645 107.477m-103.303-.001s-48.326-24.942-66.449-34.011m37.453 34.012S831.504 747.802 796.165 728m157.062 35.524l192.403-57.139m-77.93-27.815s-6.49 44.745 13.59 99.163m103-15.117l-37-62.884" stroke-width="3"/><path d="M1119.8 690.058l35.79-138.314-196.625 15.57" stroke-width="3"/><path d="M1042.33 657.558l-27.94-96.291s-43.646-40.512-90.613-63.942c-46.817-23.43-135.164-50.639-148.756-83.139" stroke-width="3"/><path d="M775.023 485.988s24.163 21.163 103.449 50.64 239.518 92.965 251.598 99.011c11.93 6.047 21.45 45.954 17.22 64.093-4.23 18.14-22.35 78-22.35 78" stroke-width="3"/><path d="M1544.47 382.441s-100.43 31.745-130.63 43.838c-30.2 12.093-112.96 55.93-136.83 67.267-23.86 11.337-121.42 58.198-121.42 58.198l-36.24 139.976-13.29-3.325 32.02 44.895m58.44-393.476s-47.72-44.291-55.27-56.384c-7.55-12.093-25.68-69.535-43.04-71.802-17.37-2.267-123.085-12.093-135.167-7.558-12.081 4.535-70.224 34.767-85.326 36.279-15.102 1.512-83.817-1.512-102.694-4.535" stroke-width="3"/><path d="M1544.47 445.93s-80.79-11.338-129.12-23.431c-48.33-12.093-174.28-48.372-188.78-57.442-14.34-9.069-23.25-26.453-33.98-25.697-10.72.756-153.28 71.802-176.69 65.756-23.408-6.047-129.123-49.884-240.878-52.152M910.187 46.709s67.959 1.663 92.873.151c24.92-1.511 36.25 5.29 50.6 12.093 14.34 6.802 112.51 39.302 155.55 52.907 43.04 13.605 159.17 55.326 159.17 55.326l100.89-82.838 67.5-70.895" stroke-width="4"/><path d="M932.838 6.803s-77.021 131.511-80.041 146.628c-3.021 15.116 3.02 191.372 0 207.093-3.021 15.872-77.776 136.046-77.776 136.046" stroke-width="4"/></g><circle opacity=".2" cx="755" cy="537" r="25" fill="#fff"/><circle cx="755.001" cy="537.001" r="16.667" fill="#fff"/><path d="M753.844 536.78c0 1.75-.335 3.095-1.005 4.035-.66.93-1.575 1.395-2.745 1.395-1.17 0-2.09-.465-2.76-1.395-.66-.94-.99-2.285-.99-4.035 0-.87.085-1.64.255-2.31.18-.67.435-1.235.765-1.695.33-.46.725-.81 1.185-1.05.46-.24.975-.36 1.545-.36 1.17 0 2.085.47 2.745 1.41.67.93 1.005 2.265 1.005 4.005zm-2.28 0c0-.52-.025-.99-.075-1.41-.05-.43-.13-.8-.24-1.11-.11-.31-.26-.55-.45-.72a1.019 1.019 0 00-.705-.255c-.28 0-.515.085-.705.255-.18.17-.33.41-.45.72-.11.31-.19.68-.24 1.11-.05.42-.075.89-.075 1.41 0 .52.025.995.075 1.425.05.43.13.8.24 1.11.12.31.27.55.45.72.19.17.425.255.705.255.28 0 .515-.085.705-.255.19-.17.34-.41.45-.72.11-.31.19-.68.24-1.11.05-.43.075-.905.075-1.425zm7.895 2.16c0-.29-.065-.545-.195-.765-.13-.23-.355-.42-.675-.57-.32-.15-.75-.265-1.29-.345-.54-.08-1.22-.12-2.04-.12.11-.93.2-1.875.27-2.835s.125-1.86.165-2.7h5.625v1.875h-3.75c-.02.36-.045.71-.075 1.05-.02.33-.045.62-.075.87 1.46.1 2.535.445 3.225 1.035.7.58 1.05 1.39 1.05 2.43 0 .48-.085.925-.255 1.335-.17.41-.425.765-.765 1.065-.34.3-.77.535-1.29.705-.51.17-1.11.255-1.8.255-.27 0-.555-.02-.855-.06a8.012 8.012 0 01-.855-.135 9.118 9.118 0 01-.735-.165c-.22-.06-.39-.12-.51-.18l.405-1.845c.25.11.58.22.99.33.41.1.9.15 1.47.15.69 0 1.19-.135 1.5-.405.31-.28.465-.605.465-.975z" fill="#001703"/><circle opacity=".2" cx="373" cy="198" r="25" fill="#fff"/><circle cx="373.001" cy="198.001" r="16.667" fill="#fff"/><path d="M371.844 197.78c0 1.75-.335 3.095-1.005 4.035-.66.93-1.575 1.395-2.745 1.395-1.17 0-2.09-.465-2.76-1.395-.66-.94-.99-2.285-.99-4.035 0-.87.085-1.64.255-2.31.18-.67.435-1.235.765-1.695.33-.46.725-.81 1.185-1.05.46-.24.975-.36 1.545-.36 1.17 0 2.085.47 2.745 1.41.67.93 1.005 2.265 1.005 4.005zm-2.28 0c0-.52-.025-.99-.075-1.41-.05-.43-.13-.8-.24-1.11-.11-.31-.26-.55-.45-.72a1.019 1.019 0 00-.705-.255c-.28 0-.515.085-.705.255-.18.17-.33.41-.45.72-.11.31-.19.68-.24 1.11-.05.42-.075.89-.075 1.41 0 .52.025.995.075 1.425.05.43.13.8.24 1.11.12.31.27.55.45.72.19.17.425.255.705.255.28 0 .515-.085.705-.255.19-.17.34-.41.45-.72.11-.31.19-.68.24-1.11.05-.43.075-.905.075-1.425zm3.545-3.015c.29-.12.59-.255.9-.405.32-.16.63-.33.93-.51.3-.19.585-.385.855-.585.28-.21.53-.43.75-.66h1.56V203h-2.235v-7.485c-.3.2-.635.385-1.005.555-.37.16-.73.3-1.08.42l-.675-1.725z" fill="#001703"/><circle opacity=".2" cx="455" cy="624" r="25" fill="#fff"/><circle cx="455.001" cy="624.001" r="16.667" fill="#fff"/><path d="M453.844 623.78c0 1.75-.335 3.095-1.005 4.035-.66.93-1.575 1.395-2.745 1.395-1.17 0-2.09-.465-2.76-1.395-.66-.94-.99-2.285-.99-4.035 0-.87.085-1.64.255-2.31.18-.67.435-1.235.765-1.695.33-.46.725-.81 1.185-1.05.46-.24.975-.36 1.545-.36 1.17 0 2.085.47 2.745 1.41.67.93 1.005 2.265 1.005 4.005zm-2.28 0c0-.52-.025-.99-.075-1.41-.05-.43-.13-.8-.24-1.11-.11-.31-.26-.55-.45-.72a1.019 1.019 0 00-.705-.255c-.28 0-.515.085-.705.255-.18.17-.33.41-.45.72-.11.31-.19.68-.24 1.11-.05.42-.075.89-.075 1.41 0 .52.025.995.075 1.425.05.43.13.8.24 1.11.12.31.27.55.45.72.19.17.425.255.705.255.28 0 .515-.085.705-.255.19-.17.34-.41.45-.72.11-.31.19-.68.24-1.11.05-.43.075-.905.075-1.425zm7.28-2.445c-.39.51-.805 1.065-1.245 1.665-.44.6-.81 1.215-1.11 1.845h2.355v-3.51zm2.19-2.73v6.24h1.11v1.83h-1.11V629h-2.19v-2.325h-4.485v-1.635c.22-.44.495-.935.825-1.485a28.533 28.533 0 012.385-3.435c.45-.56.9-1.065 1.35-1.515h2.115z" fill="#001703"/><circle opacity=".2" cx="242" cy="421" r="25" fill="#fff"/><circle cx="242.001" cy="421.001" r="16.667" fill="#fff"/><path d="M240.844 420.78c0 1.75-.335 3.095-1.005 4.035-.66.93-1.575 1.395-2.745 1.395-1.17 0-2.09-.465-2.76-1.395-.66-.94-.99-2.285-.99-4.035 0-.87.085-1.64.255-2.31.18-.67.435-1.235.765-1.695.33-.46.725-.81 1.185-1.05.46-.24.975-.36 1.545-.36 1.17 0 2.085.47 2.745 1.41.67.93 1.005 2.265 1.005 4.005zm-2.28 0c0-.52-.025-.99-.075-1.41-.05-.43-.13-.8-.24-1.11-.11-.31-.26-.55-.45-.72a1.019 1.019 0 00-.705-.255c-.28 0-.515.085-.705.255-.18.17-.33.41-.45.72-.11.31-.19.68-.24 1.11-.05.42-.075.89-.075 1.41 0 .52.025.995.075 1.425.05.43.13.8.24 1.11.12.31.27.55.45.72.19.17.425.255.705.255.28 0 .515-.085.705-.255.19-.17.34-.41.45-.72.11-.31.19-.68.24-1.11.05-.43.075-.905.075-1.425zm5.915 5.445c-.27 0-.555-.02-.855-.06-.3-.03-.59-.075-.87-.135a9.412 9.412 0 01-.765-.195c-.23-.07-.41-.135-.54-.195l.435-1.86c.26.11.59.23.99.36.41.12.915.18 1.515.18.69 0 1.195-.13 1.515-.39.32-.26.48-.61.48-1.05 0-.27-.06-.495-.18-.675-.11-.19-.265-.34-.465-.45-.2-.12-.44-.2-.72-.24-.27-.05-.56-.075-.87-.075h-.87v-1.8h.99c.22 0 .43-.02.63-.06.21-.04.395-.105.555-.195.16-.1.285-.23.375-.39.1-.17.15-.38.15-.63a.98.98 0 00-.435-.84 1.157 1.157 0 00-.435-.195 1.65 1.65 0 00-.495-.075c-.43 0-.83.065-1.2.195-.36.13-.69.29-.99.48l-.795-1.635c.16-.1.345-.205.555-.315.22-.11.46-.21.72-.3.26-.09.535-.165.825-.225.3-.06.615-.09.945-.09.61 0 1.135.075 1.575.225.45.14.82.345 1.11.615.29.26.505.57.645.93.14.35.21.735.21 1.155 0 .41-.115.81-.345 1.2-.23.38-.54.67-.93.87.54.22.955.55 1.245.99.3.43.45.95.45 1.56 0 .48-.08.925-.24 1.335-.16.4-.41.75-.75 1.05-.34.29-.775.52-1.305.69-.52.16-1.14.24-1.86.24z" fill="#001703"/><ellipse opacity=".2" cx="534.001" cy="398" rx="26.667" ry="5" fill="#C3F831"/><ellipse opacity=".5" cx="533.999" cy="398.001" rx="8.333" ry="1.667" fill="#C3F831"/><g clip-path="url(#clip0_603_12409)"><path d="M534 328a26.283 26.283 0 00-26.25 26.25c0 18.845 24.456 42.448 25.495 43.444a1.085 1.085 0 001.51 0c1.039-.996 25.495-24.599 25.495-43.444A26.283 26.283 0 00534 328zm0 38.281a12.028 12.028 0 01-11.8-14.378 12.024 12.024 0 013.293-6.16 12.024 12.024 0 0113.111-2.608 12.022 12.022 0 017.427 11.115A12.038 12.038 0 01534 366.281z" fill="#C3F831"/></g><circle opacity=".2" cx="840" cy="200" r="25" fill="#C3F831"/><circle cx="840.001" cy="200.001" r="16.667" fill="#C3F831"/><path d="M838.844 199.78c0 1.75-.335 3.095-1.005 4.035-.66.93-1.575 1.395-2.745 1.395-1.17 0-2.09-.465-2.76-1.395-.66-.94-.99-2.285-.99-4.035 0-.87.085-1.64.255-2.31.18-.67.435-1.235.765-1.695.33-.46.725-.81 1.185-1.05.46-.24.975-.36 1.545-.36 1.17 0 2.085.47 2.745 1.41.67.93 1.005 2.265 1.005 4.005zm-2.28 0c0-.52-.025-.99-.075-1.41-.05-.43-.13-.8-.24-1.11-.11-.31-.26-.55-.45-.72a1.019 1.019 0 00-.705-.255c-.28 0-.515.085-.705.255-.18.17-.33.41-.45.72-.11.31-.19.68-.24 1.11-.05.42-.075.89-.075 1.41 0 .52.025.995.075 1.425.05.43.13.8.24 1.11.12.31.27.55.45.72.19.17.425.255.705.255.28 0 .515-.085.705-.255.19-.17.34-.41.45-.72.11-.31.19-.68.24-1.11.05-.43.075-.905.075-1.425zm9.935-2.445c0 .38-.075.745-.225 1.095-.15.35-.345.69-.585 1.02-.24.32-.51.63-.81.93-.3.3-.595.585-.885.855-.15.14-.315.3-.495.48-.17.17-.335.345-.495.525-.16.18-.305.35-.435.51a1.22 1.22 0 00-.225.375h4.47V205h-6.93c-.02-.11-.03-.25-.03-.42v-.36c0-.48.075-.92.225-1.32a5 5 0 01.615-1.11c.25-.35.53-.675.84-.975.32-.3.635-.6.945-.9l.675-.645c.21-.21.395-.41.555-.6.16-.2.285-.395.375-.585.09-.2.135-.4.135-.6 0-.44-.125-.75-.375-.93-.25-.18-.56-.27-.93-.27-.27 0-.525.045-.765.135-.23.08-.445.18-.645.3-.19.11-.355.225-.495.345-.14.11-.245.2-.315.27l-1.11-1.56c.44-.41.95-.745 1.53-1.005.59-.27 1.22-.405 1.89-.405.61 0 1.135.07 1.575.21.44.14.8.34 1.08.6.29.25.5.56.63.93.14.36.21.77.21 1.23z" fill="#0F4E41"/><g filter="url(#filter0_d_603_12409)"><path fill="#fff" d="M785 127h110v35H785z"/><path d="M804.51 144.988h2.286L811.08 151h-2.574l-3.996-6.012zm-2.61-6.588h2.124V151H801.9v-12.6zm1.26 1.836V138.4h2.628c.924 0 1.722.162 2.394.486.672.324 1.194.78 1.566 1.368.384.576.576 1.26.576 2.052s-.192 1.482-.576 2.07c-.372.588-.894 1.044-1.566 1.368-.672.324-1.47.486-2.394.486h-2.628v-1.764h2.538c.492 0 .918-.078 1.278-.234a1.99 1.99 0 00.846-.72c.204-.324.306-.708.306-1.152 0-.456-.102-.84-.306-1.152a1.99 1.99 0 00-.846-.72c-.36-.168-.786-.252-1.278-.252h-2.538zm12.523 10.944c-.84 0-1.584-.18-2.232-.54a3.73 3.73 0 01-1.476-1.512c-.348-.648-.522-1.404-.522-2.268 0-.876.174-1.638.522-2.286a3.7 3.7 0 011.512-1.494c.648-.36 1.41-.54 2.286-.54.876 0 1.62.168 2.232.504a3.339 3.339 0 011.422 1.458c.324.624.486 1.38.486 2.268 0 .096-.006.198-.018.306v.234h-7.272v-1.35h5.598l-.594.828c.036-.072.072-.168.108-.288a.853.853 0 00.072-.306c0-.444-.09-.828-.27-1.152a1.823 1.823 0 00-.72-.756c-.3-.18-.654-.27-1.062-.27-.492 0-.912.108-1.26.324-.336.216-.6.528-.792.936-.18.408-.27.912-.27 1.512-.012.588.072 1.092.252 1.512.192.42.462.738.81.954.348.216.774.324 1.278.324.54 0 1.008-.108 1.404-.324.396-.216.72-.546.972-.99l1.692.666c-.444.744-1.008 1.308-1.692 1.692-.684.372-1.506.558-2.466.558zm6.121-2.916c.276.3.546.552.81.756.264.204.534.36.81.468.276.108.552.162.828.162.348 0 .618-.078.81-.234a.77.77 0 00.306-.648.867.867 0 00-.234-.612 1.778 1.778 0 00-.648-.45c-.276-.132-.6-.264-.972-.396a11.432 11.432 0 01-1.116-.504 2.86 2.86 0 01-.9-.792c-.228-.324-.342-.732-.342-1.224 0-.504.126-.924.378-1.26a2.278 2.278 0 011.044-.738 3.984 3.984 0 011.422-.252c.456 0 .882.066 1.278.198a4.42 4.42 0 011.098.522c.324.216.6.462.828.738l-1.08 1.152a3.135 3.135 0 00-.972-.792 2.502 2.502 0 00-1.188-.306c-.288 0-.522.06-.702.18a.589.589 0 00-.27.522c0 .192.078.366.234.522.168.144.384.276.648.396.276.12.582.246.918.378.468.18.894.378 1.278.594.384.216.69.48.918.792.228.312.342.72.342 1.224 0 .78-.27 1.41-.81 1.89-.528.468-1.242.702-2.142.702a4.61 4.61 0 01-1.566-.252 4.943 4.943 0 01-1.242-.684 5.314 5.314 0 01-.9-.9l1.134-1.152zm5.739-5.544h4.698v1.71h-4.698v-1.71zm1.404-2.88h1.908V151h-1.908v-11.16zm5.499 8.586c0 .276.066.516.198.72.132.192.312.336.54.432.24.096.51.144.81.144.396 0 .75-.078 1.062-.234.324-.168.582-.402.774-.702.192-.3.288-.66.288-1.08l.288 1.08c0 .528-.156.972-.468 1.332-.3.36-.684.63-1.152.81a4.03 4.03 0 01-1.404.252c-.516 0-.996-.102-1.44-.306a2.507 2.507 0 01-1.062-.9c-.264-.396-.396-.876-.396-1.44 0-.804.282-1.44.846-1.908.564-.48 1.362-.72 2.394-.72.552 0 1.026.06 1.422.18.408.12.744.264 1.008.432.264.156.45.3.558.432v.99a3.888 3.888 0 00-1.188-.576c-.42-.12-.864-.18-1.332-.18-.408 0-.738.054-.99.162a1.236 1.236 0 00-.576.414c-.12.18-.18.402-.18.666zm-.612-3.546l-.792-1.368c.384-.228.87-.45 1.458-.666.588-.216 1.272-.324 2.052-.324.672 0 1.272.102 1.8.306.528.192.936.48 1.224.864.3.384.45.852.45 1.404V151h-1.908v-5.526c0-.264-.042-.48-.126-.648a1.041 1.041 0 00-.378-.414 1.566 1.566 0 00-.558-.234 3.234 3.234 0 00-.702-.072c-.384 0-.75.048-1.098.144a3.61 3.61 0 00-.864.324c-.24.12-.426.222-.558.306zm10.096 2.88c0 .588.126 1.044.378 1.368.252.324.642.486 1.17.486.36 0 .678-.078.954-.234.276-.156.492-.372.648-.648.156-.276.234-.6.234-.972v-5.04h1.944V151h-1.944v-1.278c-.264.48-.606.846-1.026 1.098-.408.24-.9.36-1.476.36-.924 0-1.638-.288-2.142-.864-.492-.576-.738-1.356-.738-2.34v-5.256h1.998v5.04zm9.377-5.04V151h-1.926v-8.28h1.926zm2.466 2.07a1.983 1.983 0 00-.504-.324 1.42 1.42 0 00-.594-.108c-.324 0-.588.084-.792.252a1.457 1.457 0 00-.45.702 3.69 3.69 0 00-.126 1.026l-.648-.378c0-.66.12-1.242.36-1.746.252-.516.57-.924.954-1.224.396-.312.804-.468 1.224-.468.3 0 .582.048.846.144a1.6 1.6 0 01.684.486l-.954 1.638zm3.151 3.636c0 .276.066.516.198.72.132.192.312.336.54.432.24.096.51.144.81.144.396 0 .75-.078 1.062-.234.324-.168.582-.402.774-.702.192-.3.288-.66.288-1.08l.288 1.08c0 .528-.156.972-.468 1.332-.3.36-.684.63-1.152.81a4.03 4.03 0 01-1.404.252c-.516 0-.996-.102-1.44-.306a2.507 2.507 0 01-1.062-.9c-.264-.396-.396-.876-.396-1.44 0-.804.282-1.44.846-1.908.564-.48 1.362-.72 2.394-.72.552 0 1.026.06 1.422.18.408.12.744.264 1.008.432.264.156.45.3.558.432v.99a3.888 3.888 0 00-1.188-.576c-.42-.12-.864-.18-1.332-.18-.408 0-.738.054-.99.162a1.236 1.236 0 00-.576.414c-.12.18-.18.402-.18.666zm-.612-3.546l-.792-1.368c.384-.228.87-.45 1.458-.666.588-.216 1.272-.324 2.052-.324.672 0 1.272.102 1.8.306.528.192.936.48 1.224.864.3.384.45.852.45 1.404V151h-1.908v-5.526c0-.264-.042-.48-.126-.648a1.041 1.041 0 00-.378-.414 1.566 1.566 0 00-.558-.234 3.234 3.234 0 00-.702-.072c-.384 0-.75.048-1.098.144a3.61 3.61 0 00-.864.324c-.24.12-.426.222-.558.306zm13.427 1.08c0-.612-.126-1.074-.378-1.386-.252-.312-.636-.468-1.152-.468-.372 0-.696.078-.972.234-.276.144-.492.36-.648.648-.144.276-.216.6-.216.972V151h-1.962v-8.28h1.962v1.278c.264-.492.6-.858 1.008-1.098.42-.24.912-.36 1.476-.36.936 0 1.65.288 2.142.864.492.564.738 1.338.738 2.322V151h-1.998v-5.04zm2.968-3.24h4.698v1.71h-4.698v-1.71zm1.404-2.88h1.908V151h-1.908v-11.16z" fill="#001703"/></g><path fill="#fff" d="M832.904 162.096l7.289-7.289 7.289 7.289-7.29 7.289z"/><defs><clipPath id="clip0_603_12409"><path fill="#fff" transform="translate(499 328)" d="M0 0h70v70H0z"/></clipPath><filter id="filter0_d_603_12409" x="777" y="119" width="142" height="67" filterUnits="userSpaceOnUse" color-interpolation-filters="sRGB"><feFlood flood-opacity="0" result="BackgroundImageFix"/><feColorMatrix in="SourceAlpha" values="0 0 0 0 0 0 0 0 0 0 0 0 0 0 0 0 0 0 127 0" result="hardAlpha"/><feOffset dx="8" dy="8"/><feGaussianBlur stdDeviation="8"/><feComposite in2="hardAlpha" operator="out"/><feColorMatrix values="0 0 0 0 0 0 0 0 0 0 0 0 0 0 0 0 0 0 0.12 0"/><feBlend in2="BackgroundImageFix" result="effect1_dropShadow_603_12409"/><feBlend in="SourceGraphic" in2="effect1_dropShadow_603_12409" result="shape"/></filter></defs></svg>