<svg width="21" height="23" fill="none" xmlns="http://www.w3.org/2000/svg"><path d="M5.91 22a1.57 1.57 0 01-1.571-1.57V1.57C4.339.661 5 0 5.909 0h8.347c.827 0 1.57.661 1.57 1.57v18.942a1.57 1.57 0 01-1.57 1.57H5.91V22zm-.745-1.57c0 .413.33.744.744.744h8.347A.74.74 0 0015 20.43v-2.397H5.165v2.397zm9.752-3.223V2.81H5.165v14.397h9.752zm0-15.224V1.57a.74.74 0 00-.743-.744H5.909a.74.74 0 00-.744.744v.413h9.752zm-4.876 19.025c-.743 0-1.405-.66-1.405-1.405 0-.744.662-1.405 1.405-1.405.744 0 1.405.662 1.405 1.405 0 .744-.66 1.405-1.405 1.405zm0-1.983a.565.565 0 00-.578.578c0 .33.248.579.578.579.33 0 .579-.248.579-.579a.565.565 0 00-.579-.578zM18.636 7.19c-.082 0-.248-.083-.33-.083-.083-.082-.083-.248-.083-.33 0-.083.083-.248.083-.33 1.24-1.24 1.24-3.141 0-4.38-.083 0-.083-.166-.083-.249 0-.082 0-.165.083-.248.082-.082.165-.082.33-.082.166 0 .248.082.33.082.745.744 1.158 1.736 1.158 2.728 0 .991-.413 2.066-1.157 2.727-.165.082-.248.165-.33.165zm-7.603-5.372c-.248 0-.413-.165-.413-.413 0-.248.165-.413.413-.413h.33c.249 0 .414.165.414.413 0 .248-.165.413-.413.413h-.33zm-2.314 0c-.248 0-.413-.165-.413-.413 0-.248.165-.413.413-.413h1.322c.248 0 .413.165.413.413 0 .248-.165.413-.413.413H8.72zM1.446 7.19c-.082 0-.248-.083-.33-.083-1.488-1.487-1.488-3.967 0-5.537.082-.082.165-.082.33-.082.083 0 .248.082.33.082.083.083.083.166.083.248 0 .083 0 .248-.082.33-.579.58-.91 1.323-.91 2.15 0 .826.331 1.57.91 2.148.083.083.083.166.083.33 0 .166 0 .249-.083.331-.083 0-.165.083-.33.083zm15.785-.661c-.082 0-.248-.083-.33-.083a.4.4 0 010-.578c.413-.413.578-.91.578-1.488s-.165-1.074-.578-1.487c-.083-.083-.083-.166-.083-.331s.083-.248.083-.33c.082-.083.165-.083.33-.083.166 0 .248.082.331.082.578.579.826 1.24.826 2.067 0 .743-.33 1.487-.826 2.066-.165.082-.248.165-.33.165zm-14.38-.083c.083 0 .248-.082.33-.082.166-.248.166-.496 0-.662-.412-.33-.66-.909-.66-1.487 0-.579.248-1.075.578-1.488.248-.082.248-.33.083-.496-.083-.082-.165-.165-.33-.165-.083 0-.249.083-.331.083-.496.578-.827 1.322-.827 2.066 0 .744.33 1.487.827 2.066.165.083.248.165.33.165z" fill="#4D4D4D"/></svg>