<svg width="102" height="102" fill="none" xmlns="http://www.w3.org/2000/svg"><path d="M16.155 19.453l.86-.86c.143-.143.287-.358.358-.502.072-.215.072-.358.072-.501-.072-.143-.143-.358-.287-.502-.215-.215-.501-.286-.788-.286-.286.071-.501.215-.788.43l-.645.645 3.941 3.797.717-.788c.215-.215.358-.43.43-.645.071-.215.143-.43.071-.645-.071-.215-.143-.43-.358-.645a1.49 1.49 0 00-.43-.286c-.143-.072-.287-.072-.501-.072a.774.774 0 00-.502.215c-.143.072-.287.215-.43.358l-1.003 1.003-.502-.501 1.003-1.003c.287-.287.502-.502.789-.645.286-.143.573-.287.86-.358.286-.072.573-.072.86 0 .286.071.573.215.788.501.358.358.573.717.644 1.075.072.358 0 .788-.143 1.146-.143.43-.43.789-.788 1.147l-1.648 1.72-5.446-5.231 1.577-1.648a4.827 4.827 0 011.003-.788c.358-.144.716-.215 1.003-.144.358.072.645.215 1.003.502.287.286.43.573.502.86.071.358 0 .645-.144 1.003a3.13 3.13 0 01-.716 1.075l-.932 1.003-.43-.43zm6.805-3.802l.144.215.573 2.508-1.146.86-1.863-8.527 7.739 4.084-1.147.86-2.221-1.218-.215-.215-2.651-1.505.788 2.938zm-.716.072l2.795-2.078.86.716-3.153 2.365-.502-1.003zm6.736-3.867c.43.215.788.358 1.29.358.43 0 .86-.071 1.29-.286.286-.144.573-.359.788-.574a2.58 2.58 0 00.502-.716c.143-.215.215-.502.286-.788l.717 1.361a3.004 3.004 0 01-.645 1.003 3.582 3.582 0 01-1.147.789c-.501.286-1.003.43-1.504.43-.502.071-1.004 0-1.505-.144-.502-.143-.932-.358-1.29-.716a4.154 4.154 0 01-1.003-1.219c-.287-.501-.43-1.003-.43-1.504-.072-.502 0-1.003.143-1.505s.43-.932.717-1.29c.358-.358.716-.716 1.218-.931.502-.287.931-.43 1.29-.43.358-.072.788 0 1.146.071l.717 1.362a11.753 11.753 0 00-.788-.215c-.287-.072-.574 0-.86 0-.287 0-.502.215-.788.358-.43.215-.717.502-1.004.86a3.526 3.526 0 00-.43 1.218c0 .43.072.932.359 1.433.215.502.573.86.931 1.075zm5.517-8.098l2.365 7.166-1.218.43-2.365-7.166 1.218-.43zm4.157-1.362l-1.935 4.371 4.442 2.795-1.504.502-4.371-2.795L37.22 2.9l1.434-.503zm5.303-1l5.23-.501.144 1.146-2.078.215.573 6.306-1.29.143-.573-6.306-2.006.215V1.396zm6.52 1.574c.215-.43.501-.86.86-1.218.358-.358.788-.573 1.29-.717A5.588 5.588 0 0154.203.82c.573 0 1.075.144 1.505.359.43.215.86.501 1.218.86.358.358.573.788.716 1.29.144.5.215 1.002.215 1.576 0 .573-.143 1.075-.358 1.504-.215.502-.502.86-.86 1.219-.358.358-.788.573-1.29.716a5.588 5.588 0 01-1.576.215 3.33 3.33 0 01-1.505-.358 4.707 4.707 0 01-1.218-.86c-.358-.358-.573-.788-.788-1.29a5.589 5.589 0 01-.215-1.576c.072-.502.215-1.075.43-1.505zm1.218 3.01c.215.43.502.716.86 1.003.358.286.788.43 1.29.43.501 0 .931-.072 1.361-.287a1.96 1.96 0 00.932-.932c.215-.358.358-.86.43-1.361 0-.502-.072-1.003-.215-1.361-.215-.43-.502-.717-.86-1.004-.359-.215-.788-.358-1.29-.43-.502 0-.932.072-1.362.287a1.96 1.96 0 00-.931.932c-.215.358-.358.86-.43 1.361-.072.502 0 .932.215 1.362zm12.038-3.656l5.016 1.577-.358 1.146-1.935-.645-1.863 6.091-1.218-.358 1.935-6.091-1.935-.573.358-1.147zM69.18 6.34c.358-.359.788-.574 1.29-.717a5.092 5.092 0 011.504-.215c.502 0 1.004.144 1.505.43.502.215.932.573 1.29.932.358.358.573.788.788 1.29.144.501.215.931.215 1.433 0 .501-.143 1.003-.43 1.504-.215.502-.573.932-.931 1.29-.359.358-.788.573-1.29.788a5.093 5.093 0 01-1.505.215c-.501 0-1.003-.143-1.505-.43-.501-.215-.931-.573-1.29-.931-.358-.358-.573-.788-.788-1.29a5.093 5.093 0 01-.215-1.505c0-.501.144-1.003.43-1.504.215-.502.502-.932.932-1.29zm-.072 3.224c0 .43.143.86.43 1.218.215.359.573.645 1.003.86.43.215.932.287 1.362.287.43-.072.86-.215 1.218-.43s.645-.645.86-1.075c.215-.43.358-.931.286-1.361 0-.43-.143-.86-.358-1.219-.215-.358-.573-.644-1.075-.86-.43-.214-.86-.286-1.361-.286-.502 0-.788.143-1.147.43-.358.287-.645.645-.931 1.075-.215.43-.287.931-.287 1.361zm10.963.283l-4.37 6.091-1.004-.716 4.371-6.091 1.003.716zm-.43-.358l1.219.86c.43.358.788.645 1.003 1.075.215.358.287.788.287 1.218 0 .43-.144.788-.43 1.218-.287.358-.645.645-1.004.788-.358.144-.788.215-1.218.144-.43-.072-.86-.287-1.361-.574l-1.218-.86.645-.931 1.218.86c.358.286.716.358 1.003.358.358 0 .645-.215.86-.501.215-.359.286-.645.215-1.004-.072-.286-.287-.573-.645-.86l-1.218-.86.644-.93z" fill="gray"/><path d="M88.813 24.539l.86-2.078.645.215-.502 2.221-1.003-.358zm-1.075-2.508l2.293.143v.645l-2.221.215-.072-1.003zm3.798 2.221l-1.72-1.433.359-.501 1.934 1.146-.573.788zm-1.791-4.084l.573 2.221-.645.215-.931-2.078 1.003-.358zm2.364 1.433l-1.934 1.218-.359-.501 1.72-1.505.573.788z" fill="#5E8880"/><path d="M95.764 34.5l.43 1.146c.071.215.215.43.286.573.144.143.287.215.43.286.144.072.359.072.573 0a.778.778 0 00.574-.573 1.426 1.426 0 00-.072-.931l-.287-.86-5.159 1.791.358 1.003c.072.287.215.502.359.645.143.215.358.287.573.359.215.071.43.071.717-.072.214-.072.358-.143.501-.287.144-.143.215-.286.287-.43.071-.143.071-.358.071-.501 0-.215-.071-.358-.143-.573l-.43-1.29.645-.215.502 1.361c.143.358.215.717.215 1.003 0 .359 0 .645-.072.932a1.709 1.709 0 01-.43.788c-.215.215-.43.358-.788.502-.502.143-.86.215-1.29.071a3.003 3.003 0 01-1.003-.645 3.637 3.637 0 01-.645-1.29l-.788-2.292 7.094-2.436.716 2.15c.144.43.215.859.215 1.289 0 .358-.143.717-.287 1.003-.214.287-.501.502-.931.645-.358.143-.716.143-1.003 0-.287-.143-.573-.287-.86-.573a3.419 3.419 0 01-.573-1.147l-.43-1.218.645-.215zm.285 7.81h-.287l-2.508-.645-.215-1.433 8.455 2.222-7.165 5.016-.215-1.434 2.078-1.433.287-.071 2.508-1.648-2.938-.574zm.286-.573l.574 3.44-1.004.43-.716-3.941 1.146.071zm.359 7.664c-.43.215-.716.574-.931.932-.215.358-.359.788-.287 1.29 0 .358.072.716.143 1.003.072.287.215.573.359.788.143.215.358.43.573.573h-1.505c-.287-.286-.43-.645-.573-1.003-.144-.358-.215-.86-.215-1.361 0-.573.072-1.075.286-1.577.215-.501.43-.86.789-1.218a4.709 4.709 0 011.218-.86c.43-.215 1.003-.286 1.576-.286.574 0 1.075.071 1.577.286.501.215.86.43 1.218.788.358.359.645.789.788 1.219.215.501.287 1.003.287 1.504 0 .574-.072 1.004-.215 1.362a4.596 4.596 0 01-.574 1.003h-1.504c.215-.143.358-.358.501-.573.144-.215.287-.502.359-.788.071-.287.143-.645.143-1.004 0-.43-.143-.86-.358-1.29-.215-.358-.502-.716-.932-.93-.43-.216-.86-.36-1.433-.36-.43.144-.932.287-1.29.502zm4.084 12.899l-3.01-3.654-4.442 2.723.215-1.577 4.443-2.651 3.009 3.654-.215 1.505zm.645-4.3l-7.452-1.146.215-1.29 7.452 1.147-.215 1.29zm-2.076 9.459l-1.935 4.873-1.075-.43.716-1.864-5.875-2.364.43-1.147 5.875 2.365.717-1.863 1.147.43zm-4.443 5.159c.287.43.502.86.645 1.362.143.501.143 1.003.072 1.504a4.147 4.147 0 01-.502 1.505c-.287.502-.645.86-1.075 1.218a4.74 4.74 0 01-1.361.645c-.502.144-1.004.144-1.505.072a4.146 4.146 0 01-1.505-.502c-.501-.286-.86-.644-1.218-1.003-.287-.43-.573-.86-.645-1.361-.143-.502-.143-1.004-.072-1.505a4.144 4.144 0 01.502-1.505c.287-.501.645-.86 1.003-1.218.43-.287.86-.502 1.362-.645.501-.143 1.003-.143 1.504-.072.502.072 1.004.287 1.505.502a2.634 2.634 0 011.29 1.003zm-3.224-.286c-.43 0-.86.071-1.29.286a1.96 1.96 0 00-.932.932c-.286.43-.358.86-.358 1.29 0 .43.143.86.358 1.29.215.358.573.716 1.003 1.003.43.286.932.43 1.362.43.43 0 .86-.072 1.29-.287.358-.215.716-.573 1.003-1.003.215-.43.358-.86.358-1.29 0-.43-.143-.86-.358-1.29-.215-.43-.573-.716-1.003-1.003-.502-.215-.932-.358-1.433-.358zM89.456 84.66l-3.654 3.797-.86-.788 1.361-1.433-4.514-4.443.86-.932 4.586 4.443 1.361-1.433.86.788zm-6.016 3.078c.143.501.143 1.003.071 1.504a3.819 3.819 0 01-.501 1.433c-.287.43-.645.86-1.075 1.147-.43.358-.932.573-1.433.717-.502.143-1.003.143-1.505.071a3.819 3.819 0 01-1.433-.501c-.43-.287-.86-.645-1.147-1.075-.358-.43-.573-.932-.716-1.433-.144-.502-.144-1.004-.072-1.505.072-.502.215-.932.502-1.433a5.68 5.68 0 011.075-1.218c.43-.359.931-.574 1.433-.717.501-.143 1.003-.143 1.504-.072.502.072.932.215 1.433.502.43.287.86.645 1.147 1.075.358.501.573 1.003.717 1.505zm-2.867-1.505c-.43-.215-.86-.287-1.29-.215a3.22 3.22 0 00-1.29.501c-.43.287-.716.645-.86 1.075-.142.43-.214.86-.142 1.29.071.43.286.86.573 1.29.286.43.645.716 1.075.931.43.215.86.287 1.29.215.43-.071.86-.214 1.29-.501.358-.287.644-.645.86-1.075.142-.43.214-.86.142-1.29-.071-.43-.286-.86-.573-1.29-.286-.501-.645-.788-1.075-.931zm-4.73 9.387l-1.362.716c-.501.287-.931.359-1.433.43-.43 0-.86-.071-1.218-.286a2.178 2.178 0 01-.86-.932 2.812 2.812 0 01-.286-1.29c.071-.43.215-.788.43-1.146.286-.358.644-.645 1.146-.932l1.361-.716.502 1.003-1.361.717c-.359.215-.645.43-.789.788-.143.287-.143.645.072 1.003.215.358.43.573.788.645.359.072.717 0 1.075-.215l1.362-.717.573.932zm-.43.215l-3.44-6.664 1.147-.573 3.44 6.664-1.147.573z" fill="gray"/><path d="M57.285 99.563l2.078-.86.287.573-1.935 1.218-.43-.931zm2.15 1.72l-.215-2.293.645-.144.573 2.222-1.003.215zm-1.147-4.3l1.505 1.72-.43.502-1.791-1.433.716-.789zm3.44 2.795l-2.221-.502.071-.645 2.293.144-.143 1.003zm-.717-2.651l-1.218 1.934-.573-.286.788-2.15 1.003.502z" fill="#5E8880"/><path d="M46.251 98.629l-1.218-.144h-.645c-.215.072-.358.144-.43.287a.65.65 0 00-.215.502.81.81 0 00.215.788c.215.215.502.358.788.358l.932.143.717-5.374-1.075-.143c-.287-.072-.574 0-.788 0-.215.072-.43.143-.574.358a1.77 1.77 0 00-.286.645v.573c.071.144.143.287.286.43.144.144.287.215.43.287.144.072.358.143.574.143l1.36.215-.07.717-1.434-.215c-.358-.072-.716-.144-1.003-.287-.287-.143-.573-.287-.788-.501a2.574 2.574 0 01-.502-.717c-.072-.287-.143-.573-.072-.931.072-.502.215-.86.502-1.147a1.972 1.972 0 011.075-.573c.43-.072.931-.144 1.433-.072l2.365.358-1.004 7.453-2.22-.287c-.502-.072-.86-.215-1.219-.358-.358-.215-.573-.43-.716-.717a1.723 1.723 0 01-.144-1.075 2.22 2.22 0 01.43-.931c.215-.215.573-.359.932-.502.358-.072.788-.072 1.29 0l1.29.143-.216.574zm-7.095-3.223l.072-.287 1.648-1.934 1.361.43-5.804 6.52-1.218-8.67 1.361.43.287 2.508-.072.286.359 3.01 2.006-2.293zm.43.501l-3.368-1.003.072-1.075 3.797 1.147-.501.931zm-7.023-3.152a3.53 3.53 0 00-.43-1.218c-.215-.358-.573-.645-1.003-.86-.286-.143-.645-.287-.931-.287-.287 0-.574-.071-.86 0-.287.072-.573.144-.788.215l.645-1.361c.358-.072.788-.143 1.146-.072.358.072.86.215 1.361.43.502.215.932.573 1.29.932.359.358.574.788.717 1.29.143.501.215.931.215 1.504 0 .502-.215 1.004-.43 1.505-.287.502-.573.932-.932 1.29-.358.358-.788.573-1.29.716-.501.144-.93.215-1.504.144a5.945 5.945 0 01-1.505-.43 3.584 3.584 0 01-1.146-.788 3.004 3.004 0 01-.645-1.004l.645-1.361c.071.287.143.501.286.788.143.215.287.502.502.717.215.215.501.43.788.573.43.215.86.287 1.29.287.43 0 .86-.144 1.29-.43.358-.215.716-.645.931-1.075.287-.573.43-1.075.358-1.505zm-13.327-2.222l4.658-1.003-.358-5.231 1.29.931.358 5.16-4.658 1.003-1.29-.86zm3.511 2.508l4.443-6.09 1.075.787-4.443 6.091-1.075-.788zm-7.453-6.163l-3.51-3.941.86-.788 1.289 1.504 4.73-4.227.859.931-4.73 4.228 1.29 1.505-.788.788zm-2.58-6.232a5.297 5.297 0 01-1.504 0c-.502-.143-.932-.287-1.362-.573a3.317 3.317 0 01-1.075-1.147c-.286-.501-.501-.931-.573-1.504a5.293 5.293 0 010-1.505c.072-.502.287-.932.573-1.362.287-.43.645-.788 1.147-1.075.502-.286.931-.501 1.433-.573a5.29 5.29 0 011.505 0c.501.072.931.287 1.361.574a3.3 3.3 0 011.075 1.146c.287.502.502.931.573 1.433a5.298 5.298 0 010 1.505c-.071.502-.286.931-.573 1.361-.287.43-.716.788-1.146 1.075-.43.358-.932.573-1.434.645zm1.72-2.723c.215-.43.287-.86.287-1.29 0-.43-.143-.86-.43-1.29a3.06 3.06 0 00-1.003-.931c-.43-.215-.86-.287-1.29-.215-.43 0-.931.215-1.361.502-.43.286-.789.645-1.004 1.003-.215.43-.358.788-.286 1.29 0 .43.143.86.43 1.29.286.43.573.716 1.003.931.43.215.86.287 1.29.215.43 0 .931-.215 1.361-.502.43-.286.788-.645 1.003-1.003zM4.403 70.252l-1.72-4.944 1.075-.359.645 1.863 6.02-2.078.43 1.219-6.02 2.078.645 1.863-1.075.358zm-.001-6.734c-.502-.071-.932-.286-1.362-.573-.43-.287-.716-.645-1.003-1.075-.286-.43-.501-.931-.573-1.433a5.8 5.8 0 010-1.576c.143-.502.287-.932.573-1.362.287-.43.645-.788 1.075-1.003.43-.287.931-.43 1.505-.573a5.797 5.797 0 011.576 0c.502.072.932.286 1.362.573.43.287.716.645 1.003 1.075.286.43.501.931.573 1.505a5.801 5.801 0 010 1.576c-.143.502-.287.932-.573 1.362-.287.43-.645.716-1.075 1.003-.43.286-.932.43-1.505.573-.501.072-1.075.072-1.576-.072zm2.651-1.863c.358-.286.645-.645.788-1.075.144-.43.215-.86.144-1.361-.072-.502-.287-.931-.574-1.218-.286-.358-.645-.573-1.075-.717-.43-.143-.931-.143-1.433-.071a2.654 2.654 0 00-1.29.573c-.358.287-.644.645-.788 1.075-.143.43-.215.86-.071 1.361.071.502.286.932.573 1.218.287.359.645.574 1.075.717.43.143.931.143 1.433.072.43-.072.86-.287 1.218-.574zM.82 52.699l7.524-.072v1.29l-7.524.072v-1.29zm0 .573v-1.576c0-.574.072-1.004.287-1.433.215-.43.43-.717.788-.932a2.416 2.416 0 011.218-.358c.502 0 .932.071 1.218.358.43.215.645.502.86.931.215.43.287.86.287 1.434V53.2H4.33l.072-1.504c0-.43-.143-.789-.287-1.075-.286-.215-.573-.358-1.003-.358-.43 0-.716.143-.931.43-.215.286-.287.644-.287 1.074v1.505H.82z" fill="gray"/><path d="M4.617 35l1.577-1.647.573.43-1.29 1.863-.86-.645zm-.071-2.722l2.006 1.003-.215.573-2.15-.645.359-.931zm2.723 3.511l-1.075-2.006.573-.359 1.362 1.792-.86.573zm-.144-4.443l-.358 2.222-.645-.072-.071-2.293 1.074.143zm1.72 2.15l-2.293.43-.143-.645 2.15-.788.286 1.003z" fill="#5E8880"/></svg>