<svg width="112" height="113" viewBox="0 0 112 113" fill="none" xmlns="http://www.w3.org/2000/svg">
<path d="M23.0145 23.0818L22.3839 22.3694L22.6204 18.1743C22.6204 17.6994 22.6204 17.3037 22.6204 16.9871C22.6204 16.6705 22.5416 16.3538 22.5416 16.1164C22.4627 15.8789 22.3839 15.6415 22.2263 15.4832C22.0686 15.2457 21.8322 15.0874 21.5957 15.0874C21.3593 15.0083 21.1228 15.0083 20.8864 15.0874C20.6499 15.1666 20.4135 15.2457 20.177 15.4832C19.9406 15.7206 19.7829 15.8789 19.7041 16.1955C19.6253 16.433 19.6253 16.6705 19.6253 16.9871C19.6253 17.3037 19.7829 17.462 20.0194 17.6994L19.0736 18.4909C18.7583 18.0952 18.5218 17.6994 18.443 17.2245C18.3642 16.7496 18.443 16.3538 18.6007 15.8789C18.7583 15.404 19.0736 15.0083 19.4677 14.6917C19.8617 14.375 20.3347 14.1376 20.7287 13.9793C21.2016 13.9001 21.5957 13.9001 22.0686 13.9793C22.4627 14.1376 22.8568 14.375 23.1721 14.6917C23.4085 14.9291 23.5662 15.2457 23.645 15.4832C23.7238 15.7998 23.8026 16.1955 23.8026 16.6705C23.8026 17.1454 23.8026 17.7786 23.8026 18.4909L23.645 20.9447L23.7238 21.0238L26.6401 18.4909L27.3494 19.3616L23.0145 23.0818Z" fill="#6F7C7A"/>
<path d="M27.1142 17.3825L26.5625 16.5118L26.5625 9.54645L27.2719 9.07154L28.06 10.4171L27.5871 10.6546L27.5871 15.6412L27.5871 15.7203L31.9221 12.95L32.4738 13.8998L27.1142 17.3825ZM31.4492 16.591L30.3458 14.9288L30.1093 14.533L26.799 9.309L27.8236 8.67578L32.395 15.9578L31.4492 16.591Z" fill="#6F7C7A"/>
<path d="M33.7336 5.27148L35.6252 15.7987L34.6006 16.2736L32.709 5.7464L33.7336 5.27148Z" fill="#6F7C7A"/>
<path d="M38.5428 13.0287L39.725 4.79686L39.725 4.7177L35.6265 6.14244L35.2324 5.11346L40.592 3.29297L40.9861 4.24279L39.8038 12.5537L38.5428 13.0287Z" fill="#6F7C7A"/>
<path d="M51.4683 3.53041C51.3895 3.13465 51.153 2.81804 50.8378 2.65974C50.5225 2.50143 50.0496 2.42228 49.5767 2.50143C49.2614 2.58059 48.9461 2.65974 48.7097 2.73889C48.4732 2.89719 48.3156 3.0555 48.158 3.29295C48.0791 3.53041 48.0003 3.68871 48.0003 4.00532C48.0003 4.24278 48.0791 4.40108 48.2368 4.48023C48.3156 4.63854 48.4732 4.71769 48.6309 4.79684C48.7885 4.87599 48.9461 4.95514 49.1826 4.95514C49.3402 5.0343 49.5767 5.0343 49.7343 5.0343L50.6013 5.11345C50.9166 5.11345 51.153 5.1926 51.4683 5.27175C51.7048 5.43006 52.02 5.58836 52.2565 5.74666C52.4929 5.90497 52.7294 6.14242 52.9658 6.37988C53.1235 6.61733 53.2811 6.93394 53.2811 7.3297C53.3599 7.80461 53.2811 8.27953 53.0447 8.67529C52.8082 9.07105 52.4929 9.38765 52.0988 9.70426C51.6259 9.94172 51.0742 10.1792 50.4437 10.2583C49.8131 10.3375 49.2614 10.3375 48.7097 10.1792C48.2368 10.0209 47.8427 9.78341 47.5274 9.4668C47.2121 9.1502 47.0545 8.67529 46.8969 8.20037L48.158 8.04207C48.2368 8.35868 48.3156 8.59613 48.552 8.75444C48.7885 8.91274 49.0249 9.07105 49.2614 9.1502C49.5767 9.22935 49.8919 9.22935 50.2072 9.22935C50.6013 9.1502 50.9166 9.07104 51.153 8.91274C51.3895 8.75444 51.6259 8.59613 51.7836 8.35868C52.02 7.96292 52.02 7.72546 52.02 7.48801C52.02 7.25055 51.8624 7.01309 51.7047 6.85479C51.5471 6.69649 51.3107 6.61733 51.0742 6.53818C50.8378 6.45903 50.5225 6.37988 50.2072 6.37988L49.1826 6.22157C48.4732 6.14242 47.9215 5.90497 47.4486 5.58836C46.9757 5.27175 46.7392 4.79684 46.6604 4.24278C46.5816 3.76786 46.6604 3.29295 46.8969 2.89719C47.1333 2.50143 47.4486 2.18483 47.8427 1.94737C48.2368 1.70991 48.7885 1.55161 49.3402 1.47246C49.8919 1.39331 50.4437 1.47246 50.9166 1.63076C51.3895 1.78907 51.7836 2.02652 52.0988 2.34313C52.4141 2.65974 52.5717 3.0555 52.6506 3.53041L51.4683 3.53041Z" fill="#6F7C7A"/>
<path d="M60.7683 1.2355L62.0294 1.31465L61.793 7.01359C61.793 7.64681 61.6353 8.12172 61.3201 8.59663C61.0048 9.07155 60.6107 9.38815 60.059 9.62561C59.5072 9.86306 58.9555 9.94222 58.2462 9.94222C57.5368 9.94222 56.9851 9.78391 56.4334 9.46731C55.9605 9.1507 55.5664 8.75494 55.3299 8.28003C55.0935 7.80511 54.9358 7.25105 55.0146 6.69699L55.2511 0.998047L56.5122 1.0772L56.2757 6.61784C56.2757 7.01359 56.3545 7.3302 56.5122 7.64681C56.6698 7.96342 56.9063 8.20087 57.2215 8.35918C57.5368 8.51748 57.9309 8.67579 58.325 8.67579C58.7979 8.67579 59.1132 8.59663 59.4284 8.43833C59.7437 8.28003 59.9802 8.04257 60.2166 7.72596C60.3742 7.40935 60.5319 7.09275 60.5319 6.69699L60.7683 1.2355Z" fill="#6F7C7A"/>
<path d="M63.2109 10.1792L64.9449 1.78906L67.94 2.42228C68.5705 2.58058 69.1223 2.81804 69.5164 3.13465C69.9104 3.45125 70.1469 3.84701 70.3045 4.32192C70.4622 4.79684 70.4622 5.27175 70.3045 5.82581C70.2257 6.37988 69.9893 6.77563 69.674 7.17139C69.3587 7.56715 68.9646 7.80461 68.4917 7.96291C68.0188 8.12122 67.4671 8.12122 66.7577 7.96291L64.7085 7.488L64.9449 6.37988L66.9154 6.77563C67.3095 6.85479 67.7035 6.85479 67.94 6.77563C68.2553 6.69648 68.4917 6.53818 68.6494 6.30072C68.807 6.06327 68.9646 5.82581 69.0435 5.5092C69.1223 5.1926 69.1223 4.87599 69.0435 4.63853C68.9646 4.40108 68.807 4.16362 68.5705 3.92616C68.3341 3.76786 68.0188 3.60956 67.6247 3.53041L66.0484 3.2138L64.472 10.5749L63.2109 10.1792Z" fill="#6F7C7A"/>
<path d="M70.2266 11.8411L73.3005 3.76758L76.1379 4.87571C76.7684 5.11316 77.2413 5.42977 77.5566 5.82553C77.8719 6.22129 78.0295 6.61705 78.1083 7.09196C78.1872 7.56687 78.1083 8.04178 77.8719 8.5167C77.7143 8.99161 77.399 9.38737 77.0837 9.70397C76.6896 10.0206 76.2955 10.1789 75.8226 10.258C75.3497 10.3372 74.798 10.258 74.1674 10.0206L72.197 9.22906L72.5911 8.20009L74.4827 8.91245C74.8768 9.07076 75.1921 9.14991 75.5074 9.07076C75.8226 8.99161 76.0591 8.91245 76.2955 8.675C76.532 8.51669 76.6896 8.20009 76.7684 7.96263C76.8473 7.64602 76.9261 7.32942 76.9261 7.09196C76.9261 6.77535 76.7684 6.5379 76.6108 6.30044C76.4532 6.06298 76.1379 5.90468 75.7438 5.74638L74.0886 5.27147L71.4088 12.316L70.2266 11.8411Z" fill="#6F7C7A"/>
<path d="M85.5969 14.6125C85.124 15.404 84.5723 16.0372 83.9418 16.433C83.3112 16.8287 82.6807 17.0662 81.9713 17.0662C81.2619 17.0662 80.6314 16.9079 80.0009 16.5121C79.3703 16.1164 78.8974 15.6415 78.5821 15.0082C78.2669 14.375 78.1092 13.7418 78.1881 12.9503C78.2669 12.2379 78.5033 11.4464 78.9762 10.6549C79.4491 9.86336 80.0009 9.23015 80.6314 8.83439C81.262 8.43863 81.8925 8.20117 82.6019 8.20117C83.3112 8.20117 83.9418 8.35948 84.5723 8.75524C85.2028 9.151 85.6757 9.62591 85.991 10.2591C86.3063 10.8923 86.4639 11.5256 86.3851 12.3171C86.3063 13.0294 86.0698 13.821 85.5969 14.6125ZM84.4935 13.9001C84.8876 13.2669 85.0452 12.7128 85.124 12.1588C85.2028 11.6047 85.124 11.1298 84.8876 10.734C84.6511 10.3383 84.3358 10.0217 83.9418 9.70506C83.5477 9.4676 83.0748 9.3093 82.6019 9.3093C82.1289 9.3093 81.656 9.4676 81.2619 9.78421C80.789 10.1008 80.395 10.5757 80.0797 11.1298C79.6856 11.763 79.528 12.3171 79.4491 12.8711C79.3703 13.4252 79.4491 13.9001 79.6856 14.2959C79.922 14.6916 80.2373 15.0082 80.6314 15.3248C81.0255 15.5623 81.4984 15.7206 81.9713 15.7206C82.4442 15.7206 82.9171 15.5623 83.3112 15.2457C83.7053 15.0082 84.0994 14.5333 84.4935 13.9001Z" fill="#6F7C7A"/>
<path d="M84.4141 19.1243L90.0101 12.5547L92.3747 14.5335C92.8476 14.9292 93.2416 15.4042 93.3993 15.8791C93.5569 16.354 93.6357 16.8289 93.5569 17.2247C93.4781 17.6996 93.2417 18.0953 92.9264 18.4911C92.6111 18.8868 92.217 19.2035 91.7441 19.3618C91.35 19.5201 90.8771 19.5201 90.4042 19.4409C89.9313 19.3618 89.4584 19.0451 88.9067 18.6494L87.1727 17.1455L87.882 16.2748L89.5372 17.6996C89.8525 17.937 90.1678 18.1745 90.4042 18.2536C90.7195 18.3328 90.9559 18.3328 91.1924 18.2536C91.4288 18.1745 91.6653 18.0162 91.9017 17.7787C92.1382 17.5413 92.217 17.3038 92.2958 16.9872C92.3747 16.7497 92.2958 16.4331 92.217 16.1957C92.0594 15.9582 91.9017 15.6416 91.5865 15.4042L90.3254 14.3752L85.5175 20.0741L84.4141 19.1243ZM90.0889 18.8868L89.2219 23.2402L88.1185 22.2904L89.0643 17.937L90.0889 18.8868Z" fill="#6F7C7A"/>
<path d="M95.2905 18.728L96.1575 18.0156L100.492 23.0813L99.6255 23.7937L97.8915 21.7358L92.2166 26.6432L91.3496 25.6934L97.0245 20.7859L95.2905 18.728Z" fill="#6F7C7A"/>
<path d="M100.178 35.5079L101.833 34.7955L100.335 33.8457L100.887 33.0542L102.306 34.1623L102.385 32.3418L103.33 32.421L103.094 34.1623L104.67 33.2916L105.064 34.0831L103.409 34.7955L104.907 35.7453L104.355 36.5369L102.936 35.4287L102.858 37.2492L101.912 37.1701L102.148 35.4287L100.572 36.2994L100.178 35.5079Z" fill="#0F4E41"/>
<path d="M101.99 45.8778L102.936 45.7195L106.404 48.0149C106.798 48.2524 107.113 48.4899 107.429 48.6482C107.744 48.8065 107.98 48.8856 108.217 48.9648C108.453 49.0439 108.69 49.0439 108.926 48.9648C109.241 48.8856 109.399 48.8065 109.636 48.6482C109.793 48.4899 109.951 48.2524 110.03 48.0149C110.108 47.7775 110.108 47.4609 110.03 47.2234C109.951 46.9068 109.872 46.6694 109.714 46.4319C109.557 46.1944 109.32 46.1153 109.084 46.0361C108.847 45.957 108.532 45.957 108.296 46.0361L108.059 44.8489C108.611 44.7697 109.084 44.7697 109.478 44.928C109.872 45.0863 110.266 45.4029 110.581 45.7195C110.897 46.1153 111.054 46.5111 111.133 47.0651C111.212 47.6192 111.212 48.0941 111.054 48.569C110.897 49.0439 110.66 49.3605 110.345 49.6771C110.03 49.9937 109.636 50.152 109.163 50.2312C108.847 50.3104 108.532 50.3104 108.217 50.2312C107.902 50.152 107.507 49.9937 107.113 49.8354C106.719 49.598 106.168 49.2814 105.537 48.8856L103.488 47.54L103.409 47.54L104.118 51.3393L103.015 51.5768L101.99 45.8778Z" fill="#6F7C7A"/>
<path d="M103.252 56.4841L105.222 56.405L105.695 56.405L111.843 56.1675L111.922 57.4339L103.331 57.7505L103.252 56.4841ZM104.828 52.2891L105.853 52.2891L111.843 55.8509L111.843 56.6424L110.267 56.7216L110.267 56.1675L106.011 53.6346L105.932 53.6346L106.089 58.7795L104.986 58.7795L104.828 52.2891Z" fill="#6F7C7A"/>
<path d="M111.922 64.1612L101.912 60.5202L101.991 59.4121L112.001 63.1322L111.922 64.1612Z" fill="#6F7C7A"/>
<path d="M102.779 64.4785L109.321 69.6234L109.399 69.6234L110.266 65.3492L111.37 65.5866L110.266 71.2064L109.163 70.969L102.621 65.8241L102.779 64.4785Z" fill="#6F7C7A"/>
<path d="M104.433 80.4674C104.827 80.5465 105.143 80.5465 105.537 80.3091C105.931 80.0716 106.167 79.755 106.325 79.2801C106.483 78.9635 106.561 78.6469 106.561 78.4094C106.561 78.0928 106.483 77.8554 106.404 77.6971C106.246 77.4596 106.088 77.3013 105.852 77.2222C105.694 77.143 105.458 77.143 105.3 77.143C105.143 77.143 104.985 77.2222 104.827 77.3805C104.67 77.4596 104.512 77.6179 104.433 77.7762C104.276 77.9345 104.197 78.0928 104.039 78.172L103.487 78.8843C103.33 79.1218 103.093 79.3593 102.936 79.5176C102.778 79.6759 102.463 79.9133 102.226 80.0716C101.99 80.2299 101.675 80.3091 101.359 80.3091C101.044 80.3091 100.729 80.3091 100.335 80.1508C99.8618 79.9925 99.5466 79.6759 99.3101 79.2801C99.0737 78.8843 98.916 78.4094 98.916 77.9345C98.916 77.3805 99.0737 76.8264 99.3101 76.1932C99.5466 75.6391 99.8618 75.1642 100.256 74.7684C100.65 74.4518 101.044 74.2144 101.517 74.1352C101.99 74.0561 102.463 74.0561 102.936 74.2935L102.384 75.4808C102.069 75.4017 101.832 75.4017 101.517 75.4808C101.281 75.56 101.044 75.7183 100.808 75.9557C100.571 76.1932 100.414 76.4306 100.335 76.7472C100.177 77.0638 100.098 77.3805 100.098 77.6971C100.098 78.0137 100.177 78.2511 100.256 78.4886C100.414 78.726 100.571 78.8843 100.808 79.0426C101.044 79.1218 101.281 79.201 101.438 79.1218C101.675 79.0426 101.832 78.9635 102.069 78.726C102.226 78.5677 102.463 78.3303 102.62 78.0928L103.251 77.3013C103.724 76.7472 104.197 76.3515 104.67 76.114C105.143 75.8766 105.694 75.8766 106.246 76.114C106.719 76.3515 107.034 76.5889 107.271 76.9847C107.507 77.3805 107.586 77.8554 107.586 78.3303C107.586 78.8052 107.507 79.3593 107.271 79.9133C107.034 80.4674 106.719 80.8631 106.404 81.1798C106.01 81.4964 105.616 81.7338 105.221 81.813C104.827 81.8921 104.354 81.8921 103.96 81.6547L104.433 80.4674Z" fill="#6F7C7A"/>
<path d="M101.675 89.6478L100.966 90.7559L96.2366 87.669C95.7637 87.3524 95.3696 86.9567 95.1332 86.4026C94.8967 85.9277 94.8179 85.3736 94.8967 84.8196C94.9756 84.2655 95.212 83.6323 95.5273 83.0782C95.9214 82.5241 96.3155 82.0492 96.8672 81.8118C97.3401 81.4952 97.8918 81.416 98.4435 81.416C98.9953 81.416 99.547 81.5743 100.02 81.9701L104.749 85.057L104.04 86.1651L99.3894 83.1574C99.0741 82.9199 98.7588 82.8408 98.3647 82.8408C98.0495 82.8408 97.6554 82.9199 97.3401 83.0782C97.0248 83.2365 96.7096 83.5531 96.4731 83.8697C96.2366 84.2655 96.079 84.5821 96.079 84.9779C96.079 85.3736 96.079 85.6902 96.2366 86.0068C96.3943 86.3234 96.6307 86.5609 96.946 86.7983L101.675 89.6478Z" fill="#6F7C7A"/>
<path d="M92.7686 87.1953L99.0741 93.0526L97.0248 95.348C96.5519 95.8229 96.079 96.1395 95.6061 96.2978C95.1332 96.4561 94.6603 96.4561 94.1874 96.3769C93.7145 96.2186 93.3204 95.9812 92.9263 95.6646C92.5322 95.2688 92.2957 94.873 92.1381 94.4773C91.9805 94.0024 91.9805 93.5275 92.0593 93.0526C92.1381 92.5776 92.4534 92.1027 92.9263 91.5487L94.345 89.9656L95.1332 90.678L93.7933 92.1819C93.478 92.4985 93.3204 92.8151 93.2416 93.1317C93.1627 93.4483 93.1627 93.6858 93.3204 94.0024C93.3992 94.2398 93.5568 94.4773 93.8721 94.7147C94.1085 94.9522 94.345 95.1105 94.6603 95.1897C94.8967 95.2688 95.212 95.2688 95.5273 95.1897C95.8425 95.1105 96.079 94.873 96.3943 94.5564L97.4977 93.3692L91.9805 88.3034L92.7686 87.1953Z" fill="#6F7C7A"/>
<path d="M87.8026 92.498L93.1622 99.226L90.7977 101.126C90.246 101.521 89.7731 101.838 89.3002 101.917C88.8272 101.996 88.3543 101.917 87.8814 101.759C87.4085 101.601 87.0933 101.284 86.6992 100.888C86.3839 100.492 86.1474 100.017 86.0686 99.5426C85.9898 99.0677 85.9898 98.5927 86.2263 98.1178C86.3839 97.6429 86.778 97.168 87.2509 96.7723L88.9061 95.4267L89.6154 96.2973L88.0391 97.5638C87.7238 97.8012 87.4873 98.1178 87.4085 98.3553C87.3297 98.6719 87.2509 98.9094 87.3297 99.226C87.4085 99.5426 87.4873 99.78 87.7238 100.017C87.9603 100.255 88.1179 100.492 88.4332 100.572C88.6696 100.73 88.9849 100.73 89.2213 100.651C89.5366 100.572 89.8519 100.413 90.1671 100.176L91.4282 99.1468L86.6992 93.2896L87.8026 92.498Z" fill="#6F7C7A"/>
<path d="M77.7152 104.371C77.2423 103.58 77.0059 102.788 77.0059 102.076C77.0059 101.364 77.1635 100.651 77.4788 100.097C77.794 99.4639 78.3458 98.989 78.9763 98.6724C79.6068 98.2767 80.3162 98.1184 80.9467 98.1975C81.6561 98.1975 82.2866 98.435 82.9172 98.8307C83.5477 99.2265 84.0995 99.8597 84.4935 100.651C84.9665 101.443 85.2029 102.234 85.2029 102.947C85.2029 103.659 85.0453 104.371 84.73 104.925C84.4147 105.559 83.863 106.034 83.2325 106.35C82.6019 106.746 81.8926 106.904 81.262 106.825C80.5527 106.825 79.9221 106.588 79.2916 106.192C78.661 105.796 78.1093 105.242 77.7152 104.371ZM78.8187 103.817C79.1339 104.451 79.528 104.925 80.0009 105.242C80.4738 105.559 80.8679 105.717 81.3408 105.717C81.8137 105.717 82.2867 105.638 82.6807 105.4C83.0748 105.163 83.4689 104.846 83.6266 104.451C83.863 104.055 83.9418 103.58 83.863 103.026C83.863 102.472 83.6265 101.918 83.3113 101.284C82.996 100.651 82.6019 100.176 82.129 99.8597C81.6561 99.5431 81.262 99.3848 80.7891 99.3848C80.3162 99.3848 79.8433 99.4639 79.4492 99.7014C79.0551 99.9389 78.661 100.255 78.5034 100.651C78.2669 101.047 78.1881 101.522 78.1881 102.076C78.2669 102.63 78.5034 103.184 78.8187 103.817Z" fill="#6F7C7A"/>
<path d="M74.4049 101.125L77.2423 109.278L74.3261 110.307C73.6955 110.544 73.1438 110.623 72.6709 110.544C72.198 110.465 71.7251 110.307 71.4098 109.99C71.0946 109.673 70.7793 109.278 70.6217 108.803C70.464 108.328 70.3852 107.853 70.464 107.378C70.5428 106.903 70.7793 106.507 71.0946 106.191C71.4098 105.795 71.9616 105.558 72.5133 105.32L74.7202 104.529L75.1143 105.558L73.065 106.27C72.6709 106.428 72.3556 106.586 72.1192 106.745C71.8827 106.982 71.8039 107.141 71.7251 107.457C71.6463 107.695 71.7251 108.011 71.8039 108.328C71.8827 108.644 72.0404 108.882 72.2768 109.04C72.4345 109.198 72.7497 109.357 72.9862 109.357C73.3015 109.357 73.6167 109.357 74.0108 109.198L75.5872 108.644L73.1438 101.521L74.4049 101.125ZM71.6463 106.191L68.3359 103.183L69.7547 102.708L72.9862 105.716L71.6463 106.191Z" fill="#6F7C7A"/>
<path d="M69.202 110.703L69.4385 111.811L62.8966 112.998L62.6602 111.89L65.2611 111.415L63.9212 104.054L65.1823 103.816L66.5222 111.178L69.202 110.703Z" fill="#6F7C7A"/>
<path d="M52.2568 106.429L52.0203 108.17L53.5967 107.299L53.9908 108.17L52.3356 108.882L53.8331 109.832L53.2814 110.624L51.8627 109.516L51.7839 111.257L50.8381 111.178L51.2322 109.437L49.6558 110.307L49.2617 109.437L50.9169 108.724L49.4194 107.774L49.9711 106.983L51.3898 108.091L51.4686 106.35L52.2568 106.429Z" fill="#0F4E41"/>
<path d="M42.4821 102.867L42.1669 103.738L38.3836 105.559C37.9895 105.796 37.6742 105.954 37.359 106.113C37.1225 106.271 36.8861 106.429 36.7284 106.588C36.5708 106.746 36.4132 106.983 36.3343 107.221C36.2555 107.458 36.2555 107.775 36.2555 108.012C36.2555 108.25 36.4132 108.487 36.5708 108.646C36.7284 108.804 36.9649 108.962 37.2802 109.041C37.5954 109.12 37.8319 109.2 38.0683 109.12C38.3048 109.041 38.5412 108.962 38.7777 108.804C38.9353 108.646 39.093 108.408 39.2506 108.092L40.4329 108.487C40.2752 108.962 39.96 109.358 39.6447 109.675C39.2506 109.991 38.8565 110.149 38.3836 110.229C37.9107 110.308 37.4378 110.229 36.9649 110.07C36.492 109.912 36.0191 109.595 35.7038 109.279C35.3885 108.962 35.1521 108.566 35.0733 108.092C34.9944 107.617 34.9944 107.221 35.1521 106.825C35.2309 106.508 35.3885 106.271 35.625 106.034C35.8614 105.796 36.1767 105.559 36.5708 105.321C36.9649 105.084 37.5166 104.767 38.1471 104.451L40.354 103.342L40.354 103.263L36.7284 101.918L37.1225 100.889L42.4821 102.867Z" fill="#6F7C7A"/>
<path d="M32.7098 98.5922L31.764 100.334L31.5275 100.729L28.6113 106.112L27.5078 105.558L31.6063 97.959L32.7098 98.5922ZM35.5472 101.996L35.0743 102.946L29.0053 106.349L28.296 105.953L29.0053 104.608L29.4783 104.845L33.8132 102.391L33.8132 102.312L29.3206 99.8586L29.8723 98.9088L35.5472 101.996Z" fill="#6F7C7A"/>
<path d="M21.7539 102.155L29.9509 95.3477L30.8968 95.9809L22.6997 102.788L21.7539 102.155Z" fill="#6F7C7A"/>
<path d="M26.0877 94.0807L18.3636 97.0885L18.2848 97.1676L21.5163 100.096L20.8069 100.888L16.5508 97.0885L17.339 96.2178L25.0631 93.1309L26.0877 94.0807Z" fill="#6F7C7A"/>
<path d="M11.5857 87.4322C11.2705 87.6697 11.1128 88.0654 11.1916 88.4612C11.2705 88.8569 11.3493 89.2527 11.6645 89.6485C11.901 89.9651 12.0586 90.1234 12.3739 90.2817C12.6104 90.44 12.8468 90.5191 13.0833 90.5191C13.3197 90.5191 13.5562 90.44 13.7138 90.2817C13.8714 90.1234 14.0291 90.0442 14.0291 89.8859C14.1079 89.7276 14.1079 89.5693 14.1079 89.3319C14.1079 89.1736 14.0291 88.9361 14.0291 88.7778C13.9503 88.6195 13.9503 88.382 13.8714 88.2237L13.5562 87.4322C13.4774 87.1948 13.3197 86.8781 13.2409 86.5615C13.1621 86.2449 13.1621 85.9283 13.1621 85.6117C13.1621 85.2951 13.2409 84.9785 13.3985 84.741C13.5562 84.4244 13.7926 84.187 14.0291 83.9495C14.4232 83.6329 14.8173 83.4746 15.2902 83.4746C15.7631 83.4746 16.236 83.5538 16.6301 83.7912C17.103 84.0287 17.4971 84.4244 17.8911 84.9785C18.2852 85.5326 18.5217 86.0075 18.6005 86.4824C18.6793 86.9573 18.6793 87.4322 18.5217 87.9071C18.364 88.382 18.1276 88.6986 17.7335 89.0944L16.9453 88.0654C17.1818 87.828 17.3394 87.5905 17.4182 87.3531C17.4971 87.1156 17.4971 86.799 17.4182 86.5615C17.3394 86.2449 17.1818 86.0075 17.0241 85.6909C16.7877 85.3743 16.5512 85.1368 16.3148 84.9785C16.0783 84.8202 15.7631 84.741 15.5266 84.741C15.2902 84.741 15.0537 84.8202 14.8173 84.9785C14.5808 85.1368 14.502 85.2951 14.4232 85.5326C14.3443 85.77 14.3443 86.0075 14.4232 86.2449C14.502 86.4824 14.5808 86.799 14.6596 87.1156L15.0537 88.0654C15.2902 88.6986 15.369 89.3319 15.369 89.8859C15.2902 90.44 15.0537 90.8357 14.5808 91.2315C14.1867 91.5481 13.7138 91.7064 13.3197 91.7064C12.8468 91.7064 12.4527 91.5481 11.9798 91.3107C11.5069 91.0732 11.1916 90.6774 10.7975 90.2025C10.4823 89.7276 10.2458 89.2527 10.167 88.7778C10.0882 88.3029 10.0882 87.828 10.2458 87.4322C10.4035 87.0364 10.6399 86.6407 11.034 86.4032L11.5857 87.4322Z" fill="#6F7C7A"/>
<path d="M5.04391 80.4675L4.49219 79.2802L9.53652 76.7473C10.0882 76.5099 10.64 76.3516 11.1917 76.4307C11.7434 76.5099 12.2163 76.6682 12.6892 76.9848C13.1621 77.3014 13.5562 77.7763 13.8715 78.4095C14.1868 79.0428 14.3444 79.5968 14.3444 80.23C14.3444 80.7841 14.1868 81.3382 13.8715 81.8131C13.5562 82.288 13.1621 82.6046 12.6104 82.9212L7.56608 85.4541L7.01435 84.2668L11.9799 81.7339C12.2951 81.5756 12.6104 81.3382 12.768 81.0216C12.9257 80.7049 13.0833 80.3883 13.0833 80.0717C13.0833 79.7551 13.0045 79.3594 12.8469 78.9636C12.6892 78.5678 12.374 78.2512 12.1375 78.0929C11.8222 77.8555 11.507 77.7763 11.1917 77.7763C10.8764 77.7763 10.4823 77.8555 10.1671 78.0138L5.04391 80.4675Z" fill="#6F7C7A"/>
<path d="M11.6654 73.9756L3.38954 76.5084L2.52254 73.5798C2.3649 72.9466 2.28609 72.3925 2.3649 71.8385C2.44372 71.3635 2.68018 70.9678 2.99545 70.572C3.31072 70.2554 3.78362 70.018 4.25653 69.8597C4.72944 69.7014 5.28116 69.7014 5.75407 69.7805C6.22697 69.8597 6.62106 70.0971 7.01515 70.4137C7.40924 70.7303 7.64569 71.2844 7.88215 71.9176L8.51269 73.9756L7.48806 74.2922L6.93633 72.3925C6.69988 71.9176 6.54224 71.601 6.30579 71.4427C6.06934 71.2052 5.83289 71.1261 5.59643 71.0469C5.28116 70.9678 5.04471 71.0469 4.72944 71.1261C4.41417 71.2052 4.17771 71.3635 3.94126 71.5218C3.70481 71.6802 3.62599 71.9968 3.54717 72.2342C3.46835 72.5508 3.54717 72.8674 3.62599 73.2632L4.0989 74.8462L11.2713 72.63L11.6654 73.9756Z" fill="#6F7C7A"/>
<path d="M9.61634 66.9309L1.10403 68.1973L0.631123 65.1104C0.552306 64.4772 0.552306 63.8439 0.788759 63.369C0.946394 62.8941 1.26167 62.4984 1.65575 62.2609C2.04984 61.9443 2.52275 61.786 2.99566 61.7068C3.54738 61.6277 4.02029 61.7068 4.41437 61.8651C4.80846 62.0234 5.20255 62.3401 5.51782 62.7358C5.83309 63.1316 5.99073 63.6856 6.14836 64.3188L6.46364 66.3768L5.36019 66.5351L5.04492 64.5563C4.9661 64.1605 4.88728 63.8439 4.65083 63.5273C4.49319 63.2899 4.25674 63.1316 3.94147 63.0524C3.70501 62.9733 3.38974 62.9733 3.07447 62.9733C2.7592 63.0524 2.44393 63.1316 2.20748 63.2899C1.97102 63.4482 1.81339 63.6856 1.73457 63.9231C1.73457 64.3188 1.73457 64.7146 1.81339 65.1104L2.04984 66.6934L9.45871 65.5853L9.61634 66.9309Z" fill="#6F7C7A"/>
<path d="M4.49261 52.2096C5.43842 52.2096 6.2266 52.4471 6.85714 52.7637C7.48768 53.0803 8.03941 53.5552 8.35468 54.1884C8.66995 54.7425 8.82759 55.4549 8.82759 56.1672C8.82759 56.8796 8.59113 57.592 8.27586 58.146C7.88177 58.7001 7.40887 59.175 6.69951 59.4916C6.06896 59.8082 5.20197 59.9665 4.33497 59.9665C3.38916 59.9665 2.60098 59.7291 1.97044 59.4125C1.3399 59.0958 0.788177 58.6209 0.472906 57.9877C0.157635 57.3545 -6.05851e-08 56.7213 -5.00035e-08 55.9298C-4.048e-08 55.2174 0.236453 54.505 0.551724 53.951C0.945813 53.3969 1.41872 52.922 2.12808 52.6054C2.75862 52.2888 3.5468 52.1305 4.49261 52.2096ZM4.49261 53.4761C3.78325 53.4761 3.23153 53.5552 2.6798 53.7927C2.2069 54.0301 1.81281 54.3467 1.57635 54.6633C1.3399 55.0591 1.18227 55.4549 1.18227 56.0089C1.18227 56.4838 1.26108 56.9587 1.49754 57.3545C1.73399 57.7503 2.12808 58.0669 2.60098 58.3043C3.07389 58.5418 3.62562 58.7001 4.33497 58.7001C5.04433 58.7001 5.59606 58.6209 6.14778 58.3835C6.62069 58.146 7.01478 57.8294 7.25123 57.5128C7.48768 57.117 7.64532 56.7213 7.64532 56.1672C7.64532 55.6923 7.5665 55.2174 7.33005 54.8216C7.0936 54.4259 6.69951 54.1093 6.2266 53.8718C5.75369 53.6344 5.20197 53.4761 4.49261 53.4761Z" fill="#6F7C7A"/>
<path d="M8.98428 50.9422L0.550781 49.3592L1.10251 46.3514C1.26014 45.7182 1.41778 45.1641 1.73305 44.7684C2.04832 44.3726 2.44241 44.1351 2.8365 43.9768C3.3094 43.8185 3.78231 43.8185 4.25521 43.8977C4.80694 43.9768 5.20103 44.2143 5.5163 44.4518C5.83157 44.7684 6.14684 45.1641 6.22566 45.639C6.38329 46.114 6.38329 46.668 6.22566 47.3012L5.75275 49.5966L4.6493 49.3592L5.04339 47.2221C5.12221 46.8263 5.12221 46.4306 5.04339 46.1931C4.96457 45.8765 4.80694 45.7182 4.6493 45.4807C4.41285 45.3224 4.1764 45.1641 3.86113 45.1641C3.54586 45.085 3.23058 45.085 2.99413 45.1641C2.75768 45.2433 2.52122 45.4016 2.36359 45.639C2.20595 45.8765 2.04832 46.1931 1.9695 46.5889L1.65423 48.1719L8.98428 49.5966L8.98428 50.9422ZM5.9892 46.0348L10.1665 44.6892L9.85127 46.1139L5.67393 47.4595L5.9892 46.0348Z" fill="#6F7C7A"/>
<path d="M3.30979 41.682L2.28516 41.2862L4.57087 35.0332L5.5955 35.429L4.72851 37.8827L11.7433 40.4155L11.2704 41.6028L4.2556 39.07L3.30979 41.682Z" fill="#6F7C7A"/>
<path d="M15.5263 29.0974L14.1864 27.9893L14.1075 29.8098L13.1617 29.7306L13.3982 27.9893L11.8218 28.7808L11.4277 27.9101L13.0829 27.2769L11.5854 26.3271L12.1371 25.6147L13.5558 26.7228L13.6346 24.9023L14.5804 24.9815L14.344 26.7228L15.9203 25.9313L16.3144 26.802L14.6593 27.4352L16.1568 28.385L15.5263 29.0974Z" fill="#0F4E41"/>
</svg>
