<svg width="121" height="121" fill="none" xmlns="http://www.w3.org/2000/svg"><path d="M25.331 20.08c.882-.723 1.042-1.446.561-2.008-.16-.161-.32-.322-.48-.402-.161-.08-.401-.08-.562-.08-.24 0-.4.08-.641.16l-.721.241c-.241.08-.562.241-.802.241-.24.08-.561.08-.802.08-.24 0-.48-.08-.721-.16-.24-.08-.481-.322-.641-.563-.481-.481-.642-1.044-.481-1.686.08-.563.48-1.125 1.042-1.687.32-.321.721-.562 1.042-.723.32-.16.641-.24.881-.321l.321.883c-.16 0-.4.08-.721.241-.32.161-.561.322-.882.643l-.4.402-.241.482a.513.513 0 000 .481c0 .161.08.322.24.482.16.161.32.241.401.322.16.08.32.08.48.08.161 0 .402-.08.562-.08.24-.08.4-.161.641-.241.321-.08.642-.241.962-.322.32-.08.561-.08.882-.08.24 0 .561.08.802.16.24.161.48.322.721.563.481.482.561 1.044.481 1.687-.16.642-.561 1.204-1.202 1.767-.24.24-.481.401-.642.482-.24.16-.4.24-.641.321l-.48.24c-.161.081-.241.081-.402.081l-.32-.883c.16 0 .48-.16.801-.241.16 0 .561-.241.962-.563zm6.893-4.016a3.778 3.778 0 01-1.362.562c-.481.08-.962.08-1.363 0-.481-.08-.882-.321-1.283-.642a6.267 6.267 0 01-1.202-1.286c-.32-.562-.561-1.044-.721-1.606a4.869 4.869 0 010-1.526c.08-.482.24-.884.56-1.285.241-.402.642-.723 1.043-1.044.24-.161.56-.322.801-.402.24-.08.481-.16.642-.241.16-.08.32-.08.48-.08h.241l.24.964h-.32c-.16 0-.32.08-.481.08-.16.08-.32.08-.481.16l-.481.241c-.32.241-.641.482-.802.804-.16.321-.32.642-.4.963-.08.322-.08.723 0 1.125s.32.803.56 1.205c.241.401.562.723.802.964.321.24.642.482.962.562.32.08.642.16 1.042.08.321-.08.722-.16 1.042-.401.401-.241.722-.563.962-.804.24-.24.401-.482.481-.642l.722.562c0 .08-.08.16-.16.241-.08.16-.16.241-.321.402l-.481.482c-.24.16-.401.401-.722.562zm5.451-6.828c.16.08.401.241.642.321.24.161.56.322.881.482.321.161.642.402.882.563.32.24.561.401.802.642l-1.042.482c-.24-.16-.561-.401-.802-.562-.32-.16-.561-.402-.801-.562-.241-.161-.562-.322-.802-.482-.24-.16-.481-.241-.722-.322-.08.08-.16.08-.24.161-.08.08-.16.08-.32.16l-.883.483 1.283 2.73-.962.482-3.206-6.987c.24-.161.56-.402.882-.563l.961-.482c.962-.482 1.844-.642 2.566-.482.721.161 1.202.563 1.523 1.286.16.562.16.963.08 1.445-.08.402-.32.884-.722 1.205zm-3.046-2.57c-.4.16-.721.321-.962.482l1.203 2.65.721-.32c.32-.161.642-.322.882-.483.24-.16.48-.321.561-.482.16-.16.24-.401.24-.642s0-.482-.16-.723-.24-.482-.48-.562a.91.91 0 00-.642-.241c-.24 0-.481 0-.721.08-.08 0-.401.08-.642.24zm6.252.482c-.16-.642-.24-1.205-.24-1.767.08-.562.24-1.044.48-1.446.241-.401.562-.803.962-1.044.401-.321.802-.482 1.283-.642.481-.161.962-.161 1.443-.161.48 0 .962.16 1.363.401.4.241.801.563 1.122.964.32.402.561.964.802 1.607.16.642.24 1.205.24 1.767-.08.562-.16 1.044-.4 1.446-.241.401-.562.803-.883 1.044-.4.321-.801.482-1.282.642-.481.161-.962.161-1.443.161a2.69 2.69 0 01-1.363-.402 4.222 4.222 0 01-1.122-.963c-.48-.402-.802-.964-.962-1.607zm1.122-.321c.16.482.321.883.562 1.205.24.32.48.642.801.803.32.16.641.321.962.401.32.08.721 0 1.122-.08.401-.08.722-.321.962-.482.24-.24.481-.482.561-.803.16-.321.24-.723.24-1.124 0-.402-.08-.804-.16-1.286-.16-.482-.32-.883-.56-1.204-.241-.322-.482-.643-.802-.804-.32-.16-.642-.32-.962-.401-.32-.08-.722 0-1.122.08-.401.08-.722.321-.962.482-.24.241-.481.482-.562.803a2.57 2.57 0 00-.24 1.125c-.08.401 0 .803.16 1.285zm13.547.081l.16.963-4.648.643L50.02.804l1.042-.161.962 6.747 3.527-.482zm6.414-.081v.964l-4.65.08L57.235 0h1.123l.08 6.827h3.527zm11.703-1.365c-.16.643-.32 1.205-.641 1.687-.32.482-.641.803-1.122 1.044a5.088 5.088 0 01-1.443.482c-.561.08-1.122 0-1.764-.08-.32-.08-.64-.161-1.042-.241-.4-.08-.721-.241-.962-.322l1.443-7.47c.32 0 .642 0 1.042.08.401.081.722.081 1.042.161.642.08 1.203.322 1.684.563.48.24.882.562 1.202.964.32.401.561.883.642 1.365a4.5 4.5 0 01-.08 1.767zm-4.73 2.169c1.043.16 1.844.08 2.406-.322.56-.401.962-1.124 1.122-2.008.16-.963.08-1.686-.32-2.329-.401-.642-1.123-1.044-2.165-1.205-.16-.08-.4-.16-.561-.16-.16 0-.32 0-.32-.08L67.975 7.39c.08 0 .16.08.32.08.16.08.401.08.642.16zm6.975-1.607a5.472 5.472 0 01.882-1.526c.401-.402.722-.723 1.203-.884.4-.24.882-.321 1.362-.321.481 0 .962.08 1.443.24.481.162.882.403 1.283.724.32.321.641.723.802 1.124.16.402.32.964.32 1.446 0 .562-.08 1.125-.32 1.767a5.459 5.459 0 01-.882 1.526c-.401.402-.722.723-1.203.884-.4.24-.882.321-1.362.321a4.53 4.53 0 01-1.443-.24 4.062 4.062 0 01-1.283-.724c-.4-.321-.641-.723-.882-1.124-.24-.402-.32-.964-.32-1.446.08-.562.16-1.125.4-1.767zm1.123.402c-.16.481-.24.883-.24 1.285 0 .401 0 .803.16 1.124.08.321.32.643.56.884.241.24.562.401.963.562.4.16.721.16 1.042.16.32 0 .641-.16.962-.32.32-.161.56-.402.801-.724.24-.32.481-.723.641-1.124.16-.482.241-.884.241-1.285 0-.402 0-.803-.16-1.125-.08-.321-.32-.642-.561-.883-.24-.241-.562-.402-.962-.563-.401-.16-.722-.16-1.042-.16-.321 0-.642.16-.962.321-.321.16-.561.402-.802.723-.32.321-.48.723-.641 1.125zm12.504 4.176c-.802.723-1.523 1.365-2.245 1.928-.721.562-1.443 1.124-2.084 1.687l-.962-.563c.24-1.205.561-2.41.962-3.695.4-1.285.882-2.57 1.363-4.016l.962.563c-.24.562-.401 1.124-.642 1.686-.24.563-.4 1.125-.56 1.607a35.388 35.388 0 01-.482 1.526c-.16.482-.32.964-.4 1.365.64-.562 1.362-1.124 2.164-1.767a51.77 51.77 0 002.324-2.008l.802.482c-.24 1.044-.48 2.008-.641 2.972-.16.964-.32 1.928-.481 2.731l1.042-1.044c.32-.402.721-.723 1.122-1.205.4-.402.802-.884 1.203-1.285.4-.482.801-.884 1.202-1.366l.962.563a55.568 55.568 0 01-2.886 3.132c-.882.964-1.844 1.767-2.725 2.57l-.962-.562c.16-.883.24-1.767.48-2.65 0-.643.241-1.607.482-2.651zm6.655 11.728c.08-.322.16-.643.16-1.045.08-.402.16-.803.16-1.285.08-.402.08-.884.16-1.366.08-.482.08-.883.16-1.365 0-.402.081-.883.081-1.285V14.94l-4.008 4.578-.801-.723 5.13-5.863.641.562v1.767c0 .643-.08 1.285-.16 1.928-.08.642-.08 1.285-.16 1.927a36.79 36.79 0 01-.241 1.607l3.848-4.337.801.722-5.13 5.864-.641-.643z" fill="#333"/><path d="M111.985 30.282a3.74 3.74 0 01-.802.401c-.24.08-.561.161-.881.322.24.16.561.32.801.482.241.16.481.32.722.562l.08.08-.642.723-.08-.08c-.24-.241-.481-.402-.641-.643a4.42 4.42 0 00-.561-.723c-.08.322-.08.643-.16.884a3.98 3.98 0 01-.321.883v.08l-.882-.401v-.08c.16-.322.321-.563.481-.803l.481-.723c-.321 0-.641.08-.882.08h-1.042l.08-.964h.081c.32 0 .641.08.881.16.321.081.561.161.882.322-.16-.321-.24-.562-.401-.803-.16-.241-.24-.563-.24-.884v-.08l.962-.241v.08c.08.322.08.643.08.964v.884c.24-.241.481-.402.721-.563.241-.16.481-.401.722-.562l.08-.08.481.723z" fill="#0F4E41"/><path d="M111.503 47.71c.241 1.125.802 1.607 1.523 1.366.241-.08.401-.16.561-.321.161-.16.241-.322.321-.482.08-.16.16-.402.16-.643 0-.24.08-.482.08-.723 0-.32.081-.562.161-.883.08-.241.16-.562.24-.723.08-.16.321-.402.481-.562.241-.16.481-.241.802-.322.641-.16 1.202-.08 1.683.322.481.401.802.964.962 1.767.08.482.16.883.16 1.285 0 .402-.08.723-.16.883l-.962-.16c.08-.16.08-.402.08-.723 0-.321 0-.723-.08-1.125-.08-.24-.08-.401-.16-.562-.08-.16-.16-.321-.321-.401-.08-.08-.24-.161-.401-.241a.51.51 0 00-.481 0c-.24.08-.4.16-.48.24-.081.08-.241.242-.321.402-.08.16-.16.402-.16.562-.081.241-.081.482-.081.723-.08.322-.08.723-.16.964-.08.321-.16.562-.321.803-.16.241-.32.482-.561.643-.24.16-.481.321-.881.401-.642.161-1.203 0-1.684-.401-.481-.402-.801-1.044-1.042-1.928-.08-.321-.08-.562-.16-.803v-.723c0-.24 0-.401.08-.562 0-.16.08-.241.08-.402l.962.08c-.08.161-.08.483-.16.804.08.562.16.964.24 1.446zm.4 8.033c-.081-.562 0-1.044.16-1.526s.32-.884.641-1.205a4.68 4.68 0 011.203-.884 3.717 3.717 0 011.683-.401c.641-.08 1.202 0 1.763.16.562.161.962.402 1.363.643s.641.643.882 1.124c.24.402.321.884.401 1.446v.884c0 .24-.08.482-.08.723-.081.16-.081.321-.161.482-.08.16-.08.24-.08.24l-.962-.24c0-.08.08-.161.08-.322 0-.16.08-.24.08-.481 0-.161.081-.322.081-.563v-.562c0-.402-.161-.803-.321-1.125-.16-.32-.401-.562-.721-.803-.321-.24-.642-.321-1.043-.401-.4-.08-.801-.08-1.282-.08-.481.08-.882.16-1.283.32-.4.161-.641.322-.962.563-.24.24-.4.562-.561.883-.08.322-.16.723-.08 1.125.08.482.16.883.241 1.205.16.321.24.562.32.723l-.882.401c-.08-.08-.08-.16-.16-.24l-.24-.483a3.733 3.733 0 01-.241-.723c.241-.24.161-.562.161-.883zm3.448 7.953c-.16.08-.321.24-.641.401-.241.161-.561.322-.802.563-.32.16-.641.32-.962.562l-.962.482.081-1.205c.32-.16.561-.321.881-.482.321-.16.561-.321.882-.482.241-.16.561-.321.802-.482.24-.16.481-.321.641-.482v-.642l.08-.964-3.046-.16.08-1.125 7.696.321c.08.321.08.643.08 1.044v1.044c-.08 1.125-.321 1.928-.722 2.49-.401.563-1.042.803-1.843.803-.481 0-.962-.16-1.283-.481-.321-.322-.802-.643-.962-1.205zm3.687-1.446v-1.044l-2.965-.16v1.846c0 .322.08.563.16.804.08.24.24.401.401.482.16.16.4.16.721.24.321 0 .561 0 .722-.16.16-.08.32-.241.481-.402.16-.16.24-.401.24-.642.24-.402.24-.723.24-.964zm-3.366 5.3c.642.16 1.203.32 1.684.642a4.7 4.7 0 011.122 1.044c.24.402.401.803.481 1.285.08.482.08.964 0 1.446s-.241.964-.561 1.365a2.769 2.769 0 01-.962.964c-.401.241-.882.402-1.443.563-.561.08-1.122.08-1.763-.08-.642-.161-1.203-.322-1.684-.643a4.694 4.694 0 01-1.122-1.044 3.54 3.54 0 01-.481-1.286 4.384 4.384 0 010-1.445c.08-.482.321-.964.561-1.366.241-.401.561-.723.962-1.044.401-.241.882-.482 1.443-.562.561 0 1.122 0 1.763.16zm-.16 1.124c-.481-.08-.882-.16-1.282-.08-.401 0-.722.16-1.043.32-.32.161-.561.402-.801.643-.241.322-.321.643-.401 1.044-.08.402-.08.723 0 1.125.08.321.241.643.481.884.24.24.481.481.882.722.32.161.721.322 1.202.402.481.08.882.16 1.283.08.401-.08.721-.16 1.042-.32.32-.162.561-.403.801-.644.241-.24.321-.642.401-.963.08-.402.08-.723 0-1.125a1.91 1.91 0 00-.481-.883c-.24-.241-.481-.482-.882-.723a3.756 3.756 0 00-1.202-.482zm-6.494 12.049l-.881-.321 1.603-4.418 7.295 2.651-.401 1.044-6.413-2.33-1.203 3.374zm-2.806 5.703l-.802-.402 2.084-4.176 6.974 3.534-.481.964-6.092-3.053-1.683 3.133zm-4.247 11.004c-.562-.401-.962-.883-1.203-1.365-.24-.482-.401-.964-.401-1.446s.08-1.044.241-1.526c.24-.482.481-1.044.882-1.526.16-.24.4-.482.641-.803l.721-.723 5.932 4.659c-.16.32-.32.562-.481.883-.24.322-.401.562-.641.803-.401.482-.802.884-1.283 1.205-.481.322-.962.563-1.443.643-.48.08-.961.08-1.523-.08-.4 0-.962-.322-1.442-.723zm.24-5.22c-.641.803-.882 1.606-.802 2.329.081.723.481 1.365 1.283 2.008.721.562 1.523.884 2.244.803.722-.08 1.443-.482 2.085-1.365.16-.241.32-.402.4-.563.081-.16.161-.24.241-.32l-4.649-3.696-.241.241c-.24.161-.401.322-.561.563zm-1.845 6.986c.481.482.802.964.962 1.526.161.482.241 1.045.241 1.526 0 .482-.161.964-.401 1.366-.241.402-.481.803-.882 1.124-.4.322-.801.563-1.202.723-.481.161-.882.241-1.363.241-.48 0-.962-.16-1.443-.401-.48-.241-.962-.643-1.363-1.125-.48-.482-.801-.964-.962-1.526-.16-.562-.24-1.044-.24-1.526s.16-.964.32-1.365c.241-.402.482-.804.882-1.125a6.92 6.92 0 011.283-.803c.481-.16.882-.241 1.363-.241.48 0 .962.16 1.443.401.48.322.962.643 1.362 1.205zm-.801.723c-.32-.321-.641-.642-.962-.803-.32-.241-.722-.321-1.042-.402-.32-.08-.722 0-1.042.08-.321.081-.642.322-.962.563-.32.24-.481.562-.642.883-.16.322-.16.643-.16.964 0 .322.08.723.24 1.044.16.402.401.723.722 1.045.32.321.641.642.962.803.32.241.721.321 1.042.401.32.081.721 0 1.042-.08.32-.08.641-.321.962-.562.321-.241.481-.562.641-.884.161-.321.161-.642.161-1.044 0-.321-.081-.723-.241-1.044-.16-.241-.4-.643-.721-.964zm-9.62 9.158c-.24-1.044-.48-2.008-.641-2.891l-.481-2.651.962-.562a40.65 40.65 0 012.805 2.57c.882.964 1.844 2.008 2.886 3.132l-.962.563c-.4-.482-.801-.884-1.202-1.366-.401-.401-.802-.883-1.203-1.285l-1.122-1.124c-.4-.402-.721-.723-1.042-.964.16.803.32 1.767.561 2.731.16.964.4 2.008.722 2.972l-.802.482a51.99 51.99 0 00-2.325-2.009 90.206 90.206 0 00-2.164-1.686c.08.401.24.883.4 1.365.161.482.321.964.482 1.526.16.563.4 1.044.56 1.607.241.562.402 1.124.642 1.686l-.962.563c-.56-1.446-1.042-2.731-1.443-4.016a40.96 40.96 0 01-.962-3.615l.962-.562a20.576 20.576 0 012.085 1.606c.721.643 1.523 1.205 2.244 1.928zm-13.385.482c.24.16.56.401.881.642.321.241.642.482 1.042.723.401.241.722.482 1.123.803.4.241.801.482 1.122.723.4.241.721.482 1.042.643.32.241.641.402.962.562l-2.164-5.703.962-.401 2.805 7.309-.801.321a29.518 29.518 0 01-1.524-.803c-.56-.321-1.122-.642-1.683-1.044-.561-.321-1.122-.723-1.603-1.044-.481-.322-.962-.643-1.283-.964l2.084 5.381-.961.402-2.806-7.309.802-.241z" fill="#333"/><path d="M62.205 119.919c0-.321 0-.642.08-.883.08-.322.08-.563.16-.884-.24.161-.56.321-.801.482-.24.161-.561.321-.802.402h-.08l-.32-.964h.08c.32-.161.56-.241.881-.241.321 0 .642-.081.882-.161-.24-.161-.48-.401-.721-.562-.24-.161-.401-.402-.642-.643l-.08-.08.802-.643.08.081c.16.241.32.562.48.803.161.241.322.562.402.803.16-.321.24-.562.4-.883.08-.241.241-.563.401-.804l.08-.08.882.562-.08.081c-.16.241-.4.482-.561.723l-.641.642c.32 0 .641 0 .962.08.32 0 .64.081.881.161h.08l-.24.964h-.08c-.32-.08-.561-.241-.882-.321-.24-.161-.561-.241-.801-.402.08.321.16.562.24.884.08.321.08.562.16.883v.08l-1.042.081-.16-.161z" fill="#0F4E41"/><path d="M46.973 111.326c-1.122-.321-1.764-.08-1.924.723-.08.241-.08.482 0 .643.08.16.16.401.32.562l.482.482c.16.161.4.321.64.401.241.161.482.322.722.563.24.16.401.401.562.562.16.241.24.482.24.723.08.241 0 .562-.08.883-.16.643-.561 1.125-1.042 1.366-.561.241-1.203.241-2.004.08-.481-.08-.882-.241-1.203-.482-.32-.16-.56-.401-.721-.562l.561-.803c.16.16.32.321.641.482.24.16.642.321 1.042.401.24.081.401.081.561.081.16 0 .321 0 .481-.081.16-.08.321-.16.401-.241.08-.08.16-.241.24-.482.08-.241.08-.401 0-.562l-.24-.482a.967.967 0 00-.4-.401c-.16-.161-.321-.241-.562-.402-.32-.241-.56-.402-.801-.643-.24-.24-.401-.401-.561-.642-.16-.241-.24-.482-.321-.803-.08-.241 0-.563.08-.964.16-.643.561-1.125 1.122-1.366.561-.241 1.283-.241 2.165 0 .32.081.56.161.801.241.24.081.481.241.642.322.16.08.32.241.48.321.16.08.241.161.321.241l-.561.803c-.16-.161-.4-.321-.641-.482-.561-.16-.962-.321-1.443-.482zm-7.294-3.454c.48.241.962.482 1.282.804.321.321.642.722.802 1.204.16.402.24.964.24 1.446 0 .562-.16 1.125-.4 1.687a4.154 4.154 0 01-.962 1.526c-.401.402-.802.723-1.203.884-.48.16-.881.321-1.362.321-.481 0-.962-.081-1.443-.321-.32-.161-.561-.241-.802-.402-.24-.161-.4-.241-.56-.402-.161-.16-.241-.241-.402-.321-.16-.08-.16-.161-.16-.241l.641-.723c.08.08.08.161.24.241.08.08.241.161.321.321.16.081.24.241.401.322l.481.241c.401.16.722.241 1.122.241.321 0 .722-.081 1.043-.241.32-.161.64-.402.881-.723.24-.322.481-.723.642-1.125.16-.401.32-.803.32-1.205.08-.401 0-.722-.08-1.124a1.92 1.92 0 00-.481-.884 2.87 2.87 0 00-.962-.642c-.48-.161-.882-.321-1.202-.321h-.802l.08-.964h.882c.24 0 .481.08.722.16.16 0 .48.161.72.241zm-8.576-.644c0-.16-.08-.401-.08-.722 0-.322-.08-.643-.08-.964v-1.125c0-.401 0-.723.08-1.044l1.042.562v1.928c0 .321.08.643.08.884 0 .321.08.562.08.803.08.08.16.08.24.16.08.081.16.081.241.161l.882.482 1.523-2.651.962.563-3.848 6.666c-.32-.08-.641-.241-.962-.401a8.947 8.947 0 01-.882-.482c-.962-.563-1.523-1.125-1.843-1.767-.32-.643-.24-1.285.16-2.008.24-.482.561-.723 1.042-.964.32-.161.802-.161 1.363-.081zm-.481 4.017c.4.24.721.401.962.481l1.443-2.57-.642-.401a8.938 8.938 0 01-.881-.482c-.24-.081-.562-.161-.802-.161s-.48 0-.641.161c-.16.08-.401.321-.561.562-.16.241-.24.482-.24.723s.08.401.16.642c.08.161.24.402.48.563l.722.482zm-3.127-5.462c-.4.482-.881.884-1.362 1.205a5.078 5.078 0 01-1.443.482c-.481.08-.962 0-1.443-.161a4.053 4.053 0 01-1.282-.722 4.23 4.23 0 01-.962-1.125c-.24-.402-.401-.883-.401-1.365-.08-.482 0-.964.16-1.526.16-.482.481-1.045.882-1.527.4-.481.882-.883 1.363-1.204.48-.241.961-.402 1.442-.482.481-.08.962 0 1.363.16a4.256 4.256 0 012.245 1.848c.24.401.4.883.4 1.365.08.482 0 .964-.16 1.526a2.84 2.84 0 01-.802 1.526zm-.881-.723c.32-.401.56-.722.641-1.124.16-.402.24-.723.24-1.125 0-.321-.08-.642-.24-.963-.16-.322-.4-.563-.721-.884a2.718 2.718 0 00-.962-.482c-.32-.08-.642-.08-1.042 0-.321.081-.642.241-1.043.402-.32.241-.64.482-.961.883-.321.402-.561.723-.642 1.125-.16.401-.24.723-.24 1.124 0 .322.08.643.24.964.16.321.401.562.722.884.32.241.641.401.962.482.32.08.641.08 1.042 0 .32-.081.641-.241 1.042-.402.4-.241.721-.482.962-.884zm-7.617-11.326l.721-.642 3.127 3.454-5.772 5.22-.721-.803 5.05-4.578-2.405-2.65zm-3.767-5.14l.802-.563 2.725 3.856-6.333 4.498-.64-.884 5.61-3.936-2.164-2.971zm-7.696-8.915c.64-.241 1.202-.402 1.763-.402.561 0 1.042.08 1.523.322a3.55 3.55 0 011.203.963c.4.402.64.884.962 1.527.16.32.24.642.4.963.16.322.24.723.24.964l-6.893 3.052c-.16-.24-.4-.562-.561-.883l-.481-.964a6.678 6.678 0 01-.481-1.687c-.08-.562 0-1.044.08-1.526.16-.482.4-.883.802-1.285.32-.482.801-.803 1.443-1.044zm4.489 2.65c-.401-.963-.962-1.525-1.684-1.766-.721-.242-1.443-.161-2.324.24-.882.402-1.443.884-1.684 1.607-.24.642-.24 1.526.24 2.41.161.24.241.481.321.642.08.16.16.241.16.321l5.452-2.41c0-.08-.08-.16-.16-.32-.08-.161-.241-.483-.321-.723zM6.734 77.51c-.642.16-1.203.24-1.764.16-.561-.08-1.042-.241-1.443-.482-.4-.241-.721-.562-1.042-.964-.24-.401-.48-.803-.641-1.365-.16-.482-.16-.964-.08-1.446s.24-.884.48-1.366a3.437 3.437 0 011.043-1.124A4.888 4.888 0 014.89 70.2c.641-.16 1.202-.241 1.763-.16.561.08 1.042.24 1.443.481s.722.563 1.042.964c.24.402.481.803.642 1.285.16.482.16.964.08 1.446a3.96 3.96 0 01-.481 1.366c-.24.401-.561.803-1.042 1.124a4.294 4.294 0 01-1.603.803zm-.321-1.125c.48-.08.882-.322 1.202-.482.32-.241.642-.482.802-.723.24-.241.32-.562.4-.964.08-.321.08-.723-.08-1.124-.08-.402-.24-.723-.48-.964s-.481-.482-.802-.643a2.216 2.216 0 00-1.042-.24c-.4 0-.802 0-1.283.16-.4.08-.801.24-1.122.482-.32.24-.641.482-.802.723-.24.32-.32.562-.4.963-.08.322-.08.723.08 1.125.08.402.24.723.48.964.241.24.482.482.802.642.321.161.642.241 1.042.241.321 0 .802-.08 1.203-.16zM2.806 63.614c1.042.24 2.004.482 2.805.803.802.321 1.684.562 2.565.803l.08 1.125c-1.122.482-2.324.883-3.527 1.285-1.282.402-2.645.723-4.088 1.124l-.08-1.124c.561-.16 1.122-.321 1.764-.402l1.683-.481c.561-.161 1.042-.322 1.523-.482.481-.241.882-.402 1.363-.482-.802-.241-1.684-.482-2.646-.804-.961-.24-1.923-.562-2.965-.722l-.08-.964c.961-.322 1.923-.723 2.885-1.125.882-.401 1.764-.803 2.485-1.124a45.2 45.2 0 00-1.363-.241c-.48-.08-1.042-.16-1.603-.241-.56-.16-1.202-.241-1.763-.322C1.283 60.16.64 60.08.08 60L0 58.874c1.523.16 2.886.402 4.168.562 1.283.241 2.485.482 3.688.803l.08 1.125c-.802.402-1.603.723-2.405 1.124a21.41 21.41 0 01-2.725 1.125zm5.851-12.128c-.32.16-.641.241-.962.482-.4.16-.721.321-1.122.562-.401.241-.802.402-1.203.643-.4.24-.801.401-1.202.642-.4.241-.721.402-1.122.643-.32.24-.642.402-.882.562l6.012.723-.16 1.044-7.696-.964.08-.883c.401-.321.882-.643 1.443-.964l1.684-.964c.56-.321 1.122-.642 1.683-.883.561-.322 1.042-.482 1.443-.723l-5.691-.723.16-1.044 7.695.963-.16.884z" fill="#333"/><path d="M6.172 33.975c.321.161.561.322.802.482.24.16.48.322.721.563 0-.322 0-.643-.08-.884v-1.044l.962.08v.08c0 .322-.08.643-.16.884-.08.321-.24.562-.32.883.32-.16.56-.24.881-.401.24-.08.561-.16.882-.241h.08l.16.964h-.08c-.32.08-.641.08-.962.08h-.882c.16.241.401.482.562.723.16.241.4.482.56.803l.08.08-.881.483-.08-.08c-.16-.242-.24-.563-.4-.884-.081-.322-.161-.563-.241-.884-.16.241-.321.562-.481.803-.16.241-.321.482-.562.723l-.08.08-.721-.722.08-.08c.24-.242.481-.402.721-.643a4.38 4.38 0 00.722-.563c-.24.161-.561.08-.802 0-.32-.08-.56-.16-.881-.32h-.08l.4-.884.08-.08z" fill="#0F4E41"/></svg>