<svg width="126" height="126" viewBox="0 0 126 126" fill="none" xmlns="http://www.w3.org/2000/svg">
<g id="Group">
<g id="Group_2">
<path id="Vector" d="M122.934 48.0366L124.156 47.8005L125.568 55.1363L124.346 55.3723L123.823 52.3899L115.525 53.9733L115.244 52.5793L123.542 50.996L122.934 48.0366Z" fill="#6F7C7A"/>
<path id="Vector_2" d="M116.119 58.5922L125.773 58.2985L125.938 64.4073L124.67 64.472L124.614 59.8031L121.69 59.853L121.825 64.1331L120.557 64.1978L120.422 59.9177L117.497 59.9675L117.639 64.6134L116.371 64.6781L116.119 58.5922Z" fill="#6F7C7A"/>
<path id="Vector_3" d="M122.572 72.7505C123.024 72.7213 123.366 72.6294 123.726 72.2574C124 71.9084 124.165 71.4967 124.284 70.9136C124.364 70.5249 124.358 70.1591 124.18 69.8394C124.003 69.5196 123.934 69.2625 123.803 69.1141C123.586 68.9887 123.368 68.8633 123.088 68.8465C122.894 68.8068 122.637 68.8757 122.466 68.9217C122.294 68.9677 122.146 69.0993 122.021 69.3167C121.872 69.4483 121.747 69.6657 121.707 69.86C121.667 70.0544 121.542 70.2717 121.479 70.3804L121.086 71.3125C120.983 71.6155 120.795 71.9415 120.692 72.2446C120.504 72.5706 120.293 72.8109 120.082 73.0512C119.871 73.2916 119.551 73.4692 119.231 73.6468C118.889 73.7387 118.546 73.8307 118.072 73.7742C117.512 73.7407 117.078 73.4899 116.706 73.1303C116.334 72.7708 116.048 72.3884 115.888 71.7885C115.727 71.1887 115.653 70.5659 115.726 69.8114C115.714 69.0799 115.919 68.4738 116.256 68.0162C116.569 67.4728 116.952 67.1865 117.42 66.8772C117.911 66.6537 118.425 66.5158 118.985 66.5493L118.815 67.9725C118.449 67.9787 118.192 68.0477 117.872 68.2253C117.553 68.4029 117.427 68.6203 117.239 68.9463C117.051 69.2723 116.948 69.5753 116.954 69.9411C116.875 70.3298 116.881 70.6956 116.973 71.0383C117.064 71.3811 117.219 71.6152 117.373 71.8493C117.613 72.0604 117.831 72.1858 118.11 72.2025C118.39 72.2193 118.647 72.1503 118.796 72.0187C118.944 71.887 119.287 71.7951 119.498 71.5548C119.623 71.3374 119.812 71.0114 119.914 70.7084L120.347 69.5819C120.701 68.8442 121.014 68.3008 121.545 67.8829C121.99 67.4879 122.59 67.3271 123.258 67.4233C123.818 67.4568 124.253 67.7076 124.624 68.0671C124.996 68.4266 125.305 68.8948 125.442 69.4089C125.58 69.9231 125.655 70.5459 125.558 71.2147C125.462 71.8834 125.32 72.3809 125.006 72.9242C124.692 73.4676 124.31 73.7539 123.904 73.9545C123.499 74.1551 122.985 74.2929 122.511 74.2365L122.572 72.7505Z" fill="#6F7C7A"/>
<path id="Vector_4" d="M123.161 77.003L124.349 77.3271L122.231 84.5079L121.043 84.1839L121.92 81.2852L113.834 78.8622L114.284 77.4557L122.369 79.8787L123.161 77.003Z" fill="#6F7C7A"/>
<path id="Vector_5" d="M120.556 88.5399L111.629 84.6893L112.188 83.3456L121.114 87.1961L120.556 88.5399Z" fill="#6F7C7A"/>
<path id="Vector_6" d="M119.155 91.8573L118.191 93.4018L110.209 92.053L110.147 92.1617L114.923 98.6871L113.959 100.232L105.722 95.1855L106.412 93.9901L112.346 97.6335L112.408 97.5248L107.941 91.4676L108.506 90.4895L115.99 91.6961L116.053 91.5874L110.12 87.944L110.81 86.7486L119.155 91.8573Z" fill="#6F7C7A"/>
<path id="Vector_7" d="M102.228 106.135C101.485 105.416 100.913 104.651 100.707 103.88C100.415 103.132 100.38 102.314 100.539 101.537C100.698 100.76 101.074 100.107 101.645 99.4952C102.216 98.8828 102.855 98.5276 103.603 98.2351C104.351 97.9425 105.105 98.0158 105.905 98.2604C106.705 98.505 107.466 98.9439 108.209 99.663C108.952 100.382 109.524 101.147 109.731 101.918C110.023 102.667 110.058 103.484 109.899 104.261C109.739 105.039 109.363 105.691 108.792 106.303C108.222 106.915 107.582 107.271 106.811 107.477C106.04 107.684 105.309 107.697 104.509 107.452C103.709 107.208 102.972 106.854 102.228 106.135ZM103.221 105.042C103.833 105.613 104.376 105.926 104.896 106.154C105.502 106.359 105.976 106.416 106.49 106.278C107.004 106.14 107.387 105.854 107.832 105.459C108.191 105.087 108.419 104.566 108.562 104.069C108.704 103.571 108.566 103.057 108.406 102.457C108.16 101.88 107.828 101.327 107.239 100.842C106.65 100.357 106.084 99.9575 105.564 99.7296C104.958 99.5247 104.484 99.4683 103.97 99.6062C103.456 99.7441 103.074 100.03 102.629 100.425C102.269 100.797 102.041 101.318 101.899 101.815C101.756 102.313 101.894 102.827 102.054 103.427C102.192 103.941 102.633 104.557 103.221 105.042Z" fill="#6F7C7A"/>
<path id="Vector_8" d="M96.7013 116.342L91.0211 108.498L92.1057 107.748L100.22 110.622L100.306 110.599L96.1874 104.816L97.3348 103.957L103.015 111.801L101.93 112.552L93.8157 109.677L93.73 109.7L97.8487 115.483L96.7013 116.342Z" fill="#6F7C7A"/>
<path id="Vector_9" d="M92.371 118.697L87.7976 110.188L89.0767 109.477L93.6501 117.987L92.371 118.697Z" fill="#6F7C7A"/>
<path id="Vector_10" d="M85.1364 111.543L86.5469 110.98L86.8254 121.284L85.2435 121.893L78.4894 114.152L79.8999 113.59L85.3616 119.932L85.4473 119.909L85.1364 111.543ZM86.2939 115.181L81.6341 116.983L81.1417 115.829L85.8015 114.028L86.2939 115.181Z" fill="#6F7C7A"/>
<path id="Vector_11" d="M77.1821 114.409L79.2536 123.865L77.8599 124.148L76.0238 115.914L71.78 116.869L71.5445 115.646L77.1821 114.409Z" fill="#6F7C7A"/>
</g>
<path id="Vector_12" d="M60.3189 118.287L60.1153 120.27L61.8622 119.25L62.2858 120.147L60.4701 120.91L62.2077 121.913L61.6203 122.806L60.0081 121.585L59.9988 123.608L58.9648 123.518L59.1684 121.534L57.4215 122.554L56.9979 121.657L58.8136 120.895L57.076 119.891L57.6634 118.999L59.2755 120.22L59.2849 118.197L60.3189 118.287Z" fill="#0F4E41"/>
<g id="Group_3">
<path id="Vector_13" d="M45.7735 122.283L45.3634 123.495L38.3516 120.967L38.7617 119.755L41.5961 120.74L44.4332 112.814L45.7533 113.287L42.9162 121.212L45.7735 122.283Z" fill="#6F7C7A"/>
<path id="Vector_14" d="M40.0393 111.143L35.4263 119.636L30.1508 116.735L30.7781 115.648L34.859 117.86L36.2789 115.275L32.5238 113.251L33.1511 112.164L36.9062 114.188L38.326 111.603L34.2452 109.391L34.8725 108.304L40.0393 111.143Z" fill="#6F7C7A"/>
<path id="Vector_15" d="M24.5677 109.598C24.3168 110.033 24.3229 110.399 24.4375 110.827C24.5522 111.256 24.8382 111.638 25.2955 111.975C25.6443 112.249 25.9471 112.351 26.25 112.454C26.5528 112.556 26.8328 112.573 27.0897 112.504C27.3467 112.435 27.5808 112.28 27.7062 112.063C27.8317 111.846 27.8944 111.737 27.9113 111.457C27.9511 111.262 27.9052 111.091 27.8364 110.834C27.7906 110.663 27.6361 110.428 27.5902 110.257C27.4587 110.109 27.3042 109.875 27.2584 109.703L26.6864 108.938C26.5319 108.704 26.2689 108.407 26.0915 108.088C25.9141 107.768 25.7367 107.448 25.6449 107.105C25.5532 106.762 25.5471 106.397 25.564 106.117C25.6436 105.728 25.7461 105.425 26.02 105.076C26.3565 104.618 26.739 104.332 27.253 104.194C27.767 104.056 28.3039 104.004 28.801 104.146C29.2981 104.288 29.9268 104.579 30.6013 105.041C31.1672 105.44 31.5847 105.971 31.8937 106.439C32.2026 106.907 32.2545 107.444 32.3065 107.982C32.2727 108.542 32.1304 109.039 31.7938 109.497L30.6391 108.613C30.8272 108.287 30.9298 107.984 30.861 107.726C30.8778 107.446 30.7004 107.127 30.546 106.892C30.3686 106.573 30.1284 106.362 29.8026 106.173C29.4539 105.9 29.1281 105.711 28.8253 105.609C28.5224 105.507 28.1568 105.513 27.8998 105.582C27.6428 105.651 27.4088 105.805 27.1977 106.046C26.9865 106.286 26.9467 106.48 26.9299 106.76C26.913 107.041 27.0675 107.275 27.1363 107.532C27.2908 107.766 27.4681 108.086 27.7312 108.382L28.4347 109.296C28.8752 109.912 29.23 110.552 29.3049 111.175C29.3797 111.798 29.2603 112.381 28.8381 112.861C28.5015 113.319 28.1191 113.605 27.6051 113.743C27.0911 113.881 26.5542 113.933 26.0571 113.791C25.4743 113.672 24.9542 113.444 24.474 113.022C23.9937 112.6 23.5991 112.154 23.2902 111.686C23.0669 111.195 22.9293 110.681 22.9003 110.229C22.957 109.755 23.0993 109.258 23.3502 108.823L24.5677 109.598Z" fill="#6F7C7A"/>
<path id="Vector_16" d="M20.6262 107.898L19.7588 108.774L14.6353 103.352L15.5027 102.476L17.5613 104.679L23.7249 98.8928L24.7312 99.9086L18.5676 105.695L20.6262 107.898Z" fill="#6F7C7A"/>
<path id="Vector_17" d="M12.0374 99.8211L19.8571 94.05L20.7151 95.1974L12.8953 100.969L12.0374 99.8211Z" fill="#6F7C7A"/>
<path id="Vector_18" d="M9.81403 97.0151L8.94996 95.5018L14.1593 89.2365L14.1364 89.1508L6.08257 89.9337L5.2185 88.4205L13.7256 83.8421L14.4122 85.0356L8.22889 88.3476L8.25182 88.4333L15.7687 87.7026L16.3238 88.7477L11.4511 94.5553L11.474 94.641L17.6574 91.329L18.344 92.5224L9.81403 97.0151Z" fill="#6F7C7A"/>
<path id="Vector_19" d="M6.07425 75.1498C7.1022 74.874 8.00469 74.8156 8.78173 74.9745C9.55876 75.1334 10.296 75.4867 10.8848 75.9716C11.4737 76.4566 11.8514 77.1818 12.0578 77.953C12.2642 78.7243 12.2993 79.5414 12.1172 80.2332C11.9351 80.925 11.473 81.6 10.9024 82.2123C10.3318 82.8246 9.521 83.2258 8.49305 83.5016C7.4651 83.7773 6.5626 83.8358 5.78557 83.6768C5.00853 83.5179 4.27129 83.1646 3.68245 82.6797C3.0936 82.1948 2.71586 81.4695 2.50946 80.6983C2.30306 79.9271 2.26799 79.1099 2.45011 78.4181C2.6093 77.6407 3.09426 77.0513 3.6649 76.439C4.34413 75.8894 5.13196 75.4025 6.07425 75.1498ZM6.52685 76.4978C5.75588 76.7047 5.20211 77.0369 4.75694 77.4319C4.31176 77.8268 3.97517 78.2845 3.83285 78.7819C3.69053 79.2793 3.74247 79.8164 3.88007 80.3306C4.01767 80.8447 4.3266 81.3129 4.69825 81.6724C5.06991 82.032 5.58995 82.2598 6.14979 82.2933C6.73257 82.4125 7.44081 82.3143 8.21177 82.1075C8.98274 81.9007 9.53651 81.5684 9.98168 81.1735C10.4269 80.7785 10.7634 80.3208 10.9058 79.8234C11.0481 79.326 10.9961 78.7889 10.8585 78.2748C10.7209 77.7606 10.412 77.2924 10.0404 76.9329C9.66871 76.5734 9.14867 76.3455 8.58883 76.312C7.92039 76.2158 7.29781 76.291 6.52685 76.4978Z" fill="#6F7C7A"/>
<path id="Vector_20" d="M0.0375061 65.2866L9.70186 64.3471L9.87454 65.6785L3.29943 71.2998L3.32236 71.3855L10.3878 70.684L10.4978 72.124L0.833432 73.0635L0.660755 71.7322L7.23586 66.1108L7.21293 66.0251L0.147449 66.7266L0.0375061 65.2866Z" fill="#6F7C7A"/>
<path id="Vector_21" d="M0.189407 60.3741L9.80854 60.6405L9.74716 62.1262L0.128032 61.8599L0.189407 60.3741Z" fill="#6F7C7A"/>
<path id="Vector_22" d="M10.0151 57.6446L9.78242 59.1765L0.752212 54.2516L1.04765 52.6111L11.1678 50.6308L10.9351 52.1627L2.6995 53.6374L2.72243 53.7231L10.0151 57.6446ZM6.30132 56.804L7.07903 51.8196L8.33022 52.035L7.55252 57.0194L6.30132 56.804Z" fill="#6F7C7A"/>
<path id="Vector_23" d="M11.5318 49.2463L2.29817 46.305L2.74806 44.8986L10.7932 47.5159L12.1428 43.2967L13.3542 43.7064L11.5318 49.2463Z" fill="#6F7C7A"/>
</g>
<path id="Vector_24" d="M16.6788 32.7978L15.0667 31.5769L15.0574 33.6001L14.0234 33.5101L14.227 31.5266L12.4801 32.5463L12.0565 31.6495L13.8721 30.887L12.1346 29.8834L12.722 28.9911L14.3341 30.2119L14.3434 28.1887L15.3774 28.2788L15.1739 30.2622L16.9208 29.2426L17.3444 30.1393L15.5287 30.9019L17.2663 31.9054L16.6788 32.7978Z" fill="#0F4E41"/>
<g id="Group_4">
<path id="Vector_25" d="M20.5685 18.1722L19.7564 17.196L25.4415 12.3643L26.2537 13.3404L23.9191 15.2526L29.3182 21.7032L28.1937 22.6478L22.7946 16.1972L20.5685 18.1722Z" fill="#6F7C7A"/>
<path id="Vector_26" d="M33.0765 18.9498L28.0983 10.6412L33.3167 7.49612L33.9804 8.60393L30.0181 10.9528L31.523 13.4882L35.1656 11.317L35.8294 12.4248L32.1868 14.596L33.6917 17.1315L37.6311 14.6969L38.2948 15.8047L33.0765 18.9498Z" fill="#6F7C7A"/>
<path id="Vector_27" d="M42.1773 6.31379C41.9769 5.90829 41.6282 5.63445 41.2397 5.55499C40.8511 5.47553 40.3142 5.52773 39.8231 5.75132C39.5034 5.92895 39.1836 6.10657 38.9725 6.34691C38.7613 6.58725 38.6359 6.80461 38.5333 7.10766C38.5165 7.38774 38.4767 7.58211 38.5684 7.92489C38.6372 8.18198 38.7687 8.33039 38.963 8.37012C39.0946 8.51853 39.2888 8.55826 39.4831 8.598C39.6774 8.63773 39.8716 8.67746 40.1287 8.60851C40.3857 8.53956 40.5799 8.57929 40.7513 8.53333L41.7165 8.36622C42.0592 8.27429 42.3392 8.29103 42.7048 8.2848C43.0704 8.27856 43.3503 8.29531 43.7389 8.37477C44.0417 8.47722 44.3676 8.66536 44.6934 8.8535C45.0192 9.04164 45.1966 9.36144 45.3112 9.78992C45.5345 10.2811 45.5865 10.8183 45.4441 11.3157C45.3018 11.8131 45.0509 12.2478 44.7142 12.7055C44.3776 13.1632 43.7382 13.5185 43.0758 13.7881C42.4133 14.0576 41.8137 14.2185 41.1681 14.208C40.6082 14.1745 40.1111 14.0323 39.6767 13.7814C39.2423 13.5306 38.9333 13.0624 38.6244 12.5942L39.9492 12.0551C40.1266 12.3749 40.2811 12.609 40.584 12.7114C40.8868 12.8139 41.1897 12.9163 41.4696 12.933C41.8353 12.9268 42.1779 12.8349 42.4977 12.6573C42.9031 12.4566 43.2228 12.279 43.434 12.0387C43.6451 11.7983 43.8562 11.558 43.9588 11.2549C44.0613 10.9519 43.9925 10.6948 43.9007 10.352C43.8319 10.0949 43.5918 9.88381 43.3746 9.75838C43.266 9.69567 42.9861 9.67892 42.7061 9.66217C42.4262 9.64542 42.0606 9.65166 41.7179 9.74359L40.5583 9.87097C39.7644 9.99211 39.0959 9.8959 38.4902 9.69102C37.8844 9.48613 37.4898 9.0409 37.2436 8.46401C37.0203 7.97281 36.9684 7.43565 37.1107 6.93823C37.253 6.4408 37.504 6.00608 37.8406 5.54839C38.2001 5.17638 38.7539 4.84412 39.3307 4.59754C39.9074 4.35097 40.53 4.27578 41.067 4.22359C41.6039 4.17139 42.124 4.39926 42.5584 4.65011C42.9928 4.90097 43.2788 5.28348 43.5021 5.77467L42.1773 6.31379Z" fill="#6F7C7A"/>
<path id="Vector_28" d="M45.6213 3.7392L45.3859 2.51647L52.6508 0.843025L52.8862 2.06575L49.9506 2.76146L51.8724 10.9715L50.4787 11.2536L48.557 3.04349L45.6213 3.7392Z" fill="#6F7C7A"/>
<path id="Vector_29" d="M56.9438 0.427032L58.0273 9.96505L56.6105 10.1614L55.504 0.537674L56.9438 0.427032Z" fill="#6F7C7A"/>
<path id="Vector_30" d="M60.4857 -0.0634834L62.2509 0.0140209L65.0232 7.62822L65.1088 7.60523L68.4491 0.188103L70.2143 0.265609L69.9667 9.97579L68.5671 9.89205L68.8174 2.93651L68.7317 2.95949L65.6194 9.85623L64.4997 9.78924L61.8651 2.6892L61.7794 2.71218L61.5291 9.66773L60.1295 9.58399L60.4857 -0.0634834Z" fill="#6F7C7A"/>
<path id="Vector_31" d="M81.2835 7.67803C80.9988 8.67286 80.6683 9.4963 80.0976 10.1086C79.527 10.7209 78.9104 11.1619 78.1395 11.3687C77.3685 11.5756 76.6373 11.588 75.8602 11.4291C75.0602 11.1845 74.323 10.8312 73.8198 10.3233C73.3166 9.81535 72.9389 9.09007 72.7325 8.31883C72.5261 7.54759 72.5537 6.62171 72.8384 5.62688C73.123 4.63206 73.4535 3.80862 74.0242 3.1963C74.5949 2.58397 75.2114 2.14304 75.9824 1.9362C76.7534 1.72937 77.4845 1.7169 78.2616 1.87582C79.0616 2.12043 79.7988 2.47372 80.302 2.98164C80.8282 3.57526 81.183 4.21485 81.3894 4.98609C81.5101 5.78031 81.4824 6.70619 81.2835 7.67803ZM79.815 7.33722C79.9742 6.55974 80.0707 5.89094 79.9101 5.29109C79.7496 4.69123 79.5263 4.20005 79.1547 3.84053C78.783 3.48101 78.3486 3.23016 77.8515 3.08799C77.3543 2.94582 76.8174 2.99802 76.3034 3.13591C75.7894 3.2738 75.4299 3.64579 74.9847 4.04076C74.6481 4.49845 74.3574 5.12752 74.1126 5.92797C73.9534 6.70545 73.8569 7.37425 74.0174 7.9741C74.178 8.57396 74.4012 9.06513 74.7729 9.42466C75.1446 9.78418 75.579 10.035 76.0761 10.1772C76.5732 10.3194 77.1101 10.2672 77.6241 10.1293C78.1381 9.99139 78.6062 9.68211 78.9428 9.22443C79.2794 8.76674 79.6558 8.11469 79.815 7.33722Z" fill="#6F7C7A"/>
<path id="Vector_32" d="M92.8971 7.50365L88.8269 16.3106L87.5696 15.7294L86.116 7.21038L86.0074 7.14766L83.0604 13.6327L81.6945 12.9888L85.7646 4.1819L87.0219 4.76305L88.4755 13.2821L88.5841 13.3448L91.5311 6.85979L92.8971 7.50365Z" fill="#6F7C7A"/>
<path id="Vector_33" d="M96.9822 10.083L91.8262 18.2627L90.6087 17.4872L95.7647 9.30748L96.9822 10.083Z" fill="#6F7C7A"/>
<path id="Vector_34" d="M94.3942 19.9649L93.2165 18.9951L101.991 13.702L103.278 14.7346L99.911 24.4548L98.7333 23.4849L101.593 15.6457L101.485 15.5829L94.3942 19.9649ZM96.9506 17.1667L100.832 20.3501L100.074 21.2885L96.1918 18.105L96.9506 17.1667Z" fill="#6F7C7A"/>
<path id="Vector_35" d="M100.832 25.4953L108.018 19.0671L108.961 20.1916L102.666 25.8299L105.56 29.0948L104.583 29.9077L100.832 25.4953Z" fill="#6F7C7A"/>
</g>
<path id="Vector_36" d="M112.482 38.1593L114.298 37.3967L112.56 36.3932L113.148 35.5008L114.76 36.7217L114.769 34.6985L115.803 34.7885L115.6 36.772L117.369 35.838L117.793 36.7348L115.977 37.4973L117.715 38.5009L117.128 39.3933L115.515 38.1724L115.506 40.1956L114.472 40.1055L114.676 38.1221L112.906 39.056L112.482 38.1593Z" fill="#0F4E41"/>
</g>
</svg>
