<svg width="42" height="42" viewBox="0 0 42 42" fill="none" xmlns="http://www.w3.org/2000/svg">
<path d="M36.5489 17.3614H36.4449V14.8143C36.4449 6.63262 29.8124 0 21.6306 0C13.4488 0 6.81624 6.63262 6.81624 14.8143V17.3614H6.19252C3.90537 17.3614 2.13807 19.3885 2.13807 21.7277V28.2252C2.08046 30.4924 3.87174 32.377 6.13889 32.4346C6.1568 32.4351 6.17461 32.4354 6.19252 32.4356H10.039C10.5839 32.41 11.0048 31.9475 10.9791 31.4027C10.9782 31.383 10.9768 31.3635 10.9747 31.344V18.6088C10.9747 17.9851 10.6108 17.3613 10.039 17.3613H8.89545V14.8142C8.89545 7.78087 14.5972 2.07911 21.6306 2.07911C28.664 2.07911 34.3657 7.78087 34.3657 14.8142V17.3613H33.2222C32.6504 17.3613 32.2865 17.985 32.2865 18.6088V31.344C32.2285 31.8863 32.6211 32.373 33.1635 32.431C33.183 32.4331 33.2026 32.4346 33.2222 32.4355H34.4177L34.3137 32.5914C33.5445 33.6137 32.547 34.4422 31.4009 35.0107C30.2547 35.5793 28.9916 35.8722 27.7122 35.8661C27.1443 33.0814 24.4263 31.2843 21.6416 31.8523C19.2603 32.3379 17.5433 34.4235 17.5241 36.8538C17.5526 39.7043 19.8715 42 22.7221 41.9998C24.1333 41.9769 25.4783 41.3978 26.4647 40.3884C27.1301 39.7069 27.5663 38.8346 27.7122 37.8933C29.3144 37.8994 30.8958 37.5313 32.3307 36.8184C33.7655 36.1055 35.0141 35.0674 35.977 33.7869L36.9647 32.3314C39.1998 32.1755 40.6033 30.7721 40.6033 28.7448V22.2473C40.6034 20.0124 38.94 17.3614 36.5489 17.3614ZM8.89545 30.3564H6.19252C5.07322 30.3291 4.18793 29.3998 4.21519 28.2805C4.21569 28.262 4.21638 28.2436 4.21728 28.2251V21.7276C4.21728 20.5321 5.04894 19.4405 6.19252 19.4405H8.89545V30.3564ZM24.9573 38.9331C24.6724 39.2421 24.3269 39.4892 23.9424 39.6591C23.5579 39.829 23.1426 39.9181 22.7222 39.9208C21.031 39.8939 19.6586 38.5444 19.6034 36.8539C19.6027 35.1601 20.9752 33.7865 22.669 33.7858C24.3628 33.7851 25.7364 35.1576 25.7371 36.8514V36.8539C25.7585 37.2356 25.7002 37.6176 25.566 37.9755C25.4317 38.3335 25.2245 38.6596 24.9573 38.9331ZM38.5241 28.745C38.5241 30.1484 37.1726 30.3564 36.5489 30.3564H34.3657V19.4406H36.5489C37.6925 19.4406 38.5241 21.052 38.5241 22.2475V28.745Z" fill="#0F4E41"/>
</svg>
