<svg width="20" height="20" fill="none" xmlns="http://www.w3.org/2000/svg"><path d="M.114 6.805a.588.588 0 01.15-.823l7.8-5.378a3.472 3.472 0 013.88 0l7.798 5.378a.588.588 0 11-.668.969l-7.796-5.374a2.279 2.279 0 00-2.547 0L.932 6.956a.588.588 0 01-.818-.15zM20 19.405a.588.588 0 01-.588.588H.599a.588.588 0 010-1.176H2.95v-1.284a1.764 1.764 0 01-1.176-1.656v-1.864a1.752 1.752 0 01.516-1.247l.417-.416-.761-.76a.59.59 0 01.832-.832l.599.6 1.661-3.324a1.755 1.755 0 011.578-.975h6.777a1.756 1.756 0 011.578.975l1.661 3.324.599-.6a.589.589 0 01.832.833l-.76.76.416.415a1.754 1.754 0 01.516 1.247v1.864a1.763 1.763 0 01-1.176 1.656v1.284h2.352a.588.588 0 01.588.588zm-2.94-5.392a.588.588 0 00-.171-.415l-.66-.66H3.781l-.66.66a.588.588 0 00-.17.415v1.864a.588.588 0 00.587.588h12.933a.587.587 0 00.588-.588v-1.864zm-12.57-2.25h11.03l-1.6-3.205a.588.588 0 00-.526-.324H6.616a.588.588 0 00-.525.324l-1.602 3.203zm1.988 7.054V17.64H4.126v1.176h2.351zm5.88 0V17.64H7.652v1.176h4.703zm3.527 0V17.64h-2.352v1.176h2.351zM5.89 14.114H4.714a.588.588 0 100 1.175h1.175a.588.588 0 100-1.175zm9.407 0H14.12a.588.588 0 100 1.175h1.176a.588.588 0 100-1.175z" fill="gray"/></svg>