<svg width="16" height="15" fill="none" xmlns="http://www.w3.org/2000/svg"><path d="M14.505 14.864c-1.76 0-3.474-.392-5.144-1.177A15.618 15.618 0 011.813 6.14C1.03 4.469.637 2.754.637.996c0-.246.082-.45.245-.614a.833.833 0 01.614-.245h3.313c.191 0 .362.061.512.184a.72.72 0 01.266.47l.532 2.864c.027.19.023.365-.011.522a.838.838 0 01-.235.419L3.91 6.6a13.587 13.587 0 002.148 2.762c.86.859 1.807 1.602 2.843 2.23l1.923-1.923a1.14 1.14 0 01.481-.276 1.33 1.33 0 01.583-.052l2.822.573a.83.83 0 01.47.277.74.74 0 01.185.5v3.314a.83.83 0 01-.246.613.832.832 0 01-.613.246z" fill="#E7EDEC"/></svg>