<svg width="16" height="16" fill="none" xmlns="http://www.w3.org/2000/svg"><path d="M15.108 16c-1.824 0-3.602-.407-5.334-1.22a16.197 16.197 0 01-7.827-7.828C1.134 5.219.727 3.442.727 1.617c0-.254.084-.466.254-.636a.863.863 0 01.636-.254h3.437c.198 0 .375.063.53.19.156.128.248.29.276.488l.551 2.97c.029.198.025.378-.01.541a.869.869 0 01-.244.435L4.12 7.43a14.09 14.09 0 002.228 2.863c.89.891 1.874 1.662 2.948 2.312l1.994-1.994c.128-.127.294-.222.5-.286.204-.063.406-.08.603-.053l2.927.594a.857.857 0 01.488.287.771.771 0 01.191.519v3.436a.863.863 0 01-.254.637.863.863 0 01-.637.254z" fill="#91AEA8"/></svg>