<svg width="20" height="20" fill="none" xmlns="http://www.w3.org/2000/svg"><path d="M18.512.73C12.798 2.511 6.702 4.95.57 7.21c-.765.283-.76 1.318.012 1.545 1.782.523 3.57 1.071 5.36 1.627.115.036.241.02.344-.044 2.86-1.79 5.742-3.63 8.54-5.369.144-.09.302.114.176.23-2.272 2.085-4.635 4.255-6.963 6.39a.413.413 0 00-.064.532c1.5 2.28 2.994 4.573 4.393 6.825.355.573 1.196.453 1.45-.2 2.187-5.665 4.491-11.274 6.139-16.577.25-.814-.633-1.692-1.445-1.44z" fill="#fff"/><path d="M5.664 12.147c.014 1.586.043 3.171.086 4.757.02.677.82 1.053 1.299.602l1.52-1.422a.709.709 0 00.106-.902 619.483 619.483 0 00-2.152-3.284c-.257-.39-.863-.213-.859.25z" fill="#fff"/></svg>