<svg width="40" height="31" fill="none" xmlns="http://www.w3.org/2000/svg"><path d="M19.895 30.805a6.313 6.313 0 01-3.37-1 5.09 5.09 0 00-2.895-.896h-.211a5.09 5.09 0 00-2.896.895c-1 .632-2.159 1-3.37 1H6.89a6.313 6.313 0 01-3.37-1 5.09 5.09 0 00-2.896-.895H.519c-.264 0-.527-.263-.527-.526 0-.316.263-.527.527-.527h.105a6.31 6.31 0 013.37 1 5.09 5.09 0 002.896.895h.21a5.09 5.09 0 002.896-.895c1-.632 2.16-1 3.37-1h.264c1.21 0 2.369.368 3.37 1a5.09 5.09 0 002.895.895h.211a5.09 5.09 0 002.896-.895c1.053-.632 2.264-1 3.475-1 1.211 0 2.475.368 3.475 1a5.56 5.56 0 003.002.895 5.56 5.56 0 003-.895c1.001-.684 2.16-1 3.37-1h.106c.316 0 .527.263.527.526a.528.528 0 01-.527.527h-.105a5.09 5.09 0 00-2.896.895c-1.053.632-2.264 1-3.475 1a6.676 6.676 0 01-3.476-1 5.56 5.56 0 00-3-.895 5.56 5.56 0 00-3.002.895c-1 .685-2.159 1-3.37 1h-.21zM6.943 25.118a6.312 6.312 0 01-3.37-1 4.495 4.495 0 00-1.949-.79H1.52c-.316-.053-.632-.053-.948-.053-.316 0-.579-.263-.579-.526 0-.316.263-.527.527-.527.316 0 .632 0 .947.053h.158l12.427-7.32-2.001-3.527a.4.4 0 01-.105-.21 3.368 3.368 0 01-.106-2.58c.316-.843.896-1.528 1.738-1.896L27.057.265a3.12 3.12 0 011.21-.263c.896 0 1.79.421 2.317 1.158.105.158.21.264.264.422.737 1.421.105 3.159-1.317 3.896l-10.11 5.055 8.004 11.636.158.053a6.842 6.842 0 012.422.948 5.09 5.09 0 002.896.895h.263c.632 0 1.264-.105 1.843-.369.316-.158.685-.316 1-.526.738-.474 1.633-.79 2.475-.948.316-.053.632-.053.948-.053h.053c.316 0 .526.264.526.527s-.263.526-.526.526h-.053c-1.053 0-2.053.316-2.949.895a6.704 6.704 0 01-1.053.58 5.634 5.634 0 01-2.264.474h-.263a6.313 6.313 0 01-3.37-1 5.09 5.09 0 00-2.896-.896h-.21c-1.054 0-2.001.316-2.896.895-1 .632-2.16 1-3.37 1h-.264a6.313 6.313 0 01-3.37-1 5.09 5.09 0 00-2.895-.895h-.211c-1.053 0-2 .316-2.896.895-1 .685-2.159 1-3.317 1h-.263v-.052zm.263-1.053c1 0 2-.316 2.843-.895a6.006 6.006 0 013.37-1h.263c1.211 0 2.37.368 3.318 1a5.09 5.09 0 002.895.895h.211c1.053 0 2-.316 2.896-.895a6.477 6.477 0 012.422-.948l.632-.105-7.266-10.584c-.264-.368-.316-.79-.21-1.21.104-.422.368-.738.789-.949l9.794-4.896c.473-.211.842-.685.947-1.211a1.895 1.895 0 00-.105-1.212c-.369-.631-1-1-1.685-1-.263 0-.526.053-.79.158L13.998 7.637c-.053 0-.105.052-.158.105-1.105.632-1.474 2.054-.842 3.16l1.79 3.159c.421.684.158 1.58-.527 2L3.1 22.591l.579.316c.158.052.263.157.421.21a5.05 5.05 0 002.844.895h.105l.158.053z" fill="#0F4E41"/><path d="M32.848 20.38c-3.423 0-6.213-2.791-6.213-6.214 0-3.422 2.79-6.213 6.213-6.213 3.422 0 6.213 2.79 6.213 6.213s-2.79 6.213-6.213 6.213zm0-11.374a5.168 5.168 0 00-5.16 5.16 5.169 5.169 0 005.16 5.16 5.168 5.168 0 005.16-5.16 5.168 5.168 0 00-5.16-5.16z" fill="#0F4E41"/></svg>