<svg width="50" height="50" viewBox="0 0 50 50" fill="none" xmlns="http://www.w3.org/2000/svg">
<g id="icon-park-outline:quote">
<path id="Vector" fill-rule="evenodd" clip-rule="evenodd" d="M19.3648 8.2871C11.4271 13.5752 7.01764 19.7293 6.13532 26.7528C4.76177 37.6843 14.1858 43.0347 18.9611 38.2278C23.7364 33.4197 20.8744 27.3181 17.4168 25.6494C13.9592 23.9819 11.8446 24.5625 12.2135 22.3329C12.5825 20.1044 17.5011 13.924 21.8231 11.046C21.9763 10.9109 22.074 10.7202 22.0963 10.513C22.1186 10.3057 22.0639 10.0974 21.9433 9.9306L20.8744 8.4883C20.4105 7.86283 19.9657 7.88688 19.3648 8.28601V8.2871ZM40.2643 8.2871C32.3266 13.5752 27.916 19.7304 27.0348 26.7528C25.6612 37.6843 35.0853 43.0347 39.8606 38.2278C44.6358 33.4197 41.7738 27.3181 38.3152 25.6494C34.8576 23.9819 32.743 24.5625 33.1119 22.3329C33.4809 20.1044 38.4006 13.924 42.7226 11.046C42.8756 10.9107 42.9731 10.72 42.9952 10.5128C43.0173 10.3055 42.9624 10.0973 42.8417 9.9306L41.7728 8.4883C41.3089 7.86283 40.8641 7.88688 40.2643 8.28601V8.2871Z" fill="#0F4E41"/>
</g>
</svg>
