<svg width="19" height="20" fill="none" xmlns="http://www.w3.org/2000/svg"><path d="M12.514.216a33.52 33.52 0 00-3.78-.214c-4.535 0-8.062 1.75-8.062 4v5.32c0 1.785 2.267 3.32 5.65 3.82-.971.715-1.979 1.393-2.987 2.071-.288.215-.396.607-.18.929a.28.28 0 00.144.143l4.5 3.57a.773.773 0 00.827.036c.756-.536 1.476-1.107 2.196-1.678.684-.572 1.368-1.143 2.016-1.75.612-.571 1.223-1.178 1.835-1.785h.036c.432-.429.828-.893 1.224-1.321 1.116-1.286 2.52-2.857 2.771-4.82.288-2-.108-4.929-2.051-6.714C15.429.645 13.88.395 12.513.216zM8.734.68c3.996 0 7.379 1.536 7.379 3.321 0 2.143-4.32 3.321-7.379 3.321-3.995 0-7.378-1.535-7.378-3.32C1.356 2.215 4.739.68 8.734.68zM1.356 9.322V5.644C2.58 7.072 5.387 8.036 8.734 8.036c1.764.036 3.528-.286 5.183-.893-2.087 1.822-4.247 3.607-6.514 5.214v-1.714a.321.321 0 00-.324-.322.321.321 0 00-.324.322V12.5a14.083 14.083 0 01-1.692-.322v-1.857a.321.321 0 00-.324-.32.321.321 0 00-.324.32V12c-.468-.143-.9-.357-1.332-.572v-2.07a.321.321 0 00-.324-.322.321.321 0 00-.323.321V11c-.72-.5-1.08-1.071-1.08-1.678zm6.838 9.998l-4.499-3.571c.54-.357 1.08-.75 1.62-1.107.288.179.648.25 1.008.214.432-.107.828.179.936.607v.072c.144.785.863 1.285 1.655 1.178.432-.071.864.179.936.607v.072c.036.178.108.357.18.5-.576.5-1.188.963-1.836 1.428zm9.827-10.962c-.072.535-.252 1.035-.468 1.5l-.468-.68a.343.343 0 00-.468-.07.337.337 0 00-.072.464l.684.928c-.324.5-.684 1-1.08 1.464l-.936-1.071c-.108-.143-.324-.143-.468-.036-.144.107-.144.321-.036.464l1.008 1.143c-.432.5-.864.964-1.296 1.428l-1.403-1.214c-.144-.107-.36-.107-.468.036-.108.143-.108.357.036.464h.036l1.367 1.178c-.432.465-.9.893-1.367 1.322l-1.584-1.357c-.144-.107-.36-.107-.468.035-.108.143-.108.357.036.465l1.512 1.285c-.468.428-.972.857-1.44 1.25-.036-.072-.036-.143-.072-.214-.216-.679-.936-1.214-1.728-1.072-.432.072-.864-.178-.936-.607v-.071c-.143-.786-.863-1.286-1.655-1.178h-.288c3.815-2.714 8.386-6.178 10.114-8.535.432-.428.684-1 .684-1.606 0-1.036-.72-1.893-1.62-2.464.36.178.72.393 1.008.678 1.656 1.464 2.123 4.107 1.836 6.07z" fill="gray"/><path d="M8.735 6.001c1.368 0 3.671-.392 4.247-1.642.396-.821-.288-1.714-1.08-2.214a8.395 8.395 0 00-2.411-1c-.252-.071-.54 0-.756.143a1.016 1.016 0 00-.324.357c-2.34.072-4.067 1-4.067 2.178.036 1.571 2.663 2.178 4.39 2.178zm2.447-1.07l.108-2.357c.072.035.144.107.216.142 1.296.822 1.26 1.643-.324 2.214zm-2.16-2.893c0-.072.037-.143.109-.179.036-.071.108-.071.18-.071.468.107.9.25 1.332.428l-.144 2.893c-.576.143-1.152.178-1.728.178l.252-3.25zm-.683.321l-.216 2.964c-1.836-.143-3.06-.857-3.06-1.464-.035-.678 1.296-1.428 3.276-1.5z" fill="gray"/><path d="M9.743 3.322a.321.321 0 00-.324.322v.321a.32.32 0 00.324.321.32.32 0 00.324-.321v-.321c0-.143-.144-.322-.324-.322zM6.252 16.07c-.144-.107-.36-.107-.468.036-.108.142-.108.357.036.464l1.692 1.32c.144.108.36.108.468-.035.108-.143.108-.357-.036-.464L6.252 16.07z" fill="gray"/></svg>