<svg width="30" height="41" fill="none" xmlns="http://www.w3.org/2000/svg"><path d="M15.669 16.404c.81-.45 1.44-1.44 1.44-2.432a2.806 2.806 0 00-2.792-2.792 2.806 2.806 0 00-2.792 2.792c0 .901.45 1.712 1.171 2.252" stroke="#0F4E41" stroke-miterlimit="10" stroke-linecap="round" stroke-linejoin="round"/><path d="M16.3 20.998c3.063-.9 5.315-3.693 5.315-7.025a7.265 7.265 0 00-7.296-7.296 7.265 7.265 0 00-7.296 7.296 7.27 7.27 0 005.134 6.935M24.496 5.865c-.9.901-2.252.901-3.152 0-.901-.9-.901-2.251 0-3.152.9-.9 2.251-.9 3.152 0 .9.9.9 2.342 0 3.152zM7.203 25.23c-.9.901-2.252.901-3.152 0-.901-.9-.901-2.251 0-3.152.9-.9 2.251-.9 3.152 0 .9.901.81 2.252 0 3.153z" stroke="#0F4E41" stroke-miterlimit="10" stroke-linecap="round" stroke-linejoin="round"/><path d="M16.299 26.762c6.215-.991 10.988-6.305 10.988-12.79a13 13 0 00-2.612-7.836M13.507 1.003c-6.845.36-12.16 6.034-12.16 12.97 0 2.972.991 5.674 2.703 7.836" stroke="#0F4E41" stroke-miterlimit="10" stroke-linecap="round" stroke-linejoin="round"/><path d="M28.55 40.002v-9.457c0-1.171-.901-2.072-2.072-2.072s-2.072.9-2.072 2.072v-1.622c0-1.17-.9-2.071-2.071-2.071-1.171 0-2.072.9-2.072 2.071 0-1.17-.9-2.071-2.071-2.071-1.171 0-2.072.9-2.072 2.071V17.845c0-1.171-.9-2.072-2.072-2.072-1.17 0-2.071.901-2.071 2.072v18.194l-2.432-4.053c-.63-.991-1.892-1.351-2.882-.72-.991.54-1.351 1.8-.901 2.791l2.972 5.945m7.565-11.078v3.963m4.053-3.962v4.233m4.054-2.612v2.702" stroke="#0F4E41" stroke-miterlimit="10" stroke-linecap="round" stroke-linejoin="round"/></svg>