<svg width="36" height="36" fill="none" xmlns="http://www.w3.org/2000/svg"><path d="M25.203 34.526c-.337 0-.561-.224-.561-.561v-.618l-18.525-.056c-.73 0-1.347-.617-1.347-1.347V15.889c0-.337.224-.561.56-.561.338 0 .562.224.562.56v16.056c0 .112.113.224.225.224h18.469l.056-2.582a1.176 1.176 0 01-.337-.224l-5.67-4.154c-2.301-1.685-3.873-4.267-4.21-7.13-.337-2.807.505-5.67 2.358-7.803l7.859-9.262.056-.056c.224 0 .393-.057.505-.057.169 0 .393.057.505.225l7.86 9.262c1.852 2.134 2.694 4.997 2.357 7.803a10.206 10.206 0 01-4.21 7.13l-5.67 4.154c-.112.056-.168.112-.28.168v2.582l1.684.057c.056 0 .112 0 .168-.056.056-.057.056-.113.056-.169v-1.628c0-.337.225-.561.562-.561.336 0 .56.224.56.561v1.628c0 .73-.617 1.347-1.346 1.347H25.82l-.056.618c0 .224-.225.505-.562.505zm-7.466-23.409a9.184 9.184 0 00-2.133 6.961c.28 2.526 1.684 4.828 3.761 6.344l5.333 3.873v-4.94l-4.66-4.66a.543.543 0 010-.785.51.51 0 01.394-.169.51.51 0 01.393.169l3.873 3.873v-4.996l-3.424-3.48a.543.543 0 010-.786.51.51 0 01.393-.169.51.51 0 01.393.169l2.638 2.638V8.647c0-.337.224-.561.561-.561.337 0 .562.224.562.561v6.456l2.638-2.639a.51.51 0 01.393-.168.51.51 0 01.393.168.543.543 0 010 .786l-3.424 3.48v5.053l3.873-3.873a.51.51 0 01.393-.169.51.51 0 01.393.169.543.543 0 010 .786l-4.66 4.659v4.884l5.334-3.874a9.386 9.386 0 003.76-6.343c.282-2.526-.448-5.052-2.132-6.96l-7.579-8.814-7.466 8.87z" fill="#0F4E41"/><path d="M.561 17.069c-.168 0-.336-.056-.393-.169-.224-.28-.224-.617 0-.842l5.277-4.715c-.056-.112-.056-.225-.056-.28V6.29c0-.337.225-.562.561-.562.337 0 .562.225.562.562v4.154l9.655-8.59c.281-.224.618-.392 1.01-.392.394 0 .73.112 1.011.393l2.021 1.796a.601.601 0 01.056.786c-.112.112-.28.225-.449.225-.112 0-.28-.056-.337-.113l-1.964-1.74a.429.429 0 00-.281-.112.429.429 0 00-.28.112l-16 14.09a.606.606 0 01-.393.169z" fill="#0F4E41"/></svg>