<svg width="36" height="36" fill="none" xmlns="http://www.w3.org/2000/svg"><g clip-path="url(#clip0_578_8797)" fill="#0F4E41"><path d="M19.559 11.1c.3 0 .54-.24.54-.54V5.52c0-.3-.24-.54-.54-.54-.3 0-.54.24-.54.54v5.04c-.06.24.24.54.54.54zm-16.56 4.92h3.72c.3 0 .54-.24.54-.54 0-.3-.24-.54-.54-.54h-3.72c-.3 0-.54.24-.54.54 0 .3.24.54.54.54zm12.3 0h1.86c.3 0 .54-.24.54-.54 0-.3-.24-.54-.54-.54h-1.86c-.3 0-.54.24-.54.54 0 .3.24.54.54.54zm-3.84 0h1.86c.3 0 .54-.24.54-.54 0-.3-.24-.54-.54-.54h-1.86c-.3 0-.54.24-.54.54 0 .3.24.54.54.54zm-3.66 10.5c-.24.24-.24.6 0 .78.24.24.6.24.78 0l2.28-2.28c.24-.24.24-.6 0-.78-.24-.18-.6-.24-.78 0l-2.28 2.28zm13.92-3.54c-.24-.24-.6-.24-.78 0l-4.32 4.32c-.24.24-.24.6 0 .78.24.24.6.24.78 0l4.32-4.32c.24-.18.24-.54 0-.78zm1.02 1.56l-2.28 2.28c-.24.24-.24.6 0 .78.24.24.6.24.78 0l2.28-2.28c.24-.24.24-.6 0-.78-.18-.18-.54-.18-.78 0z"/><path d="M34.32 0H17.64c-.96 0-1.68.78-1.68 1.68v10.56H1.68c-.96 0-1.68.78-1.68 1.68v20.34C0 35.22.78 36 1.68 36h32.64c.96 0 1.68-.78 1.68-1.68V1.68C36 .78 35.22 0 34.32 0zM17.1 1.68c0-.3.24-.54.54-.54h16.68c.3 0 .54.24.54.54v11.7H20.04c-.24-.66-.84-1.14-1.62-1.14H17.1V1.68zm5.1 33.18h-2.94v-1.38h2.94v1.38zm.54-2.52h-9.9c-.18 0-.3-.12-.3-.3v-.84h16.32v.9c0 .18-.12.3-.3.3h-5.82v-.06zm-12.66-.42c-3 0-5.4-2.4-5.4-5.4 0-3 2.4-5.4 5.4-5.4.54 0 1.02.06 1.5.18-.06.18-.12.36-.12.54v.3c-.42-.12-.9-.24-1.38-.24-2.52 0-4.56 2.04-4.56 4.56 0 2.52 2.04 4.56 4.56 4.56.48 0 .96-.06 1.38-.24v.9c-.48.18-.96.24-1.38.24zm1.38-6.18c-.06 0-.18.06-.24.12l-.9.9c-.24.24-.24.6 0 .78.24.18.6.24.78 0l.3-.3v2.4c-.42.18-.9.3-1.38.3-1.86 0-3.42-1.56-3.42-3.42 0-1.86 1.56-3.42 3.42-3.42.48 0 .96.12 1.38.3v2.34h.06zm17.4 4.32H12.54v-8.22c0-.18.12-.3.3-.3h15.72c.18 0 .3.12.3.3v8.22zM1.68 13.44h16.74c.3 0 .54.24.54.54v3.24H1.14v-3.24c0-.3.24-.54.54-.54zm-.54 20.88V18.36h17.88v2.1h-6.18c-.12 0-.18 0-.3.06-.78-.3-1.62-.48-2.46-.48-3.6 0-6.54 2.94-6.54 6.54s2.94 6.54 6.54 6.54c.54 0 1.08-.06 1.62-.18.24.42.72.66 1.2.66h5.28v1.38H1.68c-.3-.12-.54-.36-.54-.66zm33.18.54H23.34v-1.38h5.28c.78 0 1.44-.66 1.44-1.44v-10.2c0-.78-.66-1.44-1.44-1.44H20.1v-5.88h14.76v19.74c0 .36-.24.6-.54.6z"/></g><defs><clipPath id="clip0_578_8797"><path fill="#fff" d="M0 0h36v36H0z"/></clipPath></defs></svg>