<svg width="36" height="36" fill="none" xmlns="http://www.w3.org/2000/svg"><g clip-path="url(#clip0_578_8778)"><path d="M35.382 13.465L18.152.924a.635.635 0 00-.644 0L.219 13.465a.556.556 0 00-.117.762l2.403 3.34a.556.556 0 00.762.118l.586-.41v16.76c0 1.055.82 1.934 1.817 1.934h24.028c.996 0 1.816-.879 1.816-1.934V17.04l.82.586c.118.059.294.117.411.117.117 0 .293-.117.352-.234l2.402-3.34c.176-.176.118-.528-.117-.704zm-14.944 21.39h-5.509V26.3h5.509v8.556zm9.904-.82c0 .47-.293.82-.703.82h-8.087v-9.083a.587.587 0 00-.587-.586h-6.622a.587.587 0 00-.586.586v9.084H5.67c-.352 0-.704-.41-.704-.82V16.453l12.835-9.318 12.541 9.142v17.758zm2.169-17.58L18.152 5.963a.635.635 0 00-.644 0L3.09 16.454l-1.758-2.403L17.8 2.037l16.468 11.956-1.758 2.461zm-14.71 4.16c-.41 0-.762.176-1.055.41a1.486 1.486 0 000 2.11c.293.293.645.41 1.055.41.41 0 .762-.117 1.055-.41.293-.293.41-.645.41-1.055 0-.41-.176-.762-.41-1.055-.293-.293-.645-.41-1.055-.41zm.293 1.7c-.117.117-.41.117-.528 0-.117-.118-.117-.41 0-.528.118-.117.41-.117.528 0 .117.176.117.41 0 .527zm3.399-2.99c.234.235.234.587 0 .763a.532.532 0 01-.41.175.532.532 0 01-.41-.175 4.172 4.172 0 00-2.93-1.231c-1.114 0-2.11.41-2.931 1.23-.234.235-.586.235-.762 0-.234-.234-.234-.585 0-.761a5.138 5.138 0 013.692-1.524c1.465-.059 2.755.527 3.75 1.524zm2.051-2.11c.235.235.235.587 0 .763-.234.234-.586.234-.762 0a7.039 7.039 0 00-9.963 0 .532.532 0 01-.41.176c-.293 0-.586-.235-.586-.528 0-.176.059-.293.176-.41 3.223-3.165 8.38-3.165 11.545 0zm-5.743-5.274c2.93 0 5.743 1.173 7.794 3.224.235.234.235.586 0 .762-.234.234-.586.234-.762 0a9.938 9.938 0 00-7.032-2.93 9.938 9.938 0 00-7.033 2.93c-.234.234-.586.234-.762 0-.234-.235-.234-.586 0-.762a11.046 11.046 0 017.795-3.223z" fill="#0F4E41"/></g><defs><clipPath id="clip0_578_8778"><path fill="#fff" d="M0 0h36v36H0z"/></clipPath></defs></svg>