<svg width="36" height="36" viewBox="0 0 36 36" fill="none" xmlns="http://www.w3.org/2000/svg">
<path d="M34.3102 12.8758L18.1084 1.08266C17.9431 0.972446 17.6676 0.972446 17.5022 1.08266L1.24541 12.8758C1.02497 13.0411 0.969865 13.3717 1.13519 13.5922L3.39461 16.7333C3.55994 16.9537 3.89059 17.0089 4.11102 16.8435L4.6621 16.4578V32.2186C4.6621 33.2106 5.43361 34.0372 6.37044 34.0372H28.9647C29.9015 34.0372 30.673 33.2106 30.673 32.2186V16.2373L31.4446 16.7884C31.5548 16.8435 31.7201 16.8986 31.8303 16.8986C31.9405 16.8986 32.1059 16.7884 32.161 16.6782L34.4204 13.5371C34.5857 13.3717 34.5306 13.0411 34.3102 12.8758ZM20.2576 32.9902H15.0775V24.9444H20.2576V32.9902ZM29.5709 32.2186C29.5709 32.6595 29.2953 32.9902 28.9096 32.9902H21.3047V24.4484C21.3047 24.1729 21.0843 23.8973 20.7536 23.8973H14.5264C14.2509 23.8973 13.9753 24.1178 13.9753 24.4484V32.9902H6.37044C6.0398 32.9902 5.70915 32.6044 5.70915 32.2186V15.6863L17.7778 6.9241L29.5709 15.5209V32.2186ZM31.6099 15.6863L18.1084 5.82194C17.9431 5.71173 17.6676 5.71173 17.5022 5.82194L3.94569 15.6863L2.29246 13.4268L17.7778 2.12971L33.2631 13.3717L31.6099 15.6863ZM17.7778 19.5989C17.392 19.5989 17.0614 19.7643 16.7858 19.9847C16.2348 20.5358 16.2348 21.4175 16.7858 21.9686C17.0614 22.2441 17.392 22.3543 17.7778 22.3543C18.1635 22.3543 18.4942 22.2441 18.7697 21.9686C19.0453 21.693 19.1555 21.3624 19.1555 20.9766C19.1555 20.5909 18.9902 20.2602 18.7697 19.9847C18.4942 19.7091 18.1635 19.5989 17.7778 19.5989ZM18.0533 21.1971C17.9431 21.3073 17.6676 21.3073 17.5574 21.1971C17.4471 21.0868 17.4471 20.8113 17.5574 20.7011C17.6676 20.5909 17.9431 20.5909 18.0533 20.7011C18.1635 20.8664 18.1635 21.0868 18.0533 21.1971ZM21.2496 18.3866C21.47 18.607 21.47 18.9376 21.2496 19.103C21.1394 19.2132 21.0292 19.2683 20.8638 19.2683C20.6985 19.2683 20.5883 19.2132 20.4781 19.103C19.7617 18.3866 18.7697 17.9457 17.7227 17.9457C16.6756 17.9457 15.7388 18.3314 14.9673 19.103C14.7469 19.3234 14.4162 19.3234 14.2509 19.103C14.0304 18.8825 14.0304 18.5519 14.2509 18.3866C15.1877 17.4497 16.4001 16.9537 17.7227 16.9537C19.1004 16.8986 20.3128 17.4497 21.2496 18.3866ZM23.1784 16.4027C23.3988 16.6231 23.3988 16.9537 23.1784 17.1191C22.9579 17.3395 22.6273 17.3395 22.462 17.1191C19.8719 14.529 15.6837 14.529 13.0936 17.1191C12.9834 17.2293 12.8732 17.2844 12.7079 17.2844C12.4323 17.2844 12.1568 17.064 12.1568 16.7884C12.1568 16.6231 12.2119 16.5129 12.3221 16.4027C15.353 13.4268 20.2025 13.4268 23.1784 16.4027ZM17.7778 11.443C20.5332 11.443 23.1784 12.5451 25.1071 14.4739C25.3276 14.6943 25.3276 15.025 25.1071 15.1903C24.8867 15.4107 24.5561 15.4107 24.3907 15.1903C22.6273 13.4268 20.2576 12.4349 17.7778 12.4349C15.2979 12.4349 12.9283 13.4268 11.1648 15.1903C10.9444 15.4107 10.6138 15.4107 10.4484 15.1903C10.228 14.9699 10.228 14.6392 10.4484 14.4739C12.3772 12.5451 15.0224 11.443 17.7778 11.443Z" fill="white"/>
</svg>
