<svg width="36" height="36" viewBox="0 0 36 36" fill="none" xmlns="http://www.w3.org/2000/svg">
<g clip-path="url(#clip0_31_7635)">
<path d="M18.266 14.2207C19.0142 13.805 19.5962 12.8904 19.5962 11.9759C19.5962 10.5625 18.4322 9.39846 17.0188 9.39846C15.6054 9.39846 14.4414 10.5625 14.4414 11.9759C14.4414 12.8073 14.8571 13.5556 15.5223 14.0544" stroke="white" stroke-miterlimit="10" stroke-linecap="round" stroke-linejoin="round"/>
<path d="M18.8508 18.459C21.6776 17.6276 23.7562 15.0502 23.7562 11.9739C23.7562 8.23249 20.763 5.23936 17.0216 5.23936C13.2802 5.23936 10.2871 8.23249 10.2871 11.9739C10.2871 14.967 12.2825 17.5444 15.0262 18.3758" stroke="white" stroke-miterlimit="10" stroke-linecap="round" stroke-linejoin="round"/>
<path d="M26.4164 4.49167C25.5849 5.32309 24.3378 5.32309 23.5064 4.49167C22.675 3.66024 22.675 2.41311 23.5064 1.58169C24.3378 0.750264 25.5849 0.750264 26.4164 1.58169C27.2478 2.41311 27.2478 3.74339 26.4164 4.49167Z" stroke="white" stroke-miterlimit="10" stroke-linecap="round" stroke-linejoin="round"/>
<path d="M10.4515 22.3667C9.62009 23.1981 8.37296 23.1981 7.54154 22.3667C6.71011 21.5352 6.71011 20.2881 7.54154 19.4567C8.37296 18.6253 9.62009 18.6253 10.4515 19.4567C11.2829 20.2881 11.1998 21.5352 10.4515 22.3667Z" stroke="white" stroke-miterlimit="10" stroke-linecap="round" stroke-linejoin="round"/>
<path d="M18.8496 23.7812C24.5864 22.8667 28.993 17.9613 28.993 11.9751C28.993 9.23136 28.0784 6.73708 26.5818 4.74167" stroke="white" stroke-miterlimit="10" stroke-linecap="round" stroke-linejoin="round"/>
<path d="M16.2711 0.00313511C9.95227 0.335704 5.04688 5.57366 5.04688 11.9756C5.04688 14.7193 5.96144 17.2136 7.54114 19.209" stroke="white" stroke-miterlimit="10" stroke-linecap="round" stroke-linejoin="round"/>
<path d="M30.1573 36.002V27.272C30.1573 26.1912 29.3258 25.3597 28.245 25.3597C27.1641 25.3597 26.3327 26.1912 26.3327 27.272V25.7755C26.3327 24.6946 25.5013 23.8632 24.4204 23.8632C23.3396 23.8632 22.5082 24.6946 22.5082 25.7755C22.5082 24.6946 21.6768 23.8632 20.5959 23.8632C19.5151 23.8632 18.6836 24.6946 18.6836 25.7755V15.5489C18.6836 14.4681 17.8522 13.6367 16.7714 13.6367C15.6905 13.6367 14.8591 14.4681 14.8591 15.5489V32.3437L12.6142 28.6023C12.0322 27.6877 10.8683 27.3551 9.95369 27.9371C9.03912 28.436 8.70655 29.6 9.12227 30.5146L11.866 36.002" stroke="white" stroke-miterlimit="10" stroke-linecap="round" stroke-linejoin="round"/>
<path d="M18.8496 25.7753V29.4336" stroke="white" stroke-miterlimit="10" stroke-linecap="round" stroke-linejoin="round"/>
<path d="M22.5898 25.7779V29.6855" stroke="white" stroke-miterlimit="10" stroke-linecap="round" stroke-linejoin="round"/>
<path d="M26.332 27.2733V29.7676" stroke="white" stroke-miterlimit="10" stroke-linecap="round" stroke-linejoin="round"/>
</g>
<defs>
<clipPath id="clip0_31_7635">
<rect width="36" height="36" fill="white"/>
</clipPath>
</defs>
</svg>
