<svg width="36" height="36" viewBox="0 0 36 36" fill="none" xmlns="http://www.w3.org/2000/svg">
<path d="M25.2032 34.5261C24.8664 34.5261 24.6418 34.3016 24.6418 33.9648V33.3473L6.11681 33.2911C5.38703 33.2911 4.76953 32.6736 4.76953 31.9438V15.8888C4.76953 15.552 4.99408 15.3275 5.3309 15.3275C5.66771 15.3275 5.89226 15.552 5.89226 15.8888V31.9438C5.89226 32.0561 6.00453 32.1684 6.11681 32.1684H24.5857L24.6418 29.5861C24.5296 29.53 24.4173 29.4738 24.305 29.3616L18.6352 25.2075C16.3336 23.5234 14.7618 20.9411 14.425 18.0781C14.0882 15.2713 14.9302 12.4084 16.7827 10.2752L24.6418 1.01266L24.698 0.956527C24.9225 0.956527 25.0909 0.900391 25.2032 0.900391C25.3716 0.900391 25.5962 0.956527 25.7084 1.12494L33.5675 10.3875C35.42 12.5206 36.2621 15.3836 35.9253 18.1904C35.5884 21.0534 34.0728 23.6357 31.715 25.3197L26.0452 29.4738C25.933 29.53 25.8768 29.5861 25.7646 29.6423V32.2245L27.4487 32.2807C27.5048 32.2807 27.5609 32.2807 27.6171 32.2245C27.6732 32.1684 27.6732 32.1123 27.6732 32.0561V30.4282C27.6732 30.0913 27.8977 29.8668 28.2346 29.8668C28.5714 29.8668 28.7959 30.0913 28.7959 30.4282V32.0561C28.7959 32.7859 28.1784 33.4034 27.4487 33.4034H25.8207L25.7646 34.0209C25.7646 34.2454 25.54 34.5261 25.2032 34.5261ZM17.7371 11.1172C16.1091 13.0259 15.3232 15.552 15.6039 18.0781C15.8845 20.6043 17.288 22.9059 19.365 24.4216L24.698 28.295V23.355L20.0386 18.6956C19.8141 18.4711 19.8141 18.1343 20.0386 17.9097C20.1509 17.7975 20.2632 17.7413 20.4316 17.7413C20.6 17.7413 20.7123 17.7975 20.8246 17.9097L24.698 21.7831V16.787L21.2736 13.3065C21.0491 13.082 21.0491 12.7452 21.2736 12.5206C21.3859 12.4084 21.4982 12.3522 21.6666 12.3522C21.835 12.3522 21.9473 12.4084 22.0596 12.5206L24.698 15.159V8.64722C24.698 8.3104 24.9225 8.08586 25.2593 8.08586C25.5962 8.08586 25.8207 8.3104 25.8207 8.64722V15.1029L28.4591 12.4645C28.5714 12.3522 28.6837 12.2961 28.8521 12.2961C29.0205 12.2961 29.1328 12.3522 29.245 12.4645C29.4696 12.689 29.4696 13.0259 29.245 13.2504L25.8207 16.7309V21.7831L29.6941 17.9097C29.8064 17.7975 29.9187 17.7413 30.0871 17.7413C30.2555 17.7413 30.3678 17.7975 30.48 17.9097C30.7046 18.1343 30.7046 18.4711 30.48 18.6956L25.8207 23.355V28.2388L31.1537 24.3654C33.2307 22.8497 34.578 20.5481 34.9148 18.022C35.1955 15.4959 34.4657 12.9697 32.7816 11.0611L25.2032 2.24767L17.7371 11.1172Z" fill="white"/>
<path d="M0.561365 17.0688C0.392955 17.0688 0.224546 17.0127 0.168409 16.9004C-0.0561365 16.6197 -0.0561365 16.2829 0.168409 16.0584L5.44524 11.3429C5.3891 11.2306 5.3891 11.1184 5.3891 11.0622V6.29063C5.3891 5.95381 5.61365 5.72926 5.95046 5.72926C6.28728 5.72926 6.51183 5.95381 6.51183 6.29063V10.4447L16.1673 1.85585C16.448 1.6313 16.7848 1.46289 17.1778 1.46289C17.5707 1.46289 17.9075 1.57516 18.1882 1.85585L20.2091 3.65221C20.4337 3.87676 20.4337 4.21358 20.2653 4.43812C20.153 4.5504 19.9846 4.66267 19.8162 4.66267C19.7039 4.66267 19.5355 4.60653 19.4793 4.5504L17.5146 2.81017C17.4584 2.75403 17.3462 2.69789 17.2339 2.69789C17.1216 2.69789 17.0093 2.75403 16.9532 2.81017L0.95432 16.9004C0.842047 17.0127 0.673637 17.0688 0.561365 17.0688Z" fill="white"/>
</svg>
