<svg width="36" height="36" viewBox="0 0 36 36" fill="none" xmlns="http://www.w3.org/2000/svg">
<g clip-path="url(#clip0_34_7899)">
<path d="M19.559 11.1005C19.859 11.1005 20.099 10.8605 20.099 10.5605V5.52047C20.099 5.22047 19.859 4.98047 19.559 4.98047C19.259 4.98047 19.019 5.22047 19.019 5.52047V10.5605C18.959 10.8005 19.259 11.1005 19.559 11.1005ZM2.99898 16.0205H6.71898C7.01898 16.0205 7.25898 15.7805 7.25898 15.4805C7.25898 15.1805 7.01898 14.9405 6.71898 14.9405H2.99898C2.69898 14.9405 2.45898 15.1805 2.45898 15.4805C2.45898 15.7805 2.69898 16.0205 2.99898 16.0205ZM15.299 16.0205H17.159C17.459 16.0205 17.699 15.7805 17.699 15.4805C17.699 15.1805 17.459 14.9405 17.159 14.9405H15.299C14.999 14.9405 14.759 15.1805 14.759 15.4805C14.759 15.7805 14.999 16.0205 15.299 16.0205ZM11.459 16.0205H13.319C13.619 16.0205 13.859 15.7805 13.859 15.4805C13.859 15.1805 13.619 14.9405 13.319 14.9405H11.459C11.159 14.9405 10.919 15.1805 10.919 15.4805C10.919 15.7805 11.159 16.0205 11.459 16.0205ZM7.79898 26.5205C7.55898 26.7605 7.55898 27.1205 7.79898 27.3005C8.03898 27.5405 8.39898 27.5405 8.57899 27.3005L10.859 25.0205C11.099 24.7805 11.099 24.4205 10.859 24.2405C10.619 24.0605 10.259 24.0005 10.079 24.2405L7.79898 26.5205ZM21.719 22.9805C21.479 22.7405 21.119 22.7405 20.939 22.9805L16.619 27.3005C16.379 27.5405 16.379 27.9005 16.619 28.0805C16.859 28.3205 17.219 28.3205 17.399 28.0805L21.719 23.7605C21.959 23.5805 21.959 23.2205 21.719 22.9805ZM22.739 24.5405L20.459 26.8205C20.219 27.0605 20.219 27.4205 20.459 27.6005C20.699 27.8405 21.059 27.8405 21.239 27.6005L23.519 25.3205C23.759 25.0805 23.759 24.7205 23.519 24.5405C23.339 24.3605 22.979 24.3605 22.739 24.5405Z" fill="white"/>
<path d="M34.32 0H17.64C16.68 0 15.96 0.78 15.96 1.68V12.24H1.68C0.72 12.24 0 13.02 0 13.92V34.26C0 35.22 0.78 36 1.68 36H34.32C35.28 36 36 35.22 36 34.32V1.68C36 0.78 35.22 0 34.32 0ZM17.1 1.68C17.1 1.38 17.34 1.14 17.64 1.14H34.32C34.62 1.14 34.86 1.38 34.86 1.68V13.38H20.04C19.8 12.72 19.2 12.24 18.42 12.24H17.1V1.68ZM22.2 34.86H19.26V33.48H22.2V34.86ZM22.74 32.34H12.84C12.66 32.34 12.54 32.22 12.54 32.04V31.2H28.86V32.1C28.86 32.28 28.74 32.4 28.56 32.4H22.74V32.34ZM10.08 31.92C7.08 31.92 4.68 29.52 4.68 26.52C4.68 23.52 7.08 21.12 10.08 21.12C10.62 21.12 11.1 21.18 11.58 21.3C11.52 21.48 11.46 21.66 11.46 21.84V22.14C11.04 22.02 10.56 21.9 10.08 21.9C7.56 21.9 5.52 23.94 5.52 26.46C5.52 28.98 7.56 31.02 10.08 31.02C10.56 31.02 11.04 30.96 11.46 30.78V31.68C10.98 31.86 10.5 31.92 10.08 31.92ZM11.46 25.74C11.4 25.74 11.28 25.8 11.22 25.86L10.32 26.76C10.08 27 10.08 27.36 10.32 27.54C10.56 27.72 10.92 27.78 11.1 27.54L11.4 27.24V29.64C10.98 29.82 10.5 29.94 10.02 29.94C8.16 29.94 6.6 28.38 6.6 26.52C6.6 24.66 8.16 23.1 10.02 23.1C10.5 23.1 10.98 23.22 11.4 23.4V25.74H11.46ZM28.86 30.06H12.54V21.84C12.54 21.66 12.66 21.54 12.84 21.54H28.56C28.74 21.54 28.86 21.66 28.86 21.84V30.06ZM1.68 13.44H18.42C18.72 13.44 18.96 13.68 18.96 13.98V17.22H1.14V13.98C1.14 13.68 1.38 13.44 1.68 13.44ZM1.14 34.32V18.36H19.02V20.46H12.84C12.72 20.46 12.66 20.46 12.54 20.52C11.76 20.22 10.92 20.04 10.08 20.04C6.48 20.04 3.54 22.98 3.54 26.58C3.54 30.18 6.48 33.12 10.08 33.12C10.62 33.12 11.16 33.06 11.7 32.94C11.94 33.36 12.42 33.6 12.9 33.6H18.18V34.98H1.68C1.38 34.86 1.14 34.62 1.14 34.32ZM34.32 34.86H23.34V33.48H28.62C29.4 33.48 30.06 32.82 30.06 32.04V21.84C30.06 21.06 29.4 20.4 28.62 20.4H20.1V14.52H34.86V34.26C34.86 34.62 34.62 34.86 34.32 34.86Z" fill="white"/>
</g>
<defs>
<clipPath id="clip0_34_7899">
<rect width="36" height="36" fill="white"/>
</clipPath>
</defs>
</svg>
