<svg width="36" height="36" viewBox="0 0 36 36" fill="none" xmlns="http://www.w3.org/2000/svg">
<g clip-path="url(#clip0_34_7887)">
<path d="M17.9051 32.2224C16.8152 32.2224 15.7726 31.8906 14.8722 31.322C14.114 30.8007 13.2136 30.5164 12.2659 30.5164H12.0763C11.1285 30.5164 10.2281 30.8007 9.46992 31.322C8.56954 31.8906 7.52699 32.2224 6.43705 32.2224H6.2001C5.11016 32.2224 4.06761 31.8906 3.16723 31.322C2.40901 30.8007 1.50862 30.5164 0.560852 30.5164H0.466074C0.229131 30.5164 -0.0078125 30.2794 -0.0078125 30.0425C-0.0078125 29.7582 0.229131 29.5686 0.466074 29.5686H0.560852C1.65079 29.5686 2.69334 29.9003 3.59373 30.469C4.35194 30.9903 5.25233 31.2746 6.2001 31.2746H6.38966C7.33743 31.2746 8.23781 30.9903 8.99603 30.469C9.89642 29.9003 10.939 29.5686 12.0289 29.5686H12.2659C13.3558 29.5686 14.3983 29.9003 15.2987 30.469C16.0569 30.9903 16.9573 31.2746 17.9051 31.2746H18.0947C19.0424 31.2746 19.9428 30.9903 20.701 30.469C21.6488 29.9003 22.7387 29.5686 23.8287 29.5686C24.9186 29.5686 26.056 29.9003 26.9563 30.469C27.7619 30.9903 28.7097 31.2746 29.6575 31.2746C30.6053 31.2746 31.553 30.9903 32.3586 30.469C33.259 29.8529 34.3016 29.5686 35.3915 29.5686H35.4863C35.7706 29.5686 35.9602 29.8055 35.9602 30.0425C35.9602 30.3268 35.7232 30.5164 35.4863 30.5164H35.3915C34.4437 30.5164 33.5434 30.8007 32.7851 31.322C31.8374 31.8906 30.7474 32.2224 29.6575 32.2224C28.5676 32.2224 27.4302 31.8906 26.5298 31.322C25.7242 30.8007 24.7765 30.5164 23.8287 30.5164C22.8809 30.5164 21.9331 30.8007 21.1275 31.322C20.2271 31.938 19.1846 32.2224 18.0947 32.2224H17.9051ZM6.24749 27.1044C5.15755 27.1044 4.115 26.7727 3.21462 26.204C2.69334 25.8249 2.07729 25.588 1.46124 25.4932H1.41385H1.36646C1.08213 25.4458 0.797795 25.4458 0.513463 25.4458C0.229131 25.4458 -0.0078125 25.2088 -0.0078125 24.9719C-0.0078125 24.6876 0.229131 24.498 0.466074 24.498C0.750406 24.498 1.03474 24.498 1.31907 24.5454H1.46124L12.645 17.9584L10.8442 14.7833C10.7968 14.736 10.7494 14.6412 10.7494 14.5938C10.4177 13.883 10.3703 13.03 10.6546 12.2717C10.939 11.5135 11.4602 10.8975 12.2185 10.5657L24.35 4.73694C24.6817 4.59478 25.0608 4.5 25.4399 4.5C26.2455 4.5 27.0511 4.87911 27.525 5.54255C27.6198 5.68472 27.7146 5.77949 27.7619 5.92166C28.4254 7.20115 27.8567 8.76498 26.5772 9.42842L17.4786 13.9777L24.6817 24.4506L24.8238 24.498C25.5821 24.6402 26.3403 24.9245 27.0037 25.351C27.7619 25.8723 28.6623 26.1566 29.6101 26.1566H29.7049H29.847C30.4157 26.1566 30.9844 26.0618 31.5056 25.8249C31.79 25.6827 32.1217 25.5406 32.406 25.351C33.0695 24.9245 33.8751 24.6402 34.6333 24.498C34.9176 24.4506 35.202 24.4506 35.4863 24.4506H35.5337C35.818 24.4506 36.0076 24.6876 36.0076 24.9245C36.0076 25.1615 35.7706 25.3984 35.5337 25.3984H35.4863C34.5385 25.3984 33.6381 25.6827 32.8325 26.204C32.5482 26.3936 32.2165 26.5831 31.8848 26.7253C31.2213 27.0096 30.5579 27.1518 29.847 27.1518H29.6101C28.5202 27.1518 27.4776 26.8201 26.5772 26.2514C25.819 25.7301 24.9186 25.4458 23.9708 25.4458H23.7813C22.8335 25.4458 21.9805 25.7301 21.1749 26.2514C20.2745 26.8201 19.232 27.1518 18.142 27.1518H17.9051C16.8152 27.1518 15.7726 26.8201 14.8722 26.2514C14.114 25.7301 13.2136 25.4458 12.2659 25.4458H12.0763C11.1285 25.4458 10.2755 25.7301 9.46992 26.2514C8.56954 26.8675 7.52699 27.1518 6.48443 27.1518H6.24749V27.1044ZM6.48443 26.1566C7.38482 26.1566 8.2852 25.8723 9.04342 25.351C9.9912 24.735 10.9864 24.4506 12.0763 24.4506H12.3132C13.4032 24.4506 14.4457 24.7823 15.2987 25.351C16.0569 25.8723 16.9573 26.1566 17.9051 26.1566H18.0947C19.0424 26.1566 19.8954 25.8723 20.701 25.351C21.3645 24.9245 22.0753 24.6402 22.8809 24.498L23.4496 24.4032L16.9099 14.8781C16.673 14.5464 16.6256 14.1673 16.7204 13.7882C16.8152 13.4091 17.0521 13.1247 17.4312 12.9352L26.2455 8.52804C26.672 8.33848 27.0037 7.91198 27.0985 7.4381C27.1933 7.05899 27.1459 6.67988 27.0037 6.34816C26.672 5.77949 26.1033 5.44777 25.4873 5.44777C25.2503 5.44777 25.0134 5.49516 24.7765 5.58994L12.5976 11.3714C12.5502 11.3714 12.5028 11.4187 12.4554 11.4661C11.4602 12.0348 11.1285 13.3143 11.6972 14.3095L13.3084 17.1528C13.6875 17.7688 13.4506 18.5744 12.8345 18.9535L2.78812 24.8297L3.30939 25.1141C3.45156 25.1615 3.54634 25.2562 3.6885 25.3036C4.44672 25.8249 5.34711 26.1092 6.24749 26.1092H6.34227L6.48443 26.1566Z" fill="white"/>
<path d="M29.5626 22.84C26.4823 22.84 23.9707 20.3284 23.9707 17.2481C23.9707 14.1678 26.4823 11.6562 29.5626 11.6562C32.6428 11.6562 35.1544 14.1678 35.1544 17.2481C35.1544 20.3284 32.6428 22.84 29.5626 22.84ZM29.5626 12.604C27.0036 12.604 24.9185 14.6891 24.9185 17.2481C24.9185 19.8071 27.0036 21.8922 29.5626 21.8922C32.1216 21.8922 34.2067 19.8071 34.2067 17.2481C34.2067 14.6891 32.1216 12.604 29.5626 12.604Z" fill="white"/>
</g>
<defs>
<clipPath id="clip0_34_7887">
<rect width="36" height="36" fill="white"/>
</clipPath>
</defs>
</svg>
