<svg width="36" height="36" viewBox="0 0 36 36" fill="none" xmlns="http://www.w3.org/2000/svg">
<g clip-path="url(#clip0_31_7593)">
<path d="M18.0186 14.412C15.5096 14.412 13.4785 12.3787 13.4785 9.86712C13.4785 7.35549 15.5096 5.32227 18.0186 5.32227C20.5277 5.32227 22.5588 7.35549 22.5588 9.86712C22.5588 12.3787 20.5277 14.412 18.0186 14.412ZM18.0186 6.51828C16.1667 6.51828 14.6733 8.0133 14.6733 9.86712C14.6733 11.7209 16.1667 13.216 18.0186 13.216C19.8705 13.216 21.364 11.7209 21.364 9.86712C21.364 8.0133 19.8705 6.51828 18.0186 6.51828Z" fill="white"/>
<path d="M0.634809 36C0.57507 36 0.515332 36 0.395855 35.9402C0.0971624 35.8206 -0.0820531 35.4618 0.0374239 35.1628L4.39833 23.9203C4.45807 23.6811 4.69703 23.5615 4.93598 23.5615H12.9409L12.8812 23.4419C9.71506 18.2392 8.16186 13.6944 8.16186 9.92691C8.16186 4.42525 12.5825 0 18.0187 0C20.6472 0 23.0965 1.01661 25.0081 2.87043C26.86 4.72425 27.8756 7.23588 27.8756 9.86711C27.8756 13.6346 26.3224 18.1794 23.1562 23.3821L23.0965 23.5017H31.1014C31.3404 23.5017 31.5794 23.6811 31.6391 23.8605L35.9403 35.1628C35.9403 35.2226 36 35.2824 36 35.402C36 35.701 35.761 36 35.4026 36H0.634809ZM29.9664 34.8638H34.5663L31.7586 27.5083L25.9042 29.6013L29.9664 34.8638ZM28.4729 34.804L24.7692 29.9601L14.972 33.4884L11.2085 34.804H28.4729ZM7.68395 34.804L13.7773 32.6512L7.68395 24.6977H5.35415L1.47115 34.804H7.68395ZM14.972 32.2326L31.3404 26.3721L30.6833 24.6977H22.3199C21.1251 26.5515 19.8109 28.3455 18.4369 30.0199L18.3771 30.0797C18.2577 30.1993 18.1382 30.1993 18.0187 30.1993C17.8395 30.1993 17.6603 30.1395 17.5408 30.0199C16.1668 28.3455 14.8526 26.5515 13.6578 24.6977H9.17741L14.972 32.2326ZM18.0187 1.19601C13.2396 1.19601 9.35663 5.08306 9.35663 9.86711C9.29689 17.1628 15.9279 26.0731 18.0187 28.7641C20.1096 26.1329 26.7405 17.2226 26.6808 9.86711C26.6808 7.53488 25.7847 5.38206 24.1718 3.70764C22.4991 2.09302 20.3485 1.19601 18.0187 1.19601Z" fill="white"/>
</g>
<defs>
<clipPath id="clip0_31_7593">
<rect width="36" height="36" fill="white"/>
</clipPath>
</defs>
</svg>
