<svg width="160" height="41" fill="none" xmlns="http://www.w3.org/2000/svg"><g style="mix-blend-mode:luminosity" opacity=".2" clip-path="url(#clip0_578_7208)"><path d="M50.037 15.457V32.05h-4.039V15.457h4.04zm2.545 0h5.035l4.26 10.261h.222l4.26-10.261h5.035V32.05h-3.928V21.843H67.3l-4.04 10.098h-2.545l-4.039-10.152h-.166v10.26h-3.928V15.458zM73.94 32.05V15.457h6.916c1.272 0 2.323.218 3.264.71a4.974 4.974 0 012.102 2.02c.498.872.72 1.855.72 3.001s-.277 2.129-.775 3.002c-.498.873-1.217 1.528-2.158 1.965-.94.491-2.047.71-3.32.71h-4.26v-3.166h3.541c.609 0 1.107-.11 1.55-.328.442-.218.719-.49.94-.873a2.57 2.57 0 00.332-1.31c0-.491-.11-.982-.332-1.31-.221-.382-.553-.655-.94-.873-.443-.218-.941-.328-1.55-.328h-1.992V32.05H73.94zm15.048 0V15.457h11.73v3.275h-7.635v3.384h7.082v3.275h-7.082v3.384h7.635v3.275h-11.73zm14.276 0V15.457h6.916c1.272 0 2.324.218 3.264.655.941.437 1.605 1.092 2.103 1.91.498.82.719 1.802.719 2.948s-.277 2.128-.775 2.947-1.217 1.42-2.157 1.856c-.941.437-2.048.6-3.32.6h-4.371v-3.165h3.652c.608 0 1.106-.055 1.549-.219.387-.163.719-.382.94-.71.222-.327.332-.763.332-1.255 0-.49-.11-.928-.332-1.255a2.154 2.154 0 00-.94-.764 4.362 4.362 0 00-1.549-.273h-1.992V32.05h-4.039zm9.461-7.587l4.205 7.587h-4.426l-4.095-7.587h4.316zm9.904-9.006V32.05h-4.039V15.457h4.039zm6.14 16.593h-4.371l5.644-16.593h5.422l5.699 16.593h-4.371l-3.928-12.39h-.111l-3.984 12.39zm-.553-6.55h9.129v3.057h-9.129V25.5zm14.772 6.55V15.457h4.039v13.318h6.972v3.275h-11.011z" fill="#0F4E41"/><path d="M5.078 19.982v21.019H0V24.53l5.078-4.549z" fill="#D9D9D9"/><path d="M5.078 19.982v21.019h5.02V23.495l-5.02-3.513z" fill="#0F4E41"/><path d="M15.002 11.459v29.54H8.289V17.68l6.713-6.22z" fill="#D9D9D9"/><path d="M15.002 11.459v29.54h6.771V16.124l-6.771-4.664z" fill="#0F4E41"/><path d="M27.493 0v41h-9.106V9.386L27.493 0z" fill="#D9D9D9"/><path d="M27.492 0v41h9.048V9.386L27.492 0z" fill="#0F4E41"/></g><defs><clipPath id="clip0_578_7208"><path fill="#fff" d="M0 0h160v41H0z"/></clipPath></defs></svg>