<svg width="155" height="32" fill="none" xmlns="http://www.w3.org/2000/svg"><path d="M31.242.023l-7.81 5.662-7.81-5.662L0 11.396v20.58h9.07v-3.808H3.83V13.3l11.79-8.567 4.535 3.306-4.585 3.307v20.58h15.671v-20.53l-4.535-3.357 4.535-3.306L43.034 13.3v14.818h-5.695v3.808h9.524v-20.53L31.243.023zM27.412 13.3v14.818h-7.961V13.3l3.98-2.906 3.982 2.906zM70.08 9.611v15.893h-3.294l-6.331-9.174h-.13v9.174H56.45V9.611h3.295l6.267 9.174h.129V9.611h3.94zm2.39 15.893V9.611h11.113v3.101h-7.236v3.295h6.654v3.101h-6.654v3.295h7.236v3.101H72.47zm22.161-11.112c-.064-.581-.258-1.033-.71-1.356-.388-.323-.97-.452-1.745-.452-.517 0-.904.064-1.227.193-.323.13-.582.323-.775.517-.194.194-.259.452-.259.775 0 .259.065.453.13.646.129.194.258.323.451.453.194.129.453.258.711.387.259.13.646.194.97.259l1.356.323c.775.194 1.486.387 2.067.71.582.259 1.099.646 1.55 1.034.388.388.712.84.905 1.357.194.517.323 1.098.323 1.744 0 1.034-.258 1.874-.775 2.584s-1.227 1.292-2.197 1.68c-.969.388-2.067.581-3.424.581-1.356 0-2.52-.193-3.488-.581a5.42 5.42 0 01-2.326-1.809c-.582-.84-.84-1.873-.84-3.101h3.683c0 .517.193.97.387 1.292a2.57 2.57 0 001.034.775c.452.194.904.259 1.486.259.517 0 .969-.065 1.356-.194.388-.13.647-.323.84-.581.194-.259.323-.517.323-.84a1.39 1.39 0 00-.258-.776c-.13-.193-.452-.387-.84-.581-.388-.13-.84-.323-1.421-.452l-1.68-.388c-1.357-.323-2.455-.84-3.23-1.55-.775-.711-1.163-1.68-1.163-2.843 0-.97.258-1.873.775-2.584.517-.71 1.292-1.292 2.197-1.744.969-.388 2.003-.647 3.23-.647 1.228 0 2.326.194 3.23.647.905.387 1.615 1.033 2.132 1.744.517.775.775 1.615.775 2.584h-3.553v-.065zm9.071 11.112L99.051 9.611h4.264l2.39 10.402h.129l2.714-10.402h3.488l2.714 10.466h.129l2.39-10.466h4.264l-4.587 15.893h-3.682l-2.843-9.626h-.129l-2.907 9.626h-3.683zm23.325-15.893v15.893h-3.877V9.611h3.877zm11.048 4.781c-.065-.581-.259-1.033-.711-1.356-.388-.323-.969-.452-1.744-.452-.517 0-.905.064-1.228.193-.323.13-.581.323-.775.517-.194.194-.259.452-.259.775 0 .259.065.453.13.646.129.194.258.323.452.453.194.129.452.258.711.387.258.13.646.194.969.259l1.356.323c.776.194 1.486.387 2.068.71.581.259 1.098.646 1.55 1.034.388.388.711.84.905 1.357a4.95 4.95 0 01.323 1.744c0 1.034-.259 1.874-.776 2.584-.516.71-1.227 1.292-2.196 1.68-.969.388-2.068.581-3.424.581-1.357 0-2.52-.193-3.489-.581a5.425 5.425 0 01-2.326-1.809c-.581-.84-.84-1.873-.84-3.101h3.683c0 .517.194.97.388 1.292.258.323.581.582 1.033.775.452.194.905.259 1.486.259.517 0 .969-.065 1.357-.194.388-.13.646-.323.84-.581.194-.259.323-.517.323-.84a1.38 1.38 0 00-.259-.776c-.129-.193-.452-.387-.84-.581-.387-.13-.839-.323-1.421-.452l-1.68-.388c-1.356-.323-2.455-.84-3.23-1.55-.775-.711-1.163-1.68-1.163-2.843 0-.97.259-1.873.776-2.584.516-.71 1.292-1.292 2.196-1.744.969-.388 2.003-.647 3.23-.647 1.228 0 2.326.194 3.231.647.904.387 1.615 1.033 2.132 1.744.516.775.775 1.615.775 2.584h-3.553v-.065zm5.814 11.112V9.611h11.112v3.101h-7.236v3.295h6.654v3.101h-6.654v3.295h7.236v3.101h-11.112z" fill="#CCC"/></svg>