<svg width="160" height="41" fill="none" xmlns="http://www.w3.org/2000/svg"><g style="mix-blend-mode:luminosity" opacity=".2" fill="#0F4E41"><path d="M56.55 29.708V11.465h12.756v3.56h-8.38v3.782h7.639v3.56h-7.639v3.781h8.306v3.56H56.551zm24.399-12.756c-.074-.667-.297-1.186-.816-1.557-.52-.37-1.112-.519-2.002-.519-.594 0-1.039.074-1.41.222-.37.149-.667.371-.89.594-.222.222-.296.519-.296.89 0 .296.074.519.148.741.149.223.297.371.52.52.222.148.519.296.815.444.297.149.742.223 1.113.297l1.557.37c.89.223 1.706.446 2.373.816.668.371 1.26.742 1.78 1.187.52.445.816.964 1.112 1.557.297.594.371 1.261.371 2.003 0 1.186-.296 2.15-.89 2.966-.593.816-1.409 1.483-2.521 1.928-1.113.445-2.373.668-3.93.668-1.558 0-2.893-.223-4.005-.668-1.113-.445-2.003-1.186-2.67-2.076-.445-1.038-.742-2.225-.816-3.708h4.227c0 .593.223 1.112.445 1.483.297.37.668.668 1.187.89.519.222 1.038.297 1.706.297.593 0 1.112-.075 1.557-.223.445-.148.742-.37.964-.667.222-.297.37-.594.37-.964 0-.371-.148-.668-.296-.89-.222-.223-.519-.445-.964-.668-.445-.148-.964-.37-1.632-.519l-1.928-.445c-1.557-.37-2.818-.964-3.708-1.78-.89-.815-1.335-1.928-1.335-3.263 0-1.112.297-2.15.89-2.966.594-.816 1.484-1.483 2.522-2.002 1.112-.445 2.299-.742 3.708-.742 1.409 0 2.67.222 3.708.742 1.038.444 1.854 1.112 2.447 2.002.593.89.89 1.854.89 2.966h-4.301v.074zm5.117-1.928v-3.56h15.426v3.56H95.93v14.684h-4.376V15.025h-5.488zm18.243 14.684h-4.746l6.155-18.243h5.858l6.156 18.243h-4.747l-4.301-13.645h-.148l-4.227 13.645zm-.594-7.193h9.938v3.337h-9.938v-3.337zm12.164-7.491v-3.56h15.425v3.56h-5.562v14.684h-4.375V15.025h-5.488zm20.987-3.559v18.243h-4.45V11.465h4.45zm5.71 18.243h-4.746l6.155-18.243h5.859l6.155 18.243h-4.672l-4.301-13.645h-.148l-4.302 13.645zm-.593-7.193h9.937v3.337h-9.937v-3.337zM7.007 3L3 6.6v4.482L12.033 3H7.007zm9.17 0L3 14.75v4.483L21.203 3h-5.026zm20.919 12.43V7.21h-4.754v4.008l-8.15-7.268L3 22.901v9.305c18.203-16.3 9.305-8.286 20.104-17.999l20.173 17.999V20.931l-6.181-5.501z"/><path d="M30.44 24.463h-5.366v5.366h5.366v-5.366zm-8.965 0H16.11v5.366h5.366v-5.366zm8.965 8.49h-5.366v5.366h5.366v-5.366zm-8.965 0H16.11v5.366h5.366v-5.366z"/></g></svg>